<?xml version="1.0" encoding="UTF-8"?>
<svg viewBox="0 0 36 36" version="1.1" xmlns="http://www.w3.org/2000/svg" xmlns:xlink="http://www.w3.org/1999/xlink">
  <g stroke="currentColor" stroke-width="1" fill="currentColor" fill-rule="evenodd">
    <path d="M11.396803,21.5307157 L29.5794784,29.0625787 C27.4999432,34.082878 21.7435691,36.4678737 16.7225627,34.3883385 C11.7015564,32.3080962 9.31726776,26.551722 11.396803,21.5307157 L11.396803,21.5307157 Z M0.663120329,17.6375796 C2.49800436,13.2069888 7.57699163,11.1034127 12.0075825,12.9382967 L12.0075825,12.9382967 L5.36240328,28.9820418 C0.931812403,27.1471578 -1.1717637,22.0674634 0.663120329,17.6375796 Z M28.8496966,0.75 C34.7573868,3.19721912 37.5623906,9.96967354 35.1158786,15.8773637 C32.6686595,21.7843468 25.8962051,24.5900578 19.9885149,22.1428386 L19.9885149,22.1428386 Z M6.69511596,7.78987374 C8.28605587,3.95040543 12.6876563,2.12683475 16.5271246,3.71706758 C20.3665929,5.30800748 22.1901636,9.7096079 20.5999308,13.5490762 L20.5999308,13.5490762 Z" id="Demex-Symbol"></path>
  </g>
</svg>