<?xml version="1.0" encoding="UTF-8"?>
<svg viewBox="0 0 24 24" version="1.1" xmlns="http://www.w3.org/2000/svg" xmlns:xlink="http://www.w3.org/1999/xlink">
    <path d="M1.42108547e-14,9.22980132 L2.4,7.84701987 L7.2,10.6125828 L9.6,12.0112583 L19.2,17.5423841 L16.8,18.9410596 L12,21.7066225 L7.2,18.9410596 L4.8,17.5423841 L4.8,14.7768212 L9.6,17.5423841 L12,18.9410596 L14.4,17.5423841 L4.8,12.0112583 L2.4,10.6125828 L1.42108547e-14,9.22980132 Z M12,2.3 L14.4,3.6986755 L19.2,6.46423841 L19.2,9.22980132 L12,5.08145695 L9.6,6.46423841 L16.8,10.6125828 L19.2,12.0112583 L24,14.7768212 L21.6,16.1596026 L14.4,12.0112583 L12,10.6125828 L4.8,6.46423841 L9.6,3.6986755 L12,2.3 Z" id="Zilswap-Logo-Symbol" fill="#063C4F"></path>
</svg>
