<svg xmlns="http://www.w3.org/2000/svg" viewBox="0 0 321 46">
  <defs><style>.cls-1{fill:#063c4f;fill-rule:evenodd;}</style></defs>
  <path class="cls-1" d="M298.8,7.86c-8.27,0-12.53,6.26-12.53,15.23v.61c.15,5.37,2.41,14.44,12.52,14.44,8.14,0,12.41-6.32,12.41-15.11S307.07,7.86,298.8,7.86Zm-23.12-7v7.8H251.32v9.66h22.52v7.55H251.32V37.33h25v7.8H241.77V.87Zm-64.41,0V18.08h18.19V.87h9.61V45.13h-9.61V25.88H211.27V45.13h-9.61V.87Zm-55.64,0V45.13H147V16.31L118.18,45.06l-6.8-6.78L140.17,9.53H111.31V.87Zm-47.34,0V45.13h-9.6V.87ZM45.92.87,53,31.51h.07L61.12.87H71.3L79.19,32h.06L86.44.87H96L84.34,45.13H74.48L67.67,19.5l-1.59-6.37H66L64.43,19.5,57.75,45.13h-10L36.25.87ZM18.32,0C28.61,0,35.87,4.52,36.18,13.44v.37l-9.41.24C26.21,9.17,23,7.43,18.13,7.43c-3.63,0-7.32,1.42-7.32,4.71,0,1.67.7,2.72,3.18,3.65,3.57,1.36,13.36,3.4,17.43,5.63,3.69,2,6.17,5.39,6.17,10.71,0,9.47-8,13.87-18.51,13.87S.7,41.11,0,31l0-.4,9.29-.43c.38,5.88,4.32,8.3,10,8.3,4.14,0,8.91-1.74,8.91-5.76,0-2.6-1.85-4.09-5.6-5.14l-3.85-1c-4.6-1.24-10.54-3-12.94-5a10.48,10.48,0,0,1-4.2-8.78C1.59,5,8.91,0,18.32,0ZM298.74,0c14.1,0,22.09,9.82,22.26,22.75v.4C321,30.83,316.93,46,298.8,46c-12.78,0-22.26-8.36-22.26-22.78C276.54,10.65,284.11,0,298.74,0ZM180,0c9.46,0,17.07,4.93,19,14l.08.4-9.42,1.06c-.82-4.52-4.83-7.56-9.73-7.56-7.88,0-11.89,5.89-11.89,15.05s4,15.17,11.77,15.17c5.42,0,8.95-3.4,10.17-9.3l.07-.36,9.28,1.36C197.33,40.12,189.88,46,179.9,46c-13.42,0-21.56-9.66-21.56-22.72C158.34,10,166.29,0,180,0Z"/>
</svg>