<?xml version="1.0" encoding="UTF-8"?>
<svg viewBox="0 0 316 46" version="1.1" xmlns="http://www.w3.org/2000/svg" xmlns:xlink="http://www.w3.org/1999/xlink">
  <g stroke="none" stroke-width="1" fill="none" fill-rule="evenodd">
    <path d="M293.997,1.77635684e-14 C307.971,1.77635684e-14 315.833,9.847 315.833,22.734 C315.833,30.272 311.84,45.165 294.059,45.165 C281.519,45.165 272.223,36.958 272.223,22.795 C272.223,10.455 279.647,1.77635684e-14 293.997,1.77635684e-14 Z M294.059,7.72 C285.949,7.72 281.769,13.859 281.769,22.673 C281.769,27.84 283.764,37.444 294.059,37.444 C302.045,37.444 306.225,31.244 306.225,22.612 C306.225,13.859 302.169,7.72 294.059,7.72 Z"></path>
    <polygon points="238.096 44.313 271.974 44.313 271.974 36.654 247.455 36.654 247.455 25.409 269.541 25.409 269.541 17.993 247.455 17.993 247.455 8.509 271.35 8.509 271.35 0.851 238.096 0.851"></polygon>
    <polygon points="226.035 44.313 235.454 44.313 235.454 0.851 226.035 0.851 226.035 17.749 208.191 17.749 208.191 0.851 198.77 0.851 198.77 44.313 208.191 44.313 208.191 25.409 226.035 25.409"></polygon>
    <path d="M165.874,22.551 C165.874,13.555 169.804,7.78 177.54,7.78 C182.345,7.78 186.276,10.759 187.087,15.197 L196.321,14.163 C194.573,4.985 187.024,0 177.604,0 C164.127,0 156.328,9.847 156.328,22.855 C156.328,35.681 164.314,45.165 177.478,45.165 C187.273,45.165 194.573,39.39 196.569,29.299 L187.461,27.962 C186.338,33.979 182.844,37.444 177.416,37.444 C169.804,37.444 165.874,31.67 165.874,22.551 L165.874,22.551 Z"></path>
    <polygon points="144.83 44.313 153.788 44.313 153.788 9.579 153.788 0.851 144.83 0.851 109.18 0.851 109.18 9.579 138.168 9.579 109.18 37.823 115.842 44.313 144.83 16.069"></polygon>
    <polygon points="96.798 44.313 106.219 44.313 106.219 0.851 96.798 0.851"></polygon>
    <polygon points="82.723 44.313 94.141 0.851 84.782 0.851 77.732 31.366 77.669 31.366 69.933 0.851 59.951 0.851 52.028 30.94 51.965 30.94 45.04 0.851 35.557 0.851 46.787 44.313 56.645 44.313 63.195 19.148 64.693 12.887 64.818 12.887 66.377 19.148 73.053 44.313"></polygon>
    <path d="M26.266,13.798 L35.499,13.555 C35.375,4.559 28.2,0 17.968,0 C8.735,0 1.56,4.862 1.56,12.522 C1.56,16.352 2.995,18.965 5.677,21.154 C8.797,23.706 17.968,25.894 22.148,27.049 C25.829,28.084 27.638,29.543 27.638,32.095 C27.638,36.046 22.959,37.748 18.904,37.748 C13.351,37.748 9.483,35.378 9.109,29.603 L0,30.028 C0.499,40.24 8.111,45.165 18.717,45.165 C29.074,45.165 36.872,40.848 36.872,31.547 C36.872,26.32 34.439,22.978 30.821,21.032 C26.828,18.844 17.219,16.838 13.726,15.501 C11.293,14.589 10.606,13.555 10.606,11.914 C10.606,8.692 14.225,7.294 17.781,7.294 C22.585,7.294 25.705,8.996 26.266,13.798 L26.266,13.798 Z"></path>
  </g>
</svg>