<svg xmlns="http://www.w3.org/2000/svg" viewBox="0 0 48 48"><defs><style>.a{fill:none;}.b{fill:#063c4f;}</style></defs><title>Asset 8</title><rect class="a" width="48" height="48"/><path class="b" d="M16.37,21.94h0a4.35,4.35,0,1,0,4.2,4.33A4.27,4.27,0,0,0,16.36,22Zm15,0h0a4.35,4.35,0,1,0,4.2,4.33A4.28,4.28,0,0,0,31.39,22ZM17.46,7.57l.45.44C10.61,9.75,7.3,13,7.3,13a37,37,0,0,1,32.94.22s-3.32-3.05-10.17-5l.61-.6A20.1,20.1,0,0,1,42,11.73a50.24,50.24,0,0,1,6,22.85c-.2-.24-3.72,5.42-12.79,5.62,0,0-.76-.86-1.59-1.9l-.08-.09-.22-.29-.08-.1-.08-.09,0,0-.08-.1-.47-.64c5.3-1.52,7.29-4.57,7.29-4.57-10.33,6.5-19.38,5.49-30.21,1.1a.26.26,0,0,1-.2-.1v0a.26.26,0,0,0-.2-.1H9.07A10.5,10.5,0,0,0,8,32.6s2,3,7.08,4.57l-.22.24-.08.1,0,.05-.09.1-.08.1-.09.1-.08.1c-1,1.24-1.94,2.41-2,2.47h0C3.31,40.22,0,34.55,0,34.55A50.38,50.38,0,0,1,6,11.7,20.42,20.42,0,0,1,17.3,7.57h.16Z"/></svg>