<svg xmlns="http://www.w3.org/2000/svg" viewBox="0 0 48 40"><title>Reddit</title><path d="M40.4,4a4.33,4.33,0,1,1-4.34,4.54V8.21L28,6.33l-3,9.34A27.38,27.38,0,0,1,39,19.76a5.29,5.29,0,1,1,6.19,8.44,9.66,9.66,0,0,1,.15,1.62C45.34,37.64,35.72,44,23.9,44S2.46,37.64,2.46,29.82a9.83,9.83,0,0,1,.17-1.72,5.28,5.28,0,1,1,6.28-8.41,27.58,27.58,0,0,1,14.05-4h.55L26.82,5.22a.74.74,0,0,1,.78-.51l.1,0,8.66,2A4.34,4.34,0,0,1,40.4,4Zm-23,31.48a.74.74,0,1,0-1.05,1.05c1.54,1.52,3.91,2.3,7.26,2.35H24c3.56,0,6.06-.77,7.65-2.35a.74.74,0,1,0-1.05-1.05c-1.25,1.24-3.29,1.87-6.22,1.92H24C20.83,37.4,18.67,36.77,17.37,35.48ZM31.3,24a3.15,3.15,0,1,0,3.16,3.15A3.17,3.17,0,0,0,31.3,24ZM16.72,24a3.15,3.15,0,1,0,3.16,3.15A3.16,3.16,0,0,0,16.72,24Z" transform="translate(0 -4)" style="fill:#063c4f;fill-rule:evenodd"/></svg>