<svg xmlns="http://www.w3.org/2000/svg" viewBox="0 0 48 33"><title>YouTube</title><path d="M25.64,8h1.64A138.56,138.56,0,0,1,42,8.66a6,6,0,0,1,5.19,4.65A49.78,49.78,0,0,1,48,24.5v.69a47.09,47.09,0,0,1-.84,10.5A6,6,0,0,1,42,40.34,163.09,163.09,0,0,1,24,41H22.71A152.29,152.29,0,0,1,6,40.34,6,6,0,0,1,.84,35.69,49.78,49.78,0,0,1,0,24.5v-.69a46.51,46.51,0,0,1,.85-10.5A6,6,0,0,1,6,8.66,148.31,148.31,0,0,1,22.37,8h3.27Zm-7.83,8.19V31.85l5.08-2.6L33.07,24,17.81,16.19Z" transform="translate(0 -8)" style="fill:#063c4f;fill-rule:evenodd"/></svg>