<svg viewBox="0 0 59 59" fill="none" xmlns="http://www.w3.org/2000/svg">
<circle cx="29.1479" cy="29.1479" r="28.6365" stroke="#E2FCA4" stroke-width="1.02273"/>
<path d="M29.3948 11.4648L20.1884 23.2001H38.6012L29.3948 11.4648Z" fill="white"/>
<path d="M20.1883 23.8398L29.3948 39.7512L38.6013 23.8398H20.1883Z" fill="white"/>
<path d="M19.427 23.0405L28.6995 11.4649L15.0194 19.6964L19.427 23.0405Z" fill="white"/>
<path d="M14.6875 35.843L14.6875 20.2667L19.2714 23.734L14.6875 35.843Z" fill="white"/>
<path d="M19.7414 24.5069L14.948 37.034L28.9877 40.4567L19.7414 24.5069Z" fill="white"/>
<path d="M14.8612 37.6953L29.0843 46.0703V41.2693L14.8612 37.6953Z" fill="white"/>
<path d="M39.3626 23.0405L30.0901 11.4649L43.7702 19.6964L39.3626 23.0405Z" fill="white"/>
<path d="M44.1021 20.2667L44.1021 35.843L39.5182 23.734L44.1021 20.2667Z" fill="white"/>
<path d="M43.8416 37.034L39.0482 24.5069L29.8019 40.4567L43.8416 37.034Z" fill="white"/>
<path d="M29.7053 46.0703L43.9284 37.6953L29.7053 41.2693V46.0703Z" fill="white"/>
</svg>
