<svg width="59" height="59" viewBox="0 0 59 59" fill="none" xmlns="http://www.w3.org/2000/svg">
<path d="M29.6428 57.8676C45.231 57.8676 57.8676 45.231 57.8676 29.6428C57.8676 14.0547 45.231 1.41797 29.6428 1.41797C14.0547 1.41797 1.41797 14.0547 1.41797 29.6428C1.41797 45.231 14.0547 57.8676 29.6428 57.8676Z" fill="#161515" stroke="#E2FCA4" stroke-width="1.02"/>
<path d="M11.8884 27.7015C11.8884 17.8967 19.8369 9.94824 29.6417 9.94824C39.4467 9.94824 47.395 17.8967 47.395 27.7015V27.7078C44.8334 28.776 42.0224 29.3659 39.0735 29.3659C37.998 29.3659 36.9408 29.2874 35.9073 29.1359C33.9916 35.3729 28.1857 39.9069 21.3207 39.9069C19.3996 39.9069 17.5615 39.5519 15.8683 38.9038C13.3802 35.8483 11.8884 31.9492 11.8884 27.7015Z" fill="url(#paint0_linear_101_257)"/>
<path d="M40.4605 30.7527C44.4013 30.7527 48.0961 29.6992 51.2784 27.8584C51.194 39.7359 41.5394 49.3382 29.6422 49.3382C19.8651 49.3382 11.6027 42.8534 8.92139 33.9503C9.10672 34.0586 9.29454 34.163 9.48474 34.2636C11.9382 39.4054 17.1852 42.9581 23.2621 42.9581C30.683 42.9581 36.8665 37.6599 38.2361 30.6398C38.9674 30.7145 39.7095 30.7527 40.4605 30.7527Z" fill="url(#paint1_linear_101_257)"/>
<defs>
<linearGradient id="paint0_linear_101_257" x1="8.9213" y1="29.7466" x2="54.2008" y2="34.0869" gradientUnits="userSpaceOnUse">
<stop stop-color="white"/>
<stop offset="1" stop-color="#E4E4E4"/>
</linearGradient>
<linearGradient id="paint1_linear_101_257" x1="8.92139" y1="29.7461" x2="54.2008" y2="34.0863" gradientUnits="userSpaceOnUse">
<stop stop-color="white"/>
<stop offset="1" stop-color="#E4E4E4"/>
</linearGradient>
</defs>
</svg>
