<svg viewBox="0 0 77 77" fill="none" xmlns="http://www.w3.org/2000/svg">
<path d="M45.3765 29.9202H29.7734V32.9065H39.9326L29.802 42.8227L32.1882 45.1517L42.3188 35.2355V45.1803H45.3765V29.9202Z" fill="#E2FCA4"/>
<path d="M38.4682 76.8723C29.5745 76.8797 20.9534 73.8026 14.0744 68.1656C7.19536 62.5286 2.48404 54.6804 0.7434 45.9587C-0.997241 37.2371 0.340526 28.1817 4.52872 20.3359C8.71691 12.4901 15.4963 6.33949 23.7115 2.93236C31.9266 -0.474774 41.0691 -0.927563 49.5807 1.65115C58.0924 4.22986 65.4463 9.68048 70.3892 17.074C75.3322 24.4676 77.5582 33.3465 76.6878 42.1975C75.8175 51.0485 71.9047 59.3237 65.6164 65.6129C62.0594 69.1902 57.8289 72.027 53.1691 73.9596C48.5093 75.8922 43.5128 76.8821 38.4682 76.8723ZM38.4682 2.84342C32.6141 2.84153 26.8499 4.28361 21.6863 7.0419C16.5228 9.80018 12.1193 13.7895 8.86603 18.6564C5.61277 23.5233 3.6102 29.1175 3.03572 34.9433C2.46124 40.7691 3.33257 46.6467 5.57258 52.0553C7.81259 57.4639 11.3521 62.2365 15.8774 65.9502C20.4028 69.6639 25.7743 72.204 31.516 73.3456C37.2577 74.4871 43.1923 74.1948 48.7941 72.4946C54.3958 70.7944 59.4917 67.7387 63.6302 63.5982C68.6056 58.6206 71.9937 52.2796 73.3661 45.3768C74.7385 38.474 74.0336 31.3193 71.3406 24.817C68.6476 18.3147 64.0874 12.7567 58.2364 8.84554C52.3853 4.9344 45.5061 2.8457 38.4682 2.84342Z" fill="#F4F9FD"/>
<path d="M58.7408 47.9379L56.5117 46.1519C57.3119 45.166 58.0835 44.1372 58.8122 43.1084L61.1412 44.7516C60.3839 45.8375 59.5695 46.9092 58.7408 47.9379Z" fill="#F4F9FD"/>
<path d="M61.1415 44.7512L58.8125 43.108C59.919 41.5373 60.9443 39.9111 61.8845 38.2356L64.3707 39.6644C63.3823 41.4143 62.3045 43.1121 61.1415 44.7512Z" fill="#F4F9FD"/>
<path d="M22.1644 69.642C20.1743 69.7344 18.186 69.4252 16.3179 68.7329C14.4498 68.0407 12.7402 66.9795 11.2908 65.6127C7.11856 61.4404 6.14694 54.6534 8.5617 46.5089C10.905 38.6645 16.1204 30.4057 23.2789 23.2472C30.4375 16.0886 38.6962 10.859 46.5406 8.53001C54.6851 6.11525 61.4721 7.10115 65.6444 11.2448C71.3598 16.9602 70.9454 27.9053 64.3727 39.6361L61.8865 38.2073C67.8019 27.6481 68.4592 18.0747 63.6297 13.2452C60.229 9.84456 54.4565 9.13012 47.3551 11.2448C39.9536 13.4453 32.1235 18.3891 25.3079 25.2333C18.4922 32.0775 13.5055 39.8933 11.3051 47.2948C9.2047 54.4391 9.87626 60.1545 13.3055 63.5694C16.7347 66.9844 22.493 67.6702 29.5802 65.5698C36.9816 63.3694 44.8117 58.4255 51.6416 51.567C53.3635 49.8423 54.99 48.025 56.514 46.1231L58.743 47.9092C57.1566 49.9087 55.4583 51.8169 53.6563 53.6246C46.512 60.7689 38.239 65.9985 30.3946 68.3275C27.7298 69.1639 24.9572 69.6068 22.1644 69.642Z" fill="#F4F9FD"/>
<path d="M54.7691 69.642C51.9763 69.6068 49.2037 69.1639 46.5389 68.3275C38.6945 65.9984 30.4357 60.7831 23.2772 53.6246C20.9106 51.2573 18.7187 48.7216 16.7188 46.0374L19.0049 44.3227C20.9276 46.8954 23.0335 49.326 25.3061 51.5956C32.1218 58.4255 39.9519 63.3979 47.3534 65.5984C54.4976 67.6988 60.213 67.0272 63.628 63.598C68.3718 58.8542 67.8002 49.4809 62.1991 39.1217L64.6996 37.6929C70.9866 49.2094 71.3581 59.883 65.6855 65.5555C64.2358 66.9379 62.5212 68.0126 60.6452 68.715C58.7691 69.4173 56.7703 69.7326 54.7691 69.642Z" fill="#F4F9FD"/>
<path d="M12.2774 39.122C5.99041 27.6055 5.61891 16.9176 11.2915 11.2451C15.4637 7.07283 22.2507 6.10122 30.3952 8.53026C38.2396 10.8593 46.4984 16.0889 53.6569 23.2474C55.8941 25.484 57.9756 27.871 59.8867 30.3917L57.6006 32.1063C55.7681 29.7001 53.7777 27.4184 51.6423 25.2764C44.8124 18.4465 36.9822 13.4884 29.5808 11.288C22.4365 9.17326 16.7211 9.8591 13.3061 13.2883C8.57664 18.0178 9.13389 27.4054 14.735 37.7646L12.2774 39.122Z" fill="#F4F9FD"/>
</svg>
