<svg width="59" height="59" viewBox="0 0 59 59" fill="none" xmlns="http://www.w3.org/2000/svg">
<circle cx="29.1479" cy="29.1479" r="28.6365" stroke="#E2FCA4" stroke-width="1.02273"/>
<path d="M39.0794 13.9277C40.895 14.6441 42.316 15.7122 43.4211 17.1581C45.9472 20.4665 46.5393 24.1267 44.9473 27.9692C43.3554 31.8117 40.3425 34.013 36.1849 34.5862C34.6061 34.8076 33.0405 34.6122 31.5143 34.1172C30.9354 33.9349 30.817 33.7135 31.067 33.1403C33.5141 27.3049 35.9481 21.4695 38.369 15.621C38.5926 15.087 38.8163 14.553 39.0794 13.9277Z" fill="white"/>
<path d="M22.7519 33.2445C28.4751 35.6022 34.093 37.9207 39.7899 40.2653C38.4479 43.209 36.3033 45.0717 33.1984 45.7099C29.4355 46.4784 26.2779 45.2931 23.9492 42.2973C21.8573 39.601 21.5546 36.5791 22.7519 33.2445Z" fill="white"/>
<path d="M23.3045 25.2729C23.1992 25.5595 23.1203 25.7809 23.0282 26.0024C21.16 30.4962 19.2917 34.99 17.4234 39.4837C17.1077 40.2523 17.0945 40.2523 16.3446 39.8485C12.7002 37.8946 11.1214 33.466 12.7002 29.6495C14.279 25.8591 18.4365 23.8401 22.4098 24.9473C22.7124 25.0255 22.9756 25.1557 23.3045 25.2729Z" fill="white"/>
<path d="M18.3707 20.4405C19.4496 18.1219 21.16 16.7152 23.5808 16.2593C28.6988 15.3084 33.0273 19.9846 31.6853 24.9734C31.4485 25.833 31.409 25.8591 30.5802 25.5074C26.7516 23.9313 22.9361 22.3552 19.1075 20.7791C18.8838 20.688 18.6733 20.5838 18.3707 20.4405Z" fill="white"/>
</svg>
