<svg viewBox="0 0 59 59" fill="none" xmlns="http://www.w3.org/2000/svg">
<circle cx="29.1479" cy="29.2631" r="28.6365" stroke="#E2FCA4" stroke-width="1.02273"/>
<path d="M42.37 26.1376V29.0869C42.37 30.0441 41.7711 30.7367 40.8463 30.8379C40.4749 30.8768 40.1262 30.7367 39.8078 30.55C38.7769 29.9507 37.7384 29.3593 36.7075 28.7601L28.3616 23.9508C28.066 23.7796 27.8082 23.5851 27.6642 23.266C27.5517 23.0252 27.5111 22.7555 27.5476 22.491C27.584 22.2266 27.6958 21.9791 27.8689 21.7796C28.2631 21.3439 28.7558 21.2116 29.3167 21.3594C29.4962 21.4185 29.667 21.5023 29.8246 21.6084L37.0789 25.7874C37.3821 25.9586 37.6929 26.0831 38.0492 26.0675C38.3917 26.0601 38.7227 25.9395 38.9931 25.7236C39.2635 25.5077 39.4588 25.2081 39.5501 24.8691C39.6358 24.5405 39.6131 24.1921 39.4855 23.8781C39.358 23.5642 39.1328 23.3024 38.8451 23.1337C38.216 22.7524 37.5717 22.3944 36.9349 22.0287C34.5926 20.6798 32.2503 19.3309 29.908 17.982C29.4986 17.7408 29.0742 17.6241 28.6042 17.733C28.4321 17.7746 28.2663 17.8401 28.1115 17.9276C26.133 19.0637 24.152 20.2025 22.1685 21.3439C21.6076 21.6707 21.2968 22.1532 21.3044 22.8302C21.3119 23.5073 21.653 23.943 22.1988 24.2543C26.7318 26.8613 31.2623 29.4683 35.7903 32.0752C37.7005 33.1803 39.6183 34.2775 41.5286 35.3748C41.9076 35.5927 42.2032 35.8651 42.3093 36.3164C42.3756 36.5821 42.3602 36.8624 42.2652 37.1187C42.1702 37.3751 42.0003 37.595 41.7787 37.7483C41.5558 37.8978 41.3256 38.0354 41.0889 38.1607C37.3594 40.2774 33.6223 42.3786 29.9004 44.5031C29.203 44.8999 28.5663 44.8999 27.8689 44.4953C24.0787 42.3008 20.2861 40.114 16.4909 37.9351C15.8541 37.5693 15.5433 37.0479 15.5509 36.3008C15.5661 34.3553 15.5585 32.4176 15.5585 30.4721C15.5585 29.5305 16.1043 28.869 16.9988 28.7212C17.3929 28.6589 17.7416 28.7834 18.0827 28.978C19.3107 29.6862 20.5463 30.3943 21.7743 31.1025C24.3592 32.5888 26.9365 34.083 29.529 35.5693C29.8473 35.7561 30.1127 35.9818 30.2339 36.3475C30.4159 36.8845 30.3097 37.3748 29.9231 37.7794C29.5138 38.2074 29.0135 38.3008 28.4601 38.114C28.3188 38.0577 28.1819 37.9901 28.0508 37.9117C25.6554 36.5343 23.2575 35.1517 20.8571 33.7639C20.4175 33.5071 19.9626 33.4059 19.4775 33.5849C18.8787 33.795 18.5072 34.2308 18.4314 34.8845C18.3556 35.5382 18.6209 36.0518 19.1743 36.3864C19.902 36.8222 20.6449 37.2425 21.3802 37.6627C23.5709 38.9234 25.7616 40.1763 27.9447 41.4447C28.589 41.8183 29.1954 41.8261 29.8398 41.4447C31.75 40.3163 33.6754 39.2035 35.5932 38.0907C36.0708 37.8105 36.3967 37.437 36.4801 36.8611C36.5306 36.587 36.5064 36.3038 36.4101 36.0429C36.3138 35.782 36.1491 35.5535 35.9343 35.3826C35.8156 35.2879 35.6887 35.2046 35.5553 35.1335C29.3546 31.5616 23.1514 27.9923 16.9457 24.4255C16.7259 24.301 16.506 24.1765 16.2862 24.0442C15.3311 23.4683 15.3083 22.2232 16.2635 21.6396C17.2034 21.0637 18.1661 20.5267 19.1212 19.9664C22.0624 18.2544 25.0035 16.5579 27.9371 14.8303C28.6345 14.4179 29.2637 14.4179 29.961 14.8226C33.7663 17.0326 37.5818 19.2298 41.4073 21.4139C42.0516 21.7796 42.3548 22.3166 42.3548 23.0559V26.122C42.3624 26.1376 42.37 26.1376 42.37 26.1376Z" fill="white"/>
</svg>
