<?xml version="1.0" encoding="UTF-8"?>
<svg viewBox="0 0 36 36" version="1.1" xmlns="http://www.w3.org/2000/svg" xmlns:xlink="http://www.w3.org/1999/xlink">
  <g troke="none" stroke-width="1" fill="none" fill-rule="evenodd">
    <polygon fill="#49C1BF" fill-rule="nonzero" points="30.8636362 14.8736062 25.5918531 17.1847104 11.6065179 24.1840545 25.5918531 30.7954633 25.5918531 19.8672421 30.8636362 17.531376 30.8636362 33.6760896 25.5918531 35.9871938 5 26.2970641 5 21.1466033 19.2539611 14.2710684 5 7.53585044 5 2.31110419 10.3557286 1.03028697e-13 30.8636362 9.70663759"></polygon>
    <polygon fill="#063C4F" fill-rule="nonzero" points="5 2.31110419 25.5918531 12.0177418 30.8636362 9.70663759 10.3557286 -4.70734562e-14"></polygon>
    <path fill="#063C4F" d="M30.8638041,17.4974523 L30.8638041,33.6421659 L25.592021,35.9532701 L25.592021,19.8333184 L30.8638041,17.4974523 Z M30.8638041,9.68476463 L30.8638041,14.8517333 L25.592021,17.1628375 L25.592021,11.9958688 L30.8638041,9.68476463 Z" fill-rule="nonzero"></path>
    <polygon fill="#063C4F" fill-rule="nonzero" points="5 2.3157264 5 7.54047265 19.2539611 14.2756906 5 21.1512255 5 26.3016863 25.5918531 35.991816 25.5918531 30.8083394 11.6065179 24.1886767 25.5918531 17.1893326 25.5918531 12.022364"></polygon>
  </g>
</svg>