<?xml version="1.0" standalone="no"?>
<!DOCTYPE svg PUBLIC "-//W3C//DTD SVG 20010904//EN"
 "http://www.w3.org/TR/2001/REC-SVG-20010904/DTD/svg10.dtd">
<svg version="1.0" xmlns="http://www.w3.org/2000/svg"
 width="700.000000pt" height="700.000000pt" viewBox="0 0 700.000000 700.000000"
 preserveAspectRatio="xMidYMid meet">
<metadata>
Created by potrace 1.11, written by Peter Selinger 2001-2013
</metadata>
<g transform="translate(0.000000,700.000000) scale(0.100000,-0.100000)"
fill="#000000" stroke="none">
<path d="M1941 4807 l0 -322 1034 0 c569 0 1035 -2 1035 -5 0 -3 -466 -471
-1035 -1040 l-1035 -1035 239 -239 239 -239 1037 1037 c570 570 1038 1036
1040 1036 2 0 3 -458 3 -1017 1 -560 1 -1027 1 -1038 1 -20 7 -20 248 -18 137
1 281 3 321 3 l72 0 0 1599 0 1599 -1600 0 -1599 0 0 -321z"/>
</g>
</svg>
