<?xml version="1.0" encoding="UTF-8"?>
<svg viewBox="0 0 346 118" version="1.1" xmlns="http://www.w3.org/2000/svg" xmlns:xlink="http://www.w3.org/1999/xlink">
    <path d="M305.24,17 C319.34,17 327.33,26.82 327.5,39.75 L327.5,40.15 C327.5,47.83 323.43,63 305.3,63 C292.52,63 283,54.64 283,40.22 C283,27.65 290.61,17 305.24,17 Z M305.3,24.86 C297.03,24.86 292.77,31.12 292.77,40.09 L292.77,40.7 C292.92,46.07 295.18,55.14 305.29,55.14 C313.43,55.14 317.7,48.82 317.7,40.03 C317.7,31.24 313.57,24.86 305.3,24.86 Z" id="Combined-Shape" fill="#063C4F"></path>
    <polygon id="Path" fill="#063C4F" points="282.18 17.86 282.18 25.66 257.82 25.66 257.82 35.32 280.34 35.32 280.34 42.87 257.82 42.87 257.82 54.33 282.82 54.33 282.82 62.13 248.27 62.13 248.27 17.87"></polygon>
    <polygon id="Path" fill="#063C4F" points="217.77 17.86 217.77 35.08 236 35.08 236 17.87 245.61 17.87 245.61 62.13 236 62.13 236 42.88 217.77 42.88 217.77 62.13 208.16 62.13 208.16 17.87"></polygon>
    <polygon id="Path" fill="#063C4F" points="162.13 17.86 162.13 62.13 153.46 62.13 153.46 33.31 124.68 62.06 117.88 55.28 146.67 26.53 117.81 26.53 117.81 17.87"></polygon>
    <polygon id="Path" fill="#063C4F" points="114.79 17.86 114.79 62.13 105.19 62.13 105.19 17.87"></polygon>
    <polygon id="Path" fill="#063C4F" points="52.42 17.86 59.48 48.5 59.55 48.5 67.62 17.86 77.8 17.86 85.69 49 85.75 49 92.94 17.92 102.48 17.92 90.84 62.13 81 62.13 74.17 36.5 72.58 30.13 72.46 30.13 70.93 36.5 64.25 62.13 54.25 62.13 42.75 17.87"></polygon>
    <path d="M24.82,17 C35.11,17 42.37,21.52 42.68,30.44 L42.68,30.81 L33.27,31.05 C32.7,26.17 29.52,24.43 24.62,24.43 C20.99,24.43 17.3,25.85 17.3,29.14 C17.3,30.81 18,31.86 20.48,32.79 C24.05,34.15 33.84,36.19 37.91,38.42 C41.6,40.42 44.08,43.81 44.08,49.13 C44.08,58.6 36.08,63 25.57,63 C15.06,63 7.2,58.11 6.52,48 L6.52,47.6 L15.81,47.17 C16.19,53.05 20.13,55.47 25.81,55.47 C29.95,55.47 34.72,53.73 34.72,49.71 C34.72,47.11 32.87,45.62 29.12,44.57 L25.27,43.57 C20.67,42.33 14.73,40.57 12.33,38.57 C9.57347761,36.5103314 8.00367923,33.2287052 8.13,29.79 C8.09,22 15.41,17 24.82,17 Z" id="Path" fill="#063C4F"></path>
    <path d="M186.53,17 C195.99,17 203.6,21.93 205.53,31 L205.61,31.4 L196.19,32.46 C195.37,27.94 191.36,24.9 186.46,24.9 C178.58,24.9 174.57,30.79 174.57,39.9 C174.57,49.01 178.57,55.07 186.34,55.07 C191.76,55.07 195.29,51.67 196.51,45.77 L196.58,45.41 L205.86,46.77 C203.83,57.12 196.38,63 186.4,63 C172.98,63 164.84,53.34 164.84,40.28 C164.84,27 172.79,17 186.53,17 Z" id="Path" fill="#063C4F"></path>
    <path d="M320.86,111.650152 C320.041368,111.642095 319.259565,111.308602 318.687283,110.723185 C318.115,110.137768 317.79933,109.3486 317.81,108.53 L318.45,58.72 C318.477043,56.9139938 317.782345,55.1718494 316.52,53.88 C314.669726,52.0202002 311.696692,51.9066923 309.71,53.62 L309.54,53.77 C308.066483,55.0622783 307.21205,56.9202171 307.19,58.88 L307.08,67 C307.128566,68.1437952 306.540765,69.2207045 305.55248,69.7985632 C304.564196,70.3764219 303.337415,70.3605155 302.364446,69.7572272 C301.391477,69.153939 300.831794,68.0621514 300.91,66.92 L301.01,58.8 C301.057865,55.0899901 302.679109,51.5748706 305.47,49.13 L305.64,48.98 C310.084851,45.0750957 316.809064,45.3343954 320.94,49.57 C323.351843,52.0306052 324.677264,55.3549623 324.62,58.8 L324,108.6 C323.97259,110.304271 322.574409,111.666715 320.87,111.650152" id="Path" fill="#F91B2F" fill-rule="nonzero"></path>
    <path d="M324.043307,105.105635 L324.003171,108.434296 C323.260216,109.539463 321.903256,111.078618 319.920699,111.493459 C319.457697,111.340111 319.03403,111.077891 318.687283,110.723185 C318.280342,110.306905 318.003155,109.787601 317.880792,109.227948 C318.957986,109.302423 321.832447,109.083384 324.043307,105.105635 Z M324.133868,97.8546249 L324.092951,101.186877 C323.107072,102.656127 321.040371,104.890776 317.865781,104.245466 L317.893799,101.971171 C318.902713,102.061086 321.867199,101.933644 324.133868,97.8546249 Z M324.224908,90.5487511 L324.184057,93.877391 C323.194464,95.3434555 321.129531,97.557809 317.959469,96.9160944 L317.987267,94.6514733 C318.998512,94.7406907 321.95454,94.6093601 324.224908,90.5487511 Z M324.314926,83.3318973 L324.27425,86.6463843 C323.265376,88.1190429 321.200487,90.2800346 318.053455,89.616717 L318.081916,87.3572101 C319.041344,87.4532282 322.022319,87.3827142 324.314926,83.3318973 Z M324.406568,75.9677431 L324.365714,79.3053739 C323.377082,80.7717339 321.313061,82.9890428 318.146787,82.345686 L318.175778,80.0713465 C319.185498,80.1608215 322.14232,80.03126 324.406568,75.9677431 Z M324.49713,68.686735 L324.455862,72.0295138 C323.463194,73.4954679 321.401244,75.695575 318.240477,75.0562984 L318.268755,72.7916092 C319.281383,72.8805708 322.23503,72.7472516 324.49713,68.686735 Z M307.116075,64.2688645 L307.086157,66.5462044 C306.18343,66.4723912 303.845525,66.5864434 301.774279,69.2803043 C301.267066,68.7585822 300.958254,68.0696572 300.909547,67.3364139 C301.889333,65.8748733 303.949207,63.6404714 307.116075,64.2688645 Z M324.587767,61.3937097 L324.546529,64.7565234 C323.554499,66.2307528 321.493533,68.4408927 318.334111,67.7796874 L318.362494,65.5020042 C319.377573,65.590188 322.322121,65.4511509 324.587767,61.3937097 Z M305.86,57.13 C306.338767,57.13 306.833854,57.2932022 307.374746,57.3689825 C307.258932,57.8581317 307.195788,58.365557 307.19,58.88 L307.185704,59.2579079 C306.166447,59.1698028 303.212546,59.3105252 300.953326,63.3804278 L300.992528,60.0597895 C301.324912,59.5614645 301.705715,59.0958616 302.13,58.67 C302.434008,58.3568373 302.769064,58.0753905 303.13,57.83 C303.509647,57.5594095 303.927594,57.347065 304.37,57.2 C304.858177,57.0855298 305.363241,57.061802 305.86,57.13 Z M324.496714,56.794989 L324.489412,56.8159452 C324.377415,57.1435611 324.240598,57.4625169 324.08,57.77 C323.43811,59.1115573 322.219494,60.0871866 320.77,60.42 L320.57,60.42 L320.32,60.48 C320.05689,60.5338624 319.788467,60.5573494 319.52,60.55 L319.1,60.55 C318.95003,60.5393593 318.802103,60.5091015 318.66,60.46 L318.428547,60.386 L318.45,58.72 L318.449022,58.6148338 C318.556121,58.6141906 318.6632,58.609246 318.77,58.6 C319.351224,58.5450036 319.919105,58.3928927 320.45,58.15 C321.260252,57.777939 321.952265,57.1897282 322.45,56.45 C322.793238,55.9328402 323.046794,55.3614938 323.2,54.76 C323.338784,54.2365815 323.413607,53.6994065 323.423627,53.160173 C323.956473,54.3083047 324.31952,55.53297 324.496714,56.794989 Z M307.67,51.35 C308.486434,51.9869839 309.132771,52.8150001 309.552526,53.7602946 L309.54,53.77 C309.224706,54.0465137 308.937757,54.3489261 308.681241,54.6726932 L308.71,54.7 C308.548922,54.5370547 308.378644,54.3834699 308.2,54.24 C307.750526,53.8679836 307.244031,53.5708401 306.7,53.36 C305.8597,53.0576712 304.9403,53.0576712 304.1,53.36 C303.493593,53.5592214 302.930354,53.8713779 302.44,54.28 C302.128823,54.535999 301.84275,54.8195642 301.585009,55.1267331 C302.021581,53.7087373 302.696504,52.3721013 303.583064,51.1767167 C304.022145,50.9840716 304.48435,50.8469107 304.96,50.77 C305.904361,50.6049501 306.875918,50.812885 307.67,51.35 Z M320.384626,49.0380824 L320.398406,49.0715928 C320.622516,49.6331153 320.748996,50.2312342 320.77,50.84 C320.785302,51.7972617 320.447056,52.7265467 319.82,53.45 C319.140421,54.1454977 318.304795,54.6664593 317.38441,54.9708437 C317.140049,54.5856883 316.854904,54.2245072 316.53247,53.8927955 C316.620404,53.8198034 316.742444,53.7137222 316.89,53.58 C317.330553,53.1891396 317.705343,52.7299371 318,52.22 C318.18654,51.8723594 318.3181,51.4979195 318.39,51.11 C318.472945,50.6245323 318.452499,50.1270248 318.33,49.65 C318.25921,49.3526255 318.155224,49.0641485 318.02,48.79 C317.862484,48.4714739 317.667795,48.1727261 317.44,47.9 C317.177748,47.5741327 316.882883,47.2759171 316.56,47.01 L316.072091,46.6513435 C317.632265,47.1016984 319.110633,47.8988535 320.384626,49.0380824 Z M310.795959,46.4290987 L310.59,46.37 C310.968048,46.469667 311.336235,46.6035532 311.69,46.77 C312.089037,46.9634511 312.464784,47.2016477 312.81,47.48 C313.549779,48.0599821 314.082821,48.8630516 314.33,49.77 C314.512219,50.6996403 314.478261,51.6566575 314.233352,52.5676557 C313.672097,52.4214993 313.091374,52.3747806 312.517195,52.4272789 C312.516759,52.3885376 312.513696,52.3492465 312.51,52.31 C312.474957,51.7256579 312.343166,51.1511846 312.12,50.61 C311.958523,50.2528715 311.753645,49.9170064 311.51,49.61 C311.372991,49.4259574 311.21898,49.2552058 311.05,49.1 C310.85515,48.9283277 310.647923,48.7712363 310.43,48.63 C309.890672,48.2906881 309.288828,48.0628714 308.66,47.96 C308.171135,47.8634486 307.674012,47.8247668 307.178774,47.843802 C308.311186,47.1512105 309.537044,46.6800963 310.795959,46.4290987 Z" id="Combined-Shape" fill="#FFFFFF" fill-rule="nonzero"></path>
    <path d="M320.91,58.3 C320.859821,53.8937269 317.316407,50.3253266 312.910595,50.2441882 C308.504783,50.1630499 304.832383,53.5985623 304.62,58 L304.18,70 C305.777826,69.9021626 307.036367,68.6002234 307.08,67 L307.19,58.88 C307.21205,56.9202171 308.066483,55.0622783 309.54,53.77 L309.71,53.62 C311.696692,51.9066923 314.669726,52.0202002 316.52,53.88 C317.782345,55.1718494 318.477043,56.9139938 318.45,58.72 L317.81,108.53 C317.79933,109.3486 318.115,110.137768 318.687283,110.723185 C319.259565,111.308602 320.041368,111.642095 320.86,111.65 L320.96,111.65 L320.91,58.3 Z" id="Path" fill="#939096" fill-rule="nonzero" opacity="0.5"></path>
    <ellipse id="Oval" fill="#FFFFFF" fill-rule="nonzero" cx="339.57" cy="26.84" rx="4.36" ry="4.68"></ellipse>
    <path d="M320.44,5 C320.44,5 328.76,7.84 331.07,19 C332.26,24.22 334.96,26 337.22,26.27 C339.13,26.34 339.09,28.06 337.94,28.88 C337.94,28.88 337.94,28.88 337.94,28.88 C336.04,30.38 333.2,31.4 329.34,29.57 C323.04,26.66 322.49,21.27 322.49,21.27 L316.83,11 L320.44,5 Z" id="Path" fill="#F91B2F" fill-rule="nonzero"></path>
    <path d="M299.39,12.43 C299.39,12.43 305.9,-0.7 320.3,4.93 C331,9.77 326.39,21.84 326.39,21.84 L299.39,12.43 Z" id="Path" fill="#F91B2F" fill-rule="nonzero"></path>
    <path d="M327,21.71 C327.766991,18.7551772 328.010671,15.6888755 327.72,12.65 C327.33,15.93 326.62,18.76 324.81,20 L327,21.71 Z" id="Path" fill="#C62424" fill-rule="nonzero"></path>
    <path d="M326.52,32.61 C326.52,32.61 317.52,26.17 311.89,23.32 C308.3,21.49 297.25,17.85 297.25,17.85 C297.25,17.85 298.61,12.52 299.25,12.25 C305.58,11.78 320.14,22.14 323.94,26.58 C325.046102,28.4755489 325.912723,30.5010232 326.52,32.61 L326.52,32.61 Z" id="Path" fill="#000000" fill-rule="nonzero" opacity="0.24" style="mix-blend-mode: multiply;"></path>
    <path d="M316.82576,46.3679262 L317.28,46.47 L317.65,46.56 L318,46.67 L318.63,46.89 L319.19,47.21 L319.26,47.28 L319.44,47.48 C319.636327,47.7305905 319.819893,47.990921 319.99,48.26 C320.143732,48.5092374 320.275807,48.7699316 320.385353,49.0391992 C320.574783,49.2081473 320.759857,49.3852928 320.94,49.57 C321.975996,50.6269418 322.811537,51.8432538 323.423143,53.1600439 C323.429204,52.8600808 323.41471,52.559351 323.38,52.26 C323.581463,52.5966077 323.771098,52.9400819 323.948572,53.2897909 C322.550875,55.6241152 320.660063,57.7909775 318.139884,59.4829005 C318.14,59.04 318.08,58.6 318.08,58.6 L318.26458,58.6116878 L318.448179,58.6140056 L318.447624,58.4120671 C318.410246,57.1833933 318.039738,55.994844 317.385316,54.9698416 C317.287191,55.0029954 317.189026,55.0327307 317.09,55.06 C317.09,55.06 316.92,54.75 316.74,54.49 C316.605,54.295 316.57125,54.251875 316.529062,54.20875 L316.48,54.16 L316.37,54.03 C316.37,54.03 316.42848,53.9832159 316.532791,53.8943911 L316.52,53.88 L316.52,53.88 C315.866416,53.2230506 315.072737,52.7839968 314.231925,52.5663875 C314.194267,52.713042 314.149809,52.8572562 314.1,53 L312.51,53 L312.51697,52.8935149 C314.5408,51.3625972 315.984394,49.1168428 316.82576,46.3679262 Z" id="Combined-Shape" fill="#063C4F"></path>
    <path d="M325.52,26.34 C321.142161,24.1535519 316.62583,22.2561583 312,20.66 C307.179068,19.1024407 302.270565,17.8302369 297.3,16.85 C297.3,16.85 298.66,11.52 299.3,11.25 C305.63,10.78 323.47,16.51 327.3,20.95 C327.61,22.48 325.52,26.34 325.52,26.34 Z" id="Path" fill="#FFFFFF" fill-rule="nonzero"></path>
</svg>
