<svg width="23" height="16" viewBox="0 0 23 16" fill="none" xmlns="http://www.w3.org/2000/svg">
<path d="M7.84396 6.99696C7.42854 6.9824 7.01832 7.09438 6.66601 7.31852C6.31369 7.54267 6.03538 7.86873 5.86681 8.25483C5.69825 8.64093 5.64713 9.06942 5.72003 9.48526C5.79294 9.9011 5.98653 10.2853 6.27594 10.5885C6.56534 10.8917 6.93735 11.1 7.34416 11.1867C7.75097 11.2735 8.17401 11.2346 8.55892 11.0751C8.94384 10.9157 9.27305 10.643 9.50426 10.2919C9.73547 9.94092 9.85812 9.52768 9.85646 9.1053C9.85651 8.5589 9.6449 8.03445 9.26739 7.64537C8.88988 7.25628 8.37681 7.03385 7.83917 7.02617L7.84396 6.99696ZM15.0315 6.99696C14.616 6.9824 14.2058 7.09438 13.8535 7.31852C13.5012 7.54267 13.2229 7.86873 13.0543 8.25483C12.8857 8.64093 12.8346 9.06942 12.9075 9.48526C12.9804 9.9011 13.174 10.2853 13.4634 10.5885C13.7528 10.8917 14.1248 11.1 14.5317 11.1867C14.9385 11.2735 15.3615 11.2346 15.7464 11.0751C16.1313 10.9157 16.4605 10.643 16.6918 10.2919C16.923 9.94092 17.0456 9.52768 17.044 9.1053C17.0429 8.56176 16.8328 8.04018 16.4587 7.65177C16.0845 7.26336 15.5758 7.03887 15.041 7.02617L15.0315 6.99696ZM8.36625 0L8.58187 0.214242C5.08396 1.06147 3.49792 2.64394 3.49792 2.64394C5.95824 1.42186 8.66371 0.795559 11.4022 0.814144C14.1406 0.83273 16.8376 1.4957 19.2817 2.75107C19.2817 2.75107 17.6908 1.26598 14.4085 0.316494L14.7008 0.0243456C16.6677 0.112391 18.5607 0.810821 20.125 2.02556C21.94 5.44929 22.9256 9.26339 23 13.1516C22.9042 13.0347 21.2175 15.7906 16.8715 15.888C16.8715 15.888 16.5073 15.4693 16.1096 14.9629L16.0713 14.9191L15.9658 14.7778L15.9275 14.7292L15.8892 14.6853L15.8508 14.6366L15.6256 14.325C18.1652 13.5849 19.1188 12.0998 19.1188 12.0998C14.169 15.2648 9.8325 14.773 4.64313 12.6354C4.62459 12.6351 4.60637 12.6305 4.58979 12.6221C4.57322 12.6137 4.55869 12.6016 4.54729 12.5867C4.53589 12.5719 4.52137 12.5598 4.50479 12.5514C4.48821 12.543 4.46999 12.5384 4.45146 12.538H4.34604C4.18237 12.4106 4.01114 12.2935 3.83333 12.1875C3.83333 12.1875 4.79167 13.6482 7.22583 14.4127L7.12042 14.5295L7.08208 14.5782V14.6026L7.03896 14.6512L7.00062 14.6999L6.9575 14.7486L6.91917 14.7973C6.44 15.4011 5.98958 15.9708 5.96083 16C1.58604 15.8977 0 13.1369 0 13.1369C0.0769794 9.24915 1.0624 5.43564 2.875 2.01096C4.44017 0.803295 6.32694 0.102556 8.28958 0H8.36625Z" fill="white"/>
</svg>
