<svg viewBox="0 0 24 23" fill="none" xmlns="http://www.w3.org/2000/svg">
<path fill-rule="evenodd" clip-rule="evenodd" d="M5.37 7.63792V23H0.395004V7.63792H5.37ZM18.035 7.25459C23.07 7.25459 24 10.4363 24 14.5715V23H19.03V15.3333C19.03 13.5844 18.905 11.4521 16.445 11.4521C13.86 11.4521 13.445 13.3927 13.445 15.3956V23H8.5V7.63792H13.27V9.73667H13.34L13.39 9.64563C13.8758 8.89025 14.5613 8.27129 15.3769 7.85141C16.1926 7.43153 17.1096 7.22564 18.035 7.25459ZM2.885 4.14693e-06C3.4568 -0.000943908 4.01605 0.160683 4.49196 0.464432C4.96788 0.768181 5.33907 1.2004 5.55858 1.70639C5.77808 2.21238 5.83603 2.7694 5.72508 3.30696C5.61413 3.84452 5.33928 4.33846 4.93531 4.72628C4.53134 5.11409 4.0164 5.37834 3.45566 5.4856C2.89492 5.59285 2.31358 5.53828 1.78521 5.3288C1.25684 5.11932 0.805185 4.76434 0.487406 4.30878C0.169628 3.85322 5.18892e-06 3.31756 4.33315e-06 2.76959C-0.000653006 2.40611 0.0734846 2.04607 0.218175 1.71008C0.362866 1.37408 0.575269 1.06873 0.843231 0.811486C1.11119 0.554244 1.42946 0.350162 1.77981 0.210919C2.13016 0.0716755 2.50572 3.60105e-06 2.885 4.14693e-06Z" fill="white"/>
</svg>
