<svg width="23" height="19" viewBox="0 0 23 19" fill="none" xmlns="http://www.w3.org/2000/svg">
<path fill-rule="evenodd" clip-rule="evenodd" d="M6.9575 0H0.292292V0.4L2.43896 3.095C2.5428 3.19185 2.62304 3.31311 2.67303 3.44875C2.72303 3.58439 2.74134 3.73051 2.72646 3.875V14.455C2.75404 14.644 2.73848 14.8372 2.68103 15.0188C2.62358 15.2004 2.52586 15.3653 2.39583 15.5L0 18.55V18.95H6.85208V18.55L4.43229 15.5C4.30492 15.3623 4.20903 15.1963 4.15178 15.0145C4.09453 14.8327 4.0774 14.6397 4.10167 14.45V5.305L10.1152 18.955H10.8148L15.9754 5.305V16.185C15.9754 16.475 15.9754 16.53 15.7933 16.72L13.939 18.6V19H22.9569V18.6L21.1648 16.765C21.0868 16.7041 21.0263 16.622 20.99 16.5276C20.9536 16.4333 20.9428 16.3303 20.9587 16.23V2.77C20.9428 2.66969 20.9536 2.56674 20.99 2.47239C21.0263 2.37804 21.0868 2.29592 21.1648 2.235L23 0.4V0H16.6415L12.1133 11.76L6.9575 0Z" fill="white"/>
</svg>
