<svg viewBox="0 0 23 19" fill="none" xmlns="http://www.w3.org/2000/svg">
<path fill-rule="evenodd" clip-rule="evenodd" d="M19.3533 1.71715e-05C19.7592 0.00141956 20.1557 0.120733 20.4939 0.343192C20.8321 0.565651 21.097 0.881491 21.2559 1.25162C21.4148 1.62176 21.4607 2.02993 21.3879 2.42564C21.3151 2.82135 21.1268 3.18722 20.8463 3.47798C20.5658 3.76873 20.2055 3.9716 19.8098 4.06149C19.4142 4.15137 19.0006 4.12433 18.6203 3.98369C18.2401 3.84306 17.9097 3.59502 17.6702 3.27026C17.4308 2.94549 17.2926 2.55827 17.2729 2.15652V1.99977L13.4095 1.10677L11.9715 5.54326C14.3445 5.57767 16.6637 6.24908 18.6822 7.48601C18.9413 7.2323 19.2526 7.0369 19.5948 6.91312C19.937 6.78933 20.3021 6.74006 20.6652 6.76867C21.0284 6.79728 21.381 6.90308 21.6992 7.07889C22.0174 7.25469 22.2936 7.49637 22.509 7.78746C22.7245 8.07856 22.8741 8.41224 22.9477 8.76578C23.0213 9.11932 23.0172 9.48444 22.9356 9.83626C22.854 10.1881 22.6969 10.5184 22.4749 10.8046C22.2529 11.0908 21.9713 11.3263 21.6493 11.495C21.695 11.749 21.7191 12.0065 21.7212 12.2645C21.7212 15.979 17.11 19 11.4442 19C5.77841 19 1.16718 15.979 1.16718 12.2645C1.17008 11.9903 1.19735 11.7169 1.24867 11.4475C0.941883 11.2689 0.67656 11.0281 0.470014 10.741C0.263468 10.4539 0.120342 10.1268 0.0499776 9.78115C-0.0203872 9.4355 -0.0164097 9.07904 0.0616508 8.73501C0.139711 8.39099 0.2901 8.06715 0.503002 7.78462C0.715905 7.50208 0.986535 7.26721 1.29723 7.09533C1.60793 6.92346 1.95171 6.81843 2.30613 6.78712C2.66056 6.7558 3.01767 6.7989 3.35415 6.9136C3.69063 7.02829 3.99892 7.21201 4.25891 7.45276C6.29066 6.23108 8.61718 5.57473 10.9936 5.55276H11.2572L12.8438 0.579517C12.8687 0.502784 12.9194 0.436844 12.9875 0.392742C13.0555 0.348641 13.1368 0.329055 13.2177 0.337267H13.2657L17.4167 1.28727C17.5728 0.905556 17.8407 0.57893 18.1859 0.349495C18.531 0.12006 18.9376 -0.00166347 19.3533 1.71715e-05ZM8.32849 14.953C8.29544 14.9203 8.25621 14.8943 8.21303 14.8766C8.16985 14.8588 8.12357 14.8497 8.07683 14.8497C8.0301 14.8497 7.98382 14.8588 7.94064 14.8766C7.89746 14.8943 7.85823 14.9203 7.82518 14.953C7.79214 14.9858 7.76592 15.0246 7.74804 15.0674C7.73015 15.1102 7.72094 15.1561 7.72094 15.2024C7.72094 15.2487 7.73015 15.2946 7.74804 15.3373C7.76592 15.3801 7.79214 15.419 7.82518 15.4518C8.56336 16.1738 9.69939 16.5443 11.3052 16.568H11.4921C13.1986 16.568 14.3969 16.2023 15.159 15.4518C15.2258 15.3856 15.2633 15.2959 15.2633 15.2024C15.2633 15.1088 15.2258 15.0191 15.159 14.953C15.0923 14.8869 15.0018 14.8497 14.9074 14.8497C14.813 14.8497 14.7225 14.8869 14.6557 14.953C14.0566 15.542 13.0787 15.8413 11.6743 15.865H11.4921C9.97262 15.865 8.93725 15.5658 8.31411 14.953H8.32849ZM14.9913 9.50001C14.6929 9.50095 14.4014 9.5895 14.1537 9.75448C13.9061 9.91946 13.7133 10.1535 13.5997 10.427C13.4862 10.7004 13.457 11.0011 13.5158 11.2911C13.5746 11.581 13.7187 11.8472 13.9301 12.0559C14.1415 12.2647 14.4105 12.4067 14.7033 12.4641C14.996 12.5214 15.2994 12.4915 15.575 12.3782C15.8506 12.2648 16.0862 12.073 16.2519 11.827C16.4176 11.5811 16.506 11.292 16.506 10.9963C16.5035 10.5994 16.3429 10.2195 16.0593 9.93934C15.7756 9.65914 15.3918 9.50125 14.9913 9.50001ZM8.00254 9.50001C7.70411 9.50095 7.41266 9.5895 7.16498 9.75448C6.91731 9.91946 6.72453 10.1535 6.61098 10.427C6.49743 10.7004 6.46822 11.0011 6.52702 11.2911C6.58582 11.581 6.73 11.8472 6.94135 12.0559C7.15271 12.2647 7.42176 12.4067 7.71452 12.4641C8.00728 12.5214 8.31063 12.4915 8.58625 12.3782C8.86187 12.2648 9.09741 12.073 9.26311 11.827C9.42881 11.5811 9.51724 11.292 9.51724 10.9963C9.51598 10.599 9.35583 10.2184 9.07191 9.93796C8.78798 9.6575 8.40343 9.50001 8.00254 9.50001Z" fill="white"/>
</svg>
