<svg xmlns="http://www.w3.org/2000/svg" viewBox="0 0 48 48"><title>Twitter</title><path d="M33.14,5a10,10,0,0,0-10,10,10.51,10.51,0,0,0,.19,2,27.55,27.55,0,0,1-19.61-10,.22.22,0,0,0-.2-.09.25.25,0,0,0-.19.12A10,10,0,0,0,5.75,19.7a9.59,9.59,0,0,1-3.49-1.12.24.24,0,0,0-.23,0,.24.24,0,0,0-.12.2h0v.13a10,10,0,0,0,7,9.52,9.75,9.75,0,0,1-3.32-.05.22.22,0,0,0-.22.07.22.22,0,0,0,0,.23A10,10,0,0,0,14,35.57,19.23,19.23,0,0,1,2.56,39.29a19.41,19.41,0,0,1-2.29-.13.24.24,0,0,0-.26.15.25.25,0,0,0,.1.28A27.87,27.87,0,0,0,15.18,44c17.52,0,28-14.19,28-27.91,0-.38,0-.76,0-1.14a20,20,0,0,0,4.82-5,.24.24,0,0,0-.3-.35,18.88,18.88,0,0,1-4.5,1.36A9.88,9.88,0,0,0,46.67,6a.23.23,0,0,0-.07-.26.24.24,0,0,0-.27,0,19.35,19.35,0,0,1-6,2.31A10.05,10.05,0,0,0,33.14,5Z" style="fill:#063c4f;fill-rule:evenodd"/></svg>