<svg width="24" height="19" viewBox="0 0 24 19" fill="none" xmlns="http://www.w3.org/2000/svg">
<path fill-rule="evenodd" clip-rule="evenodd" d="M16.5566 0C15.2316 0 13.9609 0.513277 13.024 1.42692C12.0871 2.34055 11.5607 3.57971 11.5607 4.87179C11.5604 5.19879 11.5922 5.52507 11.6557 5.84615C9.76699 5.73441 7.92223 5.24411 6.2366 4.40588C4.55097 3.56764 3.06068 2.39948 1.85881 0.974359C1.84754 0.959167 1.83239 0.947122 1.81485 0.939428C1.79732 0.931735 1.77803 0.92866 1.75889 0.930512C1.73949 0.932357 1.7208 0.938605 1.70432 0.948757C1.68783 0.958908 1.67402 0.972682 1.66397 0.988974C1.08592 1.99147 0.890212 3.16107 1.11148 4.29076C1.33275 5.42044 1.95672 6.43737 2.87297 7.16154C2.26121 7.09066 1.66922 6.9054 1.12942 6.6159C1.1118 6.60651 1.09204 6.6016 1.07196 6.6016C1.05189 6.6016 1.03213 6.60651 1.01451 6.6159C0.996849 6.62583 0.982074 6.63998 0.971584 6.65703C0.961094 6.67408 0.955235 6.69346 0.954562 6.71333V6.77666C0.956621 7.81175 1.2967 8.8193 1.92549 9.65322C2.55428 10.4871 3.4391 11.1041 4.45165 11.4146C3.90142 11.499 3.34041 11.4908 2.79303 11.3903C2.77327 11.3854 2.75253 11.3861 2.73312 11.3921C2.71372 11.3981 2.69641 11.4093 2.68312 11.4244C2.67252 11.4412 2.66691 11.4606 2.66691 11.4804C2.66691 11.5002 2.67252 11.5195 2.68312 11.5364C2.98438 12.4469 3.55389 13.2508 4.32061 13.8477C5.08732 14.4446 6.01731 14.8082 6.99454 14.8931C5.33723 16.0777 3.3341 16.7129 1.27929 16.7054C0.896996 16.7063 0.514979 16.6851 0.135244 16.642C0.108299 16.638 0.0807492 16.6431 0.0571367 16.6563C0.0335242 16.6696 0.0152587 16.6904 0.00535166 16.7151C-0.0023915 16.7401 -0.0017169 16.7668 0.00727622 16.7914C0.0162693 16.8159 0.0331062 16.837 0.0553101 16.8515C2.30187 18.2565 4.91518 19.0023 7.58405 19C16.3368 19 21.5724 12.0869 21.5724 5.40282C21.5724 5.21769 21.5724 5.03256 21.5724 4.84743C22.5146 4.17862 23.3296 3.35423 23.9804 2.41154C23.9946 2.39035 24.0014 2.36523 23.9998 2.33996C23.9981 2.31469 23.988 2.29063 23.9711 2.2714C23.9542 2.25217 23.9314 2.23881 23.906 2.23334C23.8807 2.22786 23.8542 2.23056 23.8305 2.24103C23.1124 2.55235 22.3572 2.77493 21.5824 2.90359C22.4053 2.29484 23.0116 1.44969 23.316 0.487179C23.3245 0.465161 23.3258 0.441072 23.3195 0.418334C23.3132 0.395596 23.2997 0.375365 23.281 0.360513C23.2611 0.347317 23.2376 0.340261 23.2136 0.340261C23.1895 0.340261 23.166 0.347317 23.1461 0.360513C22.2183 0.896021 21.2051 1.2764 20.1486 1.4859C19.6819 1.017 19.1236 0.643959 18.5067 0.388764C17.8898 0.13357 17.2267 0.00138484 16.5566 0Z" fill="white"/>
</svg>
