<svg xmlns="http://www.w3.org/2000/svg" viewBox="0 0 320 160"><defs><style>.cls-1,.cls-2{fill:#073c50;}.cls-1{opacity:0;}</style></defs><g id="DACM"><rect class="cls-1" y="1" width="320" height="160"/><path class="cls-2" d="M185.6,57.94a8.25,8.25,0,0,1-.2-1.21V1.34c0-.37,0-.74.08-1.34,1.16,1,2.18,1.88,3.12,2.78,3.14,3,6.25,6.09,9.39,9.11q5.19,5,10.45,10c1.31,1.26,2.66,2.49,4,3.77.47.46.77.57,1.29.05,1.78-1.75,3.6-3.46,5.4-5.18L230.51,9.56q4.69-4.47,9.4-8.91a2.68,2.68,0,0,1,.85-.33V57.94H228.65a8.24,8.24,0,0,1-.2-1.32V27.75L213.1,42.09,197.68,27.6v29a8.23,8.23,0,0,1-.19,1.32Z"/><path class="cls-2" d="M151,57.94c-1.17-.21-2.34-.43-3.52-.63A24.09,24.09,0,0,1,137,52.71a28.08,28.08,0,0,1-9.11-11,25.32,25.32,0,0,1-2.08-7.43,28,28,0,0,1,1.9-14.68,30.19,30.19,0,0,1,5-7.75,26.51,26.51,0,0,1,17.59-9.34A27.18,27.18,0,0,1,163,3.8a52.24,52.24,0,0,1,5.48,2.66,1.09,1.09,0,0,1,.54.76c0,4.24.05,9.26,0,13.52a28.1,28.1,0,0,1-2.4-2,22.31,22.31,0,0,0-8.5-4.9c-6-1.7-11.39-.59-16,3.81a16.49,16.49,0,0,0-5.22,12.46,16.42,16.42,0,0,0,2.93,10,16.14,16.14,0,0,0,12.33,7c5.18.43,9.35-1.59,13.1-4.72,1.09-.91,3.7-3.4,3.7-3V52.78a1.21,1.21,0,0,1-.76,1.19,32.67,32.67,0,0,1-10.91,3.8c-.5.09-1,.15-1.49.23Z"/><path class="cls-2" d="M0,33.18V10.09c0-1.7.39-1.78,1.7-1.78,6.79,0,13.64,0,20.46,0,4.43.06,8.8.64,12.8,2.8A23,23,0,0,1,45.85,23.42,27,27,0,0,1,47.5,35.49a22.66,22.66,0,0,1-5.1,12.9c-3.27,4-7.11,7-12.25,8.15a21.81,21.81,0,0,1-4,.53c-4,.13-8,.16-12,.24-3,.06-6.06.13-9.08.21-1.29,0-2.59.11-3.88.22C.24,57.81,0,57.47,0,56.61.05,48.8,0,41,0,33.18ZM13,44.75c1.84.1,3.56.31,5.27.28a73,73,0,0,0,7.54-.42,9,9,0,0,0,7.06-4.77A14.8,14.8,0,0,0,34.38,30a10.46,10.46,0,0,0-4.55-7.28c-3.13-2.06-6.74-1.95-10.27-2.09a35.36,35.36,0,0,0-3.56.18L13,21Z"/><path class="cls-2" d="M90.05,2.28a11,11,0,0,1,.71,1.11l9.33,18.75q4.84,9.81,9.65,19.66c1.78,3.63,3.59,7.26,5.38,10.89.61,1.24,1.17,2.5,1.77,3.74.34.69.27,1.06-.6,1h-12.4c-.42,0-1-.6-1.19-1-3.35-6.65-6.66-13.32-10-20-.85-1.7-1.69-3.47-2.66-5.32-2.26,4.52-4.49,8.93-6.68,13.36-2,4.06-3.95,8.15-5.94,12.21a1.5,1.5,0,0,1-1,.79c-4.25,0-8.49,0-12.74,0a2.94,2.94,0,0,1-.59-.12,6.54,6.54,0,0,1,.3-.77q2.88-5.87,5.78-11.73L75.06,33l5.5-11.16c1.78-3.6,3.57-7.2,5.33-10.81C87.25,8.17,88.59,5.33,90.05,2.28Z"/></g></svg>