<svg xmlns="http://www.w3.org/2000/svg" viewBox="0 0 320 160"><defs><style>.cls-1,.cls-2{fill:#073c50;}.cls-1{opacity:0;}</style></defs><g id="DeFiance"><rect class="cls-1" width="320" height="160"/><path class="cls-2" d="M131.45,8.13a47.64,47.64,0,0,1,11.44.78c5.1,1.14,9.21,3.69,11.22,8.69,3.44,8.62-.5,18-10.14,20.88a34,34,0,0,1-9.83,1.09c-3.6,0-7.19-.1-10.79-.14-.57,0-1.15.11-1.18-.74s.51-.83,1.09-.94c2.12-.28,2.33-.48,2.65-2.63a7.6,7.6,0,0,0,.09-1.35V12.88c-.11-2.12-.46-2.52-2.53-2.83-.48-.06-.94-.07-.94-.72s.36-.82.94-.85C126.14,8.39,128.8,8.31,131.45,8.13Zm.22,14.32V32.66c0,3.41,1.53,4.78,4.84,4.81H138c3.77-.26,6.87-1.78,8.77-5.12,2.46-4.33,2.6-9,1.31-13.65a11.94,11.94,0,0,0-2.4-4.48c-3.32-3.77-7.75-4.39-12.47-3.77-1.31.17-1.51.47-1.51,1.79Z"/><path class="cls-2" d="M190.82,70.86c.62-.29,1-.45,1.41-.66A9.61,9.61,0,0,1,198.41,69a7.25,7.25,0,0,1,6.16,5.51,10.9,10.9,0,0,1-1.71,10c-2.55,3.37-6.16,4.47-10.25,4.23-1.68-.11-1.77-.13-1.77,1.6V95.8c0,2,.36,2.41,2.38,2.64.59.08,1.45-.06,1.26,1,0,.23-.4.61-.62.61H183.23a.94.94,0,0,1-.66-.58c0-.3.29-.61.47-.9,0-.06.19,0,.29-.06,2.09,0,2.36-.69,2.38-2.83.08-7.07,0-14.14,0-21.2a2.47,2.47,0,0,0-1.19-2.19,1.5,1.5,0,0,1-.6-1.07c0-.24.51-.54.85-.7q2.4-1.16,4.86-2.23c.32-.14.82-.27,1-.12s.25.66.26,1A11.26,11.26,0,0,1,190.82,70.86Zm0,7.76h0v4A3.94,3.94,0,0,0,197.9,85c2.12-2.7,2.3-7.92.37-10.87a5.08,5.08,0,0,0-4.9-2.39,2.39,2.39,0,0,0-2.54,2.67c0,1.39,0,2.79,0,4.18Z"/><path class="cls-2" d="M141.7,88.8c-5.47,0-9.82-1-13.56-3.85a14.27,14.27,0,0,1-5.6-10.47A16,16,0,0,1,125,63.84c2.61-3.91,6.46-5.9,10.9-6.93,4.83-1.14,9.6-.52,14.34.62a1.11,1.11,0,0,1,.59.79c.23,2,.39,4,.57,6,0,.47.07.94-.55,1s-1,0-1.21-.66a8.46,8.46,0,0,0-2.78-4.36c-3.16-2.47-6.67-2.45-10.24-1.21a10.61,10.61,0,0,0-6.87,7.55c-1.46,5.3-1.16,10.46,2,15.18A11.1,11.1,0,0,0,146,85.63a10.3,10.3,0,0,0,4.4-4.78c.12-.24.17-.57.36-.69a2.22,2.22,0,0,1,1.14-.41c.18,0,.53.62.46.85-.57,2.09-1.22,4.14-1.88,6.19a1.2,1.2,0,0,1-.71.58A27.25,27.25,0,0,1,141.7,88.8Z"/><path class="cls-2" d="M200,8.25v6.43a1,1,0,0,1-.65.6,1.48,1.48,0,0,1-1-.43c-.21-.23-.18-.68-.26-1-.61-2.25-1.61-3.17-3.95-3.36-1.81-.14-3.64-.09-5.45-.13-.94,0-1.39.39-1.37,1.42v9.72c0,.76.26,1.05,1,1,1.95-.08,3.89-.1,5.84-.15a2,2,0,0,0,2-1.89,3.48,3.48,0,0,1,.34-1.3,1.73,1.73,0,0,1,1.06-.52c.13,0,.47.47.48.74,0,2.88,0,5.77,0,8.65,0,.26-.4.74-.6.73a1.28,1.28,0,0,1-.94-.56,7.84,7.84,0,0,1-.38-1.59c-.35-1.28-.86-1.75-2.18-1.79-1.95-.07-3.9,0-5.85-.07-.63,0-.84.26-.83.88V35c0,1.88.59,2.44,2.5,2.64.48,0,.94.14,1.45.17s.78.34.74.94a.66.66,0,0,1-.6.73.75.75,0,0,1-.21,0c-1.34-.05-2.67-.15-4-.14-2.83,0-5.58.09-8.38.14-.52,0-1,0-1-.67s.31-.88,1-1c2.37-.31,2.52-.48,2.83-2.83a10.17,10.17,0,0,0,.06-1.35V14.26a18.72,18.72,0,0,0-.15-2.12c-.21-1.66-.49-1.89-2.12-2.27-.35-.07-.78-.12-.94-.35a1.18,1.18,0,0,1,0-.94c0-.17.44-.32.68-.32q9.42,0,18.91.08Z"/><path class="cls-2" d="M241.56,22.35c.43-.23.85-.44,1.26-.68a9.57,9.57,0,0,1,5.42-1.59c3,.1,4.87,1.68,5.32,4.63a17,17,0,0,1,.17,2.46v8.07c0,1.88.33,2.32,2.22,2.58.57.08.8.3.76.88s-.28.76-.86.75h-9c-.52,0-.94-.08-.94-.68s.2-.86.81-.94c1.36-.21,1.69-.42,1.73-1.78.08-3.36.14-6.73,0-10.08-.12-2-1.72-3.06-3.69-2.88a3.38,3.38,0,0,0-3.41,3.33,1.21,1.21,0,0,0,0,.19V35.1c0,2,.18,2.15,2.12,2.83a1,1,0,0,1,.46.86,1,1,0,0,1-.7.64c-.94,0-1.81-.11-2.72-.1-2.08,0-4.15.09-6.24.14-.51,0-1,0-1-.68s.28-.87.94-.94c1.58-.21,2-.58,2-2.18.06-3.43,0-6.87,0-10.3A2.26,2.26,0,0,0,235,23.48a1.33,1.33,0,0,1-.54-.94c0-.25.45-.56.76-.7,1.66-.73,3.34-1.4,5-2.11.84-.36,1.14-.17,1.13.72v1.66S241.47,22.16,241.56,22.35Z"/><path class="cls-2" d="M268.32,86.82a6.42,6.42,0,0,1-5.73,1.74,5,5,0,0,1-2.21-1.09,1.38,1.38,0,0,0-1.88-.15A13,13,0,0,1,255,88.6c-3.48.58-5.89-1.8-5.49-5.3A3.77,3.77,0,0,1,252,80.23c1.89-.78,3.77-1.44,5.66-2.14l.94-.34a1.29,1.29,0,0,0,.94-1.42,23.88,23.88,0,0,0-.25-3.27,2.37,2.37,0,0,0-2.56-1.94,2.3,2.3,0,0,0-2.31,2.19A2,2,0,0,1,253.09,75a13.89,13.89,0,0,1-2.54.56c-.82.1-1.14-.43-.94-1.16a4.24,4.24,0,0,1,.59-1.32c1.89-2.83,7-4.87,10.37-4.12a4.6,4.6,0,0,1,4,4.9c0,2.49-.19,5-.26,7.48a13.32,13.32,0,0,0,.16,2.89c.28,1.55,1.43,2.1,2.91,1.55.95-.36,1.11-.25,1.17.87ZM259.39,80l-.37-.33a23,23,0,0,0-3.3,1.44,2.74,2.74,0,0,0-.65,3.83,3.13,3.13,0,0,0,.56.59c1.25.94,3.23.49,3.45-1S259.36,81.5,259.39,80Z"/><path class="cls-2" d="M174.26,78.41c-.07,1.09-.17,2.19-.18,3.29a11.73,11.73,0,0,0,.16,2.51c.3,1.6,1.43,2.15,3,1.61a2.87,2.87,0,0,1,1,.06c-.09.38,0,.86-.28,1.11a5.84,5.84,0,0,1-7.76.42,1.16,1.16,0,0,0-1.63-.15l-.06,0a7,7,0,0,1-6.09,1.1,4,4,0,0,1-3-3.49c-.27-1.88.19-3.57,2-4.42s4.08-1.64,6.14-2.41c1.8-.68,1.88-.66,1.82-2.56a11,11,0,0,0-.31-2.68,2.38,2.38,0,0,0-2.53-1.73,2.3,2.3,0,0,0-2.27,2.12c-.28,1.39-1.31,2.2-3.17,2.32-.53,0-1.42,0-1.55-.34a2.72,2.72,0,0,1,.22-1.71,2.83,2.83,0,0,1,.72-1A11.32,11.32,0,0,1,170,68.93a4.72,4.72,0,0,1,4.43,4.9V78.4Zm-4.93,1.36a7.1,7.1,0,0,0-3.77,1.28,2.83,2.83,0,0,0-.46,4,3.33,3.33,0,0,0,.46.46c1.2.89,3.13.51,3.37-.81A42.22,42.22,0,0,0,169.33,79.77Z"/><path class="cls-2" d="M229,26.5c-.1,2.19-.24,4.39-.31,6.6a9.9,9.9,0,0,0,.24,2.55,1.88,1.88,0,0,0,2.12,1.62,1.91,1.91,0,0,0,.66-.22c.4-.15.94-.6,1.12.08a1.46,1.46,0,0,1-.43,1.21c-1.75,1.55-5.59,2.52-7.78.1-.44-.47-.78-.29-1.27-.08a18.64,18.64,0,0,1-3.88,1.43c-3.26.59-5.66-1.68-5.48-5a3.78,3.78,0,0,1,2.55-3.38c1.57-.68,3.19-1.24,4.81-1.89,3.24-1.22,2.74-.57,2.7-4.34a2.75,2.75,0,0,0-2.25-2.89A2.31,2.31,0,0,0,219,24a1.06,1.06,0,0,0,0,.19,3.64,3.64,0,0,1-4.35,2.49,1.18,1.18,0,0,1-.55-1,2.88,2.88,0,0,1,.65-1.48,10.89,10.89,0,0,1,10.11-4.05c2.7.37,4.13,2.21,4.14,4.92v1.37ZM224,31a7.09,7.09,0,0,0-3.77,1.32,2.82,2.82,0,0,0-.36,4,2.47,2.47,0,0,0,.56.51c1.24.79,3.06.31,3.27-1C223.86,34.2,224,32.6,224,31Z"/><path class="cls-2" d="M273.78,86.82l.13-.13c2.71-.5,2.74-.5,2.74-3.31,0-7.61-.79-15.22-.77-22.84a2.46,2.46,0,0,0-1.25-2.34,1.33,1.33,0,0,1-.56-.94c0-.24.46-.55.77-.67,1.63-.64,3.28-1.23,4.92-1.83,1.15-.43,1.38-.27,1.38.94-.06,8.55.67,17.11.63,25.65,0,1,0,1.94.11,2.91.15,1.89.29,2,2.15,2.35.72.12,1,.62.65,1.22a1.11,1.11,0,0,1-.86.36c-1.59,0-3.18-.14-4.76-.14-1.33,0-2.66.11-4,.15S273.66,88.12,273.78,86.82Z"/><path class="cls-2" d="M168.62,28.21h-4.87c-.72,0-.94.24-.89.95.42,3.66,2.15,6,5.44,6.77A5.13,5.13,0,0,0,174,34.27c.31-.39.65-.68,1-.29a1.31,1.31,0,0,1,.25,1.14A8.54,8.54,0,0,1,167,39.93a9,9,0,0,1-8.65-9.31q0-.35.06-.69c.32-4.34,2.18-7.69,6.39-9.24,3-1.1,5.93-1,8.55,1.15a5.68,5.68,0,0,1,2.09,4.33c.06,1.41-.37,1.88-1.79,1.94h-5Zm-2.09-2.07h2.33c1.76-.07,2.38-1,1.48-2.56a3.24,3.24,0,0,0-1.72-1.39,4.56,4.56,0,0,0-5.28,3.18c-.14.54,0,.81.57.8C164.79,26.13,165.66,26.14,166.53,26.14Z"/><path class="cls-2" d="M287.55,28.21h-4.87c-.73,0-.95.26-.88,1,.34,3.58,2.15,6,5.42,6.76a5.08,5.08,0,0,0,5.56-1.58c.31-.38.57-.73,1.11-.38s.45.77.2,1.26a8.27,8.27,0,0,1-7.85,4.65,8.44,8.44,0,0,1-8.13-5.21,10.91,10.91,0,0,1,3.39-13,9.06,9.06,0,0,1,10.78.13,5.61,5.61,0,0,1,2,4.35c.06,1.3-.38,1.8-1.68,1.89-1.69.06-3.38,0-5.08,0Zm-5.31-2.09h5.58c1.8,0,2.32-1,1.46-2.57a3.2,3.2,0,0,0-1.39-1.26C285.57,21.25,282.36,23.39,282.24,26.12Z"/><path class="cls-2" d="M270.21,20c1.14.2,2.33.35,3.5.62s1.27,1.18,1.4,2.1a2.45,2.45,0,0,1-.81,2.54,1.41,1.41,0,0,1-1.24-.21c-.56-.44-.95-1.08-1.46-1.56-2-1.88-4.16-1.77-6.12.14-3.36,3.28-2.67,10.88,2.73,12.41,2.46.7,4.76.41,6.52-1.76a1.13,1.13,0,0,1,.94-.2c.19.33.41.85.26,1.13a8.22,8.22,0,0,1-5.86,4.52,9.15,9.15,0,0,1-11.19-6.49,7.6,7.6,0,0,1-.17-.8,10.14,10.14,0,0,1,7.8-11.9C267.74,20.25,269,20.07,270.21,20Z"/><path class="cls-2" d="M232.17,78.31V72.86c0-.81-.23-1.18-1.11-1.16-.62,0-1.52.36-1.74-.57s.78-1,1.36-1.33a11.5,11.5,0,0,0,4.94-4,1.37,1.37,0,0,1,1.11-.45c.21,0,.47.6.51,1a9.84,9.84,0,0,1,0,2c0,.73.29,1,.95,1h3.89c.7,0,1.06.19,1,1s-.09,1.42-1,1.45H238.3c-.73,0-1.06.21-1.06,1V81.6a7.48,7.48,0,0,0,.38,2.1,3,3,0,0,0,3.57,2.16,2.82,2.82,0,0,0,.84-.35c.41-.21.84-.71,1.28-.12s0,1-.42,1.41a8,8,0,0,1-8,1.53c-2.14-.71-2.63-2.63-2.72-4.62-.07-1.79,0-3.57,0-5.35Z"/><path class="cls-2" d="M217.68,88c-1.49.07-3,.13-4.47.21-.55,0-.88-.13-.94-.71s.19-.8.76-1c1.67-.33,2-.6,2-2.31.07-3.36,0-6.74,0-10.1a2.24,2.24,0,0,0-1.21-2,1.39,1.39,0,0,1-.55-1c0-.25.46-.56.76-.7,1.7-.73,3.41-1.42,5.11-2.14.76-.33,1.15-.07,1.14.79,0,4.95-.07,9.91-.08,14.86,0,1.83.28,2.17,2.07,2.55.62.13.68.47.67,1s-.36.67-.85.65Z"/><path class="cls-2" d="M202.66,39.42h-.59c-.51.06-.81-.12-.84-.66s.1-.84.7-.95c1.7-.35,2-.66,2.06-2.27,0-3.4,0-6.81,0-10.21a2.28,2.28,0,0,0-1.18-1.94,1.32,1.32,0,0,1-.55-.94c0-.24.43-.56.74-.71,1.69-.73,3.4-1.41,5.11-2.14.75-.31,1.15,0,1.14.81,0,4.82-.11,9.65-.14,14.48,0,2.13.19,2.32,2.21,3a1.11,1.11,0,0,1,.49.94c0,.23-.45.61-.7.61-1.31,0-2.6-.11-3.9-.14h-4.57Z"/><path class="cls-2" d="M206.63,15.85a2.83,2.83,0,1,1,2.85-3V13a2.74,2.74,0,0,1-2.65,2.83Z"/><path class="cls-2" d="M214,61.69a2.72,2.72,0,0,1,2.68-2.76h.15a2.83,2.83,0,0,1,3,2.69,1.6,1.6,0,0,1,0,.31c0,1.63.78,2.83-3.11,2.74A2.71,2.71,0,0,1,214,62,2.17,2.17,0,0,1,214,61.69Z"/><path class="cls-2" d="M72.51,14.47l-4-1.94L68,13c2.33,3.17,4.53,6.44,7,9.48,4,4.86,8.2,9.55,12,14.77l-7.26-5.39A16.34,16.34,0,0,0,84,42.77l-2.37.51L94.37,54.75l-.43.55c-1-.65-2-1.3-3-2-6.61-4.41-13.6-8-21.45-9.37-13.29-2.32-24,4-25.63,17.92-.11.94-.32,1.8-.52,2.91l-19.8-7.33c1.35,6.24,3.88,10.63,8.83,13.37a1.78,1.78,0,0,0,1.3.18c2.94-1.34,5.41.18,7.92,1.3,1.08.47,2.48,6.67,1.62,7a10.2,10.2,0,0,1-5,.62c-1.77-.36-3.3-1.7-5-2.41a77.74,77.74,0,0,0-7.41-2.65c-1.25-.37-2.07-.78-2.23-2.2A23.41,23.41,0,0,0,18.06,60.5,9.37,9.37,0,0,1,17,58.71c-2.26-4.63.08-7.06,4.81-7.7l.94-.11-6.36-12c-4.21,2.83-6.43,8-11.52,9.15l2.94,6.72-5.32,2C1.59,54,.71,51.46,0,48.84a2.46,2.46,0,0,1,.63-2q6.66-7,13.45-14c2.15-2.21,5-2,6.52.71,2.9,5.1,7.23,8.66,12.15,11.88.1-.24.31-.48.31-.73.08-7.1,3.24-12.54,9-16.46a12.1,12.1,0,0,0,4.52-5.43,7.7,7.7,0,0,0-1.57-8.58,4.26,4.26,0,0,0-1-.51c1.06,4.36-.15,6.72-4.3,8.48-2.5,1.12-5.51,1.48-6.32,4.9-.09.35-1.49.55-2.27.52A3.64,3.64,0,0,1,27.57,24a3.76,3.76,0,0,1,.28-1.32c1.66-4.53,3.39-9,4.72-13.68.64-2.28.37-4.82.53-7.27A3.18,3.18,0,0,1,34.3,2c3.82,2.44,7.8,1.59,11.65.37C50.17,1,54.21,2,58.37,3.06l-4.28.41L54,4c1.35.24,2.71.46,4,.74a6,6,0,0,1,2.19.66c4,2.7,7.93,5.47,11.89,8.22a4.24,4.24,0,0,0,.84.31Z"/><path class="cls-2" d="M80.37,3.67c2.68,1.81,5.51,3.56,8.11,5.58,17.79,13.86,26.46,39.1,20.28,60-4.25,14.3-13.49,23.74-28.67,26-11.65,1.73-21.92-2.2-31.2-9.07a19.78,19.78,0,0,1-4.27-4.2L46.5,83c12.87,7.3,26.33,9.81,40.55,4.48C98.25,83.3,105.21,75,108.38,63.57c3.06-11,1-21.59-3.53-31.78a59.49,59.49,0,0,0-23.91-27c-.31-.19-.59-.42-.89-.63Z"/><path class="cls-2" d="M2.36,0,31.79,7a3.75,3.75,0,0,1,0,.82c-1,3.78-1.09,3.89-4.71,2.48C18.78,7.07,10.51,3.73,2.23.41Z"/></g></svg>