<svg xmlns="http://www.w3.org/2000/svg" viewBox="0 0 320 160"><defs><style>.cls-1,.cls-2{fill:#073c50;}.cls-1{opacity:0;}</style></defs><g id="DeFi"><rect class="cls-1" width="320" height="160"/><path class="cls-2" d="M69.62,10.18l-7.4,12.17a2.49,2.49,0,0,1,.49.75l6.9-.92Zm0,13.17-6.74.93a2.4,2.4,0,0,1-.34,1l7.1,7.22ZM58.41,24.94,42.12,27.71a2.46,2.46,0,0,1-.53,1.3L60.24,54.73,60,26.28A2.39,2.39,0,0,1,58.41,24.94Zm3.25,1.11a2.34,2.34,0,0,1-.5.19l.26,28.92,8.2-11.53v-9.5Zm-21,3.62-.16.06,1.39,27,17.89-.69Zm-1.64,0-18.24,27a2.16,2.16,0,0,1,.49.92l19.41-.74L39.32,29.79Zm30.62,16L62.06,56.25l7.56,1.62ZM36.56,3.56A142.54,142.54,0,0,0,3.7,7.43H3.5V65l13.21-6.35a2.41,2.41,0,0,1,0-.38v-.07A2.34,2.34,0,0,1,19.85,56L38,29a2.3,2.3,0,0,1-.59-1.54,2.34,2.34,0,0,1,4.48-.92l16.3-2.78a2.34,2.34,0,0,1,2.33-2.13,2.52,2.52,0,0,1,.67.09l8.4-13.87V7.4h-.2A142.12,142.12,0,0,0,37.13,3.56ZM61.68,57.44l3.69,12.87.24-.24.45-.46.42-.45.15-.15.41-.45.27-.28.26-.29.25-.28.36-.4.24-.27.34-.39.21-.26.2-.24.2-.25.19-.23.07-.09V59.11Zm-1.27-.17L43,57.93,64,71.65l.32-.3.08-.09ZM17.24,59.73,4,66.1l.1.13c.13.15.25.31.38.47l.26.31.27.32.29.33.43.5.3.33.31.34.32.35.32.35.42.44.42.45.34.36.37.37.36.36.36.37.38.38.37.38.38.37.4.39.39.38.61.57.41.39.4.39.42.39.42.38.43.39.43.4.43.39.44.39.44.39.36.32,2.23-17.79A2.52,2.52,0,0,1,17.24,59.73ZM40.66,58l-19.34.73a2.39,2.39,0,0,1-.41.92L37.1,79.54Zm1.1.5L38.19,80.09,61.61,74l.35-.33.36-.34.36-.35.35-.33.18-.17ZM20,60.33a2.55,2.55,0,0,1-.67.18L17,79.08l.37.33.45.39.26.22,18.15.25ZM59.76,75.66l-21,5.49,7.51,5.61.27-.21L47,86.2l.24-.17.61-.46.6-.46.49-.38.74-.57.5-.4.5-.4.51-.4.51-.41.78-.63.46-.39.64-.52.63-.52.61-.54.62-.52.42-.36.61-.53.61-.53.61-.54.4-.35.59-.53.58-.53ZM19.48,81.21l.39.32.48.39.46.37.76.62.5.41.5.39.5.39.5.39.62.47.61.46.6.45.59.44.48.34.25.19,8.54-5.42Zm16.88.92-8.61,5.46.33.23.45.3.44.31.44.29.42.28.83.54.41.25.18.12.37.22,1.21.7.19.1Zm1.37-.31L34,91.49l.15.07.7.33a10.18,10.18,0,0,0,1.24.46H37l.14,0,.14,0h.12l.13,0,.14-.06.22-.1L38,92l.26-.12.26-.13.18-.09.2-.09.29-.16.32-.18.32-.17.22-.13.24-.13.35-.21.36-.22.25-.15.25-.15.25-.16.4-.25,1-.68.42-.29.44-.29.43-.3.49-.39.33-.24ZM36.56,0A147,147,0,0,1,73.13,4.68v62l-.26.36-.18.25-.11.13-.19.25-.21.26-.22.27-.23.28-.12.14-.24.28-.25.29-.25.3-.26.3-.42.45-.29.32-.28.31-.15.17-.46.48-.32.33-.48.5-.32.33-.34.35-.35.34-.16.17.19.13-.44.12L65.61,75l-.61.59c-1.23,1.18-2.55,2.4-3.9,3.61l-.67.61-.34.3-.7.6-.69.61-.7.6c-.93.81-1.85,1.6-2.78,2.39l-.71.58-.71.57C46.54,91.26,39.51,96,36.56,96,30.33,96,7.07,76.59,0,66.7v-62A146.91,146.91,0,0,1,36.56,0Z"/><path class="cls-2" d="M182.71,5.15a3.18,3.18,0,1,1-3.16,3.2v0a3.1,3.1,0,0,1,3.06-3.15Zm-45,13.13A6.8,6.8,0,0,0,130.94,24v.21h13.5v-.27a6.26,6.26,0,0,0-6.4-5.61Zm-30.57-7.4H103V34.36h4.15c7.1,0,11.31-4.33,11.31-11.77,0-7.13-4.1-11.55-10.94-11.71ZM185.1,14.4V38.84h-4.75V18.67H176V14.45Zm-12-8V11H158.88v9.47h13.23v4.49H158.88V38.84h-4.83V6.43Zm-65.9,0c10,0,16.26,6.47,16.26,16.2,0,9.94-5.92,16-15.82,16.21H95.21V34.54h2.94V10.75H95.21V6.43Zm30.57,7.39c7,0,11.47,4.81,11.62,12.08v2.3H130.74c.25,4.16,2.65,6.58,6.62,6.8H138a6.31,6.31,0,0,0,6.32-4.33l.07-.27.14-.6,4.63,1.09-.19.64c-1.42,4.75-5.63,7.83-11.09,7.83-7.3,0-12-5.13-12-12.69S131,13.88,137.72,13.88Zm54.45,30.86a3.18,3.18,0,1,1-3.16,3.2v-.05a3.12,3.12,0,0,1,3.12-3.06ZM170.42,57.81c-4.26,0-7.22,3.53-7.22,8.32,0,5.11,3.06,8.39,7.31,8.39s7.22-3.44,7.22-8.39-3.12-8.22-7.36-8.22Zm-30.7,0c-4.2,0-7.22,3.47-7.22,8.42s3.06,8.32,7.26,8.32S147,71,147,66.23c0-5-3.1-8.32-7.31-8.32Zm90.5,0c-4.19,0-7.22,3.47-7.22,8.42s3.06,8.32,7.27,8.32,7.22-3.52,7.22-8.32c-.05-5-3.09-8.32-7.31-8.32ZM208.34,47.22V54h7.13v4.21h-7.13v13c0,2,.65,2.77,2.42,2.93h4.4v4.4h-3.91c-4.75,0-7.54-2.32-7.66-6.89V58.26h-4.36V54h4.62V47.31Zm49.06-3.51V74.07h4.68v4.37H247.93V74.17h4.67V48.06h-4.67V43.8ZM194.61,54V78.44h-4.75V58.26h-4.38V54Zm35.22-.58a9.63,9.63,0,0,1,7.23,3l.21.23.09.11V53.93h4.8v19.7c0,.3.1.42.41.44h1.85v4.37h-2.89a3.88,3.88,0,0,1-3.76-2.68l-.08-.24-.17.21a7.3,7.3,0,0,1-.82.85l-.31.28-.34.26A9.39,9.39,0,0,1,230.13,79c-7,0-11.93-5.3-11.93-12.73s4.68-12.76,11.58-12.76ZM110.31,45.44a15.62,15.62,0,0,1,14.88,10.17l.13.36.29.83h-5.3l-.16-.38a10.32,10.32,0,0,0-9.84-6.34c-6.55,0-11.45,5.18-11.45,12.16s4.87,12.16,11.45,12.16a10.26,10.26,0,0,0,9.72-6l.12-.32.15-.39h5.29l-.26.81A15.43,15.43,0,0,1,110.26,79c-9.38,0-16.38-7.17-16.38-16.78S101,45.44,110.31,45.44Zm28.95,8a9.67,9.67,0,0,1,7.24,3l.2.23.1.11V54h4.79V73.63c0,.3.11.42.42.44h1.85v4.37H151a3.9,3.9,0,0,1-3.77-2.68l-.07-.24-.18.21a8.14,8.14,0,0,1-.81.85l-.31.28-.35.26A9.39,9.39,0,0,1,139.57,79c-7,0-11.94-5.3-11.94-12.73S132.38,53.48,139.26,53.48Zm31.32,0c6.95,0,11.94,5.32,11.94,12.73S177.74,79,170.85,79a9.52,9.52,0,0,1-7.3-3l-.2-.22-.07-.09V88.68h-4.76V54h4.62v2.72l.29-.32.3-.31.33-.3a9.4,9.4,0,0,1,6.53-2.35Z"/></g></svg>