<svg xmlns="http://www.w3.org/2000/svg" viewBox="0 0 320 160"><defs><style>.cls-1,.cls-2{fill:#073c50;}.cls-1{opacity:0;}.cls-2{fill-rule:evenodd;}</style></defs><g id="Dusk"><rect class="cls-1" width="320" height="160"/><path class="cls-2" d="M.22.15a30.73,30.73,0,1,1,6,61.17,31.23,31.23,0,0,1-6,0,.22.22,0,1,1,0-.44A30.31,30.31,0,0,0,27.36,27.72,30.29,30.29,0,0,0,.22.58.2.2,0,0,1,0,.4v0A.22.22,0,0,1,.22.15Z"/><path class="cls-2" d="M112.2,36.69V5h5.23V37.28a31.14,31.14,0,0,1-.83,6.79,18.57,18.57,0,0,1-3,6.64,17,17,0,0,1-5.92,5,20,20,0,0,1-9.48,2,20,20,0,0,1-9.51-2,17.19,17.19,0,0,1-5.88-5,19,19,0,0,1-3-6.64A30.54,30.54,0,0,1,79,37.28V5H84.2V36.69a25.9,25.9,0,0,0,.72,6.07A15.16,15.16,0,0,0,87.29,48a12.22,12.22,0,0,0,4.31,3.7,16,16,0,0,0,13.2,0,12.23,12.23,0,0,0,4.32-3.7,15,15,0,0,0,2.36-5.24A24.88,24.88,0,0,0,112.2,36.69Z"/><path class="cls-2" d="M191.85,32.44a12.74,12.74,0,0,1,3.55,4.14,13.08,13.08,0,0,1,1.38,6.36,13.62,13.62,0,0,1-5.29,11.26,16.29,16.29,0,0,1-5.36,2.69,22.19,22.19,0,0,1-6.06.87,24.22,24.22,0,0,1-4.65-.48A20.78,20.78,0,0,1,171,55.87a18.32,18.32,0,0,1-3.92-2.4,18,18,0,0,1-3.19-3.34l4.5-3.34a13.88,13.88,0,0,0,4.69,4.61,13.42,13.42,0,0,0,7.08,1.85,13.91,13.91,0,0,0,4-.62,11.23,11.23,0,0,0,3.67-1.89,10.33,10.33,0,0,0,2.69-3.12,8.67,8.67,0,0,0,1-4.32,8.56,8.56,0,0,0-1-4.47,9.34,9.34,0,0,0-2.8-3,17.21,17.21,0,0,0-4-2L179,32.24c-1.69-.54-3.37-1.15-5-1.82a17,17,0,0,1-4.43-2.64,12.79,12.79,0,0,1-3.16-4,13.27,13.27,0,0,1-1.19-5.88,13,13,0,0,1,1.45-6.39A13.54,13.54,0,0,1,170.58,7a16.37,16.37,0,0,1,5.31-2.54,21.35,21.35,0,0,1,5.73-.79,19.66,19.66,0,0,1,8.93,1.85A15.42,15.42,0,0,1,196.14,10L192,13.38a12.51,12.51,0,0,0-4.28-3.74,13.15,13.15,0,0,0-6.31-1.42,13.63,13.63,0,0,0-3.86.59A10.88,10.88,0,0,0,174,10.59a8.74,8.74,0,0,0-3.56,7.29,7.83,7.83,0,0,0,.95,4.07,8.56,8.56,0,0,0,2.5,2.72,14.74,14.74,0,0,0,3.54,1.85L181.6,28,187,29.87A18.27,18.27,0,0,1,191.85,32.44Z"/><path class="cls-2" d="M255.67,28.34,283,56.44h-7.69L249.67,29h-.08v27.4h-5.22V5h5.22V28.13h.08L274.11,5h7.47Z"/></g></svg>