<svg xmlns="http://www.w3.org/2000/svg" viewBox="0 0 320 160"><defs><style>.cls-1,.cls-2{fill:#073c50;}.cls-1{opacity:0;}</style></defs><g id="Everstake"><rect class="cls-1" y="0.85" width="320" height="160"/><g id="Layer_2" data-name="Layer 2"><g id="Layer_1-2" data-name="Layer 1-2"><path class="cls-2" d="M56.29,22.1,45.16,2.83A5.69,5.69,0,0,0,40.24,0H18A7.08,7.08,0,0,0,11.9,3.52L.77,22.79a5.67,5.67,0,0,0,0,5.66L11.9,47.75A7.08,7.08,0,0,0,18,51.27H40.24a5.68,5.68,0,0,0,4.89-2.84L56.27,29.17A7.06,7.06,0,0,0,56.29,22.1ZM3.93,25.7l1.26-2.16h0L15.13,6.28,21.37,17.1A2.09,2.09,0,0,0,25,15L20,6.28h0a4.76,4.76,0,0,0-3.74-2.09H38.68L28.13,22.48h0a2.14,2.14,0,0,1-1.84,1.06H7.72A4.35,4.35,0,0,0,3.93,25.7ZM38.68,47.08H18.77L25,36.26A2.1,2.1,0,1,0,21.47,34a.86.86,0,0,0-.1.16L15.14,45h0L13.9,47.15a4.41,4.41,0,0,0,.19-4L5.18,27.73H26.29a2.12,2.12,0,0,1,1.84,1.06h0L37.51,45a4.71,4.71,0,0,0,3.7,2ZM37.48,45ZM52.27,27.73,42.32,45,31.74,26.7a2.11,2.11,0,0,1,0-2.12h0L42.32,6.28h0l1.24-2.15a4.37,4.37,0,0,0,.24,4.72c.35.49,8.5,14.68,8.5,14.68H39.77a2.1,2.1,0,0,0,0,4.2h10a4.37,4.37,0,0,0,3.79-2.16l-1.26,2.17Z"/><path class="cls-2" d="M177.67,14.26a7,7,0,0,0-3.68,1,11.57,11.57,0,0,0-2.85,2.46l-.12.13h-.66l-.69-3.05h-7.21a1.31,1.31,0,0,0-1.23.85l-1.3,3.48h8.34s-2.61,0-2.61,2.12V32.8h-3.2a1.31,1.31,0,0,0-1.23.85l-1.31,3.47H178.4a1.33,1.33,0,0,0,1.24-.85l1.3-3.48h-10V22.46l.06-.1a9.82,9.82,0,0,1,2-2.22,4.9,4.9,0,0,1,3.22-1,2.06,2.06,0,0,1,1.87.94,4.44,4.44,0,0,1,.54,2.26h4.65c0-2.87-.56-4.95-1.51-6.18A4.85,4.85,0,0,0,177.67,14.26Z"/><path class="cls-2" d="M206,25.5a19.13,19.13,0,0,0-3.58-1.29l-3.66-.95a19.29,19.29,0,0,1-2.83-1,1.89,1.89,0,0,1-1.36-1.7A2,2,0,0,1,196,18.7a8.59,8.59,0,0,1,3.29-.54,10.43,10.43,0,0,1,2.23.24,14.41,14.41,0,0,1,2.13.62c.67.25,1.32.52,1.93.82s.91.46,1.3.68L209,17l-1.24-.82a11,11,0,0,0-2.1-1,19.61,19.61,0,0,0-2.92-.77,22.26,22.26,0,0,0-3.91-.32,16.17,16.17,0,0,0-3.86.46,9.34,9.34,0,0,0-3,1.31,6.36,6.36,0,0,0-2,2.07,5.39,5.39,0,0,0-.71,2.83,4.65,4.65,0,0,0,1,3.15A8.76,8.76,0,0,0,193,26a15.6,15.6,0,0,0,3.57,1.31c1.31.33,2.54.64,3.66,1a16.31,16.31,0,0,1,2.86,1,2,2,0,0,1,1.35,1.82,2.14,2.14,0,0,1-1.28,2.05,8.88,8.88,0,0,1-5.59.19,19.48,19.48,0,0,1-2.71-.88,15,15,0,0,1-2.3-1.16c-.52-.32-.95-.62-1.31-.89l-2.36,3.71a15.81,15.81,0,0,0,4.29,2.47,17.87,17.87,0,0,0,6.72,1.14c3.25,0,5.73-.65,7.36-1.94a6.22,6.22,0,0,0,2.4-5.22,4.5,4.5,0,0,0-1-3.08A8.46,8.46,0,0,0,206,25.5Z"/><path class="cls-2" d="M235.49,31.05A11.61,11.61,0,0,1,234,32.1a8.67,8.67,0,0,1-1.91.8,8.26,8.26,0,0,1-2.37.32,5,5,0,0,1-4-1.73c-.94-1.13-1.43-2.95-1.43-5.4v-7h10.49l1.61-4.33H224.21V7.93l-4.3,1.23a1.31,1.31,0,0,0-.95,1.26v4.37h-2a1.31,1.31,0,0,0-1.23.85l-1.31,3.47h7.4s-2.83,0-2.83,2.23v4.73c0,4.07.84,7.07,2.51,8.92s4.18,2.76,7.51,2.76a12.86,12.86,0,0,0,2.83-.32,16,16,0,0,0,2.78-.87,17.79,17.79,0,0,0,2.48-1.31,8.87,8.87,0,0,0,1.7-1.4l-2.37-3.57Z"/><path class="cls-2" d="M262.58,32.45c0-.38-.08-.79-.14-1.23q-.09-1.23-.09-2.22c0-.88,0-1.89.16-3s.16-2.43.16-4a10.88,10.88,0,0,0-.45-3.21,5.86,5.86,0,0,0-1.41-2.39,6.42,6.42,0,0,0-2.58-1.54,12.1,12.1,0,0,0-4-.57,23.48,23.48,0,0,0-5.67.57,25.37,25.37,0,0,0-3.9,1.27l1.2,4a28.17,28.17,0,0,1,2.83-1,14.45,14.45,0,0,1,4.33-.62,5.31,5.31,0,0,1,3.22.84,3.31,3.31,0,0,1,1.13,2.84V23a4.87,4.87,0,0,1-.1,1l0,.35h-.33c-.9-.06-1.66-.13-2.27-.19s-1.17-.09-1.7-.09a18.87,18.87,0,0,0-4.17.43,9.43,9.43,0,0,0-3.13,1.29A5.69,5.69,0,0,0,243.73,28a7,7,0,0,0-.67,3.18,6,6,0,0,0,1.9,4.62,7.6,7.6,0,0,0,5.21,1.75,8.52,8.52,0,0,0,4.4-1,7.59,7.59,0,0,0,2.5-2.35l.11-.17h.76l.6,3.14h5.17A1.32,1.32,0,0,0,265,36.08l.61-3.25h-3Zm-5.2-2-.05.09a5.68,5.68,0,0,1-1.7,1.85,5.89,5.89,0,0,1-3.52.89,3.86,3.86,0,0,1-2.75-.82,3,3,0,0,1-.87-2.27,2.49,2.49,0,0,1,.48-1.56,3.56,3.56,0,0,1,1.23-1,6.14,6.14,0,0,1,1.66-.56,12.54,12.54,0,0,1,3.82-.06c.62.08,1.08.15,1.4.21l.3.07v3.18Z"/><path class="cls-2" d="M283.81,24.93l9-10.15h-6.06L279.18,24h-1.95V5.52h-6.51a1.33,1.33,0,0,0-1.23.85l-1.3,3.48h6.33s-2.54,0-2.54,1.86V37.12h5.25V27.55h2.17l7.94,9.57h4.39a1.32,1.32,0,0,0,1.24-.85l1.3-3.48h-4.1Z"/><path class="cls-2" d="M124.27,14.77a1.32,1.32,0,0,0-1.25.92L118.26,29h-.87L111,14.79h-4.63a1.33,1.33,0,0,0-1.23.85l-1.3,3.47h6.45s-3.08,0-1.91,2.84L115,37.12h5.46L129,14.77Z"/><path class="cls-2" d="M97.32,16.11A9.64,9.64,0,0,0,94,14.57a15.09,15.09,0,0,0-8.32.29,10.93,10.93,0,0,0-3.82,2.21,10.32,10.32,0,0,0-2.53,3.69A13.16,13.16,0,0,0,78.4,26a14.06,14.06,0,0,0,.82,5,10,10,0,0,0,6.18,6,15.6,15.6,0,0,0,5.16.81c1.14,0,6.3-.19,10.27-3l-.74-3.69a17.25,17.25,0,0,1-9.16,2.67,11.17,11.17,0,0,1-2.7-.29,6.89,6.89,0,0,1-2.29-1,5.3,5.3,0,0,1-1.64-1.79A5.67,5.67,0,0,1,83.62,28v-.39H100.3a20.58,20.58,0,0,0,.4-3.91,10,10,0,0,0-1-4.63A8.17,8.17,0,0,0,97.32,16.11ZM95.9,23.92H83.73l0-.4a5.33,5.33,0,0,1,.7-2.27A5.71,5.71,0,0,1,86,19.55a6.88,6.88,0,0,1,2-1,8,8,0,0,1,2.38-.34,5.44,5.44,0,0,1,4.13,1.46,5.46,5.46,0,0,1,1.38,3.91Z"/><path class="cls-2" d="M151.13,16.11a9.69,9.69,0,0,0-3.32-1.54,15.09,15.09,0,0,0-8.32.29,10.93,10.93,0,0,0-3.82,2.21,10.48,10.48,0,0,0-2.56,3.68,13.56,13.56,0,0,0-.94,5.19,13.81,13.81,0,0,0,.83,5,10,10,0,0,0,6.2,6,15.35,15.35,0,0,0,5.16.81c1.14,0,6.3-.19,10.26-3l-.71-3.69a17.29,17.29,0,0,1-9.16,2.68,11.8,11.8,0,0,1-2.71-.31,7.22,7.22,0,0,1-2.29-1,5.4,5.4,0,0,1-1.65-1.81,5.65,5.65,0,0,1-.67-2.67v-.4h16.71a21.42,21.42,0,0,0,.39-3.91,10,10,0,0,0-1-4.61A8.15,8.15,0,0,0,151.13,16.11Zm-1.43,7.81H137.53l0-.4a5.18,5.18,0,0,1,.69-2.27,5.74,5.74,0,0,1,1.52-1.7,6.71,6.71,0,0,1,2-1,8,8,0,0,1,2.38-.34,5.46,5.46,0,0,1,4.14,1.46,5.5,5.5,0,0,1,1.38,3.91Z"/><path class="cls-2" d="M316.51,16.11a9.69,9.69,0,0,0-3.32-1.54,15.09,15.09,0,0,0-8.32.29,10.8,10.8,0,0,0-3.81,2.21,10.38,10.38,0,0,0-2.57,3.68,13.56,13.56,0,0,0-.94,5.19,14.26,14.26,0,0,0,.83,5A10,10,0,0,0,304.59,37a15.56,15.56,0,0,0,5.16.81c1.13,0,6.3-.19,10.26-3l-.73-3.69a17.28,17.28,0,0,1-9.16,2.67,11.27,11.27,0,0,1-2.71-.31,6.89,6.89,0,0,1-2.29-1,5.4,5.4,0,0,1-1.64-1.79,5.7,5.7,0,0,1-.68-2.68v-.39h16.72a20.58,20.58,0,0,0,.4-3.91A10,10,0,0,0,319,19,8.21,8.21,0,0,0,316.51,16.11Zm-1.44,7.81H302.91l0-.4a5.07,5.07,0,0,1,.7-2.27,5.58,5.58,0,0,1,1.51-1.7,6.71,6.71,0,0,1,2-1,8,8,0,0,1,2.38-.34,5.46,5.46,0,0,1,4.14,1.46,5.5,5.5,0,0,1,1.38,3.91Z"/></g></g></g></svg>