<svg xmlns="http://www.w3.org/2000/svg" xmlns:xlink="http://www.w3.org/1999/xlink" viewBox="0 0 320 160"><defs><style>.cls-1,.cls-2{fill:#073c50;}.cls-2{opacity:0;}.cls-3{clip-path:url(#clip-path);}.cls-4{clip-path:url(#clip-path-2);}.cls-5{clip-path:url(#clip-path-3);}.cls-6{clip-path:url(#clip-path-5);}.cls-7{clip-path:url(#clip-path-7);}.cls-8{clip-path:url(#clip-path-9);}.cls-9{clip-path:url(#clip-path-11);}.cls-10{clip-path:url(#clip-path-13);}.cls-11{clip-path:url(#clip-path-15);}.cls-12{clip-path:url(#clip-path-17);}.cls-13{clip-path:url(#clip-path-19);}.cls-14{clip-path:url(#clip-path-21);}.cls-15{clip-path:url(#clip-path-23);}</style><clipPath id="clip-path"><path class="cls-1" d="M69.69,12.77V28.58H53.9V14.75a2,2,0,0,0-2-2H46.45v38a2,2,0,0,0,2,2h5.26V34.94H69.47V50.53a2,2,0,0,0,2,2H76.7V14.75a2,2,0,0,0-2-2Z"/></clipPath><clipPath id="clip-path-2"><rect class="cls-1" x="0.08" y="-0.06" width="320.71" height="54.59"/></clipPath><clipPath id="clip-path-3"><path class="cls-1" d="M100.82,22.64v19.1a4.73,4.73,0,0,1-2.41,4.18,5.57,5.57,0,0,1-8.55-4.62V24.61a2,2,0,0,0-2-2H82.62V42A11.47,11.47,0,0,0,94,53.38h2.85A11.47,11.47,0,0,0,108.27,42V24.61a2,2,0,0,0-2-2Z"/></clipPath><clipPath id="clip-path-5"><path class="cls-1" d="M181.44,52.56h5.26v-27a2,2,0,0,0-2-2h-5.26v27a2,2,0,0,0,2,2"/></clipPath><clipPath id="clip-path-7"><path class="cls-1" d="M183.17,20.83a4.2,4.2,0,1,0-4.2-4.2,4.07,4.07,0,0,0,4.2,4.2"/></clipPath><clipPath id="clip-path-9"><path class="cls-1" d="M127.26,22.64c-7.69,0-14.06,5.5-14.06,13.2V40c0,7.7,6.37,13.2,14.06,13.2s14.06-5.5,14.06-13.2V35.84C141.32,28.14,135.17,22.64,127.26,22.64Zm6.81,18c0,3.74-3.07,6.16-6.59,6.16s-6.59-2.42-6.59-6.16V35.4c0-3.74,3.08-6.16,6.59-6.16s6.59,2.42,6.59,6.16Z"/></clipPath><clipPath id="clip-path-11"><path class="cls-1" d="M252.88,22.64c-7.68,0-14,5.5-14,13.2V40c0,7.7,6.37,13.2,14,13.2s14.06-5.5,14.06-13.2V35.84C266.94,28.14,260.57,22.64,252.88,22.64Zm6.59,18c0,3.74-3.07,6.16-6.59,6.16s-6.59-2.42-6.59-6.16V35.4c0-3.74,3.08-6.16,6.59-6.16s6.59,2.42,6.59,6.16Z"/></clipPath><clipPath id="clip-path-13"><path class="cls-1" d="M285.28,22.64c-7.69,0-14.06,5.5-14.06,13.2V40c0,7.7,6.37,13.2,14.06,13.2s14.06-5.5,14.06-13.2V35.84C299.34,28.14,293.18,22.64,285.28,22.64Zm6.81,18c0,3.74-3.08,6.16-6.59,6.16s-6.59-2.42-6.59-6.16V35.4c0-3.74,3.07-6.16,6.59-6.16s6.59,2.42,6.59,6.16Z"/></clipPath><clipPath id="clip-path-15"><path class="cls-1" d="M160.42,22.66a13.25,13.25,0,0,0-6.59,1.54V14.75a2,2,0,0,0-2-2h-5.27V40c0,7.69,6.37,13.19,14.06,13.19S174.7,47.72,174.7,40V35.85C174.48,28.16,168.11,22.66,160.42,22.66Zm6.59,18c0,3.74-3.07,6.15-6.59,6.15s-6.59-2.41-6.59-6.15V35.41c0-3.73,3.08-6.15,6.59-6.15S167,31.68,167,35.41Z"/></clipPath><clipPath id="clip-path-17"><path class="cls-1" d="M23.54,16.75c0-7.91-3.73-14.5-6.8-16.7,0,0-.22-.21-.22.22,0,15.16-7.67,19.12-12.06,24.61C-5.4,37.62,3.8,51.46,13,54.09c5.26,1.54-1.09-2.63-2-11-.88-10.1,12.5-17.79,12.5-26.36"/></clipPath><clipPath id="clip-path-19"><path class="cls-1" d="M28.58,21.92h0c-.22,1.76-2.41,5.92-5,9.65-9,12.71-3.73,18.63-.88,21.92,1.75,2,0,0,4.16-2,.22-.22,8.12-4.17,9-13.59a18.63,18.63,0,0,0-7.23-16"/></clipPath><clipPath id="clip-path-21"><path class="cls-1" d="M320.22,52.89V48.28a2,2,0,0,0-2-2h-3.71c-3.06,0-2.84-1.53-2.84-5.48V14.25a2,2,0,0,0-2-2h-5.46V41.69c0,7,1.75,11.2,9.39,11.2A63.78,63.78,0,0,1,320.22,52.89Z"/></clipPath><clipPath id="clip-path-23"><path class="cls-1" d="M220.74,12.77a16.44,16.44,0,0,0-7.48,1.75,2.14,2.14,0,0,0-2.2-1.75h-5.28V51.36a2.2,2.2,0,0,0,2.2,2.19h5.72V42.15a19.46,19.46,0,0,0,7,1.53c8.14,0,15-5.48,15-13.15V26.36C235.7,18.25,229.1,12.77,220.74,12.77Zm7,18c0,3.72-3.08,6.14-7,6.14s-7-2.42-7-6.14V25.49c0-3.73,3.3-6.14,7-6.14,4,0,7,2.41,7,6.14Z"/></clipPath></defs><g id="HoubiPool"><rect class="cls-2" y="-0.06" width="320" height="160"/><path class="cls-1" d="M69.69,12.77V28.58H53.9V14.75a2,2,0,0,0-2-2H46.45v38a2,2,0,0,0,2,2h5.26V34.94H69.47V50.53a2,2,0,0,0,2,2H76.7V14.75a2,2,0,0,0-2-2Z"/><g class="cls-3"><rect class="cls-1" x="0.08" y="-0.06" width="320.71" height="54.59"/><g class="cls-4"><rect class="cls-1" x="42.18" y="8.5" width="38.78" height="48.49"/></g></g><path class="cls-1" d="M100.82,22.64v19.1a4.73,4.73,0,0,1-2.41,4.18,5.57,5.57,0,0,1-8.55-4.62V24.61a2,2,0,0,0-2-2H82.62V42A11.47,11.47,0,0,0,94,53.38h2.85A11.47,11.47,0,0,0,108.27,42V24.61a2,2,0,0,0-2-2Z"/><g class="cls-5"><rect class="cls-1" x="0.08" y="-0.06" width="320.71" height="54.59"/><g class="cls-4"><rect class="cls-1" x="78.36" y="18.37" width="34.18" height="39.28"/></g></g><path class="cls-1" d="M181.44,52.56h5.26v-27a2,2,0,0,0-2-2h-5.26v27a2,2,0,0,0,2,2"/><g class="cls-6"><rect class="cls-1" x="0.08" y="-0.06" width="320.71" height="54.59"/><g class="cls-4"><rect class="cls-1" x="175.2" y="19.36" width="15.76" height="37.47"/></g></g><path class="cls-1" d="M183.17,20.83a4.2,4.2,0,1,0-4.2-4.2,4.07,4.07,0,0,0,4.2,4.2"/><g class="cls-7"><rect class="cls-1" x="0.08" y="-0.06" width="320.71" height="54.59"/><g class="cls-4"><rect class="cls-1" x="174.71" y="8.18" width="16.92" height="16.92"/></g></g><path class="cls-1" d="M127.26,22.64c-7.69,0-14.06,5.5-14.06,13.2V40c0,7.7,6.37,13.2,14.06,13.2s14.06-5.5,14.06-13.2V35.84C141.32,28.14,135.17,22.64,127.26,22.64Zm6.81,18c0,3.74-3.07,6.16-6.59,6.16s-6.59-2.42-6.59-6.16V35.4c0-3.74,3.08-6.16,6.59-6.16s6.59,2.42,6.59,6.16Z"/><g class="cls-8"><rect class="cls-1" x="0.08" y="-0.06" width="320.71" height="54.59"/><g class="cls-4"><rect class="cls-1" x="108.94" y="18.37" width="36.65" height="39.11"/></g></g><path class="cls-1" d="M252.88,22.64c-7.68,0-14,5.5-14,13.2V40c0,7.7,6.37,13.2,14,13.2s14.06-5.5,14.06-13.2V35.84C266.94,28.14,260.57,22.64,252.88,22.64Zm6.59,18c0,3.74-3.07,6.16-6.59,6.16s-6.59-2.42-6.59-6.16V35.4c0-3.74,3.08-6.16,6.59-6.16s6.59,2.42,6.59,6.16Z"/><g class="cls-9"><rect class="cls-1" x="0.08" y="-0.06" width="320.71" height="54.59"/><g class="cls-4"><rect class="cls-1" x="234.56" y="18.37" width="36.65" height="39.11"/></g></g><path class="cls-1" d="M285.28,22.64c-7.69,0-14.06,5.5-14.06,13.2V40c0,7.7,6.37,13.2,14.06,13.2s14.06-5.5,14.06-13.2V35.84C299.34,28.14,293.18,22.64,285.28,22.64Zm6.81,18c0,3.74-3.08,6.16-6.59,6.16s-6.59-2.42-6.59-6.16V35.4c0-3.74,3.07-6.16,6.59-6.16s6.59,2.42,6.59,6.16Z"/><g class="cls-10"><rect class="cls-1" x="0.08" y="-0.06" width="320.71" height="54.59"/><g class="cls-4"><rect class="cls-1" x="266.95" y="18.37" width="36.65" height="39.11"/></g></g><path class="cls-1" d="M160.42,22.66a13.25,13.25,0,0,0-6.59,1.54V14.75a2,2,0,0,0-2-2h-5.27V40c0,7.69,6.37,13.19,14.06,13.19S174.7,47.72,174.7,40V35.85C174.48,28.16,168.11,22.66,160.42,22.66Zm6.59,18c0,3.74-3.07,6.15-6.59,6.15s-6.59-2.41-6.59-6.15V35.41c0-3.73,3.08-6.15,6.59-6.15S167,31.68,167,35.41Z"/><g class="cls-11"><rect class="cls-1" x="0.08" y="-0.06" width="320.71" height="54.59"/><g class="cls-4"><rect class="cls-1" x="142.32" y="8.5" width="36.65" height="48.98"/></g></g><path class="cls-1" d="M23.54,16.75c0-7.91-3.73-14.5-6.8-16.7,0,0-.22-.21-.22.22,0,15.16-7.67,19.12-12.06,24.61C-5.4,37.62,3.8,51.46,13,54.09c5.26,1.54-1.09-2.63-2-11-.88-10.1,12.5-17.79,12.5-26.36"/><g class="cls-12"><rect class="cls-1" x="0.08" y="-0.06" width="320.71" height="54.59"/><g class="cls-4"><rect class="cls-1" x="-4.05" y="-4.26" width="31.85" height="62.94"/></g></g><path class="cls-1" d="M28.58,21.92h0c-.22,1.76-2.41,5.92-5,9.65-9,12.71-3.73,18.63-.88,21.92,1.75,2,0,0,4.16-2,.22-.22,8.12-4.17,9-13.59a18.63,18.63,0,0,0-7.23-16"/><g class="cls-13"><rect class="cls-1" x="0.08" y="-0.06" width="320.71" height="54.59"/><g class="cls-4"><rect class="cls-1" x="14.25" y="17.56" width="25.88" height="41.01"/></g></g><path class="cls-1" d="M320.22,52.89V48.28a2,2,0,0,0-2-2h-3.71c-3.06,0-2.84-1.53-2.84-5.48V14.25a2,2,0,0,0-2-2h-5.46V41.69c0,7,1.75,11.2,9.39,11.2A63.78,63.78,0,0,1,320.22,52.89Z"/><g class="cls-14"><rect class="cls-1" x="0.08" y="-0.06" width="320.71" height="54.59"/><g class="cls-4"><rect class="cls-1" x="300" y="8.01" width="24.48" height="49.14"/></g></g><path class="cls-1" d="M220.74,12.77a16.44,16.44,0,0,0-7.48,1.75,2.14,2.14,0,0,0-2.2-1.75h-5.28V51.36a2.2,2.2,0,0,0,2.2,2.19h5.72V42.15a19.46,19.46,0,0,0,7,1.53c8.14,0,15-5.48,15-13.15V26.36C235.7,18.25,229.1,12.77,220.74,12.77Zm7,18c0,3.72-3.08,6.14-7,6.14s-7-2.42-7-6.14V25.49c0-3.73,3.3-6.14,7-6.14,4,0,7,2.41,7,6.14Z"/><g class="cls-15"><rect class="cls-1" x="0.08" y="-0.06" width="320.71" height="54.59"/><g class="cls-4"><rect class="cls-1" x="201.51" y="8.5" width="38.46" height="49.31"/></g></g></g></svg>