<svg xmlns="http://www.w3.org/2000/svg" viewBox="0 0 320 160"><defs><style>.cls-1,.cls-2{fill:#073c50;}.cls-1{opacity:0;}</style></defs><g id="neo"><rect class="cls-1" y="0.29" width="320" height="160"/><path class="cls-2" d="M127.35,28.35c3.15,2.78,4.73,6.9,4.73,12.23V68.25h-6.91V43c0-4.51-1-7.81-2.92-9.87a10.17,10.17,0,0,0-7.73-2.95,14.73,14.73,0,0,0-6.52,1.5,12.06,12.06,0,0,0-4.94,4.94,16.65,16.65,0,0,0-2,8.62v23h-7v-42l6.37,2.62.15,2.86a13.15,13.15,0,0,1,6-5.76,18.53,18.53,0,0,1,8.54-1.88A17.52,17.52,0,0,1,127.35,28.35Z"/><path class="cls-2" d="M181.35,49.2H148.72c.38,4.42,1.88,7.81,4.36,10.2a13.52,13.52,0,0,0,9.74,3.66,17.42,17.42,0,0,0,8-1.65,8.61,8.61,0,0,0,4.28-4.79l5.76,3.08a17.24,17.24,0,0,1-6.91,7c-2.84,1.65-6.58,2.47-11.09,2.47-6.53,0-11.63-2-15.38-6s-5.55-9.52-5.55-16.57,1.73-12.52,5.32-16.5,8.56-6,15.08-6a19.75,19.75,0,0,1,10.5,2.7A17.21,17.21,0,0,1,179.46,34a23.09,23.09,0,0,1,2.24,10.27A34.75,34.75,0,0,1,181.35,49.2ZM153.08,33.53c-2.33,2.24-3.75,5.4-4.28,9.52h26.25a15.64,15.64,0,0,0-4-9.45,11.65,11.65,0,0,0-8.77-3.44,12.86,12.86,0,0,0-9.22,3.38Z"/><path class="cls-2" d="M227.57,30.07c3.75,4,5.63,9.46,5.63,16.51s-1.88,12.6-5.63,16.57-8.85,6-15.37,6-11.63-2-15.38-6-5.55-9.53-5.55-16.57,1.88-12.52,5.55-16.51,8.85-6,15.38-6S223.88,26.1,227.57,30.07ZM201.92,34.5c-2.47,2.93-3.75,7-3.75,12.08s1.28,9.22,3.75,12.14a12.79,12.79,0,0,0,10.28,4.43c4.35,0,7.88-1.5,10.34-4.43s3.68-7,3.68-12.14-1.2-9.15-3.68-12.08-5.92-4.43-10.34-4.43S204.4,31.51,201.92,34.5Z"/><polygon class="cls-2" points="0 15.75 0 75.97 39.15 90 39.15 29.25 81.37 13.73 43.05 0 0 15.75"/><polygon class="cls-2" points="42.3 31.5 42.3 63.97 81.37 77.92 81.37 17.03 42.3 31.5"/></g></svg>