<svg xmlns="http://www.w3.org/2000/svg" viewBox="0 0 320 160"><defs><style>.cls-1,.cls-2{fill:#073c50;}.cls-1{opacity:0;}</style></defs><g id="NGC"><rect class="cls-1" width="320" height="160"/><g id="xoSteD"><path class="cls-2" d="M24.82,79.94,12.11,72.6,1,66.22a1.58,1.58,0,0,1-1-1.54q0-32,0-64V.06A7.9,7.9,0,0,1,.8.38Q12.41,7.07,24,13.75a1.5,1.5,0,0,1,.89,1.5q0,31.83,0,63.65C24.88,79.18,24.85,79.45,24.82,79.94Z"/><path class="cls-2" d="M74.75-.06l5.53,3.17c6.13,3.54,12.25,7.09,18.4,10.6a1.73,1.73,0,0,1,1,1.72q0,31.65,0,63.31c0,.32,0,.64,0,1.1-.36-.16-.65-.26-.91-.41q-11.51-6.63-23-13.26a1.59,1.59,0,0,1-1-1.57q0-31.83,0-63.68C74.71.65,74.73.38,74.75-.06Z"/><path class="cls-2" d="M62.2,79.94l-6.61-3.8q-8.62-5-17.25-9.94a1.61,1.61,0,0,1-1-1.58q0-31.83,0-63.66c0-.24,0-.48.06-.9.39.19.69.31,1,.47,7.66,4.42,15.33,8.83,23,13.3a1.88,1.88,0,0,1,.85,1.35q.06,32,0,64C62.27,79.36,62.24,79.52,62.2,79.94Z"/><path class="cls-2" d="M121.44,9.92c3.24,0,6.42,0,9.59,0,.38,0,.84.54,1.1.94q7.65,11.79,15.26,23.62c.26.39.53.77,1,1.46V10h10.06V51.55h-3.69c-1.73,0-3.47,0-5.2,0a1.83,1.83,0,0,1-1.83-1q-7.49-11.69-15-23.33a5.27,5.27,0,0,0-1.15-1.35V51.46h-10.1Z"/><path class="cls-2" d="M206.91,23.24c-4.21,0-8,0-11.85,0a1,1,0,0,1-.74-.44c-2.87-5.71-12-5-15.68-.68-4.11,4.75-3.74,13.73.86,18,3.88,3.59,11.07,3.46,14.32-.35A27.74,27.74,0,0,0,196,36H184.18V28.43h22.31c2.59,15.26-10.46,24.71-21.78,23.45-9.56-1.06-16.93-7.2-18.73-16.45-2.73-14,5.91-23.33,16-25.54,8.46-1.86,17.28,1.22,22,7.91A54.71,54.71,0,0,1,206.91,23.24Z"/><path class="cls-2" d="M254.61,38.21c-2,7.58-10,14.34-20.88,13.72-11.31-.64-19.6-9.11-20.12-19.89-.65-13.29,8.84-21.28,18.25-22.48,10.39-1.33,20.56,4.66,22.82,13.68h-4.06c-2.38,0-4.76,0-7.13,0a1.41,1.41,0,0,1-1.07-.49c-3.16-5.75-11.66-4.59-15.2-1.13-4.64,4.51-4.66,15.59,1.58,19.37A11.25,11.25,0,0,0,238,42.22a7.63,7.63,0,0,0,4.27-3.34,1.68,1.68,0,0,1,1.06-.75c3.67-.06,7.33,0,11,0A.92.92,0,0,1,254.61,38.21Z"/><path class="cls-2" d="M236.25,72.9c-1.05,2.72-3.27,4-6.5,3.77A5.79,5.79,0,0,1,224.41,72a11.63,11.63,0,0,1,0-4.4c.73-3.32,3.72-5,7.47-4.47,3,.41,4.93,3,4.92,6.2,0,1-.36,1.15-1.21,1.14-2.7,0-5.4,0-8.09,0H226a4,4,0,0,0,.92,3.19c1.72,2.23,5.44,2.33,7.05.07A1.93,1.93,0,0,1,236.25,72.9ZM226,69.1h9a4.36,4.36,0,0,0-4.53-4.74A4.43,4.43,0,0,0,226,69.1Z"/><path class="cls-2" d="M142.64,70.48A4.35,4.35,0,0,0,145.29,75c1.83.74,4.29.26,5.25-1.25a1.89,1.89,0,0,1,2.36-.86,5.74,5.74,0,0,1-4.14,3.61A6.28,6.28,0,0,1,141,72.18c-1.07-4,.64-7.75,4-8.82,4.45-1.41,8.52,1.48,8.43,6,0,.86-.26,1.21-1.19,1.19-2.77,0-5.55,0-8.33,0Zm8.92-1.35a4.47,4.47,0,1,0-8.93,0Z"/><path class="cls-2" d="M253.15,67.07c-1,.31-1.53.14-1.92-1-.67-2-3.83-2.32-5.15-.68-1,1.29-.34,3,1.42,3.54,1.09.31,2.19.52,3.27.83,1.93.57,2.74,1.59,2.72,3.33a3.32,3.32,0,0,1-2.8,3.31,9.63,9.63,0,0,1-3.34.17c-2-.28-3.1-1.61-3.44-3.88h1.59c.87,2.27,1.73,2.84,3.95,2.61a2.2,2.2,0,0,0,.47-4.37c-1.23-.36-2.5-.62-3.72-1a3.17,3.17,0,0,1-1.27-5.46c1.58-1.57,3.53-1.65,5.52-1.16a3.74,3.74,0,0,1,2.75,3.2,2.19,2.19,0,0,1,0,.36A1,1,0,0,1,253.15,67.07Z"/><path class="cls-2" d="M171.64,76.4h-1.58c0-.63,0-1.25,0-1.87,0-2.09,0-4.19-.11-6.27-.17-2.61-1.62-3.82-4.2-3.73-2.12.08-3.53,1.63-3.58,4s0,4.83,0,7.24a4.41,4.41,0,0,1-.06.54h-1.5V63.44h1.52l.08,1.21a16.53,16.53,0,0,1,3.6-1.5,4.73,4.73,0,0,1,5.82,4.68C171.74,70.64,171.64,73.45,171.64,76.4Z"/><path class="cls-2" d="M193.14,63.39h1.41c0,.49.06,1,.07,1.42,0,2.21,0,4.43.12,6.64.14,2.51,1.59,3.85,3.91,3.82s3.79-1.56,3.86-4c.05-2.13,0-4.27,0-6.4v-1.4h1.58V76.36h-1.53c0-.51-.06-1-.12-1.73a5.3,5.3,0,0,1-4.81,2.05,4.58,4.58,0,0,1-4.46-4C193,69.64,193.14,66.58,193.14,63.39Z"/><path class="cls-2" d="M127.51,74.71c1.32-3.51,2.6-6.79,3.78-10.11.4-1.12,1-1.59,2.23-1.11-.29.74-.57,1.47-.86,2.2-1.31,3.29-2.63,6.56-3.91,9.85a1.23,1.23,0,0,1-1.31.94c-.73,0-1-.36-1.19-.92q-2.25-5.66-4.51-11.3c-.1-.25-.15-.52-.23-.79,1.18-.42,1.78,0,2.18,1.11,1,3,2.2,6,3.32,8.92C127.13,73.83,127.28,74.16,127.51,74.71Z"/><path class="cls-2" d="M185.75,76.4c-.95,0-1.91.08-2.86,0-1.48-.15-2.26-1.18-2.28-2.91,0-2.5,0-5,0-7.49V64.62L179,64.54c-.21-1.06-.21-1.06,1.62-1.37V60.08h1.71a13.61,13.61,0,0,1,0,1.81c-.17,1.21.36,1.59,1.49,1.44.39,0,.8,0,1.2,0,.84,0,1.11.31.81,1.22H182.3V72.7c0,2.18.23,2.43,2.41,2.45C185.53,75.16,186.22,75.21,185.75,76.4Z"/><path class="cls-2" d="M211.34,63.4h1.52l.11,1.7a4.43,4.43,0,0,1,4-2v1.6c-.23,0-.5.07-.77.09-1.78.15-2.91,1-3.06,2.81-.18,2.24-.15,4.5-.2,6.74,0,.64,0,1.28,0,2h-1.57Z"/></g></g></svg>