<svg xmlns="http://www.w3.org/2000/svg" viewBox="0 0 320 160"><defs><style>.cls-1,.cls-2{fill:#073c50;}.cls-1{opacity:0;}.cls-2{fill-rule:evenodd;}</style></defs><g id="HoubiPool"><rect class="cls-1" y="-0.06" width="320" height="160"/></g><g id="O3"><path class="cls-2" d="M129.72,18.54A13.79,13.79,0,0,0,116.05,32a13.7,13.7,0,1,0,13.67-13.47Zm137.81,6.18a10,10,0,0,0-5.12,1.36A9.87,9.87,0,0,0,258.65,30a12.2,12.2,0,0,0-1.41,6,12.26,12.26,0,0,0,1.41,6,9.84,9.84,0,0,0,3.76,3.93,10.1,10.1,0,0,0,5.12,1.35,10.2,10.2,0,0,0,5.17-1.35A9.64,9.64,0,0,0,276.43,42a12.6,12.6,0,0,0,1.39-6.05,12.37,12.37,0,0,0-1.39-6,9.6,9.6,0,0,0-3.73-3.87A10.39,10.39,0,0,0,267.53,24.72Zm-35.76,0a10.23,10.23,0,0,0-5.14,1.33,9.69,9.69,0,0,0-3.71,3.87,12.37,12.37,0,0,0-1.38,6A12.6,12.6,0,0,0,222.92,42a9.72,9.72,0,0,0,3.71,3.93,10,10,0,0,0,5.14,1.35,10.18,10.18,0,0,0,5.17-1.35A9.72,9.72,0,0,0,240.68,42a12.48,12.48,0,0,0,1.38-6,12.3,12.3,0,0,0-1.38-6,9.77,9.77,0,0,0-3.74-3.9A10.09,10.09,0,0,0,231.77,24.72ZM196.65,12.61V47.07h20.41v4.09H191.62V12.61ZM296.9,20.35A12.4,12.4,0,0,1,305,22.9a9.18,9.18,0,0,1,3.32,7h-5l0-.23a5.13,5.13,0,0,0-1.89-3.59,7.08,7.08,0,0,0-4.67-1.44,7.22,7.22,0,0,0-4.31,1.16,3.61,3.61,0,0,0-1.61,3.05,3.37,3.37,0,0,0,1,2.46,7.3,7.3,0,0,0,2.43,1.55c1,.38,2.34.82,4.07,1.3a44.8,44.8,0,0,1,5.31,1.74,9.35,9.35,0,0,1,3.51,2.57,6.82,6.82,0,0,1,1.52,4.48,7.68,7.68,0,0,1-1.38,4.48,9.13,9.13,0,0,1-3.9,3.12,13.87,13.87,0,0,1-5.78,1.14,15.72,15.72,0,0,1-6.25-1.19,10.55,10.55,0,0,1-4.37-3.32,8.82,8.82,0,0,1-1.77-4.89h5.2l0,.21A5.1,5.1,0,0,0,292.5,46a8.1,8.1,0,0,0,5,1.44A7.28,7.28,0,0,0,302,46.13a3.88,3.88,0,0,0,1.66-3.21,3.17,3.17,0,0,0-1.77-3,25.31,25.31,0,0,0-5.48-1.91,40.38,40.38,0,0,1-5.5-1.8,9.62,9.62,0,0,1-3.65-2.71,7.06,7.06,0,0,1-1.52-4.72,7.18,7.18,0,0,1,1.38-4.26,9.31,9.31,0,0,1,3.93-3.07A14.07,14.07,0,0,1,296.9,20.35ZM257.24,10.23V26.49l.16-.27a11.92,11.92,0,0,1,4.38-4.15,13.42,13.42,0,0,1,6.8-1.72,14.11,14.11,0,0,1,7.35,1.94,13.74,13.74,0,0,1,5.15,5.45A17.06,17.06,0,0,1,283,35.9a17.43,17.43,0,0,1-1.88,8.18,13.78,13.78,0,0,1-12.5,7.58,13.45,13.45,0,0,1-6.89-1.72,11.69,11.69,0,0,1-4.45-4.37v5.59h-5V10.23ZM230.78,20.35a13.49,13.49,0,0,1,6.91,1.72,11.46,11.46,0,0,1,4.37,4.31V20.85h5.09V51.16h-5.09V45.52l-.15.26a12.14,12.14,0,0,1-4.3,4.14,13.36,13.36,0,0,1-6.89,1.74,13.69,13.69,0,0,1-12.44-7.58,17.31,17.31,0,0,1-1.88-8.18,17,17,0,0,1,1.88-8.16,13.59,13.59,0,0,1,5.17-5.45A14.17,14.17,0,0,1,230.78,20.35ZM178,12.82l-6.47,10c4.65,2,8.47,4.83,9.7,9.6a20,20,0,0,1,.23,9.33c-1.59,6.68-8,11-14.9,10.88a14.48,14.48,0,0,1-14-10.81h7.35A4.32,4.32,0,0,0,161,44.17c2.47,2.95,7.09,3,10.48,1.07a8.91,8.91,0,0,0-3.93-16.66c-2.13-.12-4.28,0-7.1,0C162.76,25,164.69,22,167,18.48h-13V12.82Zm-48.22-1.34a20.6,20.6,0,1,1-20.87,20.57A20.64,20.64,0,0,1,129.78,11.48ZM27.51,0c10.9,0,16.85,4.35,21.63,9.84a26.77,26.77,0,0,1,6.3,13.33,27.84,27.84,0,0,1-2.91,18.1,4.4,4.4,0,0,1-8.2-1A4.49,4.49,0,0,1,44.8,37,18.57,18.57,0,0,0,47,27.84,19.08,19.08,0,0,0,10.8,19.65,18.92,18.92,0,0,0,9,30a18.61,18.61,0,0,0,4.13,10,18.85,18.85,0,0,0,11.43,6.79,34.68,34.68,0,0,0,6.52.32h40a4.53,4.53,0,0,0,0-9,4.48,4.48,0,0,1-4.4-3.72,4.38,4.38,0,0,1,3.21-5c.67-.18,1.4-.15,2.08-.29A4.52,4.52,0,0,0,73.4,20.8a4.42,4.42,0,0,0-5.13.25,4.45,4.45,0,0,1-3.94.89,4.1,4.1,0,0,1-3.22-3.29,4.18,4.18,0,0,1,1.51-4.41,13.35,13.35,0,0,1,7.14-2.9A12.82,12.82,0,0,1,79.17,14a12.9,12.9,0,0,1,5.07,8.89A13,13,0,0,1,81.29,33.2c-.27.33-.28.51,0,.84a13,13,0,0,1,3,9.73A13.3,13.3,0,0,1,73.92,55.64a14.74,14.74,0,0,1-3,.33C56.43,56,42,56,27.51,56a26.74,26.74,0,0,1-17.36-6.36A27.73,27.73,0,0,1,.24,24.51a27.05,27.05,0,0,1,5.6-13.57C10.29,5.26,16.61,0,27.51,0Z"/></g></svg>