<svg width="314" height="107" viewBox="0 0 314 107" fill="none" xmlns="http://www.w3.org/2000/svg">
<path d="M140.33 8.81C144.392 8.60055 148.464 8.8792 152.46 9.64C157.87 10.85 162.22 13.55 164.36 18.85C168 28 163.83 38 153.6 41C150.202 41.8906 146.691 42.278 143.18 42.15C139.36 42.15 135.55 42.05 131.73 42.01C131.13 42.01 130.51 42.12 130.48 41.22C130.45 40.32 131.02 40.34 131.64 40.22C133.89 39.93 134.11 39.71 134.45 37.44C134.523 36.9636 134.557 36.4819 134.55 36V14.46C134.55 14.26 134.55 14.05 134.55 13.85C134.43 11.6 134.06 11.18 131.86 10.85C131.35 10.78 130.86 10.77 130.86 10.08C130.86 9.39 131.25 9.21 131.86 9.18C134.69 9.09 137.51 9 140.33 8.81ZM140.56 24C140.56 27.61 140.56 31.22 140.56 34.83C140.56 38.44 142.18 39.9 145.69 39.93C146.21 39.93 146.69 39.93 147.24 39.93C151.24 39.65 154.52 38.04 156.54 34.5C159.15 29.91 159.3 24.97 157.93 20.02C157.431 18.2719 156.561 16.6519 155.38 15.27C151.86 11.27 147.17 10.62 142.16 11.27C140.77 11.45 140.56 11.77 140.56 13.17C140.553 16.77 140.553 20.38 140.56 24Z" fill="#073C50"/>
<path d="M203.29 75.34C203.94 75.03 204.37 74.86 204.78 74.64C206.755 73.4714 209.066 73.0028 211.34 73.31C212.894 73.5051 214.352 74.1696 215.519 75.2149C216.686 76.2602 217.506 77.6364 217.87 79.16C218.444 80.9377 218.578 82.8281 218.261 84.6691C217.944 86.5101 217.186 88.2467 216.05 89.73C213.35 93.3 209.52 94.47 205.19 94.21C203.4 94.1 203.31 94.08 203.31 95.91C203.31 97.74 203.31 99.83 203.31 101.79C203.31 103.95 203.69 104.34 205.83 104.59C206.46 104.67 207.37 104.52 207.17 105.59C207.12 105.84 206.74 106.24 206.51 106.24C202.75 106.24 199 106.24 195.24 106.24C195.082 106.202 194.935 106.125 194.813 106.017C194.691 105.909 194.597 105.773 194.54 105.62C194.54 105.31 194.84 104.98 195.04 104.67C195.04 104.61 195.24 104.62 195.34 104.61C197.56 104.55 197.85 103.88 197.87 101.61C197.95 94.11 197.87 86.61 197.87 79.12C197.882 78.6567 197.772 78.1984 197.551 77.7912C197.33 77.3839 197.005 77.0421 196.61 76.8C196.428 76.6687 196.277 76.4998 196.167 76.3048C196.056 76.1098 195.989 75.8933 195.97 75.67C195.97 75.41 196.51 75.09 196.87 74.92C198.57 74.1067 200.287 73.32 202.02 72.56C202.36 72.41 202.89 72.27 203.12 72.43C203.35 72.59 203.38 73.13 203.39 73.5C203.44 74.05 203.35 74.57 203.29 75.34ZM203.29 83.57V87.8C203.279 88.6786 203.547 89.5382 204.053 90.256C204.56 90.9737 205.281 91.513 206.113 91.7969C206.944 92.0807 207.844 92.0946 208.684 91.8366C209.524 91.5785 210.261 91.0618 210.79 90.36C213.04 87.5 213.23 81.96 211.19 78.84C210.653 77.9677 209.879 77.2659 208.958 76.8162C208.038 76.3666 207.008 76.1876 205.99 76.3C205.618 76.2737 205.244 76.33 204.896 76.4649C204.548 76.5999 204.235 76.8102 203.978 77.0806C203.721 77.3511 203.526 77.6751 203.409 78.0294C203.292 78.3837 203.255 78.7596 203.3 79.13C203.3 80.61 203.32 82.09 203.32 83.57H203.29Z" fill="#073C50"/>
<path d="M151.19 94.36C145.39 94.31 140.78 93.36 136.81 90.28C135.084 88.9624 133.662 87.2894 132.639 85.3744C131.616 83.4594 131.016 81.3469 130.88 79.18C130.395 75.2241 131.326 71.2242 133.51 67.89C136.27 63.75 140.36 61.64 145.06 60.54C150.19 59.33 155.25 59.99 160.27 61.2C160.433 61.2819 160.574 61.4003 160.684 61.5461C160.793 61.6918 160.867 61.8609 160.9 62.04C161.14 64.15 161.31 66.27 161.5 68.39C161.55 68.89 161.58 69.39 160.92 69.5C160.26 69.61 159.84 69.5 159.64 68.8C159.161 66.9907 158.13 65.3758 156.69 64.18C153.34 61.56 149.61 61.58 145.83 62.9C144.041 63.5138 142.435 64.5685 141.161 65.9667C139.887 67.3649 138.985 69.0615 138.54 70.9C137 76.53 137.31 82 140.72 87C142.308 89.3749 144.706 91.0907 147.466 91.8268C150.227 92.5629 153.16 92.269 155.72 91C157.782 89.8574 159.42 88.0791 160.39 85.93C160.52 85.68 160.57 85.33 160.77 85.2C161.123 84.9422 161.543 84.7928 161.98 84.77C162.17 84.77 162.54 85.42 162.47 85.67C161.86 87.88 161.17 90.06 160.47 92.23C160.394 92.3789 160.288 92.5107 160.159 92.6173C160.03 92.7239 159.881 92.8031 159.72 92.85C156.968 93.7776 154.093 94.2866 151.19 94.36Z" fill="#073C50"/>
<path d="M213 8.94C213 11.24 213 13.5 213 15.76C212.945 15.9133 212.853 16.0507 212.733 16.1605C212.613 16.2703 212.468 16.3491 212.31 16.39C212.111 16.3893 211.914 16.3492 211.73 16.2719C211.546 16.1947 211.38 16.0819 211.24 15.94C211.02 15.69 211.05 15.22 210.96 14.85C210.32 12.46 209.26 11.48 206.78 11.28C204.86 11.13 202.92 11.19 201 11.15C200 11.15 199.52 11.56 199.54 12.65C199.54 16.09 199.54 19.53 199.54 22.96C199.54 23.77 199.82 24.07 200.63 24.04C202.69 23.96 204.75 23.93 206.82 23.88C207.368 23.884 207.897 23.6797 208.3 23.3084C208.703 22.937 208.949 22.4264 208.99 21.88C209.022 21.4014 209.144 20.9332 209.35 20.5C209.649 20.1876 210.05 19.9925 210.48 19.95C210.61 19.95 210.98 20.45 210.99 20.73C211.03 23.79 211.03 26.85 210.99 29.91C210.99 30.18 210.56 30.69 210.35 30.68C210.15 30.6609 209.957 30.5981 209.784 30.4962C209.612 30.3942 209.463 30.2556 209.35 30.09C209.163 29.5408 209.029 28.9748 208.95 28.4C208.58 27.04 208.04 26.54 206.64 26.5C204.57 26.43 202.5 26.5 200.43 26.43C199.77 26.43 199.54 26.7 199.55 27.36C199.55 30.66 199.55 33.96 199.55 37.26C199.55 39.26 200.18 39.85 202.2 40.07C202.71 40.07 203.2 40.21 203.74 40.24C204.28 40.27 204.57 40.61 204.53 41.24C204.541 41.3514 204.525 41.4637 204.483 41.5677C204.442 41.6718 204.377 41.7647 204.293 41.8387C204.209 41.9128 204.109 41.9661 204.001 41.9941C203.893 42.0221 203.779 42.0241 203.67 42C202.25 41.94 200.84 41.84 199.43 41.85C196.43 41.85 193.51 41.94 190.54 42C189.99 42 189.49 42 189.44 41.28C189.39 40.56 189.77 40.35 190.44 40.28C192.96 39.95 193.12 39.77 193.44 37.28C193.498 36.8024 193.522 36.3211 193.51 35.84C193.51 29 193.51 22.15 193.51 15.31C193.502 14.5575 193.448 13.8061 193.35 13.06C193.13 11.3 192.83 11.06 191.1 10.66C190.73 10.58 190.27 10.53 190.1 10.29C190.025 10.1352 189.982 9.96691 189.973 9.7951C189.965 9.62328 189.991 9.45149 190.05 9.29C190.11 9.11 190.52 8.95 190.77 8.95C197.437 8.95 204.123 8.97667 210.83 9.03L213 8.94Z" fill="#073C50"/>
<path d="M257.1 23.89C257.55 23.65 258 23.43 258.43 23.17C260.135 22.0458 262.138 21.4573 264.18 21.48C267.34 21.59 269.35 23.27 269.82 26.4C269.946 27.2608 270.007 28.13 270 29C270 31.85 270 34.71 270 37.56C270 39.56 270.35 40.02 272.36 40.3C272.96 40.38 273.21 40.62 273.16 41.23C273.11 41.84 272.87 42.04 272.25 42.03C269.08 42.03 265.91 42.03 262.74 42.03C262.19 42.03 261.74 41.94 261.74 41.31C261.74 40.68 261.95 40.39 262.6 40.31C264.04 40.09 264.39 39.86 264.43 38.42C264.52 34.86 264.58 31.28 264.38 27.73C264.26 25.6 262.56 24.49 260.47 24.68C259.984 24.6741 259.502 24.7674 259.053 24.9543C258.605 25.1412 258.199 25.4178 257.861 25.767C257.523 26.1162 257.26 26.5307 257.088 26.9852C256.916 27.4397 256.838 27.9245 256.86 28.41C256.86 31.41 256.86 34.41 256.86 37.41C256.86 39.54 257.05 39.69 259.11 40.41C259.262 40.5102 259.387 40.6469 259.472 40.8076C259.558 40.9683 259.602 41.1479 259.6 41.33C259.543 41.4962 259.446 41.6455 259.317 41.7643C259.187 41.8831 259.03 41.9676 258.86 42.01C257.86 42.01 256.94 41.89 255.97 41.9C253.77 41.9 251.57 41.99 249.36 42.05C248.81 42.05 248.31 42.05 248.26 41.33C248.21 40.61 248.56 40.4 249.26 40.33C250.94 40.11 251.37 39.72 251.4 38.02C251.47 34.38 251.4 30.73 251.4 27.09C251.382 26.6758 251.257 26.2733 251.036 25.9225C250.815 25.5717 250.506 25.2847 250.14 25.09C249.979 24.9737 249.845 24.8243 249.747 24.6518C249.648 24.4793 249.588 24.2877 249.57 24.09C249.57 23.83 250.04 23.5 250.37 23.35C252.13 22.58 253.92 21.87 255.69 21.11C256.58 20.73 256.9 20.93 256.88 21.88C256.88 22.47 256.88 23.05 256.88 23.64C256.89 23.6 257 23.69 257.1 23.89Z" fill="#073C50"/>
<path d="M285.48 92.26C284.692 93.038 283.727 93.613 282.668 93.9352C281.609 94.2575 280.487 94.3175 279.4 94.11C278.536 93.9238 277.731 93.5251 277.06 92.95C276.808 92.677 276.462 92.509 276.091 92.4794C275.721 92.4497 275.353 92.5606 275.06 92.79C273.889 93.4219 272.633 93.88 271.33 94.15C267.64 94.77 265.08 92.24 265.51 88.53C265.609 87.7896 265.914 87.0919 266.389 86.5157C266.865 85.9395 267.492 85.508 268.2 85.27C270.2 84.45 272.2 83.75 274.2 83L275.2 82.64C275.521 82.5552 275.8 82.3558 275.984 82.0795C276.168 81.8032 276.245 81.469 276.2 81.14C276.186 79.9787 276.096 78.8195 275.93 77.67C275.82 77.0489 275.48 76.4921 274.978 76.1104C274.475 75.7287 273.848 75.55 273.22 75.61C272.591 75.6067 271.986 75.846 271.529 76.2783C271.073 76.7105 270.801 77.3022 270.77 77.93C270.731 78.3437 270.573 78.7373 270.316 79.0636C270.059 79.39 269.713 79.6353 269.32 79.77C268.444 80.0515 267.543 80.2491 266.63 80.36C265.76 80.47 265.42 79.91 265.63 79.13C265.759 78.6309 265.972 78.1574 266.26 77.73C268.26 74.73 273.68 72.57 277.26 73.36C278.491 73.5295 279.612 74.1614 280.394 75.1273C281.176 76.0932 281.56 77.3205 281.47 78.56C281.47 81.2 281.26 83.84 281.19 86.49C281.136 87.5165 281.193 88.5457 281.36 89.56C281.66 91.2 282.88 91.79 284.45 91.2C285.45 90.82 285.62 90.94 285.69 92.13L285.48 92.26ZM276 85L275.61 84.65C274.404 85.0658 273.234 85.5774 272.11 86.18C271.739 86.4435 271.434 86.7904 271.222 87.1928C271.009 87.5953 270.893 88.0421 270.885 88.4973C270.876 88.9525 270.974 89.4034 271.171 89.8137C271.368 90.2241 271.659 90.5825 272.02 90.86C273.34 91.86 275.44 91.38 275.68 89.86C275.872 88.2467 275.978 86.6245 276 85V85Z" fill="#073C50"/>
<path d="M185.72 83.34C185.65 84.5 185.54 85.67 185.53 86.83C185.496 87.7235 185.553 88.618 185.7 89.5C186.02 91.19 187.22 91.78 188.85 91.2C189.208 91.1549 189.571 91.1787 189.92 91.27C189.83 91.67 189.92 92.18 189.63 92.44C188.553 93.5124 187.119 94.151 185.601 94.234C184.083 94.317 182.588 93.8386 181.4 92.89C181.293 92.7607 181.16 92.6547 181.01 92.5786C180.86 92.5025 180.697 92.458 180.529 92.4477C180.361 92.4374 180.193 92.4615 180.035 92.5187C179.877 92.5758 179.732 92.6648 179.61 92.78C178.694 93.4561 177.636 93.9132 176.516 94.1161C175.396 94.3189 174.245 94.2621 173.15 93.95C172.308 93.7318 171.554 93.2595 170.991 92.5974C170.427 91.9354 170.081 91.1157 170 90.25C169.71 88.25 170.2 86.46 172.16 85.56C174.27 84.56 176.49 83.82 178.67 83C180.58 82.28 180.67 82.3 180.6 80.29C180.611 79.3331 180.5 78.3788 180.27 77.45C180.112 76.8763 179.757 76.3768 179.266 76.0401C178.776 75.7033 178.182 75.551 177.59 75.61C176.98 75.6179 176.396 75.8529 175.95 76.2689C175.504 76.685 175.23 77.2523 175.18 77.86C174.89 79.33 173.79 80.19 171.82 80.32C171.26 80.32 170.32 80.32 170.18 79.96C170.059 79.3477 170.14 78.7127 170.41 78.15C170.579 77.7344 170.838 77.3619 171.17 77.06C172.432 75.7017 173.992 74.6544 175.727 74.0003C177.462 73.3462 179.325 73.1031 181.17 73.29C182.479 73.3675 183.705 73.9559 184.584 74.9285C185.463 75.9012 185.925 77.1801 185.87 78.49C185.87 80.1 185.87 81.72 185.87 83.33L185.72 83.34ZM180.5 84.79C179.065 84.8505 177.678 85.3188 176.5 86.14C176.146 86.4209 175.86 86.7782 175.663 87.1851C175.467 87.592 175.365 88.0381 175.365 88.49C175.365 88.9419 175.467 89.388 175.663 89.7949C175.86 90.2018 176.146 90.5591 176.5 90.84C177.77 91.79 179.82 91.38 180.07 89.98C180.314 88.2598 180.457 86.5269 180.5 84.79V84.79Z" fill="#073C50"/>
<path d="M243.78 28.29C243.67 30.62 243.52 32.95 243.45 35.29C243.415 36.2004 243.499 37.1114 243.7 38C243.744 38.3221 243.866 38.6286 244.055 38.8931C244.244 39.1575 244.494 39.3719 244.785 39.5177C245.075 39.6634 245.397 39.7362 245.722 39.7296C246.047 39.7231 246.366 39.6374 246.65 39.48C247.07 39.32 247.65 38.84 247.84 39.57C247.865 39.8042 247.837 40.0411 247.757 40.2628C247.677 40.4845 247.548 40.6852 247.38 40.85C245.53 42.49 241.45 43.52 239.13 40.96C238.67 40.46 238.3 40.65 237.78 40.87C236.47 41.5273 235.092 42.037 233.67 42.39C230.21 43.01 227.67 40.61 227.86 37.12C227.899 36.3201 228.177 35.5503 228.658 34.9102C229.14 34.2702 229.802 33.7893 230.56 33.53C232.23 32.81 233.95 32.22 235.66 31.53C239.1 30.23 238.57 30.92 238.53 26.92C238.576 26.2057 238.358 25.4993 237.917 24.9352C237.477 24.3711 236.844 23.9885 236.14 23.86C235.811 23.7798 235.468 23.7688 235.135 23.8277C234.801 23.8865 234.483 24.0139 234.201 24.2019C233.919 24.3899 233.679 24.6343 233.497 24.9197C233.314 25.2051 233.193 25.5253 233.14 25.86C232.858 26.8084 232.222 27.6122 231.364 28.1054C230.506 28.5985 229.492 28.7434 228.53 28.51C228.347 28.3938 228.196 28.2327 228.093 28.0419C227.99 27.8511 227.937 27.637 227.94 27.42C228.018 26.8422 228.257 26.298 228.63 25.85C229.883 24.2564 231.533 23.021 233.415 22.2679C235.297 21.5148 237.344 21.2706 239.35 21.56C242.22 21.95 243.73 23.9 243.75 26.78V28.23L243.78 28.29ZM238.45 33.05C237.012 33.1344 235.627 33.6193 234.45 34.45C234.095 34.7465 233.814 35.121 233.628 35.5442C233.442 35.9673 233.356 36.4278 233.378 36.8895C233.399 37.3513 233.527 37.8019 233.751 38.2061C233.975 38.6104 234.29 38.9574 234.67 39.22C235.98 40.05 237.91 39.54 238.13 38.16C238.322 36.4631 238.429 34.7576 238.45 33.05V33.05Z" fill="#073C50"/>
<path d="M291.27 92.26C291.318 92.2218 291.362 92.1782 291.4 92.13C294.28 91.59 294.31 91.59 294.31 88.61C294.31 80.54 293.47 72.47 293.49 64.39C293.528 63.894 293.424 63.3973 293.191 62.9581C292.957 62.5189 292.603 62.1554 292.17 61.91C292.004 61.7958 291.865 61.6474 291.762 61.4749C291.658 61.3025 291.593 61.1098 291.57 60.91C291.57 60.66 292.06 60.33 292.39 60.2C294.12 59.52 295.87 58.9 297.61 58.26C298.83 57.81 299.07 57.98 299.07 59.26C299.01 68.33 299.78 77.4 299.74 86.46C299.74 87.4933 299.78 88.5233 299.86 89.55C300.01 91.55 300.16 91.7 302.14 92.04C302.9 92.17 303.23 92.7 302.83 93.33C302.713 93.4568 302.571 93.5571 302.412 93.6244C302.253 93.6917 302.082 93.7243 301.91 93.72C300.23 93.72 298.54 93.57 296.86 93.57C295.45 93.57 294.04 93.68 292.63 93.73C291.22 93.78 291.14 93.64 291.27 92.26Z" fill="#073C50"/>
<path d="M179.74 30.11C178.02 30.11 176.3 30.11 174.58 30.11C173.82 30.11 173.58 30.36 173.64 31.11C174.08 35 175.92 37.44 179.4 38.29C181.66 38.84 183.8 38.53 185.4 36.53C185.72 36.12 186.09 35.81 186.47 36.23C186.605 36.3975 186.698 36.5942 186.743 36.8042C186.788 37.0143 186.784 37.232 186.73 37.44C185.946 39.0615 184.698 40.4126 183.143 41.321C181.588 42.2294 179.797 42.6538 178 42.54C176.688 42.4907 175.4 42.1708 174.217 41.6003C173.035 41.0298 171.983 40.2211 171.127 39.2249C170.272 38.2287 169.632 37.0665 169.247 35.8112C168.862 34.5558 168.74 33.2345 168.89 31.93C169.23 27.33 171.21 23.78 175.67 22.13C178.81 20.96 181.96 21.07 184.74 23.35C185.423 23.9061 185.974 24.6056 186.356 25.3988C186.738 26.1921 186.941 27.0596 186.95 27.94C187.02 29.44 186.56 29.94 185.06 30C183.31 30 181.55 30 179.79 30L179.74 30.11ZM177.53 27.91C178.35 27.91 179.18 27.91 180 27.91C181.86 27.84 182.52 26.81 181.57 25.2C181.151 24.5085 180.504 23.9851 179.74 23.72C177.5 23.04 174.74 24.81 174.14 27.1C174 27.67 174.14 27.95 174.75 27.94C175.68 27.9 176.6 27.91 177.53 27.91Z" fill="#073C50"/>
<path d="M305.87 30.11C304.14 30.11 302.42 30.11 300.7 30.11C299.93 30.11 299.7 30.38 299.77 31.17C300.13 34.96 302.05 37.49 305.52 38.34C307.74 38.88 309.85 38.59 311.42 36.66C311.74 36.26 312.02 35.89 312.59 36.26C313.16 36.63 313.07 37.07 312.8 37.59C312.052 39.1394 310.864 40.4336 309.384 41.3106C307.904 42.1876 306.198 42.6083 304.48 42.52C302.65 42.5975 300.841 42.1091 299.298 41.1213C297.756 40.1336 296.555 38.6945 295.86 37C294.841 34.6341 294.641 31.9958 295.291 29.5033C295.942 27.0108 297.405 24.8066 299.45 23.24C301.122 22.0387 303.134 21.4042 305.193 21.4294C307.252 21.4546 309.248 22.1382 310.89 23.38C311.558 23.9489 312.093 24.6575 312.458 25.4557C312.823 26.254 313.008 27.1225 313 28C313.06 29.38 312.59 29.91 311.21 30C309.42 30.06 307.63 30 305.83 30L305.87 30.11ZM300.24 27.89C302.24 27.89 304.24 27.89 306.15 27.89C308.06 27.89 308.62 26.8 307.7 25.17C307.355 24.5868 306.843 24.1201 306.23 23.83C303.77 22.73 300.36 25 300.24 27.89Z" fill="#073C50"/>
<path d="M287.48 21.35C288.69 21.56 289.95 21.72 291.19 22C292.43 22.28 292.54 23.26 292.68 24.23C292.809 24.7152 292.797 25.2273 292.645 25.7057C292.492 26.1842 292.206 26.609 291.82 26.93C291.597 26.9974 291.362 27.0117 291.133 26.9717C290.903 26.9318 290.687 26.8387 290.5 26.7C289.91 26.24 289.5 25.56 288.95 25.05C286.83 23.05 284.54 23.17 282.46 25.2C278.9 28.68 279.63 36.74 285.36 38.36C287.97 39.1 290.41 38.79 292.27 36.49C292.411 36.3842 292.574 36.3105 292.747 36.2743C292.919 36.238 293.098 36.2399 293.27 36.28C293.47 36.63 293.7 37.18 293.55 37.48C292.959 38.7086 292.089 39.7818 291.009 40.6136C289.929 41.4454 288.669 42.0127 287.33 42.27C286.028 42.6158 284.669 42.6867 283.339 42.4783C282.008 42.27 280.736 41.7868 279.602 41.0597C278.469 40.3325 277.499 39.3773 276.755 38.2548C276.011 37.1323 275.508 35.8672 275.28 34.54C274.725 31.7705 275.283 28.894 276.833 26.5325C278.382 24.1709 280.799 22.514 283.56 21.92C284.856 21.6645 286.165 21.4743 287.48 21.35V21.35Z" fill="#073C50"/>
<path d="M247.14 83.24C247.14 81.31 247.14 79.39 247.14 77.46C247.14 76.6 246.89 76.21 245.96 76.23C245.3 76.23 244.35 76.61 244.12 75.62C243.89 74.63 244.94 74.51 245.56 74.21C247.667 73.3259 249.483 71.8671 250.8 70C250.947 69.838 251.128 69.7116 251.331 69.6301C251.534 69.5487 251.752 69.5145 251.97 69.53C252.2 69.53 252.47 70.16 252.52 70.53C252.585 71.2485 252.585 71.9715 252.52 72.69C252.47 73.46 252.82 73.76 253.52 73.75C254.9 73.75 256.28 73.75 257.65 73.75C258.39 73.75 258.77 73.95 258.74 74.75C258.71 75.55 258.64 76.26 257.64 76.29C256.3 76.29 254.95 76.29 253.64 76.29C252.87 76.29 252.51 76.51 252.52 77.35C252.52 80.48 252.52 83.61 252.52 86.73C252.543 87.4857 252.677 88.2339 252.92 88.95C253.038 89.4289 253.266 89.8732 253.588 90.2469C253.91 90.6205 254.316 90.9128 254.772 91.0999C255.228 91.2871 255.722 91.3638 256.213 91.3239C256.705 91.2839 257.18 91.1284 257.6 90.87C258.03 90.65 258.49 90.12 258.95 90.75C259.41 91.38 258.95 91.85 258.51 92.24C257.369 93.251 255.976 93.9351 254.478 94.2203C252.98 94.5054 251.433 94.3809 250 93.86C247.73 93.11 247.21 91.07 247.12 88.96C247.04 87.07 247.12 85.18 247.12 83.29L247.14 83.24Z" fill="#073C50"/>
<path d="M231.77 93.49C230.19 93.57 228.61 93.63 227.03 93.72C226.45 93.72 226.1 93.58 226.03 92.96C225.96 92.34 226.24 92.11 226.84 91.96C228.61 91.61 228.93 91.32 228.96 89.51C229.04 85.94 228.96 82.36 228.96 78.79C228.956 78.3583 228.835 77.9357 228.61 77.5676C228.384 77.1994 228.063 76.8995 227.68 76.7C227.519 76.5833 227.384 76.434 227.284 76.2617C227.184 76.0894 227.121 75.898 227.1 75.7C227.1 75.43 227.58 75.1 227.9 74.96C229.7 74.18 231.52 73.45 233.32 72.69C234.13 72.34 234.54 72.61 234.53 73.52C234.53 78.77 234.45 84.03 234.44 89.28C234.44 91.22 234.74 91.58 236.64 91.99C237.3 92.12 237.36 92.48 237.35 92.99C237.34 93.5 236.97 93.71 236.45 93.68L231.77 93.49Z" fill="#073C50"/>
<path d="M215.84 42C215.63 42 215.42 42 215.22 42C214.68 42.06 214.36 41.87 214.33 41.29C214.3 40.71 214.43 40.4 215.07 40.29C216.87 39.92 217.22 39.59 217.25 37.88C217.31 34.27 217.25 30.66 217.25 27.05C217.241 26.6284 217.121 26.2167 216.901 25.8566C216.682 25.4966 216.371 25.201 216 25C215.837 24.8847 215.701 24.7357 215.601 24.5632C215.501 24.3906 215.439 24.1985 215.42 24C215.42 23.74 215.88 23.4 216.2 23.25C218 22.47 219.81 21.75 221.62 20.98C222.42 20.65 222.84 20.98 222.83 21.83C222.83 26.95 222.72 32.07 222.68 37.19C222.68 39.45 222.88 39.65 225.03 40.35C225.192 40.4614 225.324 40.6108 225.415 40.7851C225.505 40.9595 225.552 41.1535 225.55 41.35C225.55 41.59 225.07 41.99 224.8 42C223.42 42 222.05 41.88 220.67 41.85C219.05 41.85 217.44 41.85 215.82 41.85L215.84 42Z" fill="#073C50"/>
<path d="M220.05 17C219.656 17.0099 219.264 16.942 218.896 16.8003C218.529 16.6587 218.192 16.446 217.907 16.1744C217.621 15.9027 217.392 15.5776 217.232 15.2173C217.072 14.8571 216.985 14.469 216.975 14.075C216.965 13.681 217.033 13.289 217.175 12.9212C217.316 12.5535 217.529 12.2173 217.801 11.9317C218.072 11.6462 218.397 11.4169 218.758 11.2571C219.118 11.0972 219.506 11.0099 219.9 11C220.309 10.9754 220.718 11.0348 221.103 11.1746C221.488 11.3143 221.841 11.5314 222.139 11.8124C222.437 12.0935 222.674 12.4326 222.836 12.8088C222.998 13.185 223.081 13.5904 223.08 14C223.093 14.4 223.023 14.7983 222.875 15.17C222.727 15.5417 222.503 15.8789 222.219 16.1604C221.935 16.442 221.595 16.6619 221.222 16.8063C220.849 16.9508 220.45 17.0167 220.05 17V17Z" fill="#073C50"/>
<path d="M227.84 65.61C227.834 65.2181 227.908 64.8292 228.058 64.467C228.208 64.1048 228.43 63.777 228.711 63.5037C228.992 63.2303 229.325 63.0172 229.692 62.8773C230.058 62.7373 230.448 62.6736 230.84 62.69C231.261 62.6695 231.682 62.7381 232.075 62.8912C232.468 63.0443 232.824 63.2785 233.12 63.5786C233.417 63.8787 233.646 64.2378 233.794 64.6327C233.943 65.0275 234.006 65.4491 233.98 65.87C233.92 67.6 234.8 68.87 230.68 68.77C230.28 68.7679 229.885 68.6821 229.52 68.5182C229.155 68.3544 228.828 68.116 228.561 67.8185C228.293 67.5209 228.091 67.1707 227.967 66.7904C227.843 66.4101 227.8 66.008 227.84 65.61V65.61Z" fill="#073C50"/>
<path d="M77.82 15.54L73.55 13.48L73 14C75.48 17.36 77.81 20.83 80.46 24.05C84.7 29.2 89.16 34.18 93.17 39.72L85.48 34C85.5074 38.2763 87.1176 42.391 90 45.55L87.49 46.09L101 58.25L100.55 58.84C99.5 58.15 98.43 57.46 97.38 56.75C90.38 52.07 82.96 48.27 74.64 46.81C60.54 44.35 49.24 51.06 47.46 65.81C47.34 66.81 47.12 67.72 46.91 68.9L25.91 61.13C27.34 67.74 30.02 72.4 35.27 75.3C35.6867 75.5431 36.1815 75.6148 36.65 75.5C39.77 74.08 42.39 75.69 45.05 76.87C46.19 77.37 47.68 83.95 46.77 84.27C45.0707 84.937 43.2296 85.1607 41.42 84.92C39.55 84.54 37.92 83.12 36.1 82.37C33.5296 81.3 30.9062 80.3621 28.24 79.56C26.92 79.17 26.04 78.73 25.88 77.23C25.2288 72.4654 23.2107 67.9916 20.07 64.35C19.6199 63.7615 19.2375 63.1241 18.93 62.45C16.53 57.54 19.01 54.96 24.03 54.29L25.03 54.17L18.28 41.44C13.82 44.44 11.46 49.92 6.07 51.15L9.18 58.27L3.54 60.41C2.61 57.47 1.67 54.76 0.939997 51.98C0.896054 51.6055 0.93314 51.226 1.04874 50.8671C1.16434 50.5082 1.35575 50.1784 1.61 49.9C6.32333 44.92 11.0767 39.9833 15.87 35.09C18.16 32.75 21.19 33.01 22.79 35.84C25.87 41.25 30.46 45.03 35.67 48.44C35.78 48.19 36 47.93 36 47.67C36.09 40.14 39.44 34.37 45.59 30.21C47.7245 28.8097 49.3924 26.8041 50.38 24.45C51.0545 22.9446 51.257 21.2701 50.9606 19.6474C50.6643 18.0246 49.8831 16.5298 48.72 15.36C48.3766 15.1272 48.0032 14.9422 47.61 14.81C48.73 19.44 47.45 21.94 43.05 23.81C40.39 25 37.2 25.38 36.34 29C36.25 29.37 34.76 29.59 33.94 29.56C33.3105 29.5452 32.6942 29.377 32.1445 29.07C31.5947 28.763 31.1282 28.3266 30.7853 27.7985C30.4425 27.2704 30.2336 26.6666 30.1769 26.0395C30.1202 25.4125 30.2174 24.781 30.46 24.2C32.22 19.4 34.05 14.61 35.46 9.68999C36.14 7.26999 35.86 4.58 36.02 1.98C36.4639 2.00696 36.8984 2.119 37.3 2.31C41.35 4.9 45.57 4 49.65 2.7C54.13 1.26 58.41 2.26999 62.82 3.43999L58.28 3.87L58.21 4.43C59.64 4.69 61.08 4.92 62.5 5.22C63.3146 5.30073 64.1058 5.53843 64.83 5.91999C69.07 8.77999 73.24 11.72 77.44 14.63C77.7229 14.7742 78.0215 14.8849 78.33 14.96L77.82 15.54Z" fill="#073C50"/>
<path d="M86.15 4.08C89 6 92 7.86 94.76 10C113.62 24.7 122.82 51.46 116.26 73.58C111.75 88.74 101.96 98.75 85.86 101.13C73.5 102.96 62.61 98.79 52.77 91.51C51.0452 90.2624 49.5181 88.7622 48.24 87.06L50.24 88.24C63.88 95.99 78.16 98.65 93.24 92.99C105.12 88.53 112.5 79.73 115.86 67.61C119.1 55.92 116.95 44.71 112.12 33.9C106.833 21.9596 97.9728 11.9531 86.76 5.26C86.43 5.06 86.13 4.81 85.82 4.59L86.15 4.08Z" fill="#073C50"/>
<path d="M3.43001 0.190002L34.64 7.65001C34.6666 7.93939 34.6666 8.23061 34.64 8.52C33.55 12.52 33.48 12.64 29.64 11.15C20.84 7.69001 12.07 4.15 3.29001 0.630005L3.43001 0.190002Z" fill="#073C50"/>
</svg>
