<svg width="513" height="90" viewBox="0 0 513 90" fill="none" xmlns="http://www.w3.org/2000/svg">
<path d="M338.995 53.6859L344.784 32.9543H347.347L347.068 34.0354C344.889 41.3411 342.692 48.6469 340.582 55.9875C340.286 56.9988 339.885 57.4521 338.839 57.2952C338.357 57.2591 337.873 57.2591 337.391 57.2952C335.357 50.3207 333.305 43.3811 331.236 36.4764H330.957C328.917 43.4509 326.86 50.3207 324.837 57.1906H324.523C322.048 57.3301 322.048 57.3301 321.35 54.9588L315.125 33.9307C315.038 33.6343 314.968 33.3205 314.864 32.9194H317.427C319.362 39.7719 321.315 46.694 323.286 53.6162H323.547C324.227 51.3146 324.924 49.0305 325.587 46.7463C326.86 42.457 328.133 38.1852 329.371 33.8959C329.597 33.1112 329.894 32.78 330.766 32.8148C333.015 32.9369 332.422 32.4661 333.05 34.5584C334.793 40.5216 336.537 46.5022 338.281 52.4654C338.403 52.8664 338.56 53.25 338.682 53.6511L338.995 53.6859Z" fill="#073C50"/>
<path d="M287.611 45.0899C287.618 42.569 288.372 40.1068 289.779 38.0146C291.185 35.9224 293.18 34.2942 295.511 33.3359C297.843 32.3776 300.407 32.1322 302.878 32.6308C305.349 33.1293 307.616 34.3495 309.394 36.1369C311.172 37.9243 312.379 40.1987 312.865 42.6725C313.35 45.1462 313.09 47.7083 312.119 50.0346C311.148 52.361 309.509 54.3471 307.409 55.7419C305.309 57.1367 302.843 57.8775 300.322 57.8706C298.638 57.9042 296.964 57.596 295.402 56.9646C293.84 56.3333 292.422 55.392 291.234 54.1975C290.046 53.003 289.113 51.5801 288.49 50.0147C287.867 48.4494 287.568 46.7741 287.611 45.0899ZM310.487 45.0899C310.575 43.4392 310.258 41.7922 309.564 40.292C308.869 38.7918 307.819 37.4838 306.505 36.4819C305.19 35.4799 303.65 34.8143 302.02 34.5429C300.389 34.2715 298.717 34.4026 297.149 34.9246C294.936 35.695 293.045 37.1862 291.78 39.159C290.516 41.1318 289.95 43.4722 290.174 45.8048C290.221 47.1397 290.531 48.4523 291.085 49.6677C291.639 50.883 292.427 51.9773 293.404 52.888C294.381 53.7988 295.528 54.5082 296.78 54.9756C298.031 55.4431 299.362 55.6596 300.697 55.6126C302.032 55.5657 303.344 55.2563 304.56 54.7021C305.775 54.1479 306.869 53.3597 307.78 52.3826C308.691 51.4054 309.4 50.2585 309.868 49.0072C310.335 47.7559 310.552 46.4248 310.505 45.0899H310.487Z" fill="#073C50"/>
<path d="M152.83 32.7626C156.326 32.8065 159.817 33.0276 163.291 33.4251C166.778 33.9656 168.243 36.3195 168.121 39.9114C168.09 41.3525 167.531 42.7321 166.551 43.7891C165.571 44.8462 164.238 45.5075 162.803 45.6479L161.896 45.892L168.871 57.3127C168.07 57.3753 167.265 57.3753 166.465 57.3127C166.081 57.1909 165.758 56.9295 165.558 56.5804C163.657 53.4419 161.739 50.2859 159.909 47.1125C159.757 46.7491 159.486 46.4478 159.141 46.2579C158.796 46.0679 158.396 46.0004 158.008 46.0663C157.049 46.0663 156.09 46.0663 155.009 46.0663V57.1732H152.725L152.83 32.7626ZM155.149 43.9566C157.633 43.8831 160.113 43.6794 162.576 43.3463C163.042 43.2951 163.493 43.1504 163.902 42.9209C164.311 42.6915 164.669 42.382 164.956 42.0108C165.242 41.6397 165.451 41.2147 165.569 40.7611C165.688 40.3075 165.714 39.8347 165.645 39.3709C165.696 38.455 165.396 37.5542 164.807 36.8514C164.217 36.1486 163.382 35.6966 162.472 35.5872C160.041 35.3002 157.596 35.1372 155.149 35.099V43.9566Z" fill="#073C50"/>
<path d="M250.402 45.9617V57.1732H248.153V33.0067C248.153 33.0067 248.258 32.902 248.31 32.902C251.449 32.902 254.604 32.902 257.726 33.1113C258.692 33.1444 259.637 33.4068 260.483 33.8769C261.328 34.3471 262.05 35.0115 262.588 35.8153C263.126 36.6191 263.465 37.5394 263.578 38.5001C263.691 39.4609 263.573 40.4347 263.235 41.3411C262.926 42.4241 262.31 43.3948 261.463 44.137C260.616 44.8792 259.572 45.3614 258.458 45.5258C258.127 45.613 257.778 45.6653 257.237 45.7699L264.212 57.2255C263.405 57.288 262.595 57.288 261.788 57.2255C261.405 57.1019 261.085 56.8327 260.899 56.4757C258.964 53.3023 257.046 50.129 255.18 46.9207C255.047 46.6101 254.817 46.3507 254.525 46.1811C254.233 46.0115 253.894 45.9406 253.558 45.9792C252.599 46.014 251.588 45.9617 250.402 45.9617ZM250.402 35.0293V43.7473C252.268 43.7473 254.064 43.7473 255.86 43.7473C256.401 43.7331 256.94 43.657 257.464 43.5207C258.474 43.4104 259.402 42.9127 260.052 42.1322C260.703 41.3517 261.025 40.3493 260.951 39.336C260.972 38.3717 260.621 37.4362 259.973 36.7225C259.324 36.0088 258.426 35.5713 257.464 35.5C255.128 35.1164 252.826 35.1513 250.455 35.0293H250.402Z" fill="#073C50"/>
<path d="M277.899 45.8222C280.218 49.6233 282.485 53.3198 284.874 57.2255C284.02 57.2704 283.164 57.2704 282.311 57.2255C282.049 57.2255 281.753 56.8245 281.596 56.5455C279.643 53.3372 277.707 50.129 275.824 46.9033C275.69 46.591 275.457 46.3314 275.161 46.1645C274.865 45.9975 274.522 45.9324 274.185 45.9792C273.191 45.9792 272.18 45.9792 271.029 45.9792V57.1732H268.745V32.8672C270.803 32.8672 272.86 32.8672 274.9 32.8672C276.304 32.8721 277.704 33.0005 279.085 33.2508C279.844 33.3388 280.578 33.5775 281.243 33.953C281.909 34.3285 282.493 34.8332 282.96 35.4374C283.428 36.0416 283.77 36.7332 283.967 37.4715C284.164 38.2099 284.211 38.9801 284.106 39.737C284.091 41.2003 283.533 42.6058 282.541 43.6816C281.549 44.7574 280.193 45.427 278.736 45.5607C278.509 45.613 278.265 45.7176 277.899 45.8222ZM271.064 43.6776C272.965 43.6776 274.761 43.6776 276.557 43.6776C277.062 43.6606 277.565 43.5905 278.056 43.4684C279.05 43.3504 279.962 42.8604 280.609 42.0969C281.256 41.3334 281.59 40.3531 281.543 39.3534C281.591 38.3732 281.253 37.4132 280.601 36.6797C279.949 35.9462 279.035 35.4976 278.056 35.4303C275.789 35.1164 273.488 35.1687 271.082 35.0467L271.064 43.6776Z" fill="#073C50"/>
<path d="M220.831 57.1732C222.208 54.0521 223.481 51.1228 224.754 48.1936C226.846 43.3986 228.956 38.6211 231.013 33.8087C231.107 33.4701 231.323 33.1779 231.619 32.9882C231.915 32.7984 232.27 32.7243 232.617 32.78C233.402 32.78 233.89 32.9195 234.239 33.7739C237.447 41.2191 240.708 48.6469 243.951 56.0747C244.09 56.3886 244.212 56.7199 244.387 57.1732C243.632 57.2179 242.875 57.2179 242.12 57.1732C241.967 57.1225 241.826 57.0405 241.706 56.9324C241.586 56.8244 241.489 56.6927 241.423 56.5455C240.708 54.9588 240.01 53.3721 239.365 51.768C239.292 51.496 239.122 51.2598 238.888 51.1028C238.655 50.9458 238.372 50.8786 238.092 50.9136C234.483 50.9136 230.856 50.9136 227.247 50.9136C226.947 50.8745 226.642 50.947 226.391 51.1173C226.141 51.2876 225.961 51.5439 225.887 51.8377C225.329 53.2675 224.614 54.6624 224.143 56.1096C224.106 56.2996 224.031 56.4801 223.923 56.6402C223.814 56.8003 223.674 56.9367 223.511 57.041C223.348 57.1454 223.165 57.2155 222.974 57.2472C222.783 57.2789 222.588 57.2716 222.4 57.2255C221.879 57.1681 221.354 57.1506 220.831 57.1732ZM238.04 48.5772L232.809 35.7965H232.53C230.787 39.9986 229.043 44.2007 227.299 48.5249L238.04 48.5772Z" fill="#073C50"/>
<path d="M400.999 57.1732C401.609 55.8132 402.132 54.5926 402.742 53.3895C405.602 46.851 408.479 40.3124 411.286 33.7564C411.652 32.902 412.14 32.7974 412.925 32.78C413.256 32.7269 413.594 32.7946 413.879 32.9707C414.164 33.1467 414.376 33.4195 414.477 33.739C417.702 41.2017 420.98 48.6643 424.241 56.127C424.363 56.4234 424.468 56.7199 424.642 57.1732C423.905 57.2267 423.165 57.2267 422.428 57.1732C422.255 57.1194 422.095 57.0294 421.96 56.9091C421.825 56.7889 421.717 56.6411 421.643 56.4757C420.911 54.8716 420.266 53.2326 419.498 51.6459C419.394 51.4617 419.249 51.3044 419.073 51.1863C418.898 51.0683 418.697 50.9928 418.487 50.9659C414.773 50.9659 411.042 50.9659 407.328 50.9659C407.101 50.9952 406.884 51.0786 406.696 51.2091C406.508 51.3395 406.354 51.5133 406.247 51.7157C405.549 53.128 404.904 54.5926 404.346 56.0747C404.032 56.9465 403.597 57.3824 402.603 57.2255C402.07 57.1686 401.534 57.1511 400.999 57.1732V57.1732ZM418.191 48.5597C416.447 44.2181 414.703 39.9986 412.96 35.779H412.681L407.45 48.5074L418.191 48.5597Z" fill="#073C50"/>
<path d="M495.119 57.1732C494.458 57.2363 493.792 57.2363 493.131 57.1732C492.929 57.1367 492.736 57.0591 492.565 56.9451C492.394 56.8311 492.249 56.6832 492.137 56.5106C491.37 54.9239 490.673 53.2849 490.01 51.6633C489.945 51.4219 489.793 51.2127 489.585 51.0747C489.376 50.9367 489.124 50.8794 488.877 50.9136C485.198 50.9136 481.501 50.9136 477.822 50.9136C477.596 50.9379 477.378 51.0153 477.187 51.1395C476.997 51.2638 476.838 51.4313 476.724 51.6285C476.009 53.0757 475.346 54.5752 474.771 56.0747C474.457 56.9116 474.021 57.3127 473.027 57.1732C472.528 57.1373 472.027 57.1373 471.528 57.1732C471.667 56.7721 471.754 56.4757 471.876 56.1793C475.137 48.7166 478.415 41.2714 481.641 33.7913C481.772 33.4715 481.996 33.1979 482.283 33.0054C482.57 32.8129 482.908 32.7102 483.254 32.7102C483.599 32.7102 483.937 32.8129 484.224 33.0054C484.512 33.1979 484.735 33.4715 484.866 33.7913C488.057 41.2016 491.318 48.5946 494.543 55.9875L495.119 57.1732ZM488.737 48.5771C486.994 44.2181 485.25 39.9985 483.506 35.7964H483.227C481.484 39.9985 479.74 44.2007 477.997 48.5248L488.737 48.5771Z" fill="#073C50"/>
<path d="M129.901 45.8397V57.1732H127.669V32.9369H129.901V43.3986H143.449V32.9369H145.716V57.1732H143.484V45.8397H129.901Z" fill="#073C50"/>
<path d="M188.748 57.1732H173.474V32.9369H188.312V35.1339H175.776V43.4335H187.528V45.7351H175.776V54.9414H188.713L188.748 57.1732Z" fill="#073C50"/>
<path d="M194.084 32.9195H208.904V35.099H196.368V43.4335H208.102V45.7351H196.368V54.9065H209.305V57.1732H194.084V32.9195Z" fill="#073C50"/>
<path d="M364.47 35.2211L362.5 36.7903C361.875 35.9773 361.05 35.3398 360.106 34.9395C359.162 34.5393 358.131 34.39 357.112 34.5062C356.478 34.4916 355.848 34.6108 355.263 34.8559C354.678 35.101 354.151 35.4666 353.717 35.9288C353.283 36.391 352.951 36.9395 352.742 37.5386C352.534 38.1377 352.455 38.7739 352.509 39.4058C352.497 39.9351 352.626 40.4581 352.884 40.9208C353.141 41.3835 353.517 41.7693 353.973 42.0386C355.455 42.8407 357.025 43.451 358.576 44.1135C359.675 44.5843 360.826 44.9156 361.872 45.4735C362.701 45.9195 363.417 46.5487 363.967 47.3133C364.516 48.0778 364.884 48.9576 365.042 49.8857C365.2 50.8138 365.144 51.7656 364.879 52.6689C364.613 53.5722 364.146 54.4031 363.511 55.0983C362.573 56.0172 361.454 56.7313 360.226 57.1955C358.998 57.6597 357.687 57.8638 356.376 57.795C355.064 57.7262 353.782 57.3858 352.609 56.7956C351.436 56.2053 350.398 55.378 349.562 54.366L350.573 53.6162L351.602 52.9188C352.295 53.8618 353.223 54.6062 354.294 55.0774C355.365 55.5487 356.541 55.7303 357.705 55.604C359.134 55.5369 360.481 54.9107 361.453 53.8603C361.862 53.4616 362.178 52.9768 362.376 52.4412C362.575 51.9056 362.652 51.3325 362.602 50.7634C362.552 50.1943 362.376 49.6435 362.087 49.1508C361.798 48.6581 361.403 48.2358 360.93 47.9146C360.079 47.3715 359.166 46.9325 358.21 46.6069C356.815 46.0489 355.333 45.6479 353.938 45.0551C352.868 44.6992 351.927 44.0337 351.235 43.1429C350.543 42.2522 350.13 41.1761 350.05 40.0509C349.844 38.7602 350.03 37.4375 350.583 36.2533C351.136 35.0692 352.032 34.078 353.154 33.4077C354.97 32.3987 357.073 32.029 359.125 32.3578C361.177 32.6866 363.059 33.6949 364.47 35.2211V35.2211Z" fill="#073C50"/>
<path d="M397.999 52.0469L399.743 53.3372C398.544 55.177 396.745 56.5448 394.652 57.208C392.785 57.8489 390.793 58.0393 388.838 57.7636C386.884 57.4879 385.022 56.754 383.406 55.6217C381.789 54.4894 380.463 52.9909 379.535 51.2485C378.608 49.5061 378.106 47.569 378.07 45.5956C377.843 42.593 378.718 39.6106 380.531 37.2067C382.345 34.8028 384.972 33.1423 387.921 32.5359C390.505 31.8868 393.234 32.1517 395.646 33.2856C396.947 34.021 398.194 34.8485 399.377 35.7616L397.18 37.5052C396.246 36.409 395.054 35.5614 393.713 35.0381C392.371 34.5147 390.92 34.332 389.491 34.5062C388.246 34.635 387.04 35.0095 385.941 35.6081C384.843 36.2068 383.874 37.0175 383.091 37.9934C381.383 40.1879 380.533 42.9296 380.7 45.7055C380.867 48.4815 382.039 51.1016 383.998 53.0757C387.084 55.9701 394.251 57.2603 397.999 52.0469Z" fill="#073C50"/>
<path d="M430.553 45.8571V57.1732H428.321V32.8672C429.123 32.8672 429.943 32.8672 430.762 32.8672C433.209 32.8226 435.655 32.9449 438.085 33.2333C441.886 33.8959 443.421 36.1626 443.211 40.016C443.131 41.4995 442.487 42.8963 441.411 43.9206C440.335 44.9448 438.908 45.5191 437.423 45.5258C435.208 45.7525 432.959 45.7525 430.553 45.8571ZM430.553 35.0293V43.4161C432.506 43.4161 434.371 43.4161 436.237 43.4161C437.097 43.3152 437.931 43.055 438.696 42.6489C439.277 42.3815 439.768 41.9505 440.109 41.4086C440.449 40.8668 440.625 40.2375 440.614 39.5975C440.669 39.0949 440.621 38.5862 440.474 38.1025C440.326 37.6187 440.082 37.17 439.756 36.7835C439.43 36.397 439.029 36.0808 438.577 35.8542C438.125 35.6276 437.631 35.4952 437.126 35.4652C435.104 35.099 432.889 35.1513 430.623 35.0293H430.553Z" fill="#073C50"/>
<path d="M123.467 32.9195V35.1164H115.307V57.1732H113.005V35.1862H104.793V32.9195H123.467Z" fill="#073C50"/>
<path d="M454.475 35.1687V32.902H473.097V35.1164H465.007V57.1732H462.653V35.1687H454.475Z" fill="#073C50"/>
<path d="M498.833 32.9195H501.082V54.9413H512.433V57.1732H498.833V32.9195Z" fill="#073C50"/>
<path d="M448.25 32.8846H450.43V57.1732H448.25V32.8846Z" fill="#073C50"/>
<path d="M51.0023 38.9175C53.6178 42.4047 56.4076 45.892 58.7789 49.3792C60.4738 52.2425 62.0161 55.1933 63.3995 58.2193L63.8528 59.1609L79.5453 53.1454L78.0633 52.5352C77.5861 52.3941 77.1564 52.1257 76.8204 51.7588C76.4844 51.3918 76.2547 50.9402 76.1561 50.4525C76.0575 49.9648 76.0937 49.4595 76.2607 48.9908C76.4278 48.5222 76.7194 48.1079 77.1043 47.7925C77.2217 47.6956 77.3596 47.6264 77.5075 47.5902C77.6555 47.5539 77.8097 47.5516 77.9586 47.5833L88.3157 51.4192C88.8737 51.6285 88.9957 51.9249 88.7865 52.4654C87.6706 55.3598 86.607 58.2542 85.4911 61.1835C85.09 62.2122 84.1311 62.2122 83.2592 62.2297C83.0743 62.2417 82.8888 62.2154 82.7145 62.1522C82.5402 62.089 82.3809 61.9905 82.2466 61.8627C82.1123 61.7349 82.0059 61.5807 81.9341 61.4098C81.8623 61.2389 81.8267 61.055 81.8295 60.8697C81.7423 59.6666 81.8295 58.446 81.8295 57.1034C81.4633 57.2255 81.1495 57.3127 80.853 57.4347C76.0232 59.4224 71.2283 61.445 66.3985 63.3979C65.6138 63.7117 65.4395 64.0605 65.6487 64.8451C67.5631 72.2548 69.0016 79.7793 69.9554 87.3726C70.1472 88.6978 68.9965 89.8311 67.3226 89.988C66.0323 90.1101 65.1779 89.2906 65.021 87.8608C64.3441 80.9258 63.0309 74.0678 61.0979 67.3733C60.9584 66.9026 60.7666 66.4492 60.5748 65.8913C59.7902 66.1877 59.0753 66.4318 58.3778 66.7108L4.90113 88.0352C3.9247 88.4362 2.77392 89.0988 1.88467 88.2444C1.51918 87.7673 1.30548 87.1914 1.27128 86.5913C1.23708 85.9913 1.38396 85.3948 1.69287 84.8792C2.98315 81.392 4.36061 77.9048 5.70319 74.4175C11.6664 59.2016 17.6353 43.9856 23.6101 28.7697C23.7496 28.4209 23.8717 28.0548 24.0809 27.4968C23.2788 27.2702 22.5291 27.0261 21.7619 26.8517C15.358 25.4184 8.81309 24.7107 2.25083 24.7419C0.507215 24.7419 -0.0333043 24.0968 0.00156806 22.388C0.0364404 20.6793 0.611833 19.9295 2.44263 20.0167C10.058 20.426 17.6335 21.3875 25.1096 22.8937C25.7025 22.9983 26.1732 23.1727 26.4697 22.3532C28.2133 17.349 30.0441 12.3448 31.84 7.34062C31.8888 7.09871 31.9237 6.85421 31.9446 6.60831C30.9333 6.83498 30.0266 7.06165 29.1025 7.25345C27.8471 7.53243 27.1671 7.25345 26.8707 6.29446C26.6404 5.77038 26.6089 5.18033 26.7822 4.63474C26.9555 4.08915 27.3217 3.62541 27.8122 3.33031C30.9479 1.83743 34.2487 0.719601 37.6462 0C39.1283 2.85953 40.6453 5.64931 42.0053 8.50884C42.0528 8.82143 42.0288 9.14071 41.9352 9.44271C41.8416 9.7447 41.6807 10.0216 41.4648 10.2525C41.2374 10.4778 40.9636 10.6507 40.6624 10.7592C40.3612 10.8676 40.04 10.9089 39.7211 10.8802C38.9748 10.6054 38.301 10.1642 37.7509 9.58989C37.1976 9.04174 36.6793 8.45939 36.199 7.84627L30.0266 24.8291C32.3456 25.8927 34.5775 26.7994 36.7047 27.8979C41.837 30.609 46.4903 34.1431 50.4793 38.3596L51.1593 38.9873C51.1132 38.9519 51.0594 38.928 51.0023 38.9175V38.9175ZM47.2361 43.2243C47.0982 42.8771 46.9166 42.549 46.6956 42.2478C42.0688 37.2045 36.5165 33.0966 30.3405 30.1471C29.6256 29.7984 28.8759 29.5194 28.0215 29.1533C21.047 46.8335 14.0726 64.3046 7.51655 82.0023L7.77809 82.229L59.0578 61.5845C59.0224 61.3657 58.9699 61.15 58.9009 60.9394C56.2178 54.658 52.5444 48.8477 48.0208 43.7299C47.7799 43.5313 47.5165 43.3615 47.2361 43.2243Z" fill="#073C50"/>
<path d="M67.7586 19.0752L65.9278 18.8136C65.1692 18.754 64.4168 18.6315 63.6785 18.4475C63.4961 18.4162 63.3218 18.3485 63.1662 18.2485C63.0105 18.1484 62.8766 18.018 62.7724 17.865C62.6683 17.712 62.596 17.5396 62.5599 17.3581C62.5239 17.1766 62.5248 16.9896 62.5626 16.8085C62.7893 15.5705 63.3298 15.0648 64.3062 15.0648C67.375 15.0648 70.4437 15.0648 73.5299 15.0648C74.3843 15.0648 74.6633 15.3438 74.6459 16.1982C74.6459 19.0403 74.6459 21.8649 74.6459 24.707C74.6459 25.4742 74.5412 26.0845 73.7043 26.3112C73.3245 26.4568 72.9057 26.4651 72.5204 26.3346C72.1351 26.204 71.8076 25.9428 71.5945 25.5963C71.3208 25.0366 71.099 24.4529 70.932 23.8527C70.8027 23.4183 70.7037 22.9755 70.6355 22.5275C64.7247 28.3512 57.9071 34.9595 51.9788 40.8006C50.9183 39.7624 49.9981 38.5901 49.2414 37.3134" fill="#073C50"/>
<path d="M48.788 44.0089C47.1664 45.7525 44.9346 47.9843 43.2956 49.6408C34.1067 58.9342 24.8307 68.1754 15.7464 77.5386C13.6192 79.8402 10.9166 80.311 8.38837 81.4443C9.43454 78.7591 9.92275 75.9519 12.1895 73.7724C21.4132 64.8276 30.5323 55.726 39.7735 46.7115C41.5171 44.9679 43.8535 42.7709 45.7192 40.975C46.8035 41.9222 47.8284 42.9354 48.788 44.0089V44.0089Z" fill="#073C50"/>
</svg>
