<svg width="284" height="63" viewBox="0 0 284 63" fill="none" xmlns="http://www.w3.org/2000/svg">
<path fill-rule="evenodd" clip-rule="evenodd" d="M0.550001 1.11C4.81673 0.694037 9.12329 1.17541 13.1929 2.52318C17.2625 3.87095 21.005 6.05529 24.18 8.93581C27.355 11.8163 29.8922 15.3293 31.6285 19.2489C33.3648 23.1685 34.2617 27.408 34.2617 31.695C34.2617 35.982 33.3648 40.2215 31.6285 44.1411C29.8922 48.0607 27.355 51.5737 24.18 54.4542C21.005 57.3347 17.2625 59.5191 13.1929 60.8668C9.12329 62.2146 4.81673 62.696 0.550001 62.28C0.491654 62.28 0.435696 62.2568 0.394438 62.2156C0.35318 62.1743 0.330002 62.1183 0.330002 62.06C0.330002 62.0016 0.35318 61.9457 0.394438 61.9044C0.435696 61.8632 0.491654 61.84 0.550001 61.84C8.02753 61.0932 14.9608 57.5944 20.0035 52.0229C25.0463 46.4513 27.8388 39.2047 27.8388 31.69C27.8388 24.1753 25.0463 16.9287 20.0035 11.3571C14.9608 5.78564 8.02753 2.28682 0.550001 1.54C0.523357 1.54144 0.496709 1.53726 0.47179 1.52772C0.446871 1.51818 0.42424 1.50349 0.405373 1.48463C0.386505 1.46576 0.371824 1.44313 0.362284 1.41821C0.352743 1.39329 0.348559 1.36664 0.350002 1.34C0.349523 1.28385 0.369595 1.22948 0.406435 1.18712C0.443275 1.14475 0.494337 1.11732 0.550001 1.11Z" fill="#073C50"/>
<path fill-rule="evenodd" clip-rule="evenodd" d="M112.53 37.65V6H117.76V38.24C117.734 40.527 117.455 42.804 116.93 45.03C116.378 47.4196 115.358 49.6762 113.93 51.67C112.368 53.7702 110.342 55.4813 108.01 56.67C105.062 58.1036 101.806 58.7904 98.53 58.67C95.2438 58.7953 91.9774 58.1084 89.02 56.67C86.7051 55.4724 84.6941 53.7623 83.14 51.67C81.7168 49.6734 80.6977 47.4177 80.14 45.03C79.6098 42.8049 79.3313 40.5273 79.31 38.24V6H84.53V37.65C84.5305 39.6946 84.7722 41.732 85.25 43.72C85.6968 45.6024 86.5014 47.3814 87.62 48.96C88.7447 50.516 90.2216 51.7839 91.93 52.66C94.0036 53.599 96.2537 54.0847 98.53 54.0847C100.806 54.0847 103.056 53.599 105.13 52.66C106.843 51.7871 108.324 50.5188 109.45 48.96C110.566 47.3809 111.367 45.6019 111.81 43.72C112.302 41.7347 112.544 39.6955 112.53 37.65V37.65Z" fill="#073C50"/>
<path fill-rule="evenodd" clip-rule="evenodd" d="M192.18 33.4C193.646 34.5103 194.856 35.9221 195.73 37.54C196.718 39.5099 197.193 41.6976 197.11 43.9C197.169 46.2033 196.664 48.4861 195.64 50.55C194.714 52.3441 193.411 53.9168 191.82 55.16C190.218 56.3847 188.399 57.2972 186.46 57.85C184.491 58.4248 182.451 58.7177 180.4 58.72C178.838 58.7143 177.28 58.5535 175.75 58.24C174.225 57.9385 172.739 57.4655 171.32 56.83C169.917 56.1992 168.6 55.3927 167.4 54.43C166.196 53.4605 165.123 52.3377 164.21 51.09L168.71 47.75C169.877 49.6442 171.486 51.2263 173.4 52.36C175.541 53.6265 177.993 54.2675 180.48 54.21C181.837 54.2027 183.185 53.9937 184.48 53.59C185.81 53.1944 187.055 52.5533 188.15 51.7C189.249 50.8528 190.164 49.7913 190.84 48.58C191.541 47.2507 191.886 45.7622 191.84 44.26C191.918 42.7069 191.572 41.1618 190.84 39.79C190.138 38.5968 189.182 37.5726 188.04 36.79C186.798 35.9552 185.453 35.2831 184.04 34.79L179.33 33.2C177.64 32.66 175.96 32.05 174.33 31.38C172.726 30.7335 171.232 29.843 169.9 28.74C168.587 27.6341 167.512 26.2733 166.74 24.74C165.898 22.8971 165.491 20.8853 165.55 18.86C165.48 16.6411 165.979 14.4413 167 12.47C167.959 10.7105 169.294 9.18425 170.91 8C172.513 6.84172 174.312 5.98135 176.22 5.46C178.086 4.94108 180.013 4.67537 181.95 4.67C185.03 4.5797 188.089 5.21335 190.88 6.51999C193.07 7.55315 194.985 9.08801 196.47 11L192.33 14.34C191.207 12.7834 189.743 11.5041 188.05 10.6C186.098 9.60791 183.929 9.11977 181.74 9.18C180.432 9.18941 179.131 9.38813 177.88 9.76999C176.599 10.1447 175.396 10.7477 174.33 11.55C173.193 12.388 172.275 13.4887 171.655 14.758C171.035 16.0274 170.732 17.4279 170.77 18.84C170.711 20.2578 171.039 21.6648 171.72 22.91C172.345 23.9884 173.198 24.9168 174.22 25.63C175.309 26.4073 176.5 27.0299 177.76 27.48L181.93 28.94L187.32 30.83C189.059 31.4393 190.697 32.3056 192.18 33.4Z" fill="#073C50"/>
<path fill-rule="evenodd" clip-rule="evenodd" d="M256 29.3L283.36 57.4H275.67L250 30H249.92V57.4H244.7V6H249.92V29.09H250L274.44 6H281.91L256 29.3Z" fill="#073C50"/>
</svg>
