<svg width="284" height="82" viewBox="0 0 284 82" fill="none" xmlns="http://www.w3.org/2000/svg">
<path d="M35.68 63.16V81.84L34.18 80.98L26.3 76.43V57.75L35.68 63.16Z" fill="#05222B"/>
<path d="M16.52 29.99V70.78L0.349976 61.44V20.65L16.52 29.99Z" fill="#05222B"/>
<path d="M71.01 20.65V61.44L35.68 81.84V63.17L54.83 52.11V29.99L71.01 20.65Z" fill="#072C38"/>
<path d="M71.01 20.65L54.83 29.99L35.68 18.92L16.52 29.99L0.349976 20.65L35.68 0.25L71.01 20.65Z" fill="#073C50"/>
<path d="M89.92 30H100.07C102.101 29.8743 104.105 30.5208 105.68 31.81C106.965 33.1875 107.68 35.0012 107.68 36.885C107.68 38.7688 106.965 40.5825 105.68 41.96C104.109 43.2554 102.102 43.9027 100.07 43.77H94.83V52.07H89.94L89.92 30ZM99.44 40.08C101.887 40.08 103.11 39.0233 103.11 36.91C103.147 36.4659 103.084 36.0192 102.927 35.6024C102.769 35.1855 102.521 34.8089 102.2 34.5C101.398 33.928 100.423 33.6523 99.44 33.72H94.81V40.08H99.44Z" fill="#073C50"/>
<path d="M113.41 51.34C112.21 50.706 111.219 49.7367 110.56 48.55C109.904 47.2329 109.562 45.7815 109.563 44.31C109.562 42.8385 109.904 41.3871 110.56 40.07C111.215 38.8853 112.207 37.9214 113.41 37.3C114.749 36.6585 116.215 36.3255 117.7 36.3255C119.185 36.3255 120.651 36.6585 121.99 37.3C123.197 37.9159 124.19 38.8812 124.84 40.07C125.501 41.3858 125.845 42.8377 125.845 44.31C125.845 45.7823 125.501 47.2342 124.84 48.55C124.188 49.7425 123.196 50.7138 121.99 51.34C120.654 51.9914 119.187 52.33 117.7 52.33C116.213 52.33 114.746 51.9914 113.41 51.34V51.34ZM121.15 44.34C121.237 43.1646 120.923 41.9945 120.26 41.02C119.948 40.6508 119.554 40.3599 119.11 40.1706C118.665 39.9813 118.182 39.8989 117.7 39.93C115.407 39.93 114.26 41.4 114.26 44.34C114.26 47.34 115.41 48.75 117.7 48.75C119.99 48.75 121.15 47.28 121.15 44.33V44.34Z" fill="#073C50"/>
<path d="M129 52.06V30H133.73V52.07L129 52.06Z" fill="#073C50"/>
<path d="M148.63 36.72H153.27L144 57.72H139.21L142.15 51.24L135.83 36.74H140.75L144.62 46.51L148.63 36.72Z" fill="#073C50"/>
<path d="M192.12 45.27H182.12C182.166 46.2832 182.595 47.2411 183.32 47.95C184.129 48.549 185.126 48.8398 186.13 48.77C186.932 48.7691 187.728 48.6409 188.49 48.39C189.257 48.1299 189.979 47.752 190.63 47.27L191.89 50.44C191.066 51.057 190.138 51.521 189.15 51.81C188.09 52.1488 186.983 52.3208 185.87 52.32C183.626 52.4394 181.426 51.6665 179.75 50.17C178.99 49.4064 178.399 48.4924 178.013 47.4867C177.627 46.481 177.456 45.4058 177.51 44.33C177.488 42.8813 177.832 41.4506 178.51 40.17C179.122 38.9892 180.054 38.0048 181.2 37.33C182.394 36.6431 183.753 36.2972 185.13 36.33C186.083 36.286 187.035 36.4511 187.918 36.8139C188.8 37.1767 189.593 37.7283 190.24 38.43C191.575 40.0192 192.255 42.0575 192.14 44.13L192.12 45.27ZM183.12 40.43C182.528 41.131 182.177 42.0041 182.12 42.92H188.12C188.134 42.0169 187.841 41.1357 187.29 40.42C187.03 40.1287 186.709 39.8994 186.349 39.7488C185.989 39.5983 185.6 39.5303 185.21 39.55C184.815 39.5398 184.422 39.6129 184.056 39.7645C183.691 39.9161 183.362 40.1429 183.09 40.43H183.12Z" fill="#073C50"/>
<path d="M205.51 48.72L205.26 52.17C204.66 52.2534 204.056 52.2969 203.45 52.3C201.11 52.3 199.45 51.78 198.33 50.76C197.752 50.1381 197.31 49.4023 197.033 48.5999C196.756 47.7975 196.649 46.946 196.72 46.1V40.21H193.8V36.67H196.72V32.18H201.43V36.69H205.28V40.21H201.43V46.1C201.43 47.94 202.29 48.86 204 48.86C204.506 48.8436 205.01 48.7968 205.51 48.72V48.72Z" fill="#073C50"/>
<path d="M229.47 36.69H234.05L227.83 52.06H223.83L220.43 43.39L217.15 52.06H213.15L206.88 36.69H211.7L215.34 46.43L219 36.69H222.2L225.86 46.51L229.47 36.69Z" fill="#073C50"/>
<path d="M238.72 51.34C237.52 50.706 236.529 49.7367 235.87 48.55C235.214 47.2329 234.872 45.7815 234.872 44.31C234.872 42.8385 235.214 41.3871 235.87 40.07C236.525 38.8853 237.517 37.9214 238.72 37.3C240.059 36.6585 241.525 36.3255 243.01 36.3255C244.495 36.3255 245.961 36.6585 247.3 37.3C248.505 37.9189 249.497 38.8835 250.15 40.07C250.811 41.3858 251.155 42.8377 251.155 44.31C251.155 45.7823 250.811 47.2342 250.15 48.55C249.49 49.7435 248.492 50.7145 247.28 51.34C245.944 51.9914 244.477 52.33 242.99 52.33C241.503 52.33 240.036 51.9914 238.7 51.34H238.72ZM246.46 44.34C246.548 43.163 246.23 41.9915 245.56 41.02C245.252 40.6441 244.86 40.3466 244.415 40.1519C243.97 39.9572 243.485 39.8708 243 39.9C240.7 39.9 239.56 41.37 239.56 44.31C239.56 47.25 240.7 48.72 243 48.72C245.3 48.72 246.45 47.24 246.45 44.3L246.46 44.34Z" fill="#073C50"/>
<path d="M265.27 40.21L262.61 40.49C261.574 40.4968 260.578 40.8931 259.82 41.6C259.249 42.2882 258.96 43.1671 259.01 44.06V52.06H254.28V36.69H258.82V39.31C259.59 37.53 261.18 36.56 263.61 36.39L264.97 36.28L265.27 40.21Z" fill="#073C50"/>
<path d="M283.81 52.06H278L272.11 45.2V52.06H267.4V30H272.13V43.27L277.79 36.72H283.43L277 44L283.81 52.06Z" fill="#073C50"/>
<path d="M169.93 30H174.52V52.07H170.89L159.88 38V52.06H155.34V30H158.94L169.94 44L169.93 30Z" fill="#073C50"/>
</svg>
