<svg width="284" height="82" viewBox="0 0 284 82" fill="none" xmlns="http://www.w3.org/2000/svg">
<path d="M283.81 24.63H273.6V62.41H268.1V24.62H257.88V19.62H283.81V24.63Z" fill="#073C50"/>
<path d="M0.350006 81.19L45.65 45.27L19.65 24.35L80.55 0.759995L80.67 0.969997L70 9.47C65.09 13.37 60.17 17.25 55.3 21.2C55.0826 21.4149 54.9152 21.675 54.8098 21.9619C54.7044 22.2488 54.6635 22.5555 54.69 22.86C56.7967 34.1933 58.95 45.5 61.15 56.78C61.35 57.78 60.84 58.02 60.15 58.31C47.4833 63.2033 34.8167 68.1 22.15 73L2.00001 80.78C1.48001 80.98 0.940005 81.15 0.400005 81.34L0.350006 81.19Z" fill="#073C50"/>
<path d="M199.72 41.22C200.02 53.31 189.51 63.85 176.02 63.45C170.14 63.2755 164.561 60.8146 160.467 56.5905C156.374 52.3663 154.09 46.7121 154.1 40.83C154.1 28.41 165.31 18.41 177.5 18.68C189.08 18.94 200.14 29 199.72 41.22ZM159.63 41.12C159.638 45.7215 161.474 50.1314 164.733 53.3795C167.992 56.6276 172.408 58.448 177.01 58.44C181.612 58.432 186.021 56.5965 189.27 53.3371C192.518 50.0777 194.338 45.6615 194.33 41.06C194.372 38.7606 193.946 36.4766 193.079 34.3464C192.213 32.2161 190.923 30.2839 189.288 28.6666C187.653 27.0493 185.706 25.7805 183.567 24.9372C181.427 24.0938 179.139 23.6933 176.84 23.76C167 23.76 159.62 31.2 159.63 41.12Z" fill="#073C50"/>
<path d="M108.57 62.46V19.7C114.06 19.7 119.57 19.15 124.67 21.77C131.02 25.02 131.67 35.09 125.82 39.18L125.31 39.58C130.31 41.09 133.18 44.38 133.75 49.41C134.22 53.64 132.92 57.25 129.17 59.7C126.643 61.368 123.706 62.309 120.68 62.42C116.7 62.57 112.72 62.46 108.57 62.46ZM114.11 57.86C116.68 57.73 119.11 57.74 121.5 57.44C122.839 57.2343 124.128 56.7798 125.3 56.1C127.91 54.64 128.57 52.15 128.3 49.37C128.218 48.2243 127.809 47.1262 127.121 46.2062C126.433 45.2862 125.496 44.5829 124.42 44.18C121.11 42.75 117.63 42.86 114.06 42.97L114.11 57.86ZM114.11 24.09V38.56C115.29 38.56 116.35 38.63 117.41 38.56C118.325 38.4767 119.229 38.3025 120.11 38.04C123.11 37.19 124.45 35.53 124.58 32.41C124.635 31.5876 124.635 30.7624 124.58 29.94C124.36 27.67 123.27 25.94 121.01 25.31C118.75 24.68 116.57 24.5 114.15 24.09H114.11Z" fill="#073C50"/>
<path d="M19.83 26.53L43.44 45.27L19.83 64V26.53Z" fill="#073C50"/>
<path d="M227.67 57.57H240.81V62.38H222.33V19.77H227.67V57.57Z" fill="#073C50"/>
<path d="M173 32.54L184 41.07L173 49.6V32.54Z" fill="#073C50"/>
</svg>
