<svg width="286" height="96" viewBox="0 0 286 96" fill="none" xmlns="http://www.w3.org/2000/svg">
<path d="M104.27 59.87L124.4 38.27H105.25V30.8H135.55V39L115.35 60.46H136.49V68.07H104.27V59.87Z" fill="#073C50"/>
<path d="M139.63 18.16C139.629 17.4291 139.776 16.7056 140.063 16.0334C140.35 15.3612 140.771 14.7545 141.3 14.25C141.855 13.6969 142.518 13.2634 143.247 12.9762C143.976 12.689 144.757 12.5542 145.54 12.58C147.127 12.5396 148.669 13.1086 149.85 14.17C150.912 15.1501 151.541 16.5119 151.599 17.9558C151.658 19.3998 151.14 20.8077 150.16 21.87C150.06 21.98 149.96 22.08 149.85 22.18C148.669 23.2415 147.127 23.8104 145.54 23.77C144.755 23.7913 143.973 23.6515 143.244 23.3591C142.515 23.0667 141.853 22.628 141.3 22.07C140.771 21.5656 140.35 20.9588 140.063 20.2866C139.776 19.6145 139.629 18.8909 139.63 18.16V18.16ZM140.94 30.83H150.26V68.13H140.94V30.83Z" fill="#073C50"/>
<path d="M157.89 9.35H167.21V68.09H157.89V9.35Z" fill="#073C50"/>
<path d="M174.84 9.35H184.16V68.09H174.84V9.35Z" fill="#073C50"/>
<path d="M190.45 18.16C190.449 17.4291 190.596 16.7055 190.883 16.0334C191.17 15.3612 191.591 14.7544 192.12 14.25C192.675 13.6964 193.338 13.2626 194.067 12.9754C194.796 12.6881 195.577 12.5536 196.36 12.58C197.947 12.5396 199.489 13.1085 200.67 14.17C201.196 14.6553 201.622 15.2396 201.922 15.8896C202.222 16.5396 202.39 17.2424 202.418 17.9577C202.446 18.6731 202.333 19.3869 202.084 20.0582C201.836 20.7296 201.457 21.3453 200.97 21.87C200.878 21.9806 200.777 22.0842 200.67 22.18C199.489 23.2414 197.947 23.8104 196.36 23.77C195.575 23.7913 194.793 23.6515 194.064 23.3591C193.335 23.0667 192.673 22.628 192.12 22.07C191.591 21.5655 191.17 20.9588 190.883 20.2866C190.596 19.6144 190.449 18.8909 190.45 18.16ZM191.76 30.83H201.07V68.13H191.76V30.83Z" fill="#073C50"/>
<path d="M246.48 86.74H237.15V63.13H237C235.742 65.0492 233.976 66.5825 231.9 67.56C229.64 68.6607 227.154 69.2188 224.64 69.19C222.007 69.2306 219.398 68.6876 217 67.6C214.81 66.5839 212.852 65.1268 211.25 63.32C209.64 61.4779 208.4 59.3421 207.6 57.03C206.73 54.5462 206.29 51.9319 206.3 49.3C206.27 46.6795 206.71 44.0749 207.6 41.61C208.426 39.3131 209.693 37.2 211.33 35.39C212.977 33.585 214.986 32.1473 217.226 31.1704C219.466 30.1934 221.887 29.6993 224.33 29.72C225.893 29.7004 227.452 29.899 228.96 30.31C230.242 30.6587 231.48 31.1519 232.65 31.78C233.659 32.3139 234.588 32.9872 235.41 33.78C236.105 34.4513 236.725 35.1956 237.26 36H237.49V30.8H246.43L246.48 86.74ZM215.79 49.29C215.794 50.7646 216.017 52.2305 216.45 53.64C216.872 55.0548 217.55 56.3801 218.45 57.55C219.349 58.7089 220.484 59.6634 221.78 60.35C223.234 61.0508 224.826 61.4147 226.44 61.4147C228.054 61.4147 229.647 61.0508 231.1 60.35C232.424 59.6673 233.6 58.7293 234.56 57.59C235.522 56.4341 236.258 55.1078 236.73 53.68C237.218 52.2916 237.472 50.8316 237.48 49.36C237.472 47.8786 237.218 46.4088 236.73 45.01C236.26 43.5814 235.524 42.2548 234.56 41.1C233.597 39.9537 232.422 39.0031 231.1 38.3C229.685 37.5596 228.107 37.1881 226.51 37.22C224.958 37.1626 223.415 37.4755 222.008 38.1328C220.602 38.7901 219.372 39.773 218.42 41C217.521 42.1708 216.843 43.4958 216.42 44.91C215.984 46.3186 215.764 47.7854 215.77 49.26L215.79 49.29Z" fill="#073C50"/>
<path d="M276.94 63.36H276.71C275.649 65.141 274.078 66.5623 272.2 67.44C270.003 68.5327 267.574 69.0782 265.12 69.03C263.536 69.017 261.959 68.8224 260.42 68.45C258.81 68.0568 257.282 67.3795 255.91 66.45C254.519 65.5293 253.35 64.3097 252.49 62.88C251.56 61.2117 251.11 59.3184 251.19 57.41C251.068 54.9549 251.92 52.5507 253.56 50.72C255.265 48.9894 257.355 47.6872 259.66 46.92C262.338 45.9993 265.119 45.4115 267.94 45.17C270.973 44.8833 273.94 44.74 276.84 44.74V43.8C276.919 42.7851 276.726 41.7675 276.282 40.8518C275.837 39.9361 275.156 39.1554 274.31 38.59C272.523 37.4445 270.432 36.8627 268.31 36.92C266.348 36.9381 264.414 37.3816 262.64 38.22C260.97 38.9434 259.443 39.9594 258.13 41.22L253.31 35.55C255.424 33.5789 257.923 32.0671 260.65 31.11C263.356 30.1426 266.207 29.6454 269.08 29.64C271.88 29.5467 274.67 30.023 277.28 31.04C279.157 31.7813 280.832 32.9559 282.168 34.4679C283.505 35.9798 284.465 37.7863 284.97 39.74C285.45 41.565 285.699 43.443 285.71 45.33V68.03H277L276.94 63.36ZM276.79 51.08H274.69C273.19 51.08 271.6 51.15 269.95 51.28C268.393 51.3869 266.852 51.6721 265.36 52.13C264.079 52.5046 262.887 53.1376 261.86 53.99C261.395 54.4005 261.029 54.9103 260.789 55.4815C260.548 56.0528 260.439 56.6709 260.47 57.29C260.442 58.069 260.647 58.8386 261.06 59.5C261.441 60.0934 261.959 60.5871 262.57 60.94C263.222 61.314 263.932 61.5775 264.67 61.72C265.436 61.8885 266.216 61.9823 267 62C268.305 62.1464 269.627 62.0005 270.869 61.5728C272.11 61.1451 273.241 60.4464 274.18 59.5273C275.118 58.6081 275.84 57.4917 276.293 56.2589C276.746 55.0262 276.919 53.708 276.8 52.4L276.79 51.08Z" fill="#073C50"/>
<path d="M54.28 45.96L17.36 64.12L54.28 81.63V95.75L0.499971 70.25L0.469971 56.34L37.89 37.95L0.499971 20.22V6.11L54.28 31.61V45.96Z" fill="#073C50"/>
<path d="M0.5 6.11L14.71 0.339996L68.5 25.84L54.28 31.61L0.5 6.11Z" fill="#05222B"/>
<path d="M54.28 45.96L68.5 40.2V25.84L54.28 31.61V45.96Z" fill="#072C38"/>
<path d="M54.28 81.63V53.41L68.5 46.88V89.99L54.28 95.75V81.63Z" fill="#072C38"/>
</svg>
