<svg width="284" height="70" viewBox="0 0 284 70" fill="none" xmlns="http://www.w3.org/2000/svg">
<path d="M218.88 69.16C218.765 68.6904 218.688 68.2121 218.65 67.73C218.65 45.99 218.65 24.25 218.65 2.51C218.65 2.07 218.7 1.64 218.74 0.93C220.11 2.15 221.3 3.14 222.41 4.2C226.11 7.76 229.77 11.37 233.47 14.93C237.55 18.8567 241.65 22.77 245.77 26.67C247.32 28.16 248.91 29.61 250.44 31.11C250.99 31.65 251.35 31.78 251.96 31.17C254.05 29.11 256.2 27.1 258.32 25.07L271.77 12.19C275.45 8.68334 279.14 5.18334 282.84 1.69C283.148 1.50445 283.487 1.37573 283.84 1.31V69.16H269.58C269.456 68.6511 269.376 68.1325 269.34 67.61C269.34 56.7567 269.34 45.91 269.34 35.07V33.61L251.26 50.5L233.11 33.43V35.2C233.11 46 233.11 56.8033 233.11 67.61C233.073 68.1317 232.996 68.6499 232.88 69.16H218.88Z" fill="#073C50"/>
<path d="M178.17 69.16C176.79 68.91 175.41 68.65 174.03 68.42C169.517 67.6412 165.259 65.7816 161.62 63C156.986 59.6633 153.293 55.185 150.9 50C149.64 47.2262 148.813 44.275 148.45 41.25C147.633 35.3901 148.407 29.4183 150.69 23.96C152.158 20.6387 154.128 17.5628 156.53 14.84C161.738 8.6165 169.168 4.67007 177.24 3.84C182.293 3.16143 187.435 3.69619 192.24 5.4C194.453 6.31898 196.61 7.36746 198.7 8.54C198.864 8.63281 199.006 8.76071 199.115 8.91456C199.223 9.06841 199.297 9.24442 199.33 9.43C199.33 14.43 199.39 20.34 199.33 25.35C198.349 24.6315 197.404 23.8638 196.5 23.05C193.639 20.4026 190.222 18.4278 186.5 17.27C179.41 15.27 173.08 16.58 167.7 21.76C165.698 23.633 164.115 25.9084 163.055 28.4368C161.995 30.9652 161.482 33.6893 161.55 36.43C161.403 40.6176 162.617 44.7401 165.01 48.18C166.648 50.5591 168.808 52.5333 171.324 53.9525C173.84 55.3717 176.646 56.1985 179.53 56.37C185.63 56.88 190.53 54.5 194.95 50.81C196.24 49.74 199.31 46.81 199.31 47.25C199.31 52.01 199.31 58.32 199.31 63.08C199.329 63.38 199.251 63.6782 199.09 63.9316C198.928 64.185 198.69 64.3805 198.41 64.49C194.427 66.7328 190.075 68.2465 185.56 68.96C184.98 69.06 184.39 69.14 183.81 69.23L178.17 69.16Z" fill="#073C50"/>
<path d="M0.370012 40C0.370012 30.94 0.370012 21.8767 0.370012 12.81C0.370012 10.81 0.830012 10.71 2.37001 10.72C10.37 10.72 18.43 10.72 26.46 10.78C31.68 10.85 36.82 11.53 41.53 14.07C47.4169 17.1529 51.9653 22.2921 54.31 28.51C56.0344 33.0361 56.6981 37.8973 56.25 42.72C55.887 48.286 53.7887 53.5983 50.25 57.91C46.4 62.57 41.88 66.18 35.82 67.51C34.2659 67.864 32.6826 68.0749 31.09 68.14C26.36 68.29 21.64 68.32 16.91 68.42C13.35 68.49 9.78001 68.57 6.22001 68.67C4.70001 68.67 3.17001 68.79 1.65001 68.92C0.600011 69.01 0.310011 68.61 0.320011 67.59C0.380011 58.4 0.370012 49.2 0.370012 40ZM15.65 53.63C17.82 53.75 19.84 53.99 21.86 53.96C24.8266 53.9435 27.7904 53.7766 30.74 53.46C32.4816 53.2868 34.1527 52.6834 35.6033 51.7041C37.0538 50.7249 38.2382 49.4005 39.05 47.85C40.9608 44.296 41.5793 40.1891 40.8 36.23C40.5652 34.5044 39.9669 32.8482 39.0447 31.3709C38.1224 29.8936 36.8972 28.6288 35.45 27.66C31.76 25.24 27.51 25.37 23.35 25.2C21.96 25.14 20.55 25.33 19.16 25.41L15.65 25.6V53.63Z" fill="#073C50"/>
<path d="M106.36 3.62C106.665 4.03676 106.945 4.47082 107.2 4.92C110.873 12.3067 114.537 19.6667 118.19 27C121.99 34.7067 125.777 42.4233 129.55 50.15C131.65 54.43 133.78 58.7 135.88 62.98C136.6 64.44 137.26 65.92 137.97 67.38C138.37 68.19 138.28 68.63 137.26 68.62C132.4 68.62 127.53 68.62 122.66 68.62C122.17 68.62 121.52 67.91 121.26 67.38C117.31 59.55 113.42 51.7 109.51 43.85C108.51 41.85 107.51 39.77 106.37 37.59C103.71 42.91 101.08 48.1 98.51 53.32C96.14 58.1 93.85 62.92 91.51 67.7C91.3931 67.9336 91.2257 68.1383 91.0198 68.2991C90.814 68.46 90.5749 68.573 90.32 68.63C85.32 68.69 80.32 68.63 75.32 68.63C75.0826 68.6069 74.848 68.56 74.62 68.49C74.76 68.14 74.84 67.85 74.98 67.58C77.24 62.9733 79.5067 58.37 81.78 53.77L88.71 39.77L95.19 26.62C97.28 22.38 99.39 18.15 101.46 13.9C103.07 10.55 104.64 7.21 106.36 3.62Z" fill="#073C50"/>
</svg>
