<svg width="284" height="104" viewBox="0 0 284 104" fill="none" xmlns="http://www.w3.org/2000/svg">
<path d="M75.66 11.16L67.66 24.33C67.8828 24.5668 68.0622 24.841 68.19 25.14L75.65 24.14L75.66 11.16ZM75.66 25.41L68.37 26.41C68.3296 26.7871 68.203 27.1498 68 27.47L75.68 35.27L75.66 25.41ZM63.54 27.13L45.91 30.13C45.8646 30.6433 45.666 31.131 45.34 31.53L65.52 59.35L65.24 28.58C64.8657 28.4819 64.5185 28.3005 64.2242 28.0494C63.9298 27.7983 63.6959 27.4841 63.54 27.13V27.13ZM67.05 28.33C66.8787 28.4205 66.6975 28.491 66.51 28.54L66.79 59.82L75.66 47.35V37.07L67.05 28.33ZM44.31 32.25L44.14 32.31L45.64 61.55L65 60.81L44.31 32.25ZM42.54 32.25L22.81 61.45C23.0635 61.7365 23.2452 62.0793 23.34 62.45L44.34 61.65L42.88 32.38L42.54 32.25ZM75.66 49.51L67.48 61L75.66 62.75V49.51ZM39.9 4C27.9275 4.0122 15.9972 5.41833 4.34997 8.19H4.13997V70.48L18.43 63.61C18.4196 63.4735 18.4196 63.3365 18.43 63.2V63.12C18.4326 62.4481 18.7014 61.8046 19.1775 61.3304C19.6535 60.8562 20.2981 60.59 20.97 60.59C21.26 60.5893 21.5478 60.6401 21.82 60.74L41.49 31.57C41.078 31.1113 40.8501 30.5165 40.85 29.9C40.8624 29.325 41.0696 28.7712 41.4378 28.3292C41.8059 27.8873 42.3131 27.5834 42.8765 27.4672C43.4398 27.3511 44.0259 27.4295 44.5388 27.6898C45.0517 27.9501 45.4611 28.3768 45.7 28.9L63.33 25.9C63.385 25.2696 63.6743 24.6826 64.1408 24.255C64.6073 23.8274 65.2171 23.5901 65.85 23.59C66.0969 23.5868 66.343 23.6205 66.58 23.69L75.66 8.69V8.16H75.45C64.0039 5.44278 52.284 4.04699 40.52 4H39.9ZM67.07 62.29L71.07 76.21L71.32 75.95L71.81 75.45L72.27 74.96L72.43 74.8L72.87 74.32L73.16 74.01L73.44 73.7L73.72 73.4L74.11 72.96L74.36 72.67L74.73 72.25L74.96 71.97L75.18 71.71L75.39 71.44L75.6 71.19L75.67 71.09V64.09L67.07 62.29ZM65.7 62.1L46.85 62.82L69.61 77.66L69.95 77.33L70.04 77.24L65.7 62.1ZM19 64.76L4.63997 71.66L4.74998 71.8C4.88998 71.96 5.01998 72.13 5.15998 72.3L5.44998 72.64C5.53998 72.76 5.63998 72.87 5.73998 72.99L6.04997 73.34L6.51998 73.88L6.83998 74.24L7.17998 74.61L7.51998 74.99L7.86997 75.37L8.31997 75.84L8.77997 76.33L9.14998 76.72L9.53998 77.12L9.92998 77.51L10.32 77.91L10.73 78.32L11.14 78.73L11.55 79.13L11.98 79.55L12.4 79.96L13.06 80.58L13.5 81L13.94 81.42L14.39 81.84L14.85 82.26L15.31 82.68L15.78 83.11L16.24 83.53L16.72 83.96L17.19 84.38L17.58 84.72L20 65.48C19.6151 65.3213 19.2726 65.0747 19 64.76V64.76ZM44.34 62.87L23.41 63.66C23.3361 64.0208 23.1861 64.3617 22.97 64.66L40.48 86.19L44.34 62.87ZM45.53 63.41L41.66 86.79L67 80.17L67.38 79.81L67.77 79.44L68.15 79.07L68.53 78.71L68.73 78.52L45.53 63.41ZM21.99 65.41C21.7579 65.5126 21.5119 65.58 21.26 65.61L18.73 85.7L19.13 86.05L19.62 86.47L19.9 86.71L39.53 86.98L21.99 65.41ZM65 82L42.3 87.94L50.42 94L50.72 93.78L51.23 93.4L51.49 93.21L52.14 92.72L52.79 92.22L53.32 91.81L54.13 91.19L54.67 90.76L55.21 90.33L55.76 89.89L56.31 89.45L57.15 88.77L57.65 88.35L58.34 87.78L59.02 87.22L59.69 86.64L60.36 86.07L60.81 85.69L61.47 85.11L62.13 84.54L62.79 83.96L63.22 83.58L63.86 83L64.49 82.43L65 82ZM21.42 88L21.85 88.35L22.36 88.77L22.86 89.17L23.68 89.84L24.23 90.28L24.77 90.71L25.31 91.13L25.85 91.55L26.52 92.06L27.18 92.56L27.83 93.04L28.47 93.52L28.98 93.89L29.25 94.09L38.49 88.23L21.42 88ZM39.68 89L30.37 94.9L30.73 95.15L31.21 95.48L31.69 95.81L32.16 96.12L32.62 96.43L33.52 97.01L33.96 97.28L34.16 97.41L34.56 97.65L35.86 98.41L36.07 98.52L39.68 89ZM41.16 88.66L37.16 99.12L37.33 99.2C37.59 99.33 37.84 99.45 38.08 99.55C38.5151 99.746 38.9628 99.9131 39.42 100.05H39.59H39.71H39.78H39.87H40.05H40.13H40.23H40.33L40.48 100L40.63 99.94H40.77L40.91 99.89L41.06 99.82L41.3 99.72L41.47 99.64L41.75 99.51L42.03 99.37L42.23 99.27L42.44 99.17L42.76 99L43.1 98.81L43.45 98.62L43.69 98.48L43.94 98.34L44.32 98.12L44.71 97.88L44.98 97.72L45.25 97.55L45.53 97.38L45.96 97.11L47.07 96.37L47.53 96.06L48 95.75L48.47 95.42L49 95L49.35 94.74L41.16 88.66ZM39.9 0.150002C53.2466 0.171411 66.5376 1.87142 79.46 5.21V72.3L79.18 72.69L78.98 72.96C78.9409 73.0047 78.9042 73.0515 78.87 73.1L78.66 73.38L78.43 73.66L78.19 73.95L77.95 74.25L77.82 74.4L77.56 74.71L77.29 75.02L77.01 75.34L76.73 75.67L76.28 76.16L75.97 76.5L75.66 76.84L75.5 77.02L75 77.54L74.66 77.9L74.14 78.44L73.79 78.8L73.42 79.17L73.05 79.54L72.87 79.73L73.08 79.87L72.6 80L71.32 81.25L70.66 81.89C69.33 83.17 67.91 84.48 66.45 85.79L65.72 86.45L65.35 86.78L64.6 87.43L63.85 88.09L63.09 88.74C62.09 89.61 61.09 90.47 60.09 91.32L59.32 91.95L58.55 92.57C50.7 98.87 43.09 104 39.9 104C33.16 104 7.99998 83 0.349976 72.3V5.21C13.2691 1.87204 26.5567 0.172037 39.9 0.150002V0.150002Z" fill="#073C50"/>
<path d="M198 5.72C198.682 5.71606 199.351 5.91521 199.92 6.29213C200.489 6.66905 200.933 7.20669 201.195 7.83666C201.458 8.46664 201.527 9.16047 201.394 9.82989C201.261 10.4993 200.932 11.1141 200.449 11.5959C199.965 12.0778 199.35 12.4051 198.68 12.536C198.01 12.667 197.317 12.5957 196.687 12.3314C196.058 12.067 195.522 11.6214 195.146 11.0513C194.771 10.4813 194.574 9.81247 194.58 9.13C194.573 8.67948 194.657 8.23219 194.827 7.81475C194.996 7.39731 195.248 7.01824 195.567 6.7001C195.886 6.38197 196.266 6.13125 196.684 5.96288C197.102 5.7945 197.549 5.71191 198 5.72V5.72ZM149.36 19.92C147.603 19.8978 145.895 20.5043 144.546 21.6301C143.196 22.756 142.293 24.3271 142 26.06V26.29H156.6V25.99C156.422 24.2931 155.611 22.7258 154.328 21.6007C153.045 20.4756 151.386 19.8754 149.68 19.92H149.36ZM116.29 11.92H111.8V37.32H116.29C123.98 37.32 128.53 32.64 128.53 24.59C128.53 16.87 124.09 12.09 116.69 11.92H116.29ZM200.59 15.73V42.17H195.45V20.35H190.7V15.78L200.59 15.73ZM187.59 7.06V12H172.22V22.24H186.53V27.1H172.22V42.17H167V7.11L187.59 7.06ZM116.31 7.06C127.08 7.06 133.89 14.06 133.89 24.59C133.89 35.34 127.49 41.93 116.78 42.12H103.35V37.51H106.53V11.78H103.35V7.11L116.31 7.06ZM149.38 15.06C156.99 15.06 161.78 20.26 161.94 28.13V30.61H141.78C142.05 35.11 144.65 37.73 148.94 37.97H149.28H149.61C151.107 38.0487 152.588 37.6319 153.825 36.7842C155.061 35.9364 155.984 34.7048 156.45 33.28L156.53 32.99L156.68 32.34L161.68 33.52L161.48 34.21C159.94 39.35 155.39 42.68 149.48 42.68C141.59 42.68 136.48 37.14 136.48 28.96C136.48 20.78 142.06 15.16 149.33 15.16L149.38 15.06ZM208.28 48.44C208.962 48.4361 209.631 48.6352 210.2 49.0121C210.769 49.389 211.213 49.9267 211.475 50.5567C211.738 51.1866 211.807 51.8805 211.674 52.5499C211.541 53.2193 211.212 53.8341 210.729 54.3159C210.245 54.7978 209.63 55.1251 208.96 55.256C208.29 55.387 207.597 55.3157 206.967 55.0514C206.338 54.787 205.802 54.3414 205.427 53.7713C205.051 53.2013 204.854 52.5325 204.86 51.85C204.873 50.9658 205.234 50.1225 205.865 49.5029C206.496 48.8832 207.346 48.5373 208.23 48.54L208.28 48.44ZM184.7 62.69C180.1 62.69 176.89 66.51 176.89 71.69C176.89 77.22 180.2 80.76 184.8 80.76C189.4 80.76 192.61 77.04 192.61 71.69C192.61 66.34 189.24 62.79 184.65 62.79L184.7 62.69ZM151.49 62.69C146.95 62.69 143.68 66.44 143.68 71.8C143.68 77.16 146.99 80.8 151.54 80.8C156.09 80.8 159.35 76.99 159.35 71.8C159.3 66.34 156 62.79 151.44 62.79L151.49 62.69ZM249.4 62.69C244.86 62.69 241.59 66.44 241.59 71.8C241.59 77.16 244.9 80.8 249.45 80.8C254 80.8 257.26 76.99 257.26 71.8C257.21 66.34 253.92 62.79 249.35 62.79L249.4 62.69ZM225.73 51.23V58.51H233.44V63.07H225.73V77.07C225.73 79.24 226.43 80.07 228.34 80.24H233.1V85H228.87C223.74 85 220.72 82.49 220.59 77.55V63.17H215.87V58.61H220.87V51.33L225.73 51.23ZM278.8 47.43V80.28H283.86V85H268.55V80.38H273.61V52.14H268.55V47.53L278.8 47.43ZM210.87 58.51V85H205.73V63.17H201V58.61L210.87 58.51ZM248.97 57.88C250.429 57.8427 251.88 58.1118 253.229 58.6699C254.577 59.2279 255.794 60.0626 256.8 61.12L257.02 61.37L257.12 61.49V58.49H262.31V79.8C262.31 80.12 262.42 80.26 262.76 80.28H264.76V85H261.63C260.73 85.0163 259.849 84.7433 259.117 84.2212C258.384 83.6991 257.838 82.9556 257.56 82.1L257.48 81.84L257.29 82.07C257.02 82.3985 256.726 82.706 256.41 82.99L256.07 83.29L255.7 83.58C253.851 84.9453 251.597 85.6497 249.3 85.58C241.75 85.58 236.39 79.84 236.39 71.81C236.39 63.78 241.46 58 248.92 58L248.97 57.88ZM119.68 49.31C123.172 49.2528 126.595 50.2801 129.479 52.2502C132.362 54.2203 134.564 57.0363 135.78 60.31L135.92 60.7L136.23 61.59H130.5L130.33 61.18C129.456 59.0943 127.97 57.3224 126.069 56.0978C124.168 54.8732 121.94 54.2534 119.68 54.32C112.59 54.32 107.29 59.93 107.29 67.48C107.29 75.03 112.56 80.63 119.68 80.63C121.879 80.7129 124.053 80.1389 125.925 78.9813C127.797 77.8236 129.282 76.1348 130.19 74.13L130.33 73.79L130.49 73.36H136.21L135.93 74.24C133.68 81.12 127.32 85.63 119.63 85.63C109.48 85.63 101.91 77.87 101.91 67.48C101.91 57.09 109.55 49.31 119.68 49.31ZM151 58C152.459 57.9627 153.91 58.2318 155.259 58.7899C156.607 59.3479 157.824 60.1826 158.83 61.24L159.05 61.49L159.15 61.61V58.61H164.34V79.8C164.34 80.12 164.45 80.26 164.79 80.28H166.79V85H163.66C162.76 85.0163 161.879 84.7433 161.147 84.2212C160.414 83.6991 159.868 82.9556 159.59 82.1L159.51 81.84L159.32 82.07C159.05 82.3985 158.756 82.706 158.44 82.99L158.1 83.29L157.73 83.58C155.881 84.9453 153.627 85.6497 151.33 85.58C143.78 85.58 138.42 79.84 138.42 71.81C138.42 63.78 143.55 58 151 58ZM184.88 58C192.4 58 197.79 63.76 197.79 71.77C197.79 79.78 192.62 85.64 185.17 85.64C183.7 85.6981 182.234 85.4408 180.871 84.8854C179.509 84.33 178.281 83.4894 177.27 82.42L177.06 82.18L176.98 82.08V96.08H171.83V58.61H176.83V61.61V61.55L177.14 61.21L177.47 60.87L177.83 60.54C179.777 58.8297 182.3 57.922 184.89 58H184.88Z" fill="#073C50"/>
</svg>
