<svg width="284" height="110" viewBox="0 0 284 110" fill="none" xmlns="http://www.w3.org/2000/svg">
<path d="M155.16 34.81C158.99 38.18 160.91 43.19 160.91 49.67V83.31H152.52V52.59C152.52 47.11 151.33 43.1 148.96 40.59C147.733 39.3677 146.264 38.4165 144.646 37.7981C143.029 37.1797 141.299 36.9078 139.57 37C136.822 36.9966 134.109 37.6226 131.64 38.83C129.093 40.1953 127.005 42.2826 125.64 44.83C124 47.56 123.27 51.12 123.27 55.31V83.31H114.79V32.25L122.54 35.44L122.72 38.91C124.332 35.8487 126.894 33.3927 130.02 31.91C133.252 30.3312 136.814 29.5494 140.41 29.63C146.357 29.6167 151.273 31.3433 155.16 34.81Z" fill="#073C50"/>
<path d="M220.81 60.15H181.15C181.6 65.53 183.43 69.64 186.44 72.55C188.023 74.038 189.886 75.1974 191.92 75.9612C193.954 76.725 196.119 77.0781 198.29 77C201.622 77.097 204.93 76.412 207.95 75C210.369 73.7986 212.232 71.7103 213.15 69.17L220.15 72.91C218.237 76.4921 215.321 79.4389 211.76 81.39C208.3 83.39 203.76 84.39 198.27 84.39C190.34 84.39 184.14 81.92 179.58 77.09C175.02 72.26 172.83 65.51 172.83 56.94C172.83 48.37 174.93 41.72 179.3 36.88C183.67 32.04 189.7 29.59 197.63 29.59C202.106 29.4716 206.526 30.6078 210.39 32.87C213.901 34.9666 216.723 38.0424 218.51 41.72C220.369 45.6178 221.303 49.8921 221.24 54.21C221.238 56.1977 221.094 58.1827 220.81 60.15ZM186.44 41.1C183.61 43.83 181.88 47.66 181.24 52.68H213.15C212.6 47.75 210.96 43.92 208.32 41.19C206.93 39.7889 205.263 38.6927 203.426 37.9713C201.589 37.2499 199.622 36.9191 197.65 37C193.518 36.8402 189.49 38.3172 186.44 41.11V41.1Z" fill="#073C50"/>
<path d="M277 36.9C281.56 41.74 283.84 48.39 283.84 56.96C283.84 65.53 281.56 72.28 277 77.11C272.44 81.94 266.24 84.41 258.31 84.41C250.38 84.41 244.18 81.94 239.62 77.11C235.06 72.28 232.87 65.53 232.87 56.96C232.87 48.39 235.15 41.74 239.62 36.9C244.09 32.06 250.38 29.61 258.31 29.61C266.24 29.61 272.51 32.07 277 36.9ZM245.82 42.28C242.82 45.84 241.26 50.76 241.26 56.96C241.26 63.16 242.81 68.18 245.82 71.73C248.83 75.28 253.02 77.11 258.31 77.11C263.6 77.11 267.89 75.29 270.89 71.73C273.89 68.17 275.36 63.25 275.36 56.96C275.36 50.67 273.9 45.84 270.89 42.28C267.88 38.72 263.69 36.9 258.31 36.9C252.93 36.9 248.83 38.64 245.82 42.28Z" fill="#073C50"/>
<path d="M0.350006 19.49V92.7L47.94 109.75V35.9L99.27 17.03L52.68 0.339996L0.350006 19.49Z" fill="#073C50"/>
<path d="M51.77 38.64V78.11L99.27 95.07V21.04L51.77 38.64Z" fill="#073C50"/>
</svg>
