<svg id="PolyNetwork" xmlns="http://www.w3.org/2000/svg" viewBox="0 0 320 160"><defs><style>.cls-1,.cls-4{fill:#073c50;}.cls-1{opacity:0;}.cls-2{fill:#05222b;}.cls-3{fill:#072c38;}</style></defs><rect class="cls-1" width="320" height="160"/><polygon class="cls-2" points="39.88 71.02 39.88 92.11 38.19 91.14 29.3 86 29.3 64.91 39.88 71.02"/><polygon class="cls-2" points="18.25 33.57 18.25 79.62 0 69.08 0 23.03 18.25 33.57"/><polygon class="cls-3" points="79.77 23.03 79.77 69.08 39.88 92.11 39.88 71.03 61.5 58.55 61.5 33.57 79.77 23.03"/><polygon class="cls-4" points="79.77 23.03 61.5 33.57 39.88 21.08 18.25 33.57 0 23.03 39.88 0 79.77 23.03"/><path class="cls-4" d="M101.12,33.58h11.45a9.11,9.11,0,0,1,6.34,2.05,8.4,8.4,0,0,1,0,11.46,9.06,9.06,0,0,1-6.34,2h-5.91V58.5h-5.52ZM111.86,45Q116,45,116,41.39a3.4,3.4,0,0,0-1-2.72,4.84,4.84,0,0,0-3.12-.89h-5.22V45Z"/><path class="cls-4" d="M127.63,57.68a7.91,7.91,0,0,1-3.21-3.15,10.76,10.76,0,0,1,0-9.58,7.78,7.78,0,0,1,3.21-3.12,11.2,11.2,0,0,1,9.69,0A7.63,7.63,0,0,1,140.54,45a10.7,10.7,0,0,1,0,9.58,7.82,7.82,0,0,1-3.22,3.15A11.06,11.06,0,0,1,127.63,57.68Zm8.74-7.91a5.85,5.85,0,0,0-1-3.74,3.46,3.46,0,0,0-2.89-1.23c-2.59,0-3.89,1.65-3.89,5s1.3,5,3.89,5,3.89-1.66,3.89-5Z"/><path class="cls-4" d="M145.23,58.49V33.58h5.34V58.5Z"/><path class="cls-4" d="M167.39,41.17h5.24L162.17,64.88h-5.41l3.32-7.32-7.14-16.37h5.56l4.37,11Z"/><path class="cls-4" d="M216.49,50.82H205.2a4.51,4.51,0,0,0,1.36,3,4.72,4.72,0,0,0,3.17.92,8.6,8.6,0,0,0,2.66-.42,8.89,8.89,0,0,0,2.42-1.27l1.42,3.58a9.76,9.76,0,0,1-3.09,1.55,12.28,12.28,0,0,1-3.71.57,9.6,9.6,0,0,1-6.9-2.42,8.7,8.7,0,0,1-2.53-6.6,9.59,9.59,0,0,1,1.13-4.69,7.94,7.94,0,0,1,3-3.21,8.45,8.45,0,0,1,4.44-1.13,7.4,7.4,0,0,1,5.77,2.37,9.21,9.21,0,0,1,2.14,6.44Zm-10.16-5.46a4.85,4.85,0,0,0-1.13,2.81H212a4.49,4.49,0,0,0-.93-2.82,2.93,2.93,0,0,0-2.35-1,3.14,3.14,0,0,0-2.39,1Z"/><path class="cls-4" d="M231.61,54.72l-.29,3.89a13.9,13.9,0,0,1-2,.15c-2.64,0-4.51-.59-5.78-1.74a6.89,6.89,0,0,1-1.82-5.26V45.11h-3.29v-4h3.29V36.05H227v5.09h4.35v4H227v6.65q0,3.12,2.9,3.12A16.47,16.47,0,0,0,231.61,54.72Z"/><path class="cls-4" d="M258.66,41.14h5.17l-7,17.35h-4.51l-3.84-9.79-3.7,9.79h-4.52l-7.08-17.35h5.44l4.11,11,4.14-11h3.61l4.13,11.08Z"/><path class="cls-4" d="M269.1,57.68a7.88,7.88,0,0,1-3.22-3.15,10.76,10.76,0,0,1,0-9.58,7.75,7.75,0,0,1,3.22-3.12,11.18,11.18,0,0,1,9.68,0A7.63,7.63,0,0,1,282,45a10.7,10.7,0,0,1,0,9.58,7.81,7.81,0,0,1-3.24,3.15,11,11,0,0,1-9.68,0Zm8.74-7.91a5.84,5.84,0,0,0-1-3.74,3.44,3.44,0,0,0-2.89-1.27c-2.6,0-3.88,1.66-3.88,5s1.28,5,3.88,5,3.89-1.67,3.89-5Z"/><path class="cls-4" d="M299.07,45.11l-3,.32a4.6,4.6,0,0,0-3.15,1.25,4,4,0,0,0-.92,2.78v9h-5.34V41.14h5.13v3c.87-2,2.66-3.11,5.41-3.3l1.53-.13Z"/><path class="cls-4" d="M320,58.49h-6.56l-6.65-7.75v7.75h-5.32V33.58h5.34v15l6.39-7.4h6.37l-7.26,8.22Z"/><path class="cls-4" d="M191.44,33.58h5.18V58.5h-4.1L180.09,42.62V58.49H175V33.58H179l12.42,15.81Z"/></svg>