<svg xmlns="http://www.w3.org/2000/svg" viewBox="0 0 320 160.85"><defs><style>.cls-1,.cls-2{fill:#073c50;}.cls-1{opacity:0;}</style></defs><g id="Layer_2" data-name="Layer 2"><g id="stakewithus"><rect class="cls-1" y="0.85" width="320" height="160"/><path class="cls-2" d="M11.07,11.86a12.73,12.73,0,0,1,8.46,2.67,11.47,11.47,0,0,1,4,7.1H16.61a5.78,5.78,0,0,0-1.88-3.35A5.7,5.7,0,0,0,10.91,17,4.39,4.39,0,0,0,8,17.92a3,3,0,0,0-1,2.4,2.43,2.43,0,0,0,.83,1.93A6,6,0,0,0,9.87,23.4q1.26.42,3.6,1A33.48,33.48,0,0,1,18.8,26a8.24,8.24,0,0,1,3.55,2.56,6.84,6.84,0,0,1,1.52,4.69,7.29,7.29,0,0,1-2.93,6,12.11,12.11,0,0,1-7.78,2.29q-5.64,0-9-2.5A10.75,10.75,0,0,1,0,31.75H7.05a4.81,4.81,0,0,0,1.88,3.39,6.87,6.87,0,0,0,4.23,1.21A4.18,4.18,0,0,0,16,35.46a3.18,3.18,0,0,0,1-2.4,2.59,2.59,0,0,0-.89-2A5.61,5.61,0,0,0,14,29.82c-.84-.28-2-.61-3.61-1a48.36,48.36,0,0,1-5.27-1.46,8.78,8.78,0,0,1-3.45-2.46A6.88,6.88,0,0,1,.26,20.32a7.54,7.54,0,0,1,2.87-6.11C5.05,12.65,7.69,11.86,11.07,11.86Z"/><path class="cls-2" d="M44.08,34.83v6.32H40.22c-3.24,0-5.73-.79-7.47-2.35S30.19,34.62,30.19,31V18.44h-4V12.23h4V5.08h7.37v7.15H44v6.21H37.56V31.07A4.07,4.07,0,0,0,38.39,34a3.94,3.94,0,0,0,2.82.83Z"/><path class="cls-2" d="M60,11.86a11.12,11.12,0,0,1,6.27,1.73A9.31,9.31,0,0,1,70,18.23v-6h7.32V41.15H70V35.09a9.63,9.63,0,0,1-3.7,4.7A11.11,11.11,0,0,1,60,41.51a12.45,12.45,0,0,1-6.58-1.77,12.21,12.21,0,0,1-4.6-5.12,18.2,18.2,0,0,1-1.62-7.93,17.85,17.85,0,0,1,1.62-7.88,12.11,12.11,0,0,1,4.6-5.17A12.46,12.46,0,0,1,60,11.86Zm2.3,6.42a7.2,7.2,0,0,0-5.54,2.25,8.71,8.71,0,0,0-2.09,6.16,8.71,8.71,0,0,0,2.09,6.16,8,8,0,0,0,11-.05A8.5,8.5,0,0,0,70,26.69a8.37,8.37,0,0,0-2.19-6.11A7.16,7.16,0,0,0,62.29,18.28Z"/><path class="cls-2" d="M100.14,41.15,90.59,28.52V41.15H83.22V2.52h7.37V24.24l9.5-12h8.72L96.65,26.64l12.48,14.51Z"/><path class="cls-2" d="M139.18,25.59a13.45,13.45,0,0,1-.26,2.51h-21.2c.11,2.57.8,4.47,2.09,5.69a6.71,6.71,0,0,0,4.8,1.82,6.81,6.81,0,0,0,4.23-1.25A5.51,5.51,0,0,0,131,31h7.78a12.33,12.33,0,0,1-2.46,5.43,12.83,12.83,0,0,1-4.85,3.76A15.41,15.41,0,0,1,125,41.51a15.61,15.61,0,0,1-7.52-1.77,12.87,12.87,0,0,1-5.12-5.17,16.15,16.15,0,0,1-1.83-7.88,16.13,16.13,0,0,1,1.83-7.88,12.39,12.39,0,0,1,5.12-5.17A15.62,15.62,0,0,1,125,11.86a15.17,15.17,0,0,1,7.47,1.78,12.22,12.22,0,0,1,5,4.91A13.86,13.86,0,0,1,139.18,25.59Zm-7.41-.73a6.43,6.43,0,0,0-1.88-5.37A7,7,0,0,0,125,17.66a7.21,7.21,0,0,0-5,1.83,7.46,7.46,0,0,0-2.25,5.37Z"/><path class="cls-2" d="M185.1,12.23l-7.78,28.92h-8.15l-6.21-21-6.37,21h-8.15l-7.73-28.92h7.36l4.7,22.34,6.43-22.34H167l6.47,22.34,4.76-22.34Z"/><path class="cls-2" d="M195.41,12.23V41.15h-7.36V12.23Z"/><path class="cls-2" d="M216.8,34.83v6.32h-3.86c-3.24,0-5.73-.79-7.47-2.35s-2.56-4.18-2.56-7.83V18.44h-4V12.23h4V5.08h7.37v7.15h6.47v6.21h-6.47V31.07a4.07,4.07,0,0,0,.83,2.93,3.94,3.94,0,0,0,2.82.83Z"/><path class="cls-2" d="M238.61,11.81a10.25,10.25,0,0,1,8,3.29q3,3.28,3,9.24V41.15h-7.31v-16a7.47,7.47,0,0,0-1.78-5.32,6.25,6.25,0,0,0-4.86-1.93,6.5,6.5,0,0,0-5,2,8.34,8.34,0,0,0-1.88,5.85V41.15h-7.36V2.52h7.36V18a9.14,9.14,0,0,1,3.76-4.54A11.29,11.29,0,0,1,238.61,11.81Z"/><path class="cls-2" d="M252.77,37.39a3.94,3.94,0,0,1,3.76-3.81A3.48,3.48,0,0,1,259,34.73a3.53,3.53,0,0,1,1.15,2.66A3.58,3.58,0,0,1,259,40.1a3.53,3.53,0,0,1-2.51,1,3.78,3.78,0,0,1-2.61-1A3.51,3.51,0,0,1,252.77,37.39Z"/><path class="cls-2" d="M291.26,12.23V41.15H283.9V35.3a9.36,9.36,0,0,1-3.82,4.6A11.33,11.33,0,0,1,274,41.51a10.2,10.2,0,0,1-8-3.29q-3-3.28-3-9.18V12.23h7.31v16a7.63,7.63,0,0,0,1.78,5.38,6.29,6.29,0,0,0,4.8,1.88,6.58,6.58,0,0,0,5.07-2,8.3,8.3,0,0,0,1.88-5.84V12.23Z"/><path class="cls-2" d="M307.21,11.86a12.76,12.76,0,0,1,8.46,2.67,11.51,11.51,0,0,1,4,7.1h-6.89a5.72,5.72,0,0,0-1.88-3.35A5.66,5.66,0,0,0,307.05,17a4.42,4.42,0,0,0-2.93.89,3,3,0,0,0-1,2.4,2.46,2.46,0,0,0,.83,1.93A6.09,6.09,0,0,0,306,23.4c.84.28,2,.61,3.61,1A33.32,33.32,0,0,1,314.93,26a8.27,8.27,0,0,1,3.56,2.56A6.83,6.83,0,0,1,320,33.21a7.28,7.28,0,0,1-2.92,6,12.14,12.14,0,0,1-7.79,2.29q-5.64,0-9-2.5a10.79,10.79,0,0,1-4.13-7.26h7.05a4.85,4.85,0,0,0,1.88,3.39,6.87,6.87,0,0,0,4.23,1.21,4.21,4.21,0,0,0,2.88-.89,3.17,3.17,0,0,0,1-2.4,2.59,2.59,0,0,0-.89-2,5.61,5.61,0,0,0-2.14-1.2q-1.26-.42-3.6-1a48.63,48.63,0,0,1-5.28-1.46,8.85,8.85,0,0,1-3.45-2.46,6.88,6.88,0,0,1-1.41-4.59,7.52,7.52,0,0,1,2.88-6.11C301.18,12.65,303.83,11.86,307.21,11.86Z"/><path class="cls-2" d="M188,3.81a3.57,3.57,0,0,1,1.15-2.66A3.6,3.6,0,0,1,191.75,0a3.48,3.48,0,0,1,2.51,1.15,3.53,3.53,0,0,1,1.15,2.66,3.58,3.58,0,0,1-1.15,2.71,3.53,3.53,0,0,1-2.51,1.05,3.78,3.78,0,0,1-2.61-1.05A3.51,3.51,0,0,1,188,3.81Z"/></g></g></svg>