<svg xmlns="http://www.w3.org/2000/svg" viewBox="0 0 320 160"><defs><style>.cls-1,.cls-2{fill:#073c50;}.cls-1{opacity:0;}</style></defs><g id="_3AC" data-name="3AC"><rect class="cls-1" x="0.37" y="0.29" width="320" height="160"/><path class="cls-2" d="M182.85,156.72l4.52-16.19h2l-.21.85c-1.71,5.7-3.42,11.4-5.07,17.13-.23.79-.54,1.15-1.36,1a7.11,7.11,0,0,0-1.13,0q-2.39-8.17-4.81-16.26h-.21c-1.6,5.45-3.2,10.81-4.78,16.17h-.25c-1.93.11-1.93.11-2.47-1.74l-4.86-16.42c-.07-.23-.13-.47-.21-.79h2c1.51,5.35,3,10.76,4.58,16.16h.2c.53-1.79,1.08-3.58,1.59-5.36,1-3.35,2-6.68,3-10,.18-.62.41-.87,1.09-.85,1.75.1,1.29-.27,1.78,1.36l4.08,14c.1.31.22.61.32.92Z"/><path class="cls-2" d="M142.73,150a10,10,0,1,1,9.93,10,9.75,9.75,0,0,1-9.93-9.54Zm17.86,0a7.91,7.91,0,0,0-7.49-8.33,7.82,7.82,0,0,0-2.92.39,8.16,8.16,0,0,0-5.44,8.49,7.94,7.94,0,1,0,15.87-.55Z"/><path class="cls-2" d="M37.5,140.38c2.73,0,5.46.21,8.17.52s3.87,2.26,3.77,5.06a4.59,4.59,0,0,1-4.15,4.48l-.71.19L50,159.55a11.8,11.8,0,0,1-1.88,0,1.3,1.3,0,0,1-.71-.57c-1.48-2.45-3-4.92-4.41-7.39a1.35,1.35,0,0,0-1.48-.82H39.21v8.67H37.42Zm1.81,8.74a56.2,56.2,0,0,0,5.8-.47,2.72,2.72,0,0,0,2.41-3s0-.07,0-.1A2.81,2.81,0,0,0,45,142.59a54.57,54.57,0,0,0-5.72-.38Z"/><path class="cls-2" d="M113.68,150.69v8.75h-1.75V140.57s.08-.08.12-.08c2.45,0,4.91,0,7.35.16a4.77,4.77,0,0,1,4.6,4.93,4.82,4.82,0,0,1-.3,1.5,4.58,4.58,0,0,1-3.73,3.27c-.26.07-.53.11-1,.19l5.45,8.94a12.05,12.05,0,0,1-1.9,0,1.21,1.21,0,0,1-.69-.58c-1.51-2.48-3-5-4.47-7.46a1.22,1.22,0,0,0-1.26-.74C115.4,150.73,114.61,150.69,113.68,150.69Zm0-8.54V149h4.26a5.32,5.32,0,0,0,1.26-.18,3.06,3.06,0,0,0,2.72-3.27,2.93,2.93,0,0,0-2.72-3,49.93,49.93,0,0,0-5.48-.37Z"/><path class="cls-2" d="M135.15,150.58c1.81,3,3.58,5.85,5.45,8.9a16.68,16.68,0,0,1-2,0c-.21,0-.44-.31-.56-.53q-2.29-3.75-4.51-7.53a1.22,1.22,0,0,0-1.28-.72h-2.46v8.74H128v-19h4.81a19.88,19.88,0,0,1,3.27.3,4.48,4.48,0,0,1,3.93,5s0,.06,0,.1a4.62,4.62,0,0,1-4.19,4.54C135.63,150.42,135.44,150.5,135.15,150.58Zm-5.33-1.68h4.28a5.08,5.08,0,0,0,1.17-.16,3.1,3.1,0,0,0,2.73-3.21,3,3,0,0,0-2.73-3.07c-1.77-.24-3.56-.2-5.44-.29Z"/><path class="cls-2" d="M90.6,159.44c1.07-2.44,2.07-4.72,3.06-7,1.63-3.74,3.28-7.47,4.89-11.23a1.4,1.4,0,0,1,2.51,0q3.76,8.72,7.59,17.41c.11.25.2.51.34.86a13.07,13.07,0,0,1-1.77,0,1,1,0,0,1-.55-.49c-.56-1.24-1.1-2.48-1.6-3.73a.93.93,0,0,0-1-.67H95.61a1,1,0,0,0-1.07.72c-.43,1.12-1,2.21-1.36,3.34a1.11,1.11,0,0,1-1.31.88h-.05A8.34,8.34,0,0,0,90.6,159.44ZM104,152.73l-4.08-10h-.22c-1.36,3.28-2.72,6.56-4.08,9.94Z"/><path class="cls-2" d="M231.26,159.44c.48-1.06.89-2,1.36-2.95,2.23-5.11,4.48-10.21,6.67-15.33.29-.67.67-.75,1.28-.76a1.08,1.08,0,0,1,1.21.74c2.52,5.83,5.08,11.66,7.63,17.48.09.24.17.47.31.82a12.49,12.49,0,0,1-1.73,0,1,1,0,0,1-.61-.54c-.57-1.26-1.08-2.54-1.68-3.77a1,1,0,0,0-.78-.54H236.2a1.13,1.13,0,0,0-.84.59c-.55,1.1-1.05,2.25-1.49,3.4-.24.68-.58,1-1.36.9A8.66,8.66,0,0,0,231.26,159.44Zm13.42-6.72c-1.36-3.39-2.72-6.69-4.08-10h-.22l-4.08,9.93Z"/><path class="cls-2" d="M304.75,159.44a8.13,8.13,0,0,1-1.56,0,1.13,1.13,0,0,1-.77-.52c-.6-1.24-1.15-2.52-1.66-3.78a.82.82,0,0,0-.89-.59h-8.63a1.14,1.14,0,0,0-.86.56c-.55,1.13-1.07,2.3-1.52,3.47a1.1,1.1,0,0,1-1.36.86,7.62,7.62,0,0,0-1.17,0c.11-.31.17-.54.27-.78,2.54-5.82,5.1-11.63,7.62-17.47a1.36,1.36,0,0,1,2.52,0c2.49,5.78,5,11.55,7.56,17.32Zm-5-6.71c-1.36-3.4-2.72-6.7-4.08-10h-.22c-1.36,3.28-2.72,6.56-4.08,9.94Z"/><path class="cls-2" d="M19.6,150.59v8.85H17.86V140.52H19.6v8.17H30.18v-8.17H32v18.92H30.21v-8.85Z"/><path class="cls-2" d="M65.55,159.44H53.62V140.52H65.21v1.71H55.42v6.48h9.17v1.8H55.42v7.19h10.1Z"/><path class="cls-2" d="M69.71,140.5H81.28v1.71H71.5v6.5h9.16v1.8H71.5v7.16H81.6v1.77H69.71Z"/><path class="cls-2" d="M202.74,142.3l-1.54,1.23a4.65,4.65,0,0,0-4.2-1.79,3.54,3.54,0,0,0-3.61,3.45c0,.12,0,.25,0,.38a2.3,2.3,0,0,0,1.15,2.05,38.6,38.6,0,0,0,3.59,1.62c.86.37,1.76.63,2.57,1.07a4.83,4.83,0,0,1,2,6.54,4.74,4.74,0,0,1-.69,1,7.41,7.41,0,0,1-10.47-.11,6,6,0,0,1-.42-.46l.79-.59.8-.54a5.23,5.23,0,0,0,4.77,2.1,4.3,4.3,0,0,0,2.93-1.37,3,3,0,0,0,.05-4.25,4.31,4.31,0,0,0-.46-.39,10.43,10.43,0,0,0-2.13-1c-1.08-.43-2.24-.75-3.33-1.21a4.46,4.46,0,0,1-3-3.91,5.09,5.09,0,0,1,2.43-5.18A7.22,7.22,0,0,1,202.74,142.3Z"/><path class="cls-2" d="M228.92,155.44l1.36,1a7.48,7.48,0,0,1-4,3,9.78,9.78,0,0,1-12.42-6.07,9.91,9.91,0,0,1-.53-3,9.65,9.65,0,0,1,7.69-10.19,9,9,0,0,1,6,.58,24.57,24.57,0,0,1,2.92,1.93l-1.72,1.36a6.84,6.84,0,0,0-6-2.34,7.39,7.39,0,0,0-5,2.73,8.92,8.92,0,0,0,.71,11.77C220.4,158.5,226,159.51,228.92,155.44Z"/><path class="cls-2" d="M254.34,150.61v8.83h-1.75v-19h1.91a42.08,42.08,0,0,1,5.72.29c3,.52,4.16,2.29,4,5.3a4.55,4.55,0,0,1-4.52,4.3C258,150.52,256.21,150.52,254.34,150.61Zm0-8.46v6.55h4.43a5.38,5.38,0,0,0,1.92-.6,2.57,2.57,0,0,0,1.5-2.38,2.92,2.92,0,0,0-2.58-3.22h-.14a44.94,44.94,0,0,0-5.08-.34Z"/><path class="cls-2" d="M14.58,140.5v1.72H8.21v17.22H6.41V142.27H0V140.5Z"/><path class="cls-2" d="M273,142.26v-1.77h14.54v1.73h-6.31v17.22H279.4V142.26Z"/><path class="cls-2" d="M307.64,140.5h1.76v17.2h8.86v1.74H307.64Z"/><path class="cls-2" d="M268.15,140.48h1.7v19h-1.7Z"/><path class="cls-2" d="M166.89,46.05c3.1,4.12,6.4,8.25,9.21,12.38a110.43,110.43,0,0,1,5.46,10.46L182.1,70l18.57-7.12-1.76-.72a3.24,3.24,0,0,1-2.18-4,3.19,3.19,0,0,1,1.05-1.59,1.22,1.22,0,0,1,1-.25l12.26,4.54c.66.25.8.6.55,1.24-1.32,3.42-2.58,6.85-3.9,10.31-.47,1.22-1.61,1.22-2.64,1.24a1.59,1.59,0,0,1-1.69-1.48V72c-.1-1.42,0-2.87,0-4.45-.43.14-.8.24-1.16.39-5.71,2.35-11.38,4.74-17.1,7.05-.93.38-1.13.79-.89,1.72a211.59,211.59,0,0,1,5.1,26.65c.23,1.57-1.13,2.91-3.11,3.1-1.53.14-2.54-.83-2.73-2.52a134,134,0,0,0-4.64-24.24c-.16-.56-.39-1.1-.62-1.76-.93.36-1.77.64-2.6,1l-63.27,25.24c-1.16.47-2.52,1.25-3.57.24a3.53,3.53,0,0,1-.23-4c1.53-4.12,3.16-8.25,4.75-12.38q10.58-27,21.18-54c.17-.41.31-.84.56-1.5-.95-.27-1.84-.56-2.74-.77a103.63,103.63,0,0,0-23.09-2.49c-2.06,0-2.7-.77-2.66-2.79s.72-2.91,2.89-2.81a187.68,187.68,0,0,1,26.82,3.41c.7.12,1.26.33,1.61-.64,2.06-5.92,4.23-11.84,6.35-17.76a8.7,8.7,0,0,0,.13-.87c-1.2.27-2.27.54-3.37.76-1.48.33-2.29,0-2.64-1.13a2.78,2.78,0,0,1,1.12-3.51A52,52,0,0,1,151.09,0c1.76,3.38,3.55,6.68,5.16,10.07a2.47,2.47,0,0,1-.64,2.06,2.58,2.58,0,0,1-2.06.74,6,6,0,0,1-2.33-1.52,21.26,21.26,0,0,1-1.84-2.07l-7.3,20.1c2.74,1.26,5.38,2.33,7.9,3.63a62.93,62.93,0,0,1,16.3,12.38l.8.74A.41.41,0,0,0,166.89,46.05Zm-4.45,5.09h0A5.19,5.19,0,0,0,161.8,50a63.37,63.37,0,0,0-19.35-14.32c-.85-.41-1.74-.74-2.75-1.18-8.25,20.92-16.5,41.6-24.26,62.54l.31.27,60.68-24.43a6,6,0,0,0-.19-.76,75.49,75.49,0,0,0-12.87-20.37A5.68,5.68,0,0,0,162.44,51.14Z"/><path class="cls-2" d="M186.72,22.57l-2.17-.31a16.2,16.2,0,0,1-2.66-.43A1.64,1.64,0,0,1,180.56,20a.13.13,0,0,0,0-.06c.27-1.47.91-2.06,2.07-2.06h10.91c1,0,1.34.33,1.32,1.34V29.23c0,.91-.12,1.63-1.11,1.9a2.07,2.07,0,0,1-2.5-.84,12,12,0,0,1-.78-2.07,10.35,10.35,0,0,1-.35-1.56c-7,6.89-15.07,14.71-22.08,21.62a20.58,20.58,0,0,1-3.24-4.13"/><path class="cls-2" d="M164.27,52.07c-1.91,2.07-4.55,4.71-6.49,6.67-10.88,11-21.85,21.93-32.6,33-2.52,2.72-5.72,3.28-8.71,4.62,1.24-3.18,1.82-6.5,4.5-9.08,10.91-10.58,21.7-21.35,32.64-32,2.06-2.06,4.83-4.66,7-6.79A39.68,39.68,0,0,1,164.27,52.07Z"/></g></svg>