<svg xmlns="http://www.w3.org/2000/svg" xmlns:xlink="http://www.w3.org/1999/xlink" viewBox="0 0 320 160"><defs><style>.cls-1,.cls-2{fill:#073c50;}.cls-2{opacity:0;}.cls-3{clip-path:url(#clip-path);}</style><clipPath id="clip-path"><path class="cls-1" d="M99.93,59V37.51L21.59,0,0,9.38V31L52,55.93,0,81.25v21.42L78.77,140l21.15-9.38V66.21l-22.46,10v40.74L29.17,93.71,79.39,68.12ZM80.12,64.89V48.21L97.29,40.4V57.28ZM95.5,38.31,78.83,45.9,4.5,10.27l17.05-7.4ZM80.12,77.9l17.17-7.63v58.66l-17.17,7.62V77.89Zm-2.65,41.95V136.5L2.64,101V82.91l55.43-27L2.64,29.38V12.3L77.49,48.19V66.1L23.23,93.77Z"/></clipPath></defs><g id="Zilliqa"><rect class="cls-2" width="320" height="160.85"/><path class="cls-1" d="M133.92,89.54,148.4,74H134.63V68.63h21.8v5.91L141.89,90H157.1v5.48H133.92Z"/><path class="cls-1" d="M159.36,59.54a3.88,3.88,0,0,1,1.2-2.82,4.14,4.14,0,0,1,3.05-1.2,4.47,4.47,0,0,1,3.11,1.15,3.91,3.91,0,0,1,.21,5.53l-.21.22a4.47,4.47,0,0,1-3.11,1.15,4.15,4.15,0,0,1-3.05-1.22A3.87,3.87,0,0,1,159.36,59.54Zm.94,9.11H167V95.49H160.3Z"/><path class="cls-1" d="M172.5,53.2h6.71V95.46H172.5Z"/><path class="cls-1" d="M184.69,53.2h6.71V95.46h-6.71Z"/><path class="cls-1" d="M195.92,59.54a3.89,3.89,0,0,1,1.21-2.82,4.1,4.1,0,0,1,3-1.2,4.45,4.45,0,0,1,3.11,1.15,3.92,3.92,0,0,1,.22,5.53c-.07.08-.15.15-.22.22a4.45,4.45,0,0,1-3.11,1.15,4.12,4.12,0,0,1-3-1.22A3.88,3.88,0,0,1,195.92,59.54Zm.94,9.11h6.71V95.49h-6.71Z"/><path class="cls-1" d="M236.24,108.88h-6.72v-17h-.11a8.84,8.84,0,0,1-3.67,3.18,11.5,11.5,0,0,1-5.22,1.18A12.69,12.69,0,0,1,215,95.1,12.54,12.54,0,0,1,210.88,92a13.63,13.63,0,0,1-2.62-4.53,16.49,16.49,0,0,1-.94-5.56,15.86,15.86,0,0,1,.94-5.54,13.33,13.33,0,0,1,2.68-4.47,12.54,12.54,0,0,1,9.37-4.08,12.41,12.41,0,0,1,3.33.42,13.07,13.07,0,0,1,2.66,1.06,8.87,8.87,0,0,1,2,1.46,9.56,9.56,0,0,1,1.31,1.59h.17V68.63h6.43ZM214.15,81.93a11,11,0,0,0,.48,3.13,8.49,8.49,0,0,0,1.43,2.81,7.42,7.42,0,0,0,2.4,2,7.72,7.72,0,0,0,6.7,0,8.14,8.14,0,0,0,2.49-2,8.62,8.62,0,0,0,1.56-2.81,9.42,9.42,0,0,0,.54-3.11,9.85,9.85,0,0,0-.54-3.13A8.62,8.62,0,0,0,227.65,76a8.39,8.39,0,0,0-2.49-2,6.86,6.86,0,0,0-3.3-.78,7.46,7.46,0,0,0-3.41.76,7.12,7.12,0,0,0-2.4,2,8.74,8.74,0,0,0-1.43,2.82,10.69,10.69,0,0,0-.47,3.13Z"/><path class="cls-1" d="M258.15,92.05H258A7.43,7.43,0,0,1,254.74,95a11,11,0,0,1-5.09,1.14,14.37,14.37,0,0,1-3.39-.42,9.93,9.93,0,0,1-3.24-1.4,8.13,8.13,0,0,1-2.46-2.56,7.44,7.44,0,0,1-.94-3.94A6.68,6.68,0,0,1,241.33,83a11,11,0,0,1,4.39-2.74A24.65,24.65,0,0,1,251.67,79c2.18-.2,4.32-.31,6.41-.31V78a4.16,4.16,0,0,0-1.82-3.75,7.63,7.63,0,0,0-4.33-1.2,9.71,9.71,0,0,0-4.08.93,11,11,0,0,0-3.25,2.18l-3.47-4.08a15.19,15.19,0,0,1,5.28-3.19,18.2,18.2,0,0,1,6.07-1.06,15.07,15.07,0,0,1,5.9,1A9.53,9.53,0,0,1,262,71.48a9.31,9.31,0,0,1,1.88,3.64,15.57,15.57,0,0,1,.53,4V95.47h-6.26ZM258,83.22h-1.51c-1.08,0-2.22,0-3.41.14a14.77,14.77,0,0,0-3.3.61,7,7,0,0,0-2.52,1.34,3,3,0,0,0-1,2.38,2.88,2.88,0,0,0,.42,1.59,3.25,3.25,0,0,0,1.09,1,4.83,4.83,0,0,0,1.51.56A7.85,7.85,0,0,0,251,91a6.36,6.36,0,0,0,7.05-6.91Z"/><path class="cls-1" d="M99.93,59V37.51L21.59,0,0,9.38V31L52,55.93,0,81.25v21.42L78.77,140l21.15-9.38V66.21l-22.46,10v40.74L29.17,93.71,79.39,68.12ZM80.12,64.89V48.21L97.29,40.4V57.28ZM95.5,38.31,78.83,45.9,4.5,10.27l17.05-7.4ZM80.12,77.9l17.17-7.63v58.66l-17.17,7.62V77.89Zm-2.65,41.95V136.5L2.64,101V82.91l55.43-27L2.64,29.38V12.3L77.49,48.19V66.1L23.23,93.77Z"/><path class="cls-1" d="M99.93,59V37.51L21.59,0,0,9.38V31L52,55.93,0,81.25v21.42L78.77,140l21.15-9.38V66.21l-22.46,10v40.74L29.17,93.71,79.39,68.12ZM80.12,64.89V48.21L97.29,40.4V57.28ZM95.5,38.31,78.83,45.9,4.5,10.27l17.05-7.4ZM80.12,77.9l17.17-7.63v58.66l-17.17,7.62V77.89Zm-2.65,41.95V136.5L2.64,101V82.91l55.43-27L2.64,29.38V12.3L77.49,48.19V66.1L23.23,93.77Z"/><g class="cls-3"><polygon class="cls-1" points="75.8 136.49 77.5 135.43 77.5 136.49 75.8 136.49"/><polygon class="cls-1" points="73.16 136.49 77.5 133.78 77.5 135.43 75.8 136.49 73.16 136.49"/><polygon class="cls-1" points="70.52 136.49 77.5 132.13 77.5 133.78 73.16 136.49 70.52 136.49"/><polygon class="cls-1" points="67.87 136.49 77.5 130.48 77.5 132.13 70.52 136.49 67.87 136.49"/><polygon class="cls-1" points="65.23 136.49 77.5 128.83 77.5 130.48 67.87 136.49 65.23 136.49"/><polygon class="cls-1" points="62.58 136.49 77.5 127.18 77.5 128.83 65.23 136.49 62.58 136.49"/><polygon class="cls-1" points="59.95 136.49 77.5 125.53 77.5 127.18 62.58 136.49 59.95 136.49"/><polygon class="cls-1" points="57.3 136.49 77.5 123.88 77.5 125.53 59.95 136.49 57.3 136.49"/><polygon class="cls-1" points="54.66 136.49 77.5 122.23 77.5 123.88 57.3 136.49 54.66 136.49"/><polygon class="cls-1" points="52.02 136.49 77.5 120.58 77.5 122.23 54.66 136.49 52.02 136.49"/><polygon class="cls-1" points="49.37 136.49 77.5 118.93 77.5 120.58 52.02 136.49 49.37 136.49"/><polygon class="cls-1" points="46.73 136.49 77.5 117.29 77.5 118.93 49.37 136.49 46.73 136.49"/><polygon class="cls-1" points="44.08 136.49 77.5 115.63 77.5 117.29 46.73 136.49 44.08 136.49"/><polygon class="cls-1" points="41.44 136.49 77.5 113.98 77.5 115.63 44.08 136.49 41.44 136.49"/><polygon class="cls-1" points="38.79 136.49 77.5 112.34 77.5 113.98 41.44 136.49 38.79 136.49"/><polygon class="cls-1" points="36.15 136.49 77.5 110.68 77.5 112.34 38.79 136.49 36.15 136.49"/><polygon class="cls-1" points="33.51 136.49 77.5 109.03 77.5 110.68 36.15 136.49 33.51 136.49"/><polygon class="cls-1" points="30.87 136.49 77.5 107.39 77.5 109.03 33.51 136.49 30.87 136.49"/><polygon class="cls-1" points="28.23 136.49 77.5 105.73 77.5 107.39 30.87 136.49 28.23 136.49"/><polygon class="cls-1" points="25.58 136.49 77.5 104.08 77.5 105.73 28.23 136.49 25.58 136.49"/><polygon class="cls-1" points="24.41 136.49 24 135.84 77.5 102.44 77.5 104.08 25.58 136.49 24.41 136.49"/><polygon class="cls-1" points="24 135.84 23.25 134.65 77.5 100.78 77.5 102.44 24 135.84"/><polygon class="cls-1" points="23.25 134.65 22.51 133.46 77.5 99.13 77.5 100.78 23.25 134.65"/><polygon class="cls-1" points="22.51 133.46 21.76 132.27 77.5 97.48 77.5 99.13 22.51 133.46"/><polygon class="cls-1" points="21.76 132.27 21.02 131.09 77.5 95.83 77.5 97.48 21.76 132.27"/><polygon class="cls-1" points="21.02 131.09 20.28 129.9 77.5 94.17 77.5 95.83 21.02 131.09"/><polygon class="cls-1" points="20.28 129.9 19.54 128.71 77.5 92.53 77.5 94.17 20.28 129.9"/><polygon class="cls-1" points="19.54 128.71 18.79 127.53 77.5 90.87 77.5 92.53 19.54 128.71"/><polygon class="cls-1" points="18.79 127.53 18.05 126.34 77.5 89.23 77.5 90.87 18.79 127.53"/><polygon class="cls-1" points="18.05 126.34 17.31 125.16 77.5 87.58 77.5 89.23 18.05 126.34"/><polygon class="cls-1" points="17.31 125.16 16.57 123.97 77.5 85.93 77.5 87.58 17.31 125.16"/><polygon class="cls-1" points="16.57 123.97 15.82 122.78 77.5 84.28 77.5 85.93 16.57 123.97"/><polygon class="cls-1" points="15.82 122.78 15.08 121.59 77.5 82.63 77.5 84.28 15.82 122.78"/><polygon class="cls-1" points="15.08 121.59 14.34 120.41 77.5 80.98 77.5 82.63 15.08 121.59"/><polygon class="cls-1" points="14.34 120.41 13.6 119.22 77.5 79.33 77.5 80.98 14.34 120.41"/><polygon class="cls-1" points="13.6 119.22 12.85 118.04 77.5 77.68 77.5 79.33 13.6 119.22"/><polygon class="cls-1" points="12.85 118.04 12.11 116.85 77.5 76.03 77.5 77.68 12.85 118.04"/><polygon class="cls-1" points="12.11 116.85 11.37 115.67 77.5 74.38 77.5 76.03 12.11 116.85"/><polygon class="cls-1" points="11.37 115.67 10.62 114.48 77.5 72.73 77.5 74.38 11.37 115.67"/><polygon class="cls-1" points="10.62 114.48 9.88 113.28 77.5 71.08 77.5 72.73 10.62 114.48"/><polygon class="cls-1" points="9.88 113.28 9.13 112.1 77.5 69.43 77.5 71.08 9.88 113.28"/><polygon class="cls-1" points="9.13 112.1 8.39 110.91 77.5 67.78 77.5 69.43 9.13 112.1"/><polygon class="cls-1" points="8.39 110.91 7.65 109.73 77.5 66.13 77.5 67.78 8.39 110.91"/><polygon class="cls-1" points="7.65 109.73 6.91 108.54 77.5 64.48 77.5 66.13 7.65 109.73"/><polygon class="cls-1" points="6.91 108.54 6.16 107.36 77.5 62.83 77.5 64.48 6.91 108.54"/><polygon class="cls-1" points="6.16 107.36 5.42 106.17 77.5 61.18 77.5 62.83 6.16 107.36"/><polygon class="cls-1" points="5.42 106.17 4.68 104.99 77.5 59.53 77.5 61.18 5.42 106.17"/><polygon class="cls-1" points="4.68 104.99 3.94 103.8 77.5 57.88 77.5 59.53 4.68 104.99"/><polygon class="cls-1" points="3.94 103.8 3.19 102.61 77.5 56.23 77.5 57.88 3.94 103.8"/><polygon class="cls-1" points="3.19 102.61 2.64 101.74 2.64 101.3 77.5 54.58 77.5 56.23 3.19 102.61"/><polygon class="cls-1" points="2.64 99.57 77.5 52.84 77.5 54.58 2.64 101.3 2.64 99.57"/><polygon class="cls-1" points="2.64 97.83 77.5 51.1 77.5 52.84 2.64 99.57 2.64 97.83"/><polygon class="cls-1" points="2.64 96.1 77.5 49.37 77.5 51.1 2.64 97.83 2.64 96.1"/><polygon class="cls-1" points="2.64 94.36 77.5 47.64 77.5 49.37 2.64 96.1 2.64 94.36"/><polygon class="cls-1" points="2.64 92.64 76.78 46.34 77.5 47.49 77.5 47.64 2.64 94.36 2.64 92.64"/><polygon class="cls-1" points="2.64 90.89 76 45.09 76.78 46.34 2.64 92.64 2.64 90.89"/><polygon class="cls-1" points="2.64 89.17 75.22 43.85 76 45.09 2.64 90.89 2.64 89.17"/><polygon class="cls-1" points="2.64 87.43 74.44 42.6 75.22 43.85 2.64 89.17 2.64 87.43"/><polygon class="cls-1" points="2.64 85.7 73.66 41.35 74.44 42.6 2.64 87.43 2.64 85.7"/><polygon class="cls-1" points="2.64 83.96 72.88 40.11 73.66 41.35 2.64 85.7 2.64 83.96"/><polygon class="cls-1" points="2.64 82.23 72.1 38.86 72.88 40.11 2.64 83.96 2.64 82.23"/><polygon class="cls-1" points="2.64 80.49 71.32 37.62 72.1 38.86 2.64 82.23 2.64 80.49"/><polygon class="cls-1" points="2.64 78.76 70.53 36.37 71.32 37.62 2.64 80.49 2.64 78.76"/><polygon class="cls-1" points="2.64 77.02 69.76 35.13 70.53 36.37 2.64 78.76 2.64 77.02"/><polygon class="cls-1" points="2.64 75.29 68.98 33.88 69.76 35.13 2.64 77.02 2.64 75.29"/><polygon class="cls-1" points="2.64 73.55 68.2 32.63 68.98 33.88 2.64 75.29 2.64 73.55"/><polygon class="cls-1" points="2.64 71.82 67.41 31.39 68.2 32.63 2.64 73.55 2.64 71.82"/><polygon class="cls-1" points="2.64 70.08 66.63 30.14 67.41 31.39 2.64 71.82 2.64 70.08"/><polygon class="cls-1" points="2.64 68.35 65.86 28.89 66.63 30.14 2.64 70.08 2.64 68.35"/><polygon class="cls-1" points="2.64 66.61 65.08 27.64 65.86 28.89 2.64 68.35 2.64 66.61"/><polygon class="cls-1" points="2.64 64.88 64.29 26.4 65.08 27.64 2.64 66.61 2.64 64.88"/><polygon class="cls-1" points="2.64 63.15 63.51 25.15 64.29 26.4 2.64 64.88 2.64 63.15"/><polygon class="cls-1" points="2.64 61.41 62.73 23.9 63.51 25.15 2.64 63.15 2.64 61.41"/><polygon class="cls-1" points="2.64 59.68 61.95 22.66 62.73 23.9 2.64 61.41 2.64 59.68"/><polygon class="cls-1" points="2.64 57.94 61.17 21.41 61.95 22.66 2.64 59.68 2.64 57.94"/><polygon class="cls-1" points="2.64 56.21 60.39 20.16 61.17 21.41 2.64 57.94 2.64 56.21"/><polygon class="cls-1" points="2.64 54.48 59.61 18.91 60.39 20.16 2.64 56.21 2.64 54.48"/><polygon class="cls-1" points="2.64 52.75 58.82 17.67 59.61 18.91 2.64 54.48 2.64 52.75"/><polygon class="cls-1" points="2.64 51.01 58.04 16.42 58.82 17.67 2.64 52.75 2.64 51.01"/><polygon class="cls-1" points="2.64 49.28 57.27 15.17 58.04 16.42 2.64 51.01 2.64 49.28"/><polygon class="cls-1" points="2.64 47.54 56.49 13.93 57.27 15.17 2.64 49.28 2.64 47.54"/><polygon class="cls-1" points="2.64 45.81 55.7 12.68 56.49 13.93 2.64 47.54 2.64 45.81"/><polygon class="cls-1" points="2.64 44.07 53.53 12.3 55.47 12.3 55.7 12.68 2.64 45.81 2.64 44.07"/><polygon class="cls-1" points="2.64 42.34 50.75 12.3 53.53 12.3 2.64 44.07 2.64 42.34"/><polygon class="cls-1" points="2.64 40.6 47.97 12.3 50.75 12.3 2.64 42.34 2.64 40.6"/><polygon class="cls-1" points="2.64 38.87 45.2 12.3 47.97 12.3 2.64 40.6 2.64 38.87"/><polygon class="cls-1" points="2.64 37.13 42.42 12.3 45.2 12.3 2.64 38.87 2.64 37.13"/><polygon class="cls-1" points="2.64 35.4 39.64 12.3 42.42 12.3 2.64 37.13 2.64 35.4"/><polygon class="cls-1" points="2.64 33.66 36.86 12.3 39.64 12.3 2.64 35.4 2.64 33.66"/><polygon class="cls-1" points="2.64 31.93 34.09 12.3 36.86 12.3 2.64 33.66 2.64 31.93"/><polygon class="cls-1" points="2.64 30.19 31.31 12.3 34.09 12.3 2.64 31.93 2.64 30.19"/><polygon class="cls-1" points="2.64 28.46 28.52 12.3 31.31 12.3 2.64 30.19 2.64 28.46"/><polygon class="cls-1" points="2.64 26.73 25.75 12.3 28.52 12.3 2.64 28.46 2.64 26.73"/><polygon class="cls-1" points="2.64 24.99 22.97 12.3 25.75 12.3 2.64 26.73 2.64 24.99"/><polygon class="cls-1" points="2.64 23.25 20.2 12.3 22.97 12.3 2.64 24.99 2.64 23.25"/><polygon class="cls-1" points="2.64 21.52 17.41 12.3 20.2 12.3 2.64 23.25 2.64 21.52"/><polygon class="cls-1" points="2.64 19.8 14.64 12.3 17.41 12.3 2.64 21.52 2.64 19.8"/><polygon class="cls-1" points="2.64 18.06 11.86 12.3 14.64 12.3 2.64 19.8 2.64 18.06"/><polygon class="cls-1" points="2.64 16.33 9.09 12.3 11.86 12.3 2.64 18.06 2.64 16.33"/><polygon class="cls-1" points="2.64 14.59 6.3 12.3 9.09 12.3 2.64 16.33 2.64 14.59"/><polygon class="cls-1" points="2.64 12.86 3.53 12.3 6.3 12.3 2.64 14.59 2.64 12.86"/><polygon class="cls-1" points="3.53 12.3 2.64 12.86 2.64 12.3 3.53 12.3"/><polygon class="cls-1" points="86.29 136.55 97.31 129.67 97.31 136.55 86.29 136.55"/><polygon class="cls-1" points="83.64 136.55 97.31 128.02 97.31 129.67 86.29 136.55 83.64 136.55"/><polygon class="cls-1" points="81 136.55 97.31 126.37 97.31 128.02 83.64 136.55 81 136.55"/><polygon class="cls-1" points="80.14 135.43 97.31 124.72 97.31 126.37 81 136.55 80.14 136.55 80.14 135.43"/><polygon class="cls-1" points="80.14 133.79 97.31 123.06 97.31 124.72 80.14 135.43 80.14 133.79"/><polygon class="cls-1" points="80.14 132.14 97.31 121.42 97.31 123.06 80.14 133.79 80.14 132.14"/><polygon class="cls-1" points="80.14 130.48 97.31 119.76 97.31 121.42 80.14 132.14 80.14 130.48"/><polygon class="cls-1" points="80.14 128.84 97.31 118.11 97.31 119.76 80.14 130.48 80.14 128.84"/><polygon class="cls-1" points="80.14 127.19 97.31 116.46 97.31 118.11 80.14 128.84 80.14 127.19"/><polygon class="cls-1" points="80.14 125.53 97.31 114.81 97.31 116.46 80.14 127.19 80.14 125.53"/><polygon class="cls-1" points="80.14 123.89 97.31 113.16 97.31 114.81 80.14 125.53 80.14 123.89"/><polygon class="cls-1" points="80.14 122.24 97.31 111.51 97.31 113.16 80.14 123.89 80.14 122.24"/><polygon class="cls-1" points="80.14 120.59 97.31 109.86 97.31 111.51 80.14 122.24 80.14 120.59"/><polygon class="cls-1" points="80.14 118.94 97.31 108.21 97.31 109.86 80.14 120.59 80.14 118.94"/><polygon class="cls-1" points="80.14 117.29 97.31 106.56 97.31 108.21 80.14 118.94 80.14 117.29"/><polygon class="cls-1" points="80.14 115.64 97.31 104.91 97.31 106.56 80.14 117.29 80.14 115.64"/><polygon class="cls-1" points="80.14 113.99 97.31 103.26 97.31 104.91 80.14 115.64 80.14 113.99"/><polygon class="cls-1" points="80.14 112.34 97.31 101.61 97.31 103.26 80.14 113.99 80.14 112.34"/><polygon class="cls-1" points="80.14 110.69 97.31 99.96 97.31 101.61 80.14 112.34 80.14 110.69"/><polygon class="cls-1" points="80.14 109.04 97.31 98.31 97.31 99.96 80.14 110.69 80.14 109.04"/><polygon class="cls-1" points="80.14 107.39 97.31 96.66 97.31 98.31 80.14 109.04 80.14 107.39"/><polygon class="cls-1" points="80.14 105.74 97.31 95.01 97.31 96.66 80.14 107.39 80.14 105.74"/><polygon class="cls-1" points="80.14 104.09 97.31 93.36 97.31 95.01 80.14 105.74 80.14 104.09"/><polygon class="cls-1" points="80.14 102.44 97.31 91.71 97.31 93.36 80.14 104.09 80.14 102.44"/><polygon class="cls-1" points="80.14 100.78 97.31 90.06 97.31 91.71 80.14 102.44 80.14 100.78"/><polygon class="cls-1" points="80.14 99.14 97.31 88.41 97.31 90.06 80.14 100.78 80.14 99.14"/><polygon class="cls-1" points="80.14 97.48 97.31 86.76 97.31 88.41 80.14 99.14 80.14 97.48"/><polygon class="cls-1" points="80.14 95.83 97.31 85.11 97.31 86.76 80.14 97.48 80.14 95.83"/><polygon class="cls-1" points="80.14 94.18 97.31 83.46 97.31 85.11 80.14 95.83 80.14 94.18"/><polygon class="cls-1" points="80.14 92.53 97.31 81.81 97.31 83.46 80.14 94.18 80.14 92.53"/><polygon class="cls-1" points="80.14 90.88 97.31 80.16 97.31 81.81 80.14 92.53 80.14 90.88"/><polygon class="cls-1" points="80.14 89.23 97.31 78.5 97.31 80.16 80.14 90.88 80.14 89.23"/><polygon class="cls-1" points="80.14 87.58 97.31 76.86 97.31 78.5 80.14 89.23 80.14 87.58"/><polygon class="cls-1" points="80.14 85.93 97.31 75.2 97.31 76.86 80.14 87.58 80.14 85.93"/><polygon class="cls-1" points="80.14 84.28 97.31 73.55 97.31 75.2 80.14 85.93 80.14 84.28"/><polygon class="cls-1" points="80.14 82.63 97.31 71.9 97.31 73.55 80.14 84.28 80.14 82.63"/><polygon class="cls-1" points="80.14 80.98 97.3 70.26 97.31 70.26 97.31 71.9 80.14 82.63 80.14 80.98"/><polygon class="cls-1" points="80.14 79.33 94.65 70.26 97.3 70.26 80.14 80.98 80.14 79.33"/><polygon class="cls-1" points="80.14 77.68 92.01 70.26 94.65 70.26 80.14 79.33 80.14 77.68"/><polygon class="cls-1" points="80.14 76.03 89.36 70.26 92.01 70.26 80.14 77.68 80.14 76.03"/><polygon class="cls-1" points="80.14 74.38 86.72 70.26 89.36 70.26 80.14 76.03 80.14 74.38"/><polygon class="cls-1" points="80.14 72.73 84.08 70.26 86.72 70.26 80.14 74.38 80.14 72.73"/><polygon class="cls-1" points="80.14 71.08 81.43 70.26 84.08 70.26 80.14 72.73 80.14 71.08"/><polygon class="cls-1" points="81.43 70.26 80.14 71.08 80.14 70.26 81.43 70.26"/><polygon class="cls-1" points="94.03 45.9 95.52 44.97 95.52 45.9 94.03 45.9"/><polygon class="cls-1" points="91.39 45.9 95.52 43.32 95.52 44.97 94.03 45.9 91.39 45.9"/><polygon class="cls-1" points="88.61 45.9 95.52 41.59 95.52 43.32 91.39 45.9 88.61 45.9"/><polygon class="cls-1" points="85.83 45.9 95.52 39.85 95.52 41.59 88.61 45.9 85.83 45.9"/><polygon class="cls-1" points="83.05 45.9 95.52 38.12 95.52 39.85 85.83 45.9 83.05 45.9"/><polygon class="cls-1" points="80.28 45.9 94.96 36.73 95.52 37.61 95.52 38.12 83.05 45.9 80.28 45.9"/><polygon class="cls-1" points="77.5 45.9 94.18 35.48 94.96 36.73 80.28 45.9 77.5 45.9"/><polygon class="cls-1" points="74.72 45.9 93.41 34.24 94.18 35.48 77.5 45.9 74.72 45.9"/><polygon class="cls-1" points="71.94 45.9 92.62 32.99 93.41 34.24 74.72 45.9 71.94 45.9"/><polygon class="cls-1" points="69.17 45.9 91.84 31.74 92.62 32.99 71.94 45.9 69.17 45.9"/><polygon class="cls-1" points="66.39 45.9 91.06 30.49 91.84 31.74 69.17 45.9 66.39 45.9"/><polygon class="cls-1" points="63.6 45.9 90.28 29.25 91.06 30.49 66.39 45.9 63.6 45.9"/><polygon class="cls-1" points="60.83 45.9 89.5 28 90.28 29.25 63.6 45.9 60.83 45.9"/><polygon class="cls-1" points="58.05 45.9 88.72 26.75 89.5 28 60.83 45.9 58.05 45.9"/><polygon class="cls-1" points="55.28 45.9 87.94 25.51 88.72 26.75 58.05 45.9 55.28 45.9"/><polygon class="cls-1" points="52.49 45.9 87.16 24.26 87.94 25.51 55.28 45.9 52.49 45.9"/><polygon class="cls-1" points="49.72 45.9 86.37 23.01 87.16 24.26 52.49 45.9 49.72 45.9"/><polygon class="cls-1" points="46.94 45.9 85.59 21.76 86.37 23.01 49.72 45.9 46.94 45.9"/><polygon class="cls-1" points="44.17 45.9 84.82 20.52 85.59 21.76 46.94 45.9 44.17 45.9"/><polygon class="cls-1" points="41.38 45.9 84.03 19.27 84.82 20.52 44.17 45.9 41.38 45.9"/><polygon class="cls-1" points="38.6 45.9 83.25 18.02 84.03 19.27 41.38 45.9 38.6 45.9"/><polygon class="cls-1" points="35.83 45.9 82.47 16.79 83.25 18.02 38.6 45.9 35.83 45.9"/><polygon class="cls-1" points="33.05 45.9 81.69 15.54 82.47 16.79 35.83 45.9 33.05 45.9"/><polygon class="cls-1" points="30.28 45.9 80.91 14.28 81.69 15.54 33.05 45.9 30.28 45.9"/><polygon class="cls-1" points="27.49 45.9 80.13 13.04 80.91 14.28 30.28 45.9 27.49 45.9"/><polygon class="cls-1" points="26.38 45.9 25.91 45.16 79.35 11.8 80.13 13.04 27.49 45.9 26.38 45.9"/><polygon class="cls-1" points="25.91 45.16 25.13 43.9 78.57 10.55 79.35 11.8 25.91 45.16"/><polygon class="cls-1" points="25.13 43.9 24.35 42.66 77.78 9.3 78.57 10.55 25.13 43.9"/><polygon class="cls-1" points="24.35 42.66 23.57 41.42 77 8.05 77.78 9.3 24.35 42.66"/><polygon class="cls-1" points="23.57 41.42 22.79 40.17 76.23 6.81 77 8.05 23.57 41.42"/><polygon class="cls-1" points="22.79 40.17 22.01 38.92 75.45 5.56 76.23 6.81 22.79 40.17"/><polygon class="cls-1" points="22.01 38.92 21.22 37.68 74.66 4.31 75.45 5.56 22.01 38.92"/><polygon class="cls-1" points="21.22 37.68 20.44 36.43 73.88 3.07 74.66 4.31 21.22 37.68"/><polygon class="cls-1" points="20.44 36.43 19.66 35.18 71.42 2.86 73.75 2.86 73.88 3.07 20.44 36.43"/><polygon class="cls-1" points="19.66 35.18 18.89 33.94 68.65 2.86 71.42 2.86 19.66 35.18"/><polygon class="cls-1" points="18.89 33.94 18.1 32.69 65.87 2.86 68.65 2.86 18.89 33.94"/><polygon class="cls-1" points="18.1 32.69 17.32 31.44 63.1 2.86 65.87 2.86 18.1 32.69"/><polygon class="cls-1" points="17.32 31.44 16.54 30.19 60.31 2.86 63.1 2.86 17.32 31.44"/><polygon class="cls-1" points="16.54 30.19 15.75 28.95 57.54 2.86 60.31 2.86 16.54 30.19"/><polygon class="cls-1" points="15.75 28.95 14.97 27.7 54.76 2.86 57.54 2.86 15.75 28.95"/><polygon class="cls-1" points="14.97 27.7 14.2 26.45 51.98 2.86 54.76 2.86 14.97 27.7"/><polygon class="cls-1" points="14.2 26.45 13.42 25.21 49.2 2.86 51.98 2.86 14.2 26.45"/><polygon class="cls-1" points="13.42 25.21 12.64 23.96 46.43 2.86 49.2 2.86 13.42 25.21"/><polygon class="cls-1" points="12.64 23.96 11.85 22.71 43.65 2.86 46.43 2.86 12.64 23.96"/><polygon class="cls-1" points="11.85 22.71 11.07 21.46 40.88 2.86 43.65 2.86 11.85 22.71"/><polygon class="cls-1" points="11.07 21.46 10.3 20.22 38.09 2.86 40.88 2.86 11.07 21.46"/><polygon class="cls-1" points="10.3 20.22 9.51 18.97 35.31 2.86 38.09 2.86 10.3 20.22"/><polygon class="cls-1" points="9.51 18.97 8.73 17.72 32.54 2.86 35.31 2.86 9.51 18.97"/><polygon class="cls-1" points="8.73 17.72 7.95 16.48 29.75 2.86 32.54 2.86 8.73 17.72"/><polygon class="cls-1" points="7.95 16.48 7.17 15.23 26.98 2.86 29.75 2.86 7.95 16.48"/><polygon class="cls-1" points="7.17 15.23 6.39 13.98 24.2 2.86 26.98 2.86 7.17 15.23"/><polygon class="cls-1" points="6.39 13.98 5.61 12.73 21.43 2.86 24.2 2.86 6.39 13.98"/><polygon class="cls-1" points="5.61 12.73 4.83 11.49 18.64 2.86 21.43 2.86 5.61 12.73"/><polygon class="cls-1" points="4.83 11.49 4.5 10.97 4.5 9.96 15.87 2.86 18.64 2.86 4.83 11.49"/><polygon class="cls-1" points="4.5 8.22 13.09 2.86 15.87 2.86 4.5 9.96 4.5 8.22"/><polygon class="cls-1" points="13.09 2.86 4.5 8.22 4.5 2.86 13.09 2.86"/><polygon class="cls-1" points="95.34 64.89 97.31 63.65 97.31 64.89 95.34 64.89"/><polygon class="cls-1" points="92.69 64.89 97.31 62 97.31 63.65 95.34 64.89 92.69 64.89"/><polygon class="cls-1" points="90.05 64.89 97.31 60.35 97.31 62 92.69 64.89 90.05 64.89"/><polygon class="cls-1" points="87.4 64.89 97.31 58.7 97.31 60.35 90.05 64.89 87.4 64.89"/><polygon class="cls-1" points="84.76 64.89 97.31 57.05 97.31 58.7 87.4 64.89 84.76 64.89"/><polygon class="cls-1" points="82.11 64.89 97.31 55.4 97.31 57.05 84.76 64.89 82.11 64.89"/><polygon class="cls-1" points="80.14 64.48 97.31 53.75 97.31 55.4 82.11 64.89 80.14 64.89 80.14 64.48"/><polygon class="cls-1" points="80.14 62.83 97.31 52.1 97.31 53.75 80.14 64.48 80.14 62.83"/><polygon class="cls-1" points="80.14 61.18 97.31 50.45 97.31 52.1 80.14 62.83 80.14 61.18"/><polygon class="cls-1" points="80.14 59.53 97.31 48.81 97.31 50.45 80.14 61.18 80.14 59.53"/><polygon class="cls-1" points="80.14 57.88 97.31 47.16 97.31 48.81 80.14 59.53 80.14 57.88"/><polygon class="cls-1" points="80.14 56.23 97.31 45.5 97.31 47.16 80.14 57.88 80.14 56.23"/><polygon class="cls-1" points="80.14 54.58 97.31 43.86 97.31 45.5 80.14 56.23 80.14 54.58"/><polygon class="cls-1" points="80.14 52.92 97.31 42.21 97.31 43.86 80.14 54.58 80.14 52.92"/><polygon class="cls-1" points="80.14 51.19 97.31 40.47 97.31 42.21 80.14 52.92 80.14 51.19"/><polygon class="cls-1" points="80.14 49.45 94.65 40.4 97.31 40.4 97.31 40.47 80.14 51.19 80.14 49.45"/><polygon class="cls-1" points="80.14 47.72 91.88 40.4 94.65 40.4 80.14 49.45 80.14 47.72"/><polygon class="cls-1" points="80.14 45.98 89.09 40.4 91.88 40.4 80.14 47.72 80.14 45.98"/><polygon class="cls-1" points="80.14 44.25 86.32 40.4 89.09 40.4 80.14 45.98 80.14 44.25"/><polygon class="cls-1" points="80.14 42.52 83.54 40.4 86.32 40.4 80.14 44.25 80.14 42.52"/><polygon class="cls-1" points="80.14 40.78 80.77 40.4 83.54 40.4 80.14 42.52 80.14 40.78"/><polygon class="cls-1" points="80.77 40.4 80.14 40.78 80.14 40.4 80.77 40.4"/><polygon class="cls-1" points="80.71 140.03 99.95 128.02 99.95 140.03 80.71 140.03"/><polygon class="cls-1" points="78.07 140.03 99.95 126.37 99.95 128.02 80.71 140.03 78.07 140.03"/><polygon class="cls-1" points="75.43 140.03 99.95 124.72 99.95 126.37 78.07 140.03 75.43 140.03"/><polygon class="cls-1" points="72.78 140.03 99.95 123.06 99.95 124.72 75.43 140.03 72.78 140.03"/><polygon class="cls-1" points="70.14 140.03 99.95 121.42 99.95 123.06 72.78 140.03 70.14 140.03"/><polygon class="cls-1" points="67.5 140.03 99.95 119.76 99.95 121.42 70.14 140.03 67.5 140.03"/><polygon class="cls-1" points="64.85 140.03 99.95 118.11 99.95 119.76 67.5 140.03 64.85 140.03"/><polygon class="cls-1" points="62.21 140.03 99.95 116.46 99.95 118.11 64.85 140.03 62.21 140.03"/><polygon class="cls-1" points="59.56 140.03 99.95 114.81 99.95 116.46 62.21 140.03 59.56 140.03"/><polygon class="cls-1" points="56.92 140.03 99.95 113.16 99.95 114.81 59.56 140.03 56.92 140.03"/><polygon class="cls-1" points="54.27 140.03 99.95 111.51 99.95 113.16 56.92 140.03 54.27 140.03"/><polygon class="cls-1" points="51.64 140.03 99.95 109.86 99.95 111.51 54.27 140.03 51.64 140.03"/><polygon class="cls-1" points="48.99 140.03 99.95 108.21 99.95 109.86 51.64 140.03 48.99 140.03"/><polygon class="cls-1" points="46.35 140.03 99.95 106.56 99.95 108.21 48.99 140.03 46.35 140.03"/><polygon class="cls-1" points="43.71 140.03 99.95 104.91 99.95 106.56 46.35 140.03 43.71 140.03"/><polygon class="cls-1" points="41.06 140.03 99.95 103.26 99.95 104.91 43.71 140.03 41.06 140.03"/><polygon class="cls-1" points="38.42 140.03 99.95 101.61 99.95 103.26 41.06 140.03 38.42 140.03"/><polygon class="cls-1" points="35.77 140.03 99.95 99.96 99.95 101.61 38.42 140.03 35.77 140.03"/><polygon class="cls-1" points="33.13 140.03 99.95 98.31 99.95 99.96 35.77 140.03 33.13 140.03"/><polygon class="cls-1" points="30.48 140.03 99.95 96.66 99.95 98.31 33.13 140.03 30.48 140.03"/><polygon class="cls-1" points="27.84 140.03 99.95 95.01 99.95 96.66 30.48 140.03 27.84 140.03"/><polygon class="cls-1" points="25.2 140.03 99.95 93.36 99.95 95.01 27.84 140.03 25.2 140.03"/><polygon class="cls-1" points="22.94 140.03 22.83 139.86 99.95 91.71 99.95 93.36 25.2 140.03 22.94 140.03"/><polygon class="cls-1" points="22.83 139.86 22.09 138.68 99.95 90.06 99.95 91.71 22.83 139.86"/><polygon class="cls-1" points="22.09 138.68 21.34 137.49 99.95 88.41 99.95 90.06 22.09 138.68"/><polygon class="cls-1" points="21.34 137.49 20.6 136.31 99.95 86.76 99.95 88.41 21.34 137.49"/><polygon class="cls-1" points="20.6 136.31 19.86 135.12 99.95 85.11 99.95 86.76 20.6 136.31"/><polygon class="cls-1" points="19.86 135.12 19.12 133.92 99.95 83.47 99.95 85.11 19.86 135.12"/><polygon class="cls-1" points="19.12 133.92 18.37 132.74 99.95 81.81 99.95 83.47 19.12 133.92"/><polygon class="cls-1" points="18.37 132.74 17.63 131.55 99.95 80.17 99.95 81.81 18.37 132.74"/><polygon class="cls-1" points="17.63 131.55 16.89 130.37 99.95 78.5 99.95 80.17 17.63 131.55"/><polygon class="cls-1" points="16.89 130.37 16.15 129.18 99.95 76.86 99.95 78.5 16.89 130.37"/><polygon class="cls-1" points="16.15 129.18 15.4 128 99.95 75.21 99.95 76.86 16.15 129.18"/><polygon class="cls-1" points="15.4 128 14.66 126.81 99.95 73.55 99.95 75.21 15.4 128"/><polygon class="cls-1" points="14.66 126.81 13.92 125.63 99.95 71.9 99.95 73.55 14.66 126.81"/><polygon class="cls-1" points="13.92 125.63 13.18 124.43 99.95 70.26 99.95 71.9 13.92 125.63"/><polygon class="cls-1" points="13.18 124.43 12.43 123.25 99.95 68.6 99.95 70.26 13.18 124.43"/><polygon class="cls-1" points="12.43 123.25 11.68 122.06 99.95 66.96 99.95 68.6 12.43 123.25"/><polygon class="cls-1" points="11.68 122.06 10.94 120.88 99.95 65.31 99.95 66.96 11.68 122.06"/><polygon class="cls-1" points="10.94 120.88 10.2 119.69 99.95 63.65 99.95 65.31 10.94 120.88"/><polygon class="cls-1" points="10.2 119.69 9.46 118.51 99.95 62.01 99.95 63.65 10.2 119.69"/><polygon class="cls-1" points="9.46 118.51 8.71 117.32 99.95 60.36 99.95 62.01 9.46 118.51"/><polygon class="cls-1" points="8.71 117.32 7.97 116.13 99.95 58.7 99.95 60.36 8.71 117.32"/><polygon class="cls-1" points="7.97 116.13 7.23 114.94 99.95 57.06 99.95 58.7 7.97 116.13"/><polygon class="cls-1" points="7.23 114.94 6.49 113.75 99.95 55.4 99.95 57.06 7.23 114.94"/><polygon class="cls-1" points="6.49 113.75 5.74 112.57 99.95 53.75 99.95 55.4 6.49 113.75"/><polygon class="cls-1" points="5.74 112.57 5 111.38 99.95 52.11 99.95 53.75 5.74 112.57"/><polygon class="cls-1" points="5 111.38 4.26 110.2 99.95 50.45 99.95 52.11 5 111.38"/><polygon class="cls-1" points="4.26 110.2 3.52 109.01 99.95 48.81 99.95 50.45 4.26 110.2"/><polygon class="cls-1" points="3.52 109.01 2.78 107.83 99.95 47.16 99.95 48.81 3.52 109.01"/><polygon class="cls-1" points="2.78 107.83 2.02 106.64 99.95 45.51 99.95 47.16 2.78 107.83"/><polygon class="cls-1" points="2.02 106.64 1.28 105.45 99.95 43.86 99.95 45.51 2.02 106.64"/><polygon class="cls-1" points="1.28 105.45 0.54 104.26 99.95 42.21 99.95 43.86 1.28 105.45"/><polygon class="cls-1" points="0.54 104.26 0 103.4 0 102.95 99.95 40.56 99.95 42.21 0.54 104.26"/><polygon class="cls-1" points="0 101.22 99.95 38.82 99.95 40.56 0 102.95 0 101.22"/><polygon class="cls-1" points="0 99.48 99.95 37.09 99.95 38.82 0 101.22 0 99.48"/><polygon class="cls-1" points="0 97.75 99.29 35.76 99.95 36.81 99.95 37.09 0 99.48 0 97.75"/><polygon class="cls-1" points="0 96.01 98.52 34.52 99.29 35.76 0 97.75 0 96.01"/><polygon class="cls-1" points="0 94.28 97.74 33.27 98.52 34.52 0 96.01 0 94.28"/><polygon class="cls-1" points="0 92.54 96.95 32.02 97.74 33.27 0 94.28 0 92.54"/><polygon class="cls-1" points="0 90.82 96.17 30.78 96.95 32.02 0 92.54 0 90.82"/><polygon class="cls-1" points="0 89.07 95.39 29.53 96.17 30.78 0 90.82 0 89.07"/><polygon class="cls-1" points="0 87.35 94.61 28.28 95.39 29.53 0 89.07 0 87.35"/><polygon class="cls-1" points="0 85.61 93.83 27.03 94.61 28.28 0 87.35 0 85.61"/><polygon class="cls-1" points="0 83.88 93.05 25.79 93.83 27.03 0 85.61 0 83.88"/><polygon class="cls-1" points="0 82.14 92.27 24.54 93.05 25.79 0 83.88 0 82.14"/><polygon class="cls-1" points="0 80.41 91.48 23.29 92.27 24.54 0 82.14 0 80.41"/><polygon class="cls-1" points="0 78.67 90.7 22.05 91.48 23.29 0 80.41 0 78.67"/><polygon class="cls-1" points="0 76.94 89.93 20.8 90.7 22.05 0 78.67 0 76.94"/><polygon class="cls-1" points="0 75.2 89.15 19.55 89.93 20.8 0 76.94 0 75.2"/><polygon class="cls-1" points="0 73.47 88.36 18.3 89.15 19.55 0 75.2 0 73.47"/><polygon class="cls-1" points="0 71.73 87.58 17.06 88.36 18.3 0 73.47 0 71.73"/><polygon class="cls-1" points="0 70 86.8 15.81 87.58 17.06 0 71.73 0 70"/><polygon class="cls-1" points="0 68.27 86.03 14.56 86.8 15.81 0 70 0 68.27"/><polygon class="cls-1" points="0 66.53 85.24 13.31 86.03 14.56 0 68.27 0 66.53"/><polygon class="cls-1" points="0 64.8 84.46 12.07 85.24 13.31 0 66.53 0 64.8"/><polygon class="cls-1" points="0 63.06 83.68 10.82 84.46 12.07 0 64.8 0 63.06"/><polygon class="cls-1" points="0 61.33 82.89 9.57 83.68 10.82 0 63.06 0 61.33"/><polygon class="cls-1" points="0 59.59 82.11 8.33 82.89 9.57 0 61.33 0 59.59"/><polygon class="cls-1" points="0 57.86 81.34 7.08 82.11 8.33 0 59.59 0 57.86"/><polygon class="cls-1" points="0 56.12 80.56 5.83 81.34 7.08 0 57.86 0 56.12"/><polygon class="cls-1" points="0 54.4 79.77 4.58 80.56 5.83 0 56.12 0 54.4"/><polygon class="cls-1" points="0 52.66 78.99 3.34 79.77 4.58 0 54.4 0 52.66"/><polygon class="cls-1" points="0 50.93 78.21 2.09 78.99 3.34 0 52.66 0 50.93"/><polygon class="cls-1" points="0 49.19 77.44 0.84 78.21 2.09 0 50.93 0 49.19"/><polygon class="cls-1" points="0 47.46 76.08 -0.04 76.88 -0.04 77.44 0.84 0 49.19 0 47.46"/><polygon class="cls-1" points="0 45.72 73.29 -0.04 76.08 -0.04 0 47.46 0 45.72"/><polygon class="cls-1" points="0 43.99 70.52 -0.04 73.29 -0.04 0 45.72 0 43.99"/><polygon class="cls-1" points="0 42.25 67.74 -0.04 70.52 -0.04 0 43.99 0 42.25"/><polygon class="cls-1" points="0 40.52 64.97 -0.04 67.74 -0.04 0 42.25 0 40.52"/><polygon class="cls-1" points="0 38.78 62.18 -0.04 64.97 -0.04 0 40.52 0 38.78"/><polygon class="cls-1" points="0 37.05 59.4 -0.04 62.18 -0.04 0 38.78 0 37.05"/><polygon class="cls-1" points="0 35.31 56.63 -0.04 59.4 -0.04 0 37.05 0 35.31"/><polygon class="cls-1" points="0 33.58 53.85 -0.04 56.63 -0.04 0 35.31 0 33.58"/><polygon class="cls-1" points="0 31.84 51.07 -0.04 53.85 -0.04 0 33.58 0 31.84"/><polygon class="cls-1" points="0 30.11 48.29 -0.04 51.07 -0.04 0 31.84 0 30.11"/><polygon class="cls-1" points="0 28.38 45.52 -0.04 48.29 -0.04 0 30.11 0 28.38"/><polygon class="cls-1" points="0 26.64 42.74 -0.04 45.52 -0.04 0 28.38 0 26.64"/><polygon class="cls-1" points="0 24.91 39.96 -0.04 42.74 -0.04 0 26.64 0 24.91"/><polygon class="cls-1" points="0 23.17 37.18 -0.04 39.96 -0.04 0 24.91 0 23.17"/><polygon class="cls-1" points="0 21.44 34.41 -0.04 37.18 -0.04 0 23.17 0 21.44"/><polygon class="cls-1" points="0 19.7 31.63 -0.04 34.41 -0.04 0 21.44 0 19.7"/><polygon class="cls-1" points="0 17.97 28.84 -0.04 31.63 -0.04 0 19.7 0 17.97"/><polygon class="cls-1" points="0 16.24 26.07 -0.04 28.84 -0.04 0 17.97 0 16.24"/><polygon class="cls-1" points="0 14.51 23.29 -0.04 26.07 -0.04 0 16.24 0 14.51"/><polygon class="cls-1" points="0 12.77 20.52 -0.04 23.29 -0.04 0 14.51 0 12.77"/><polygon class="cls-1" points="0 11.04 17.73 -0.04 20.52 -0.04 0 12.77 0 11.04"/><polygon class="cls-1" points="17.73 -0.04 0 11.04 0 -0.04 17.73 -0.04"/></g></g></svg>