<?xml version="1.0" encoding="UTF-8"?>
<svg viewBox="0 0 146 146" version="1.1" xmlns="http://www.w3.org/2000/svg" xmlns:xlink="http://www.w3.org/1999/xlink">
  <g stroke="none" stroke-width="1" fill="none" fill-rule="evenodd">
    <path d="M92.7609821,84.0569306 L133.576363,124.821097 L133.576363,84.0580536 L146,84.0580536 L146,146 L83.9785233,146 L83.9785233,133.593417 L124.795029,133.593417 L83.9773988,92.8292507 L92.7609821,84.0569306 Z M53.2378934,84.0568182 L62.0214767,92.8291383 L21.2049713,133.592182 L62.0214767,133.592182 L62.0214767,145.999888 L-4.93827201e-13,145.999888 L-4.93827201e-13,84.0579413 L12.4225125,84.0579413 L12.4225125,124.820985 L53.2378934,84.0568182 Z M145.999438,0.000112307261 L145.999438,61.9420587 L133.57805,61.9420587 L133.57805,21.1778924 L92.7615444,61.9431818 L83.9779611,53.1697386 L124.793342,12.4066954 L83.9779611,12.4066954 L83.9779611,0.00123537986 L133.57805,0.00123537986 L133.57805,0.000112307261 L145.999438,0.000112307261 Z M12.4231872,3.94351218e-13 L12.4231872,0.00224614521 L62.0210269,0.00224614521 L62.0210269,12.4065831 L21.2067705,12.4065831 L62.0210269,53.1696263 L53.2374436,61.9419464 L12.4231872,21.1789032 L12.4231872,61.9419464 L0.000674708744,61.9419464 L0.000674708744,3.94351218e-13 L12.4231872,3.94351218e-13 Z"></path>
  </g>
</svg>