<svg width="79" height="79" viewBox="0 0 79 79" fill="none" xmlns="http://www.w3.org/2000/svg">
<circle cx="39.5" cy="39.5" r="39.5" fill="#E2FCA4"/>
<path d="M57.4733 51.848H19.5316C17.6141 51.846 16.0601 50.2955 16.0581 48.3824V22.6399C16.0601 20.7267 17.6141 19.1763 19.5316 19.1743H57.4733C59.3908 19.1763 60.9448 20.7267 60.9468 22.6399V29.6259C60.9468 29.9258 60.7863 30.2035 60.5263 30.3534C60.2663 30.5033 59.9454 30.5034 59.6854 30.3534C59.4254 30.2034 59.2649 29.9258 59.2649 29.6259V22.6399C59.2649 21.653 58.4626 20.8524 57.4733 20.8524H19.5316C18.5424 20.8524 17.74 21.653 17.74 22.6399V48.3824C17.74 49.3693 18.5424 50.1699 19.5316 50.1699H57.4733C58.4626 50.1699 59.2649 49.3693 59.2649 48.3824V37.8051C59.2649 37.341 59.6427 36.9661 60.1058 36.9661C60.571 36.9661 60.9468 37.341 60.9468 37.8051V48.3824C60.9448 50.2955 59.3908 51.846 57.4733 51.848Z" fill="#193A4D"/>
<path d="M45.043 57.4454H32.0534C31.5882 57.4454 31.2124 57.0705 31.2124 56.6083V51.0087C31.2124 50.5446 31.5882 50.1697 32.0534 50.1697H45.043C45.5061 50.1697 45.8819 50.5446 45.8819 51.0087V56.6063C45.8819 56.8292 45.7945 57.042 45.6361 57.2001C45.4797 57.3582 45.2644 57.4453 45.043 57.4453V57.4454ZM32.8984 55.7693H44.2021V51.8478H32.8921L32.8984 55.7693Z" fill="#193A4D"/>
<path d="M50.9101 60.8177H26.0011C25.5359 60.8177 25.1602 60.4428 25.1602 59.9807C25.1642 57.6561 27.0512 55.7713 29.3811 55.7693H47.5301C49.86 55.7713 51.747 57.6561 51.751 59.9807C51.751 60.4427 51.3732 60.8177 50.9101 60.8177ZM26.988 59.1396H49.9247C49.5672 58.1263 48.6064 57.4474 47.5299 57.4453H29.3845C28.3059 57.4474 27.3471 58.1263 26.9876 59.1396H26.988Z" fill="#193A4D"/>
<path d="M49.6562 45.0503C49.3881 45.0503 49.1382 44.9227 48.9798 44.7078C48.8213 44.493 48.7726 44.2174 48.8518 43.962L50.4585 38.7859C50.4991 38.6562 50.5722 38.5387 50.6677 38.4414L62.1727 26.9603C63.0218 26.0828 64.2771 25.7301 65.4572 26.0382C66.6394 26.3463 67.5616 27.2664 67.8703 28.4438C68.1791 29.6234 67.8256 30.8758 66.9482 31.721L55.439 43.202C55.3435 43.2993 55.2257 43.3702 55.0957 43.4107L49.9059 45.0138C49.8246 45.0381 49.7413 45.0503 49.656 45.0503L49.6562 45.0503ZM52.0023 39.4849L50.9298 42.9444L54.3992 41.8743L65.7638 30.5354C66.1903 30.1078 66.3569 29.4857 66.2005 28.902C66.042 28.3183 65.585 27.8623 65 27.7062C64.413 27.5502 63.7894 27.7184 63.3608 28.146L52.0023 39.4849Z" fill="#193A4D"/>
<path d="M54.3234 42.9266C54.0999 42.9266 53.8866 42.8374 53.7282 42.6793L50.6691 39.6272C50.3401 39.2989 50.3401 38.768 50.6691 38.4396C50.9962 38.1132 51.5284 38.1132 51.8575 38.4396L54.9165 41.4938C55.1562 41.7349 55.2293 42.0956 55.0973 42.4098C54.9673 42.7219 54.6606 42.9266 54.3214 42.9266H54.3234Z" fill="#193A4D"/>
<path d="M65.5701 32.7485C65.3466 32.7485 65.1334 32.6613 64.975 32.5033L61.3898 28.9262C61.0628 28.598 61.0628 28.067 61.3898 27.7386C61.7189 27.4123 62.251 27.4123 62.5801 27.7386L66.1653 31.3176C66.405 31.5568 66.4781 31.9175 66.3481 32.2317C66.2181 32.5458 65.9114 32.7485 65.5701 32.7485H65.5701Z" fill="#193A4D"/>
<path d="M51.9821 31.6117H25.1085C24.6433 31.6117 24.2676 31.2368 24.2676 30.7726V25.3982C24.2676 24.9341 24.6433 24.5591 25.1085 24.5591H51.9821C52.4472 24.5591 52.8231 24.9341 52.8231 25.3982V30.781C52.819 31.241 52.4432 31.6119 51.9821 31.6119V31.6117ZM25.9478 29.9336H51.1433V26.2349H25.9498L25.9478 29.9336Z" fill="#193A4D"/>
<path d="M35.3785 35.9344H25.1085C24.6433 35.9344 24.2676 35.5575 24.2676 35.0954C24.2676 34.6313 24.6433 34.2563 25.1085 34.2563H35.3785C35.8416 34.2563 36.2195 34.6313 36.2195 35.0954C36.2195 35.5574 35.8417 35.9344 35.3785 35.9344Z" fill="#193A4D"/>
<path d="M35.3785 40.2616H25.1085C24.6433 40.2616 24.2676 39.8866 24.2676 39.4225C24.2676 38.9604 24.6433 38.5854 25.1085 38.5854H35.3785C35.8416 38.5854 36.2195 38.9604 36.2195 39.4225C36.2195 39.8866 35.8417 40.2616 35.3785 40.2616Z" fill="#193A4D"/>
<path d="M35.3785 44.4667H25.1085C24.6433 44.4667 24.2676 44.0917 24.2676 43.6276C24.2676 43.1635 24.6433 42.7886 25.1085 42.7886H35.3785C35.8416 42.7886 36.2195 43.1635 36.2195 43.6276C36.2195 44.0917 35.8417 44.4667 35.3785 44.4667Z" fill="#193A4D"/>
<path d="M46.0054 35.9344H41.9063C41.6057 35.9344 41.3294 35.7743 41.1791 35.5149C41.0288 35.2555 41.0288 34.9353 41.1791 34.6759C41.3294 34.4164 41.6057 34.2563 41.9063 34.2563H46.0054C46.4705 34.2563 46.8463 34.6313 46.8463 35.0954C46.8463 35.5574 46.4705 35.9344 46.0054 35.9344V35.9344Z" fill="#193A4D"/>
<path d="M46.004 40.2616H41.9049C41.4397 40.2616 41.064 39.8866 41.064 39.4225C41.064 38.9604 41.4397 38.5854 41.9049 38.5854H46.004C46.4691 38.5854 46.8449 38.9604 46.8449 39.4225C46.8449 39.8866 46.4691 40.2616 46.004 40.2616Z" fill="#193A4D"/>
<path d="M46.004 44.4667H41.9049C41.4397 44.4667 41.064 44.0917 41.064 43.6276C41.064 43.1635 41.4397 42.7886 41.9049 42.7886H46.004C46.4691 42.7886 46.8449 43.1635 46.8449 43.6276C46.8449 44.0917 46.4691 44.4667 46.004 44.4667Z" fill="#193A4D"/>
</svg>
