<svg width="79" height="79" viewBox="0 0 79 79" fill="none" xmlns="http://www.w3.org/2000/svg">
<circle cx="39.5" cy="39.5" r="39.5" fill="#E2FCA4"/>
<path d="M55.1719 57.0158C56.6976 57.0158 57.9376 55.7759 57.9376 54.2502C57.9376 52.7245 56.6976 51.4846 55.1719 51.4846V24.7505C55.1719 24.4739 55.0474 24.2112 54.8308 24.0338L40.0808 12.0497C39.742 11.7731 39.2581 11.7731 38.9192 12.0497L24.1692 24.0338C23.9526 24.2113 23.8282 24.474 23.8282 24.7505V51.4846C22.3024 51.4846 21.0625 52.7245 21.0625 54.2502C21.0625 55.7759 22.3024 57.0158 23.8282 57.0158H24.75V58.477L21.3321 61.8949C21.1593 62.0678 21.0625 62.3029 21.0625 62.5471V67.1565H22.9063V62.9297L26.3241 59.5118C26.497 59.339 26.5938 59.1039 26.5938 58.8596V57.0158H33.9688V60.3208L31.4728 62.8168C31.2999 62.9896 31.2032 63.2247 31.2032 63.469V67.1565H33.0469V63.8516L35.5429 61.3556C35.7157 61.1827 35.8125 60.9477 35.8125 60.7033V57.0158H38.5782V62.5471H40.4219V57.0158H47.7969V59.7815C47.7969 60.0258 47.8937 60.2608 48.0666 60.4337L51.4844 63.8516V67.1565H53.3282V63.469C53.3282 63.2248 53.2314 62.9896 53.0585 62.8168L49.6407 59.3989V57.0158H52.4063V58.8596C52.4063 59.1039 52.5031 59.339 52.6759 59.5118L56.0938 62.9297V63.469H57.9376V62.5471C57.9376 62.3029 57.8407 62.0677 57.6679 61.8949L54.25 58.477V57.0158H55.1719ZM52.5607 24.5635L46.822 27.4328L39.8228 24.8078C39.6131 24.7295 39.385 24.7295 39.1752 24.8078L32.176 27.4328L26.4373 24.5635L34.1533 18.2971H44.8447L52.5607 24.5635ZM33.047 29.0761L38.5783 27.0018V51.4845H33.047V29.0761ZM40.422 27.0018L45.9533 29.0761V51.4843H40.422V27.0018ZM47.797 29.0069L53.3283 26.2413V51.4844H47.797V29.0069ZM39.5004 13.9525L42.5772 16.4531H36.4235L39.5004 13.9525ZM25.672 26.241L31.2033 29.0066V51.4844H25.672V26.241ZM22.9064 54.25C22.9064 53.7407 23.3189 53.3282 23.8283 53.3282H55.172C55.6814 53.3282 56.0939 53.7407 56.0939 54.25C56.0939 54.7594 55.6814 55.172 55.172 55.172H23.8283C23.3189 55.172 22.9064 54.7594 22.9064 54.25Z" fill="#193A4D"/>
<path d="M38.5781 64.3909H40.4219V67.1565H38.5781V64.3909Z" fill="#193A4D"/>
<path d="M45.0312 61.2427V58.8596H43.1875V61.6253C43.1875 61.8696 43.2843 62.1046 43.4571 62.2775L45.9532 64.7735V67.1566H47.7969V64.3909C47.7969 64.1466 47.7001 63.9116 47.5273 63.7387L45.0312 61.2427Z" fill="#193A4D"/>
<path d="M56.0938 65.3125H57.9375V67.1562H56.0938V65.3125Z" fill="#193A4D"/>
<path d="M31.2031 58.8591H29.3594V59.3984L25.9415 62.8163C25.7687 62.9891 25.6719 63.2242 25.6719 63.4685V67.156H27.5156V63.8511L30.9335 60.4332C31.1063 60.2604 31.2031 60.0253 31.2031 59.781V58.8591Z" fill="#193A4D"/>
</svg>
