<svg width="79" height="79" viewBox="0 0 79 79" fill="none" xmlns="http://www.w3.org/2000/svg">
<circle cx="39.5" cy="39.5" r="39.5" fill="#161515"/>
<path d="M9.98633 45.6101C10.2774 45.6183 10.5694 45.6224 10.8625 45.6224C16.8882 45.6224 22.5099 43.8925 27.2581 40.9023C29.2019 50.907 38.0108 58.4599 48.5838 58.4599C57.237 58.4599 64.7086 53.4008 68.2022 46.0791C68.473 45.9359 68.7405 45.7872 69.0044 45.6331C65.1863 58.3107 53.4209 67.5449 39.4988 67.5449C25.5683 67.5449 13.7971 58.2996 9.98633 45.6101Z" fill="url(#paint0_radial_1_1500)"/>
<path d="M9.98633 45.6101C10.2774 45.6183 10.5694 45.6224 10.8625 45.6224C16.8882 45.6224 22.5099 43.8925 27.2581 40.9023C29.2019 50.907 38.0108 58.4599 48.5838 58.4599C57.237 58.4599 64.7086 53.4008 68.2022 46.0791C68.473 45.9359 68.7405 45.7872 69.0044 45.6331C65.1863 58.3107 53.4209 67.5449 39.4988 67.5449C25.5683 67.5449 13.7971 58.2996 9.98633 45.6101Z" fill="#04171E" fill-opacity="0.88"/>
<path d="M10.134 46.0881C10.3761 46.0937 10.6189 46.0966 10.8624 46.0966C16.9245 46.0966 22.5777 44.3458 27.3439 41.3223C29.4494 51.1176 38.1591 58.46 48.5837 58.46C57.2369 58.46 64.7085 53.4009 68.2021 46.0792C68.473 45.936 68.7404 45.7873 69.0043 45.6332C65.1863 58.3109 53.4209 67.545 39.4987 67.545C25.7437 67.545 14.0939 58.5312 10.134 46.0881Z" fill="url(#paint1_radial_1_1500)"/>
<path d="M10.134 46.0881C10.3761 46.0937 10.6189 46.0966 10.8624 46.0966C16.9245 46.0966 22.5777 44.3458 27.3439 41.3223C29.4494 51.1176 38.1591 58.46 48.5837 58.46C57.2369 58.46 64.7085 53.4009 68.2021 46.0792C68.473 45.936 68.7404 45.7873 69.0043 45.6332C65.1863 58.3109 53.4209 67.545 39.4987 67.545C25.7437 67.545 14.0939 58.5312 10.134 46.0881Z" fill="#04171E" fill-opacity="0.4"/>
<path d="M54.0752 57.7598C49.6945 61.4033 44.0632 63.5945 37.92 63.5945C26.4529 63.5945 16.769 55.9595 13.6746 45.4957C18.6354 45.0469 23.2569 43.4221 27.2581 40.9023C29.2019 50.907 38.0108 58.4598 48.5838 58.4598C50.4809 58.4598 52.3212 58.2167 54.0752 57.7598Z" fill="url(#paint2_linear_1_1500)" fill-opacity="0.64"/>
<path d="M64.78 36.7351C64.78 50.6968 53.4617 62.0151 39.5 62.0151C25.5382 62.0151 14.22 50.6968 14.22 36.7351C14.22 22.7733 25.5382 11.4551 39.5 11.4551C53.4617 11.4551 64.78 22.7733 64.78 36.7351Z" fill="url(#paint3_radial_1_1500)"/>
<path d="M63.0996 31.9879C63.0996 41.8047 55.1414 49.7629 45.3246 49.7629C35.5077 49.7629 27.5496 41.8047 27.5496 31.9879C27.5496 22.171 35.5077 14.2129 45.3246 14.2129C55.1414 14.2129 63.0996 22.171 63.0996 31.9879Z" fill="url(#paint4_radial_1_1500)" fill-opacity="0.6"/>
<path d="M41.1573 14.2448C40.7608 14.2236 40.3615 14.2129 39.9597 14.2129C36.1779 14.2129 32.6183 15.1644 29.5073 16.8411C31.1711 16.4745 32.8999 16.2813 34.6739 16.2813C36.4821 16.2813 38.2434 16.482 39.9367 16.8625L41.1573 14.2448Z" fill="url(#paint5_linear_1_1500)" fill-opacity="0.64"/>
<path d="M42.6199 17.6338C51.914 20.909 58.575 29.7678 58.575 40.1823C58.575 44.464 57.4492 48.4827 55.4774 51.9585C59.5186 47.9596 62.0223 42.4099 62.0223 36.2754C62.0223 25.4845 54.2753 16.5031 44.0396 14.5894L42.6199 17.6338Z" fill="url(#paint6_linear_1_1500)" fill-opacity="0.64"/>
<path d="M53.0096 58.1066C49.1017 60.5821 44.4681 62.0153 39.4998 62.0153C31.626 62.0153 24.5929 58.4156 19.9565 52.772C21.2347 53.0062 22.5519 53.1286 23.8977 53.1286C33.6696 53.1286 41.9347 46.6768 44.6655 37.8006C45.5665 37.8799 46.4787 37.9203 47.4003 37.9203C53.7136 37.9203 59.5833 36.0214 64.4697 32.7637C64.6738 34.0576 64.7798 35.3841 64.7798 36.7353C64.7798 37.5741 64.739 38.4033 64.6592 39.2211C63.2391 46.8903 58.9785 53.5629 53.0096 58.1066Z" fill="url(#paint7_linear_1_1500)" fill-opacity="0.64"/>
<path d="M9.99438 45.6329C13.8121 58.3111 25.5778 67.5457 39.5003 67.5457C56.4506 67.5457 70.204 53.8577 70.3097 36.9322C68.6187 36.9215 66.96 36.7746 65.3441 36.502C61.5465 38.1757 57.347 39.1049 52.9305 39.1049C51.399 39.1049 49.8936 38.9932 48.422 38.7774C45.6942 47.6588 37.4266 54.1153 27.6511 54.1153C20.8342 54.1153 14.7507 50.9757 10.7677 46.0636C10.5067 45.9251 10.2489 45.7815 9.99438 45.6329Z" fill="url(#paint8_linear_1_1500)"/>
<path d="M70.3097 36.959C65.7781 39.5802 60.517 41.0804 54.9054 41.0804C53.836 41.0804 52.7793 41.0259 51.7379 40.9195C49.7876 50.9159 40.9826 58.4603 30.4154 58.4603C21.7622 58.4603 14.2906 53.4013 10.7971 46.0796C10.5262 45.9364 10.2588 45.7877 9.99487 45.6336C13.8129 58.3112 25.5783 67.5453 39.5005 67.5453C56.4417 67.5453 70.1894 53.8719 70.3097 36.959Z" fill="url(#paint9_radial_1_1500)"/>
<path d="M68.0633 38.1377C66.2075 39.0155 64.2499 39.7134 62.2131 40.2088C61.949 42.4587 61.4412 44.7148 60.6735 46.9444C58.8023 52.3788 55.617 56.9875 51.5952 60.5374C58.4722 57.2281 64.0754 51.2783 66.7564 43.4921C67.3669 41.7191 67.7994 39.9278 68.0633 38.1377Z" fill="url(#paint10_linear_1_1500)" fill-opacity="0.64"/>
<path opacity="0.2" fill-rule="evenodd" clip-rule="evenodd" d="M48.4089 38.8306C48.4437 38.784 48.5086 38.7753 48.5538 38.8112C49.5823 39.627 50.6937 40.3467 51.8851 40.9572C51.9362 40.9834 51.957 41.0473 51.9316 41.1C51.9062 41.1526 51.8442 41.1741 51.7931 41.1479C50.5896 40.5312 49.4668 39.8041 48.4278 38.98C48.3825 38.9441 48.3741 38.8772 48.4089 38.8306Z" fill="url(#paint11_linear_1_1500)"/>
<defs>
<radialGradient id="paint0_radial_1_1500" cx="0" cy="0" r="1" gradientUnits="userSpaceOnUse" gradientTransform="translate(69.0043 61.0371) rotate(179.948) scale(223.707 650.007)">
<stop offset="0.104167" stop-color="#24537E"/>
<stop offset="0.520341" stop-color="#4FC1C0"/>
<stop offset="1" stop-color="#DAFFF4"/>
</radialGradient>
<radialGradient id="paint1_radial_1_1500" cx="0" cy="0" r="1" gradientUnits="userSpaceOnUse" gradientTransform="translate(69.0043 61.0373) rotate(179.948) scale(223.707 650.007)">
<stop offset="0.104167" stop-color="#24537E"/>
<stop offset="0.520341" stop-color="#4FC1C0"/>
<stop offset="1" stop-color="#DAFFF4"/>
</radialGradient>
<linearGradient id="paint2_linear_1_1500" x1="53.3196" y1="67.8534" x2="43.1556" y2="14.9851" gradientUnits="userSpaceOnUse">
<stop stop-color="#04171E"/>
<stop offset="1" stop-color="#04171E" stop-opacity="0"/>
</linearGradient>
<radialGradient id="paint3_radial_1_1500" cx="0" cy="0" r="1" gradientUnits="userSpaceOnUse" gradientTransform="translate(20.9996 56.4994) rotate(-57.5402) scale(44.5327 645.303)">
<stop offset="0.104167" stop-color="#3A78B1"/>
<stop offset="0.520341" stop-color="#4FC1C0"/>
<stop offset="1" stop-color="#8CF2FD"/>
</radialGradient>
<radialGradient id="paint4_radial_1_1500" cx="0" cy="0" r="1" gradientUnits="userSpaceOnUse" gradientTransform="translate(63.0026 14.2198) rotate(144.267) scale(43.7944 43.4836)">
<stop offset="0.216485" stop-color="white"/>
<stop offset="0.906332" stop-color="white" stop-opacity="0"/>
</radialGradient>
<linearGradient id="paint5_linear_1_1500" x1="55.4974" y1="24.0948" x2="29.4274" y2="35.4511" gradientUnits="userSpaceOnUse">
<stop stop-color="white"/>
<stop offset="0.732381" stop-color="white" stop-opacity="0"/>
</linearGradient>
<linearGradient id="paint6_linear_1_1500" x1="55.4974" y1="24.0948" x2="29.4274" y2="35.4511" gradientUnits="userSpaceOnUse">
<stop stop-color="white"/>
<stop offset="0.732381" stop-color="white" stop-opacity="0"/>
</linearGradient>
<linearGradient id="paint7_linear_1_1500" x1="103.888" y1="-29.9233" x2="-2.73676" y2="58.9096" gradientUnits="userSpaceOnUse">
<stop stop-color="#04171E"/>
<stop offset="1" stop-color="#04171E" stop-opacity="0"/>
</linearGradient>
<linearGradient id="paint8_linear_1_1500" x1="59.0524" y1="40.7837" x2="19.0586" y2="54.905" gradientUnits="userSpaceOnUse">
<stop stop-color="#0E6585"/>
<stop offset="1" stop-color="#04171E"/>
</linearGradient>
<radialGradient id="paint9_radial_1_1500" cx="0" cy="0" r="1" gradientUnits="userSpaceOnUse" gradientTransform="translate(18.0825 64.2086) rotate(-38.5632) scale(36.4646 568.733)">
<stop offset="0.104167" stop-color="#3A78B1"/>
<stop offset="0.520341" stop-color="#4FC1C0"/>
<stop offset="1" stop-color="#8CF2FD"/>
</radialGradient>
<linearGradient id="paint10_linear_1_1500" x1="68.1376" y1="38.1176" x2="52.7571" y2="61.4307" gradientUnits="userSpaceOnUse">
<stop stop-color="white" stop-opacity="0.64"/>
<stop offset="1" stop-color="white" stop-opacity="0"/>
</linearGradient>
<linearGradient id="paint11_linear_1_1500" x1="51.9217" y1="41.0468" x2="46.9217" y2="37.9559" gradientUnits="userSpaceOnUse">
<stop stop-color="#8CF2FD"/>
<stop offset="1" stop-color="#8CF2FD" stop-opacity="0"/>
</linearGradient>
</defs>
</svg>
