<svg width="79" height="79" viewBox="0 0 79 79" fill="none" xmlns="http://www.w3.org/2000/svg">
<circle cx="39.5" cy="39.5" r="39.5" fill="#222222"/>
<path d="M39 19L28.3585 32.2255H49.6415L39 19Z" fill="#F4F9FD"/>
<path d="M28.3583 32.9465L39 50.8785L49.6417 32.9465H28.3583Z" fill="#F4F9FD"/>
<path d="M27.4783 32.0457L38.1963 19.0001L22.3837 28.2768L27.4783 32.0457Z" fill="#F4F9FD"/>
<path d="M22 46.474L22 28.9196L27.2985 32.8273L22 46.474Z" fill="#F4F9FD"/>
<path d="M27.8417 33.6983L22.3011 47.8162L38.5295 51.6735L27.8417 33.6983Z" fill="#F4F9FD"/>
<path d="M22.2008 48.5615L38.6411 58V52.5894L22.2008 48.5615Z" fill="#F4F9FD"/>
<path d="M50.5217 32.0457L39.8037 19.0001L55.6163 28.2768L50.5217 32.0457Z" fill="#F4F9FD"/>
<path d="M56 28.9196L56 46.474L50.7015 32.8273L56 28.9196Z" fill="#F4F9FD"/>
<path d="M55.6989 47.8162L50.1583 33.6983L39.4705 51.6735L55.6989 47.8162Z" fill="#F4F9FD"/>
<path d="M39.3589 58L55.7992 48.5615L39.3589 52.5894V58Z" fill="#F4F9FD"/>
</svg>
