<svg width="79" height="79" viewBox="0 0 79 79" fill="none" xmlns="http://www.w3.org/2000/svg">
<circle cx="39.5" cy="39.5" r="39.5" fill="#3D7BF2"/>
<path d="M50.9969 20C53.1493 20.8505 54.8339 22.1184 56.1441 23.8348C59.1388 27.7624 59.8407 32.1075 57.9534 36.669C56.0661 41.2306 52.4942 43.8438 47.5654 44.5242C45.6937 44.7871 43.8375 44.5551 42.0282 43.9675C41.3419 43.7511 41.2015 43.4882 41.4979 42.8078C44.399 35.8804 47.2846 28.953 50.1546 22.0102C50.4197 21.3762 50.6849 20.7422 50.9969 20Z" fill="#F4F9FD"/>
<path d="M31.6402 42.9315C38.4251 45.7303 45.0853 48.4827 51.8391 51.2661C50.2482 54.7607 47.7057 56.9719 44.0247 57.7296C39.5638 58.6419 35.8203 57.2348 33.0596 53.6783C30.5795 50.4774 30.2208 46.89 31.6402 42.9315Z" fill="#F4F9FD"/>
<path d="M32.2953 33.4682C32.1705 33.8084 32.0769 34.0713 31.9677 34.3341C29.7529 39.6689 27.538 45.0036 25.3231 50.3383C24.9488 51.2506 24.9332 51.2506 24.0441 50.7712C19.7236 48.4518 17.8518 43.1944 19.7236 38.6638C21.5953 34.164 26.5241 31.7673 31.2346 33.0816C31.5934 33.1744 31.9053 33.3291 32.2953 33.4682Z" fill="#F4F9FD"/>
<path d="M26.4462 27.7315C27.7252 24.9791 29.7529 23.3091 32.6228 22.7679C38.6903 21.6391 43.8219 27.1903 42.231 33.1126C41.9502 34.1331 41.9034 34.164 40.9208 33.7465C36.3819 31.8755 31.8585 30.0045 27.3196 28.1335C27.0545 28.0253 26.8049 27.9016 26.4462 27.7315Z" fill="#F4F9FD"/>
</svg>
