<svg width="78" height="79" viewBox="0 0 78 79" fill="none" xmlns="http://www.w3.org/2000/svg">
<path fill-rule="evenodd" clip-rule="evenodd" d="M39 0C17.4526 0 0 18.1234 0 40.4991C0 58.4201 11.1638 73.5565 26.6663 78.9227C28.6162 79.277 29.3475 78.0621 29.3475 76.999C29.3475 76.037 29.2988 72.8477 29.2988 69.4559C19.5 71.3292 16.9649 66.9754 16.185 64.6973C15.7462 63.533 13.845 59.9386 12.1875 58.9768C10.8225 58.2174 8.8725 56.3444 12.1387 56.2938C15.21 56.2432 17.4037 59.23 18.135 60.4449C21.645 66.5705 27.2512 64.8493 29.4937 63.7861C29.835 61.1537 30.8588 59.3819 31.98 58.3693C23.3026 57.3568 14.235 53.8639 14.235 38.373C14.235 33.9686 15.7462 30.3238 18.2326 27.4888C17.8425 26.4763 16.4775 22.3252 18.6225 16.7565C18.6225 16.7565 21.8887 15.6934 29.3475 20.9077C32.4674 19.9965 35.7825 19.5408 39.0976 19.5408C42.4125 19.5408 45.7275 19.9965 48.8475 20.9077C56.3063 15.6428 59.5725 16.7565 59.5725 16.7565C61.7175 22.3252 60.3525 26.4763 59.9624 27.4888C62.4488 30.3238 63.9599 33.918 63.9599 38.373C63.9599 53.9145 54.8437 57.3568 46.1663 58.3693C47.58 59.6349 48.7988 62.0649 48.7988 65.8617C48.7988 71.2785 48.7499 75.6321 48.7499 76.999C48.7499 78.0621 49.4812 79.3276 51.4313 78.9227C66.8362 73.5565 78 58.3693 78 40.4991C78 18.1234 60.5474 0 39 0Z" fill="black"/>
</svg>
