<svg width="79" height="79" viewBox="0 0 79 79" fill="none" xmlns="http://www.w3.org/2000/svg">
<circle cx="39.5" cy="39.5" r="39.5" fill="#E2FCA4"/>
<path d="M52.3015 50.0498C54.649 48.0349 54.3564 42.6399 54.094 37.8796C54.0339 36.7821 53.9765 35.7246 53.9564 34.7696V34.7721C53.8789 33.1696 52.5264 31.9296 50.9239 31.987C50.3264 31.987 49.7439 32.152 49.2389 32.4695C48.7689 31.162 47.5015 30.317 46.1139 30.3821C45.4064 30.3771 44.7139 30.5846 44.1264 30.9771C43.579 29.8421 42.4164 29.1296 41.1564 29.157C40.5564 29.1545 39.9689 29.312 39.4489 29.6145L39.4389 24.137V24.1345C41.8665 22.6845 43.0314 19.7945 42.2839 17.067C41.5389 14.337 39.0664 12.442 36.2364 12.4295C33.4089 12.417 30.9189 14.2895 30.1489 17.012C29.3765 19.732 30.5139 22.6345 32.929 24.1045C32.9415 24.112 32.954 24.112 32.9665 24.1195V33.2222H32.0715C31.6465 33.2247 31.2265 33.3172 30.839 33.4948C29.654 34.0498 28.679 34.9748 28.064 36.1298C26.5665 38.9548 26.4315 42.3072 27.6915 45.2446C28.6915 47.6672 31.6041 50.3097 33.344 51.8898C33.744 52.2523 34.189 52.6573 34.3915 52.8697V55.4797H32.5015C32.079 55.4797 31.734 55.8247 31.734 56.2472V66.4622C31.734 66.8847 32.079 67.2297 32.5015 67.2297C32.9265 67.2297 33.269 66.8847 33.269 66.4622V57.0146H51.8616V66.4622C51.8616 66.8847 52.2066 67.2297 52.6291 67.2297C53.0541 67.2297 53.3991 66.8847 53.3991 66.4622V56.2472C53.3991 55.8247 53.0541 55.4797 52.6291 55.4797H50.5966C50.5241 54.2422 50.5816 51.5197 52.3016 50.0497L52.3015 50.0498ZM31.449 18.7174C31.449 17.1024 32.2665 15.5974 33.6215 14.7149C34.9765 13.8349 36.684 13.6974 38.1615 14.3524C39.639 15.0048 40.6865 16.3623 40.944 17.9574C41.2015 19.5524 40.6365 21.1698 39.4415 22.2574V19.0124C39.454 18.1399 39.1139 17.2999 38.499 16.6824C37.8814 16.0649 37.044 15.7224 36.1715 15.7324C35.299 15.7424 34.4689 16.1049 33.8665 16.7349C33.2665 17.3674 32.944 18.2149 32.9765 19.0849V22.2074C32.0015 21.3099 31.4465 20.0449 31.449 18.7174V18.7174ZM35.939 55.4796L35.9365 52.6371C35.9365 52.1646 35.6714 51.9196 34.3865 50.7546C32.744 49.2596 29.9914 46.7621 29.1214 44.6571H29.1239C28.0389 42.1471 28.1489 39.2797 29.4239 36.8619C29.8864 35.9944 30.6164 35.2994 31.5039 34.8794C31.6914 34.7969 31.8964 34.7544 32.1014 34.7519H32.7714C32.6214 35.3269 32.4089 35.8844 32.1389 36.4144C31.7664 37.1344 31.5689 37.9294 31.5614 38.7394C31.5489 40.1119 31.8064 41.4719 32.3189 42.7469C32.4939 43.1319 32.9489 43.3044 33.3364 43.1294C33.5214 43.0469 33.6664 42.8919 33.7389 42.7019C33.8089 42.5119 33.8039 42.2994 33.7189 42.1144C33.2989 41.0419 33.0889 39.8994 33.1014 38.7494C33.1089 38.1819 33.2514 37.6219 33.5164 37.1169C34.1464 35.9194 34.4864 34.5894 34.5114 33.2369V19.0846C34.4789 18.1146 35.2389 17.3021 36.2064 17.2671C37.1589 17.2921 37.9114 18.0771 37.8988 19.0271L37.9264 36.0146H37.9289C37.9289 36.4397 38.2714 36.7821 38.6963 36.7821C39.1189 36.7821 39.4638 36.4396 39.4638 36.0146V32.1921C39.5713 31.3446 40.2864 30.7046 41.1388 30.6921C41.9938 30.6821 42.7264 31.3021 42.8563 32.1446L42.8839 36.282C42.8839 36.707 43.2288 37.0495 43.6513 37.0495C44.0763 37.0495 44.4188 36.707 44.4188 36.282V33.2095C44.4188 32.5145 45.1963 31.9295 46.1163 31.9295C46.9238 31.8395 47.6613 32.387 47.8113 33.182L47.8938 37.3245H47.8963C47.9038 37.742 48.2438 38.077 48.6638 38.077H48.6712C49.0913 38.072 49.4312 37.7295 49.4312 37.3095V34.837C49.5313 34.0895 50.1637 33.5295 50.9162 33.522C51.6688 33.5145 52.3112 34.062 52.4263 34.807C52.4488 35.7795 52.5063 36.8545 52.5663 37.9645C52.7937 42.152 53.0788 47.3648 51.3038 48.8842C49.1088 50.7667 48.9763 53.9392 49.0563 55.4794L35.939 55.4796Z" fill="#193A4D"/>
</svg>
