<svg width="79" height="79" viewBox="0 0 79 79" fill="none" xmlns="http://www.w3.org/2000/svg">
<circle cx="39.5" cy="39.5" r="39.5" fill="#75FBB6"/>
<path d="M60 32.8817V37.1674C60 38.5583 59.0845 39.5648 57.6707 39.7118C57.1029 39.7683 56.5698 39.5648 56.0831 39.2934C54.5071 38.4226 52.9195 37.5632 51.3435 36.6925L38.5846 29.7041C38.1327 29.4553 37.7387 29.1726 37.5185 28.7089C37.3465 28.359 37.2845 27.9672 37.3401 27.5828C37.3958 27.1985 37.5667 26.8389 37.8314 26.5491C38.434 25.9158 39.1872 25.7236 40.0448 25.9385C40.3191 26.0243 40.5803 26.146 40.8212 26.3003L51.9113 32.3728C52.3748 32.6216 52.85 32.8025 53.3946 32.7799C53.9182 32.7692 54.4242 32.5939 54.8376 32.2802C55.2509 31.9664 55.5496 31.531 55.6891 31.0384C55.8201 30.561 55.7854 30.0546 55.5904 29.5984C55.3954 29.1423 55.0512 28.7619 54.6114 28.5167C53.6496 27.9626 52.6645 27.4424 51.6911 26.911C48.1103 24.9509 44.5295 22.9908 40.9487 21.0307C40.3229 20.6802 39.6739 20.5105 38.9555 20.6689C38.6924 20.7293 38.439 20.8244 38.2022 20.9516C35.1776 22.6026 32.1492 24.2573 29.1169 25.9158C28.2593 26.3908 27.7842 27.0919 27.7958 28.0757C27.8074 29.0595 28.3289 29.6928 29.1632 30.1451C36.0931 33.9333 43.0191 37.7215 49.9413 41.5098C52.8615 43.1155 55.7934 44.71 58.7137 46.3044C59.2931 46.621 59.7451 47.0168 59.9073 47.6727C60.0086 48.0588 59.985 48.466 59.8398 48.8386C59.6946 49.2111 59.4348 49.5306 59.0961 49.7534C58.7553 49.9706 58.4033 50.1707 58.0416 50.3527C52.3401 53.4285 46.627 56.4817 40.9371 59.5689C39.8709 60.1456 38.8975 60.1456 37.8314 59.5576C32.0372 56.3687 26.2391 53.1911 20.4372 50.0248C19.4637 49.4933 18.9886 48.7357 19.0002 47.6501C19.0234 44.823 19.0118 42.0073 19.0118 39.1803C19.0118 37.812 19.8462 36.8508 21.2136 36.636C21.8162 36.5455 22.3493 36.7264 22.8707 37.0091C24.7481 38.0382 26.637 39.0672 28.5143 40.0962C32.4659 42.2561 36.406 44.4273 40.3692 46.5871C40.8559 46.8585 41.2615 47.1865 41.447 47.7179C41.7251 48.4982 41.5628 49.2106 40.9718 49.7986C40.3461 50.4206 39.5812 50.5563 38.7353 50.2849C38.5191 50.203 38.3099 50.1047 38.1095 49.9909C34.4476 47.9893 30.7818 45.9803 27.1121 43.9636C26.44 43.5905 25.7447 43.4435 25.003 43.7035C24.0875 44.0089 23.5197 44.6421 23.4038 45.592C23.2879 46.5419 23.6935 47.2882 24.5395 47.7745C25.652 48.4077 26.7876 49.0184 27.9117 49.629C31.2607 51.4609 34.6098 53.2815 37.9473 55.1248C38.9323 55.6676 39.8593 55.6789 40.8444 55.1248C43.7646 53.4851 46.7081 51.868 49.64 50.251C50.37 49.8439 50.8683 49.3011 50.9958 48.4643C51.0731 48.0659 51.036 47.6544 50.8888 47.2753C50.7416 46.8962 50.4899 46.5641 50.1614 46.3157C49.98 46.1782 49.786 46.0571 49.582 45.9539C40.1027 40.7634 30.6195 35.5768 21.1325 30.3939C20.7964 30.2129 20.4603 30.032 20.1243 29.8398C18.6641 29.003 18.6294 27.1937 20.0895 26.3455C21.5265 25.5087 22.9982 24.7285 24.4583 23.9143C28.9547 21.4265 33.451 18.9613 37.9357 16.4509C39.0018 15.8516 39.9636 15.8516 41.0298 16.4396C46.8472 19.6511 52.68 22.8438 58.5283 26.0176C59.5133 26.5491 59.9768 27.3294 59.9768 28.4036V32.859C59.9884 32.8817 60 32.8817 60 32.8817Z" fill="#193B4D"/>
</svg>
