<svg viewBox="0 0 56 56" fill="none" xmlns="http://www.w3.org/2000/svg">
<path d="M54.9998 0.172485H40.3769V2.97118H49.8978L40.4037 12.2645L42.6399 14.4606L52.1341 5.16729V14.474H54.9998V0.172485Z" fill="#C6E579"/>
<path fill-rule="evenodd" clip-rule="evenodd" d="M8.22202 2.67818C5.16024 2.67818 2.67818 5.16024 2.67818 8.22202V17.5019C2.67818 20.5637 5.16024 23.0458 8.22202 23.0458H17.5019C20.5637 23.0458 23.0458 20.5637 23.0458 17.5019V8.22202C23.0458 5.16024 20.5637 2.67818 17.5019 2.67818H8.22202ZM0 8.22202C0 3.68112 3.68112 0 8.22202 0H17.5019C22.0428 0 25.7239 3.68112 25.7239 8.22202V17.5019C25.7239 22.0428 22.0428 25.7239 17.5019 25.7239H8.22202C3.68113 25.7239 0 22.0428 0 17.5019V8.22202Z" fill="#213A4B"/>
<path fill-rule="evenodd" clip-rule="evenodd" d="M8.49387 32.9542C5.4321 32.9542 2.95003 35.4363 2.95003 38.498V47.7779C2.95003 50.8397 5.4321 53.3218 8.49387 53.3218H17.7738C20.8355 53.3218 23.3176 50.8397 23.3176 47.7779V38.498C23.3176 35.4363 20.8355 32.9542 17.7738 32.9542H8.49387ZM0.271851 38.498C0.271851 33.9572 3.95297 30.276 8.49387 30.276H17.7738C22.3147 30.276 25.9958 33.9572 25.9958 38.498V47.7779C25.9958 52.3188 22.3147 56 17.7738 56H8.49387C3.95297 56 0.271851 52.3188 0.271851 47.7779V38.498Z" fill="#213A4B"/>
<path fill-rule="evenodd" clip-rule="evenodd" d="M37.8863 32.9542C34.8246 32.9542 32.3425 35.4363 32.3425 38.498V47.7779C32.3425 50.8397 34.8246 53.3218 37.8863 53.3218H47.1662C50.228 53.3218 52.7101 50.8397 52.7101 47.7779V38.498C52.7101 35.4363 50.228 32.9542 47.1662 32.9542H37.8863ZM29.6643 38.498C29.6643 33.9572 33.3454 30.276 37.8863 30.276H47.1662C51.7071 30.276 55.3882 33.9572 55.3882 38.498V47.7779C55.3882 52.3188 51.7071 56 47.1662 56H37.8863C33.3454 56 29.6643 52.3188 29.6643 47.7779V38.498Z" fill="#213A4B"/>
<path d="M33.7071 4.30972C34.7465 3.2703 36.1547 2.68385 37.6246 2.67816L37.6246 2.71649H37.6421L37.6246 2.67816L37.6142 0C35.4376 0.00842036 33.3525 0.876826 31.8134 2.41596C30.2742 3.95509 29.4058 6.04018 29.3974 8.21683V17.5019L29.3974 17.5071C29.4058 19.6838 30.2742 21.7688 31.8134 23.308C33.3525 24.8471 35.4376 25.7155 37.6142 25.7239L37.6194 25.7239L46.9019 25.7239C49.0806 25.7197 51.1687 24.8524 52.7093 23.3118C54.2498 21.7713 55.1171 19.6832 55.1214 17.5045L52.4432 17.4993C52.4403 18.9695 51.8551 20.3785 50.8155 21.4181C49.7763 22.4573 48.3677 23.0426 46.898 23.0457L46.8848 23.0168V23.0303H37.6221L37.6221 23.0457C36.1531 23.0394 34.746 22.453 33.7071 21.4142C32.6683 20.3754 32.0819 18.9683 32.0756 17.4992V8.22473C32.0819 6.75568 32.6683 5.34856 33.7071 4.30972Z" fill="#213A4B"/>
</svg>
