<svg width="74" height="64" viewBox="0 0 74 64" fill="none" xmlns="http://www.w3.org/2000/svg">
<path fill-rule="evenodd" clip-rule="evenodd" d="M27.0771 3.1177C25.8262 3.1176 24.6257 3.61045 23.7357 4.48944C22.8458 5.36842 22.338 6.56272 22.3226 7.81349L19.2051 7.775C19.2307 5.70405 20.0714 3.72661 21.5449 2.27125C23.0185 0.815912 25.0061 -0.000126535 27.0772 1.47166e-08C27.0772 1.47166e-08 27.0771 1.47166e-08 27.0772 1.47166e-08H45.9897C48.0582 0.00487348 50.0421 0.82213 51.5139 2.27572C52.9856 3.72931 53.8275 5.70289 53.858 7.77121L53.8582 7.78272V12.6111H3.90365C3.69507 12.6135 3.49573 12.6977 3.34868 12.8457C3.20074 12.9947 3.11769 13.1961 3.1177 13.4061V59.5012C3.1177 59.7079 3.19982 59.9062 3.34599 60.0524C3.49215 60.1985 3.69039 60.2807 3.89712 60.2807H69.3687C69.5755 60.2807 69.7737 60.1985 69.9199 60.0524C70.066 59.9062 70.1482 59.708 70.1482 59.5012V31.972H40.2806V28.8543H73.2659V59.5012C73.2659 60.5348 72.8553 61.5261 72.1244 62.2569C71.3936 62.9878 70.4023 63.3983 69.3687 63.3983H3.89712C2.86356 63.3983 1.87231 62.9878 1.14145 62.2569C0.410604 61.5261 3.3774e-10 60.5348 3.3774e-10 59.5012V13.4061C3.3774e-10 13.4061 3.3774e-10 13.4061 3.3774e-10 13.4061C-1.35652e-05 12.3729 0.408624 11.3816 1.13682 10.6485C1.86501 9.91549 2.85359 9.50026 3.8868 9.49341L3.89712 9.49335L50.7405 9.49338V7.80661C50.7193 6.55966 50.2106 5.37045 49.3231 4.49391C48.4334 3.61527 47.2344 3.12108 45.984 3.1177H27.0771Z" fill="#193B4D"/>
<path fill-rule="evenodd" clip-rule="evenodd" d="M36.5657 25.2769C36.2694 25.2769 35.9762 25.3377 35.7043 25.4555C35.4324 25.5733 35.1875 25.7456 34.9848 25.9619C34.7822 26.1781 34.626 26.4336 34.526 26.7125C34.426 26.9915 34.3843 27.288 34.4035 27.5838L34.4067 27.6341V33.208C34.4521 33.7409 34.693 34.2388 35.0839 34.6053C35.4855 34.9817 36.0153 35.1912 36.5657 35.1912C37.1161 35.1912 37.646 34.9817 38.0475 34.6053C38.4385 34.2388 38.6794 33.7409 38.7247 33.208V27.6845H40.2836L38.728 27.5838C38.7472 27.288 38.7054 26.9915 38.6055 26.7125C38.5055 26.4336 38.3493 26.1781 38.1466 25.9619C37.944 25.7456 37.6991 25.5733 37.4272 25.4555C37.1553 25.3377 36.8621 25.2769 36.5657 25.2769ZM41.8424 27.7306C41.8807 27.0275 41.778 26.3237 41.5403 25.6606C41.2964 24.9802 40.9156 24.3571 40.4213 23.8298C39.9271 23.3025 39.3299 22.8821 38.6667 22.5948C38.0035 22.3074 37.2884 22.1592 36.5657 22.1592C35.843 22.1592 35.1279 22.3074 34.4647 22.5948C33.8016 22.8821 33.2044 23.3025 32.7101 23.8298C32.2159 24.3571 31.835 24.9802 31.5912 25.6606C31.3535 26.3237 31.2508 27.0275 31.289 27.7306V33.3157L31.2923 33.366C31.3791 34.7056 31.9724 35.9619 32.9518 36.88C33.9313 37.798 35.2233 38.3088 36.5657 38.3088C37.9081 38.3088 39.2002 37.798 40.1796 36.88C41.1591 35.9619 41.7524 34.7056 41.8392 33.366L41.8424 33.3157V27.7306Z" fill="#193B4D"/>
<path d="M73.2336 9.46094H56.2109V12.7189H67.2944L56.2265 23.5373L58.8454 26.0782L69.8976 15.2754V26.1094H73.2336V9.46094Z" fill="#E2FCA4"/>
<path fill-rule="evenodd" clip-rule="evenodd" d="M6.28516 29.2432H32.8479V32.3609H6.28516V29.2432Z" fill="#193B4D"/>
</svg>
