<svg viewBox="0 0 96 103" fill="none" xmlns="http://www.w3.org/2000/svg">
<path d="M3.73853 88.5235H0.0288086V87.9114C0.32677 82.8535 2.61404 78.119 6.39103 74.7419C9.75913 71.7915 14.1002 70.1925 18.5774 70.2531H23.5114C27.5944 70.1712 31.5841 71.4793 34.826 73.9629L32.5631 76.8935C29.9715 74.8989 26.7813 73.8399 23.5114 73.8887H18.5774C15.0166 73.8271 11.5597 75.0896 8.87653 77.4314C5.84765 80.1252 4.00171 83.9036 3.73853 87.9485V88.5235Z" fill="#063C4F"/>
<path d="M95.4242 88.5245H91.7144V87.9124C91.4247 83.9064 89.5809 80.1722 86.5764 77.5066C83.8876 75.162 80.4239 73.8995 76.857 73.9639H71.923C68.6817 73.9139 65.5184 74.9596 62.9455 76.9316L60.5713 74.0751H60.664C63.8909 71.6035 67.8589 70.2961 71.923 70.3654H76.857C81.3405 70.3002 85.6891 71.8994 89.0619 74.8541C92.7921 78.1888 95.0747 82.8469 95.4242 87.8382V88.5245Z" fill="#063C4F"/>
<path d="M71.4049 102.195H67.6952V101.527C67.3666 96.9017 65.2431 92.5883 61.7782 89.5072C61.1974 89.001 60.5772 88.5421 59.9233 88.1347L59.6822 87.9677L58.9217 87.5226L58.2354 87.1701L57.7532 86.929L56.7886 86.5395L56.4362 86.4096L55.3233 86.0758L55.4902 84.2209L55.0265 86.0758L53.8579 85.8161H53.6539L52.374 85.6491H52.17C51.5394 85.6491 51.0385 85.6491 50.5377 85.6491H44.9731H43.4707H43.1554L41.9497 85.7975H41.6344C41.2634 85.7975 40.8739 85.9459 40.4844 86.0387L40.1691 86.1314L39.0747 86.4653H38.8521L37.7578 86.9104L37.294 87.133L36.6077 87.504C36.3393 87.6434 36.0792 87.7983 35.8287 87.9677L35.6061 88.1161C34.9466 88.5151 34.3256 88.9747 33.7513 89.4887C30.2635 92.5992 28.1383 96.9562 27.8342 101.62V102.176H24.1245V101.508C24.2782 98.6862 24.9882 95.9225 26.2138 93.3759C27.4393 90.8292 29.1562 88.55 31.2657 86.6693C31.9769 86.0263 32.74 85.4432 33.5472 84.9258L33.8069 84.7588L34.79 84.1838L35.6061 83.7572L36.2182 83.4604L37.4053 82.9781L37.8319 82.8112L39.186 82.3846L39.5384 82.2919L40.9666 81.9951H41.3376L42.7659 81.8096H43.1368C43.749 81.8096 44.3611 81.8096 44.9917 81.8096H50.5563C51.1499 81.8096 51.762 81.8096 52.4112 81.8096H52.6894L54.2104 81.9951H54.47L56.0096 82.3289H56.2692C56.8257 82.4773 57.2894 82.6257 57.7346 82.7741L58.1797 82.9411L59.3483 83.4233L59.9419 83.7016C60.2361 83.8373 60.5211 83.9922 60.7951 84.1653L61.7411 84.7217L62.0379 84.9072C62.8365 85.4217 63.5931 85.9985 64.3008 86.6322C68.5164 90.3792 71.0826 95.6385 71.442 101.267L71.4049 102.195Z" fill="#063C4F"/>
<path fill-rule="evenodd" clip-rule="evenodd" d="M57.3799 20.8032V40.613H53.4112V27.7218L40.2596 40.5945L37.1621 37.5527L50.3128 24.68H37.125V20.8032H57.3799Z" fill="#B9D674"/>
<path d="M47.7731 79.6212C44.7394 79.6163 41.8313 78.409 39.6861 76.2638C37.5409 74.1186 36.3335 71.2104 36.3286 68.1767V63.0387C36.3286 60.0034 37.5344 57.0925 39.6806 54.9462C41.8269 52.8 44.7379 51.5942 47.7731 51.5942C50.8084 51.5942 53.7194 52.8 55.8656 54.9462C58.0119 57.0925 59.2176 60.0034 59.2176 63.0387V68.1767C59.2127 71.2104 58.0054 74.1186 55.8602 76.2638C53.715 78.409 50.8069 79.6163 47.7731 79.6212ZM47.7731 55.304C45.7217 55.304 43.7544 56.1188 42.3038 57.5694C40.8533 59.0199 40.0383 60.9873 40.0383 63.0387V68.1767C40.0383 69.1924 40.2384 70.1982 40.6272 71.1366C41.0159 72.0751 41.5856 72.9277 42.3038 73.646C43.0221 74.3642 43.8747 74.934 44.8132 75.3227C45.7516 75.7114 46.7574 75.9114 47.7731 75.9114C48.7889 75.9114 49.7947 75.7114 50.7331 75.3227C51.6715 74.934 52.5242 74.3642 53.2425 73.646C53.9607 72.9277 54.5304 72.0751 54.9191 71.1366C55.3078 70.1982 55.5079 69.1924 55.5079 68.1767V63.0387C55.5079 60.9873 54.693 59.0199 53.2425 57.5694C51.7919 56.1188 49.8245 55.304 47.7731 55.304Z" fill="#063C4F"/>
<path d="M20.9514 68.6398C19.4484 68.6398 17.9602 68.3438 16.5717 67.7687C15.1832 67.1935 13.9216 66.3505 12.8589 65.2878C11.7961 64.2251 10.9531 62.9634 10.378 61.5749C9.80286 60.1864 9.50683 58.6982 9.50683 57.1953V52.0759C9.44473 50.533 9.69498 48.9934 10.2426 47.5496C10.7902 46.1058 11.6239 44.7876 12.6936 43.6739C13.7633 42.5603 15.047 41.6743 16.4676 41.069C17.8882 40.4638 19.4164 40.1519 20.9606 40.1519C22.5047 40.1519 24.033 40.4638 25.4536 41.069C26.8742 41.6743 28.1579 42.5603 29.2276 43.6739C30.2973 44.7876 31.131 46.1058 31.6786 47.5496C32.2262 48.9934 32.4765 50.533 32.4144 52.0759V57.1953C32.4095 60.2323 31.1996 63.1432 29.0504 65.2889C26.9012 67.4347 23.9883 68.6398 20.9514 68.6398ZM20.9514 44.3226C18.8983 44.3275 16.9309 45.1465 15.4809 46.6C14.0309 48.0535 13.2166 50.0228 13.2166 52.0759V57.1953C13.3139 59.1836 14.1723 61.0583 15.6139 62.4311C17.0555 63.8039 18.9699 64.5695 20.9606 64.5695C22.9513 64.5695 24.8657 63.8039 26.3073 62.4311C27.7489 61.0583 28.6073 59.1836 28.7047 57.1953V52.0759C28.6998 50.0211 27.8813 48.0518 26.4284 46.5989C24.9754 45.1459 23.0062 44.3275 20.9514 44.3226Z" fill="#063C4F"/>
<path d="M74.5568 68.6398C71.5199 68.6398 68.607 67.4347 66.4578 65.2889C64.3086 63.1432 63.0987 60.2323 63.0937 57.1953V52.0759C63.0316 50.533 63.2819 48.9934 63.8296 47.5496C64.3772 46.1058 65.2108 44.7876 66.2805 43.6739C67.3502 42.5603 68.6339 41.6743 70.0545 41.069C71.4751 40.4638 73.0034 40.1519 74.5476 40.1519C76.0917 40.1519 77.6199 40.4638 79.0405 41.069C80.4611 41.6743 81.7448 42.5603 82.8145 43.6739C83.8842 44.7876 84.7179 46.1058 85.2655 47.5496C85.8132 48.9934 86.0634 50.533 86.0013 52.0759V57.1953C86.0013 60.2306 84.7956 63.1416 82.6493 65.2878C80.5031 67.4341 77.5921 68.6398 74.5568 68.6398ZM74.5568 44.3226C72.5005 44.3226 70.5284 45.1395 69.0744 46.5935C67.6204 48.0475 66.8035 50.0196 66.8035 52.0759V57.1953C66.9008 59.1836 67.7592 61.0583 69.2008 62.4311C70.6425 63.8039 72.5569 64.5695 74.5476 64.5695C76.5382 64.5695 78.4526 63.8039 79.8943 62.4311C81.3359 61.0583 82.1942 59.1836 82.2916 57.1953V52.0759C82.2916 50.0228 81.4773 48.0535 80.0273 46.6C78.5773 45.1465 76.6099 44.3275 74.5568 44.3226Z" fill="#063C4F"/>
<path d="M75.6893 38.2577L72.1465 37.1818C73.2996 33.3766 73.5456 29.3542 72.865 25.4368C72.1843 21.5194 70.5959 17.8158 68.2269 14.6226C65.8578 11.4293 62.774 8.83506 59.2223 7.04763C55.6707 5.2602 51.7498 4.32924 47.7737 4.32924C43.7976 4.32924 39.8767 5.2602 36.325 7.04763C32.7733 8.83506 29.6895 11.4293 27.3205 14.6226C24.9515 17.8158 23.363 21.5194 22.6823 25.4368C22.0017 29.3542 22.2477 33.3766 23.4008 37.1818L19.858 38.2577C18.5325 33.8972 18.2469 29.2869 19.0241 24.7962C19.8012 20.3055 21.6196 16.0592 24.3334 12.3978C27.0472 8.73646 30.581 5.76175 34.6516 3.71207C38.7221 1.66239 43.2162 0.594727 47.7737 0.594727C52.3312 0.594727 56.8252 1.66239 60.8958 3.71207C64.9663 5.76175 68.5001 8.73646 71.2139 12.3978C73.9277 16.0592 75.7461 20.3055 76.5233 24.7962C77.3005 29.2869 77.0148 33.8972 75.6893 38.2577Z" fill="#063C4F"/>
</svg>
