<svg viewBox="0 0 58 67" fill="none" xmlns="http://www.w3.org/2000/svg">
<path fill-rule="evenodd" clip-rule="evenodd" d="M7.27734 46.0156H42.4867V63.1448C42.4867 64.1672 42.0805 65.1478 41.3576 65.8708C40.6346 66.5937 39.6541 66.9999 38.6316 66.9999H11.1324C10.11 66.9999 9.12942 66.5937 8.40646 65.8708C7.68349 65.1478 7.27734 64.1672 7.27734 63.1448V46.0156ZM9.84737 48.5857V63.1448C9.84737 63.4856 9.98275 63.8125 10.2237 64.0535C10.4647 64.2945 10.7916 64.4298 11.1324 64.4298H38.6316C38.9725 64.4298 39.2993 64.2945 39.5403 64.0535C39.7813 63.8125 39.9167 63.4856 39.9167 63.1448V48.5857H9.84737Z" fill="#193B4D"/>
<path d="M57.212 0H43.1797V2.68567H52.3161L43.1926 11.6037L45.3514 13.7111L54.4621 4.79309V13.7368H57.212V0Z" fill="#C6E579"/>
<path fill-rule="evenodd" clip-rule="evenodd" d="M39.9388 3.36901C39.2562 3.58894 38.5894 3.85485 37.9428 4.1649C33.3738 6.36899 29.8344 10.2548 28.0653 15.0092C26.3557 19.6035 26.4273 24.6646 28.2539 29.2003C32.7864 31.0068 37.8362 31.0641 42.4171 29.349C47.1585 27.5737 51.0316 24.0368 53.2289 19.4756L53.2325 19.4681L53.2325 19.4681C53.6062 18.7052 53.9154 17.9124 54.1569 17.0979L56.6208 17.8286C56.339 18.7791 55.9783 19.7043 55.5425 20.5947C53.0575 25.7507 48.6786 29.7489 43.3182 31.7558C37.9567 33.7632 32.0271 33.6235 26.766 31.3658L26.2968 31.1644L26.0937 30.6959C23.8125 25.432 23.6559 19.4897 25.6566 14.113C27.6573 8.7362 31.6603 4.34174 36.8276 1.84946L36.8301 1.84825C37.5818 1.48772 38.357 1.17855 39.1505 0.922852L39.9388 3.36901Z" fill="#193B4D"/>
<path fill-rule="evenodd" clip-rule="evenodd" d="M4.00398 13.6762C6.76779 12.557 9.75139 12.0772 12.731 12.2759C15.8798 12.4858 18.9324 13.4472 21.6332 15.0795L22.9625 12.8799C19.9103 11.0352 16.4604 9.94878 12.902 9.71155C9.34348 9.47432 5.77995 10.0932 2.50985 11.5164L2.04633 11.7182L1.8445 12.1816C-0.447493 17.4448 -0.609539 23.3917 1.39245 28.7719C3.39377 34.1503 7.40182 38.5435 12.5743 41.0287C13.4626 41.4644 14.3845 41.8284 15.3309 42.117L16.0805 39.6588C15.2638 39.4097 14.4685 39.0955 13.702 38.7192L13.702 38.7192L13.6919 38.7143C9.11653 36.5175 5.57114 32.6323 3.80113 27.8756C2.09026 23.2778 2.16695 18.2119 4.00398 13.6762Z" fill="#193B4D"/>
<path fill-rule="evenodd" clip-rule="evenodd" d="M28.0695 39.6602L6.34481 17.9354L8.16209 16.1182L32.6261 40.5821L30.8968 41.3352C25.6336 43.6272 19.6867 43.7892 14.3065 41.7872C8.92736 39.7856 4.53361 35.7767 2.04867 30.6031C1.68504 29.8552 1.37507 29.0823 1.12109 28.2904L3.56834 27.5056C3.78539 28.1823 4.05036 28.8428 4.36123 29.4819L4.3641 29.4878C6.56087 34.0631 10.446 37.6085 15.2028 39.3785C19.3551 40.9236 23.8891 41.0108 28.0695 39.6602Z" fill="#193B4D"/>
<path fill-rule="evenodd" clip-rule="evenodd" d="M41.7353 17.4706L28.1142 31.0917L26.2969 29.2745L39.918 15.6533L41.7353 17.4706Z" fill="#193B4D"/>
<path fill-rule="evenodd" clip-rule="evenodd" d="M14.1521 24.0427V11.5781H16.7221V26.6128H1.6875V24.0427H14.1521Z" fill="#193B4D"/>
<path fill-rule="evenodd" clip-rule="evenodd" d="M35.5583 21.8308V9.36621H32.9883V24.4009H48.0229V21.8308H35.5583Z" fill="#193B4D"/>
<path fill-rule="evenodd" clip-rule="evenodd" d="M9.50391 31.5205H23.2535V34.0905H9.50391V31.5205Z" fill="#193B4D"/>
</svg>
