<svg viewBox="0 0 56 56" fill="none" xmlns="http://www.w3.org/2000/svg">
<path d="M33.0278 21.7966H21.6716V23.9721H29.0724L21.682 31.1959L23.4307 32.8925L30.8107 25.6688V32.9133H33.0278V21.7966Z" fill="#C6E579"/>
<path fill-rule="evenodd" clip-rule="evenodd" d="M28 2.08178C13.6858 2.08178 2.08178 13.6858 2.08178 28C2.08178 42.3142 13.6858 53.9182 28 53.9182C42.3142 53.9182 53.9182 42.3142 53.9182 28C53.9182 13.6858 42.3142 2.08178 28 2.08178ZM0 28C0 12.536 12.536 0 28 0C43.464 0 56 12.536 56 28C56 43.464 43.464 56 28 56C12.536 56 0 43.464 0 28Z" fill="#213A4B"/>
<path fill-rule="evenodd" clip-rule="evenodd" d="M18.3966 18.3796C23.5599 13.2111 29.3371 9.70727 34.4611 8.18598C39.6298 6.65143 43.8649 7.19278 46.3189 9.64684C48.0365 11.3644 48.8167 13.9332 48.6107 17.1201C48.4046 20.3085 47.211 24.0212 45.1028 27.8413L46.9254 28.8472C49.1369 24.8399 50.457 20.8291 50.6881 17.2544C50.9193 13.678 50.06 10.4438 47.791 8.17479C44.541 4.92476 39.3404 4.56574 33.8686 6.1903C28.3521 7.82812 22.2839 11.5429 16.9238 16.9082C11.5642 22.2731 7.84967 28.341 6.21057 33.8559C4.58473 39.3262 4.94079 44.5244 8.19108 47.7747C11.4411 51.0247 16.639 51.3838 22.1097 49.7592C27.6249 48.1214 33.6929 44.4067 39.0579 39.0416C40.3677 37.732 41.6056 36.3523 42.7659 34.9086L42.7558 34.9005C43.3682 34.1296 43.9519 33.3549 44.4954 32.5769L42.8329 31.4154C42.3195 32.1502 41.7639 32.8882 41.175 33.63L41.1433 33.6045C40.0301 34.9895 38.8425 36.3131 37.5859 37.5695L37.5859 37.5696C32.4171 42.7384 26.6398 46.2423 21.517 47.7635C16.3498 49.298 12.1172 48.7568 9.66312 46.3027C7.20931 43.8489 6.67021 39.6166 8.20608 34.449C9.72869 29.326 13.2328 23.5485 18.3966 18.3796ZM42.8367 31.3914C43.6685 30.2148 44.4107 29.0255 45.0837 27.8426L46.8465 28.8455C46.1455 30.0776 45.3681 31.3239 44.4928 32.5621L42.8367 31.3914Z" fill="#213A4B"/>
<path fill-rule="evenodd" clip-rule="evenodd" d="M21.5293 8.20999C16.3617 6.67411 12.1295 7.21322 9.67565 9.66703C7.98634 11.3563 7.21096 13.8715 7.39342 16.9918C7.57602 20.1144 8.71884 23.7518 10.7502 27.5047L8.91939 28.4956C6.78717 24.5564 5.52032 20.6213 5.31519 17.1133C5.10992 13.6031 5.96874 10.4298 8.2036 8.19498C11.4539 4.9447 16.6521 4.58864 22.1224 6.21447C27.6374 7.85358 33.7052 11.5681 39.0701 16.9277L39.071 16.9286C40.6961 18.5562 42.2086 20.2924 43.5981 22.1252L41.9392 23.3829C40.6067 21.6253 39.1562 19.9604 37.5978 18.3995C32.4291 13.2362 26.652 9.7325 21.5293 8.20999Z" fill="#213A4B"/>
<path fill-rule="evenodd" clip-rule="evenodd" d="M34.0485 47.557C39.1788 49.2133 43.4225 48.7734 45.933 46.3776C47.6614 44.7283 48.4954 42.2319 48.386 39.1082C48.2764 35.9822 47.219 32.3191 45.276 28.5197L47.1295 27.5719C49.169 31.5599 50.3434 35.5236 50.4665 39.0353C50.5896 42.5494 49.6568 45.7017 47.3703 47.8837C44.0448 51.0571 38.8397 51.2914 33.4089 49.5381C27.9338 47.7705 21.9546 43.9151 16.7165 38.4314L16.7156 38.4305C15.129 36.7653 13.6575 34.9942 12.3113 33.1295L13.9991 31.9109C15.2902 33.6992 16.7013 35.3976 18.2228 36.9944C23.2693 42.2772 28.9629 45.9151 34.0485 47.557Z" fill="#213A4B"/>
</svg>
