<svg viewBox="0 0 1440 1047" fill="none" xmlns="http://www.w3.org/2000/svg">
<path fill-rule="evenodd" clip-rule="evenodd" d="M636.536 382.241L636.536 220L669.146 220L669.146 325.632L777.396 220.253L802.941 245.118L694.691 350.496L803.191 350.496L803.191 382.241L636.536 382.241Z" fill="#F4F9FD"/>
<path fill-rule="evenodd" clip-rule="evenodd" d="M636.727 162.241L636.727 -1.45695e-05L669.337 -1.17186e-05L669.337 105.632L777.587 0.252912L803.133 25.1176L694.883 130.496L803.383 130.496L803.383 162.241L636.727 162.241Z" fill="#F4F9FD"/>
<path fill-rule="evenodd" clip-rule="evenodd" d="M803.382 440V602.241H770.772V496.609L662.522 601.988L636.977 577.123L745.227 471.745H636.727V440H803.382Z" fill="#193B4D"/>
<path fill-rule="evenodd" clip-rule="evenodd" d="M636.727 1046.48L636.727 884.241L669.337 884.241L669.337 989.873L777.587 884.494L803.133 909.359L694.883 1014.74L803.383 1014.74L803.383 1046.48L636.727 1046.48Z" fill="#F4F9FD"/>
<path fill-rule="evenodd" clip-rule="evenodd" d="M636.727 822.241L636.727 660L669.337 660L669.337 765.632L777.587 660.253L803.133 685.118L694.883 790.496L803.383 790.496L803.383 822.241L636.727 822.241Z" fill="#F4F9FD"/>
<path fill-rule="evenodd" clip-rule="evenodd" d="M166.536 382.241L166.536 220L199.146 220L199.146 325.632L307.396 220.253L332.941 245.118L224.691 350.496L333.191 350.496L333.191 382.241L166.536 382.241Z" fill="#F4F9FD"/>
<path fill-rule="evenodd" clip-rule="evenodd" d="M166.727 162.241L166.727 -1.45695e-05L199.337 -1.17186e-05L199.337 105.632L307.587 0.252912L333.133 25.1176L224.883 130.496L333.383 130.496L333.383 162.241L166.727 162.241Z" fill="#F4F9FD"/>
<path fill-rule="evenodd" clip-rule="evenodd" d="M166.727 602.241L166.727 440L199.337 440L199.337 545.632L307.587 440.253L333.133 465.118L224.883 570.496L333.383 570.496L333.383 602.241L166.727 602.241Z" fill="#F4F9FD"/>
<path fill-rule="evenodd" clip-rule="evenodd" d="M166.727 1046.48L166.727 884.241L199.337 884.241L199.337 989.873L307.587 884.494L333.133 909.359L224.883 1014.74L333.383 1014.74L333.383 1046.48L166.727 1046.48Z" fill="#F4F9FD"/>
<path fill-rule="evenodd" clip-rule="evenodd" d="M166.727 822.241L166.727 660L199.337 660L199.337 765.632L307.587 660.253L333.133 685.118L224.883 790.496L333.383 790.496L333.383 822.241L166.727 822.241Z" fill="#F4F9FD"/>
<path fill-rule="evenodd" clip-rule="evenodd" d="M1106.54 382.241L1106.54 220L1139.15 220L1139.15 325.632L1247.4 220.253L1272.94 245.118L1164.69 350.496L1273.19 350.496L1273.19 382.241L1106.54 382.241Z" fill="#F4F9FD"/>
<path fill-rule="evenodd" clip-rule="evenodd" d="M1106.73 162.241L1106.73 -1.45695e-05L1139.34 -1.17186e-05L1139.34 105.632L1247.59 0.252912L1273.13 25.1176L1164.88 130.496L1273.38 130.496L1273.38 162.241L1106.73 162.241Z" fill="#F4F9FD"/>
<path fill-rule="evenodd" clip-rule="evenodd" d="M1106.73 602.241L1106.73 440L1139.34 440L1139.34 545.632L1247.59 440.253L1273.13 465.118L1164.88 570.496L1273.38 570.496L1273.38 602.241L1106.73 602.241Z" fill="#F4F9FD"/>
<path fill-rule="evenodd" clip-rule="evenodd" d="M1106.73 1046.48L1106.73 884.241L1139.34 884.241L1139.34 989.873L1247.59 884.494L1273.13 909.359L1164.88 1014.74L1273.38 1014.74L1273.38 1046.48L1106.73 1046.48Z" fill="#F4F9FD"/>
<path fill-rule="evenodd" clip-rule="evenodd" d="M1106.73 822.241L1106.73 660L1139.34 660L1139.34 765.632L1247.59 660.253L1273.13 685.118L1164.88 790.496L1273.38 790.496L1273.38 822.241L1106.73 822.241Z" fill="#F4F9FD"/>
<path fill-rule="evenodd" clip-rule="evenodd" d="M401.536 382.241L401.536 220L434.146 220L434.146 325.632L542.396 220.253L567.941 245.118L459.691 350.496L568.191 350.496L568.191 382.241L401.536 382.241Z" fill="#F4F9FD"/>
<path fill-rule="evenodd" clip-rule="evenodd" d="M401.727 162.241L401.727 -1.45695e-05L434.337 -1.17186e-05L434.337 105.632L542.587 0.252912L568.133 25.1176L459.883 130.496L568.383 130.496L568.383 162.241L401.727 162.241Z" fill="#F4F9FD"/>
<path fill-rule="evenodd" clip-rule="evenodd" d="M401.727 602.241L401.727 440L434.337 440L434.337 545.632L542.587 440.253L568.133 465.118L459.883 570.496L568.383 570.496L568.383 602.241L401.727 602.241Z" fill="#F4F9FD"/>
<path fill-rule="evenodd" clip-rule="evenodd" d="M401.727 1046.48L401.727 884.241L434.337 884.241L434.337 989.873L542.587 884.494L568.133 909.359L459.883 1014.74L568.383 1014.74L568.383 1046.48L401.727 1046.48Z" fill="#F4F9FD"/>
<path fill-rule="evenodd" clip-rule="evenodd" d="M401.727 822.241L401.727 660L434.337 660L434.337 765.632L542.587 660.253L568.133 685.118L459.883 790.496L568.383 790.496L568.383 822.241L401.727 822.241Z" fill="#F4F9FD"/>
<path fill-rule="evenodd" clip-rule="evenodd" d="M-67.9994 382.241L-67.9994 220L-35.3892 220L-35.3892 325.632L72.8607 220.253L98.406 245.118L-9.84386 350.496L98.6563 350.496L98.6562 382.241L-67.9994 382.241Z" fill="#F4F9FD"/>
<path fill-rule="evenodd" clip-rule="evenodd" d="M-67.808 162.241L-67.808 -1.45695e-05L-35.1978 -1.17186e-05L-35.1978 105.632L73.0521 0.252912L98.5974 25.1176L-9.65246 130.496L98.8477 130.496L98.8477 162.241L-67.808 162.241Z" fill="#F4F9FD"/>
<path fill-rule="evenodd" clip-rule="evenodd" d="M-67.808 602.241L-67.808 440L-35.1978 440L-35.1978 545.632L73.0521 440.253L98.5974 465.118L-9.65246 570.496L98.8477 570.496L98.8477 602.241L-67.808 602.241Z" fill="#F4F9FD"/>
<path fill-rule="evenodd" clip-rule="evenodd" d="M-67.808 1046.48L-67.808 884.241L-35.1978 884.241L-35.1978 989.873L73.0521 884.494L98.5974 909.359L-9.65246 1014.74L98.8477 1014.74L98.8477 1046.48L-67.808 1046.48Z" fill="#F4F9FD"/>
<path fill-rule="evenodd" clip-rule="evenodd" d="M-67.808 822.241L-67.808 660L-35.1978 660L-35.1978 765.632L73.0521 660.253L98.5974 685.118L-9.65246 790.496L98.8477 790.496L98.8477 822.241L-67.808 822.241Z" fill="#F4F9FD"/>
<path fill-rule="evenodd" clip-rule="evenodd" d="M871.536 382.241L871.536 220L904.146 220L904.146 325.632L1012.4 220.253L1037.94 245.118L929.691 350.496L1038.19 350.496L1038.19 382.241L871.536 382.241Z" fill="#F4F9FD"/>
<path fill-rule="evenodd" clip-rule="evenodd" d="M871.727 162.241L871.727 -1.45695e-05L904.337 -1.17186e-05L904.337 105.632L1012.59 0.252912L1038.13 25.1176L929.883 130.496L1038.38 130.496L1038.38 162.241L871.727 162.241Z" fill="#F4F9FD"/>
<path fill-rule="evenodd" clip-rule="evenodd" d="M871.727 602.241L871.727 440L904.337 440L904.337 545.632L1012.59 440.253L1038.13 465.118L929.883 570.496L1038.38 570.496L1038.38 602.241L871.727 602.241Z" fill="#F4F9FD"/>
<path fill-rule="evenodd" clip-rule="evenodd" d="M871.727 1046.48L871.727 884.241L904.337 884.241L904.337 989.873L1012.59 884.494L1038.13 909.359L929.883 1014.74L1038.38 1014.74L1038.38 1046.48L871.727 1046.48Z" fill="#F4F9FD"/>
<path fill-rule="evenodd" clip-rule="evenodd" d="M871.727 822.241L871.727 660L904.337 660L904.337 765.632L1012.59 660.253L1038.13 685.118L929.883 790.496L1038.38 790.496L1038.38 822.241L871.727 822.241Z" fill="#F4F9FD"/>
<path fill-rule="evenodd" clip-rule="evenodd" d="M1341.54 382.241L1341.54 220L1374.15 220L1374.15 325.632L1482.4 220.253L1507.94 245.118L1399.69 350.496L1508.19 350.496L1508.19 382.241L1341.54 382.241Z" fill="#F4F9FD"/>
<path opacity="0.7" fill-rule="evenodd" clip-rule="evenodd" d="M1341.73 162.241L1341.73 -1.45695e-05L1374.34 -1.17186e-05L1374.34 105.632L1482.59 0.252912L1508.13 25.1176L1399.88 130.496L1508.38 130.496L1508.38 162.241L1341.73 162.241Z" fill="#F4F9FD"/>
<path fill-rule="evenodd" clip-rule="evenodd" d="M1341.73 602.241L1341.73 440L1374.34 440L1374.34 545.632L1482.59 440.253L1508.13 465.118L1399.88 570.496L1508.38 570.496L1508.38 602.241L1341.73 602.241Z" fill="#F4F9FD"/>
<path fill-rule="evenodd" clip-rule="evenodd" d="M1341.73 1046.48L1341.73 884.241L1374.34 884.241L1374.34 989.873L1482.59 884.494L1508.13 909.359L1399.88 1014.74L1508.38 1014.74L1508.38 1046.48L1341.73 1046.48Z" fill="#F4F9FD"/>
<path fill-rule="evenodd" clip-rule="evenodd" d="M1341.73 822.241L1341.73 660L1374.34 660L1374.34 765.632L1482.59 660.253L1508.13 685.118L1399.88 790.496L1508.38 790.496L1508.38 822.241L1341.73 822.241Z" fill="#F4F9FD"/>
</svg>
