<svg width="60" height="60" viewBox="0 0 60 60" fill="none" xmlns="http://www.w3.org/2000/svg">
<path d="M58.6812 0.185791H43.0781V3.17209H53.2373L43.1067 13.0883L45.4929 15.4316L55.6378 5.51541V15.4459H58.6812V0.185791Z" fill="#E2FCA4"/>
<path d="M18.6751 27.4487H8.78743C6.45933 27.4487 4.22641 26.5249 2.57885 24.88C0.931295 23.2351 0.00378553 21.0037 0 18.6756V8.78792C0.00377846 6.45851 0.930788 4.22559 2.57793 2.57844C4.22508 0.931298 6.45802 0.00426674 8.78743 0.000488281H18.6751C21.0045 0.00426674 23.2374 0.931298 24.8846 2.57844C26.5317 4.22559 27.4588 6.45851 27.4625 8.78792V18.6756C27.4588 21.0037 26.5313 23.2351 24.8837 24.88C23.2361 26.5249 21.0032 27.4487 18.6751 27.4487ZM8.78743 2.85819C7.21477 2.85819 5.70654 3.48292 4.5945 4.59496C3.48246 5.70701 2.85771 7.21526 2.85771 8.78792V18.6756C2.8577 19.4536 3.01119 20.224 3.30937 20.9426C3.60754 21.6613 4.04455 22.314 4.59537 22.8635C5.14618 23.413 5.79997 23.8484 6.51931 24.1449C7.23866 24.4413 8.00941 24.5929 8.78743 24.591H18.6751C19.4531 24.5929 20.2239 24.4413 20.9432 24.1449C21.6626 23.8484 22.3164 23.413 22.8672 22.8635C23.418 22.314 23.855 21.6613 24.1532 20.9426C24.4514 20.224 24.6048 19.4536 24.6048 18.6756V8.78792C24.6048 8.00922 24.4515 7.23814 24.1535 6.51871C23.8555 5.79928 23.4187 5.14559 22.8681 4.59496C22.3174 4.04434 21.6638 3.60757 20.9443 3.30957C20.2249 3.01157 19.4538 2.85819 18.6751 2.85819H8.78743Z" fill="#F4F9FD"/>
<path d="M50.0112 27.4482H40.1521C37.8253 27.4482 35.5938 26.5239 33.9485 24.8786C32.3032 23.2334 31.3789 21.0019 31.3789 18.6751V8.78743C31.3789 6.45933 32.3028 4.22638 33.9476 2.57883C35.5925 0.931273 37.824 0.00378553 40.1521 0V2.85771C39.3741 2.8577 38.6036 3.01117 37.885 3.30935C37.1664 3.60752 36.5136 4.04453 35.9642 4.59535C35.4147 5.14616 34.9793 5.79997 34.6828 6.51931C34.3864 7.23866 34.2347 8.00941 34.2366 8.78743V18.6751C34.2366 20.244 34.8599 21.7486 35.9692 22.858C37.0786 23.9673 38.5832 24.5905 40.1521 24.5905H50.0112C51.58 24.5905 53.0847 23.9673 54.194 22.858C55.3034 21.7486 55.9266 20.244 55.9266 18.6751H58.7843C58.7806 21.0007 57.855 23.23 56.2105 24.8745C54.5661 26.519 52.3368 27.4445 50.0112 27.4482Z" fill="#F4F9FD"/>
<path d="M18.9602 59.7547H9.07259C6.74449 59.7547 4.51152 58.8308 2.86396 57.186C1.21641 55.5411 0.288942 53.3096 0.285156 50.9815V41.0796C0.292708 38.7526 1.22137 36.5234 2.86811 34.8793C4.51484 33.2353 6.74565 32.3102 9.07259 32.3064H18.9602C21.2872 32.3102 23.518 33.2353 25.1647 34.8793C26.8115 36.5234 27.7402 38.7526 27.7477 41.0796V50.9815C27.7439 53.3096 26.8164 55.5411 25.1689 57.186C23.5213 58.8308 21.2883 59.7547 18.9602 59.7547ZM9.07259 35.1641C7.5024 35.1641 5.9963 35.7869 4.88467 36.8958C3.77304 38.0048 3.14665 39.5094 3.14286 41.0796V50.9815C3.14286 51.7595 3.29631 52.53 3.59448 53.2486C3.89265 53.9672 4.32967 54.6199 4.88048 55.1694C5.4313 55.7189 6.08512 56.1543 6.80447 56.4508C7.52382 56.7472 8.29456 56.8989 9.07259 56.897H18.9602C19.7383 56.8989 20.509 56.7472 21.2284 56.4508C21.9477 56.1543 22.6015 55.7189 23.1523 55.1694C23.7031 54.6199 24.1402 53.9672 24.4383 53.2486C24.7365 52.53 24.89 51.7595 24.89 50.9815V41.0796C24.8862 39.5094 24.2598 38.0048 23.1481 36.8958C22.0365 35.7869 20.5304 35.1641 18.9602 35.1641H9.07259Z" fill="#F4F9FD"/>
<path d="M50.3196 59.7547H40.432C38.1039 59.7547 35.8709 58.8308 34.2234 57.186C32.5758 55.5411 31.6483 53.3096 31.6445 50.9815V41.0796C31.6521 38.7526 32.5808 36.5234 34.2275 34.8793C35.8743 33.2353 38.105 32.3102 40.432 32.3064H50.3196C52.6466 32.3102 54.8773 33.2353 56.5241 34.8793C58.1708 36.5234 59.0995 38.7526 59.1071 41.0796V50.9815C59.1033 53.3096 58.1758 55.5411 56.5283 57.186C54.8807 58.8308 52.6477 59.7547 50.3196 59.7547ZM40.432 35.1641C38.8618 35.1641 37.3557 35.7869 36.2441 36.8958C35.1325 38.0048 34.506 39.5094 34.5022 41.0796V50.9815C34.5022 51.7595 34.6557 52.53 34.9539 53.2486C35.2521 53.9672 35.6891 54.6199 36.2399 55.1694C36.7907 55.7189 37.4445 56.1543 38.1638 56.4508C38.8832 56.7472 39.6539 56.8989 40.432 56.897H50.3196C51.0977 56.8989 51.8684 56.7472 52.5878 56.4508C53.3071 56.1543 53.9609 55.7189 54.5118 55.1694C55.0626 54.6199 55.4995 53.9672 55.7977 53.2486C56.0959 52.53 56.2494 51.7595 56.2494 50.9815V41.0796C56.2456 39.5094 55.6192 38.0048 54.5076 36.8958C53.3959 35.7869 51.8898 35.1641 50.3196 35.1641H40.432Z" fill="#F4F9FD"/>
</svg>
