<svg width="166" height="24" viewBox="0 0 166 24" fill="none" xmlns="http://www.w3.org/2000/svg">
<path fill-rule="evenodd" clip-rule="evenodd" d="M93.0982 0C98.0648 0 102.045 2.648 102.966 7.52467L98.0972 8.07467C97.6691 5.71733 95.5967 4.13333 93.0631 4.13333C88.9852 4.13333 86.9095 7.2 86.9095 11.9813C86.9095 16.826 88.9826 19.8953 92.997 19.8953C95.8594 19.8953 97.7002 18.054 98.2904 14.856L103.093 15.5667C102.044 20.9333 98.1931 24 93.0321 24C86.091 24 81.8814 18.9607 81.8814 12.1453C81.8801 5.23267 85.9911 0 93.0982 0ZM154.487 0C161.855 0 166 5.232 166 12.0793C166 16.0847 163.895 23.998 154.521 23.998C147.908 23.998 143.007 19.6367 143.007 12.1113C143.006 5.556 146.922 0 154.487 0ZM9.47326 0C14.8679 0 18.6514 2.422 18.7156 7.20333L13.8483 7.33333C13.5525 4.78133 11.9102 3.876 9.37467 3.876C7.49947 3.876 5.59119 4.61867 5.59119 6.33333C5.59119 7.20533 5.95379 7.754 7.23612 8.238C9.0789 8.94933 14.144 10.0147 16.2488 11.1773C18.1571 12.2113 19.4401 13.9873 19.4401 16.7647C19.4401 21.7047 15.3285 24 9.86762 24C4.27577 24 0.264672 21.3827 0 15.9553L4.8018 15.7293C5.00031 18.796 7.03894 20.058 9.96621 20.058C12.1048 20.058 14.5722 19.1533 14.5722 17.0533C14.5722 15.6973 13.6174 14.92 11.676 14.3727C9.47326 13.7587 4.63771 12.5967 2.99277 11.2393C1.57877 10.0767 0.821805 8.688 0.821805 6.654C0.821805 2.58467 4.60529 0 9.47326 0ZM23.747 0.452667L27.3981 16.44H27.4312L31.6091 0.452667H36.8714L40.95 16.6667H40.9824L44.7004 0.452667H49.6339L43.6126 23.5467H38.5177L34.9962 10.1747L34.1744 6.84733H34.1082L33.3188 10.1747L29.8649 23.5467H24.668L18.7473 0.452667H23.747ZM56.0025 0.452667V23.5467H51.0353V0.452667H56.0025ZM80.4793 0.452667V23.5467H75.9958V8.51067L61.1127 23.5107L57.6005 19.9713L72.4836 4.97133H57.5661V0.452667H80.4793ZM109.254 0.452667V9.43067H118.662V0.453333H123.628V23.5467H118.662V13.5013H109.254V23.5467H104.287V0.453333L109.254 0.452667ZM142.563 0.452667V4.51933H129.964V9.558H141.609V13.4993H129.964V19.4733H142.891V23.5467H125.026V0.453333L142.563 0.452667ZM154.519 4.102C150.243 4.102 148.039 7.364 148.039 12.0473C148.039 14.7927 149.091 19.896 154.519 19.896C158.729 19.896 160.934 16.6007 160.934 12.014C160.934 7.36467 158.796 4.102 154.519 4.102Z" fill="#193B4D"/>
</svg>
