<svg viewBox="0 0 165 22" fill="none" xmlns="http://www.w3.org/2000/svg">
<path fill-rule="evenodd" clip-rule="evenodd" d="M78.8495 0V21.4159H74.6586V7.47152L60.7485 21.3817L57.4658 18.1L71.3759 4.18977H57.4336V0H78.8495Z" fill="#063C4F"/>
<path d="M8.21253 21.4159C12.9703 21.4159 16.1826 18.9633 16.1826 15.045C16.1826 6.75978 5.03056 10.2892 5.03056 5.92228C5.03056 4.69595 6.15182 3.85846 7.93979 3.85846C9.9702 3.85846 11.243 4.93523 11.3945 6.58031H15.7281C15.6068 2.60221 12.5158 0 7.93979 0C3.63655 0 0.606091 2.45266 0.606091 5.92228C0.606091 14.1477 11.6066 11.0071 11.6066 15.1048C11.6066 16.6901 10.2429 17.5276 8.21253 17.5276C5.97 17.5276 4.54568 16.1816 4.36386 14.0579H0C0.181827 18.5146 3.39411 21.4159 8.21253 21.4159Z" fill="#063C4F"/>
<path d="M23.1368 21.1766H27.5613L31.7736 7.23834L35.9859 21.1766H40.471L46.7441 0.239283H42.1378L38.0467 14.5664L33.6828 0.239283H29.8341L25.5006 14.5664L21.4398 0.239283H16.8335L23.1368 21.1766Z" fill="#063C4F"/>
<path d="M49.1556 21.1766H53.7316V0.239283H49.1556V21.1766Z" fill="#063C4F"/>
<path d="M92.9457 21.4159C98.3702 21.4159 102.28 18.395 102.673 13.9084H98.1278C97.7642 16.0619 95.6731 17.5276 92.9457 17.5276C89.5213 17.5276 86.8848 15.1945 86.8848 10.708C86.8848 6.22139 89.5213 3.85846 92.9457 3.85846C95.6125 3.85846 97.7035 5.32407 98.0066 7.50754H102.764C102.189 2.99105 98.2793 0 92.9457 0C87.2788 0 82.3088 3.64908 82.3088 10.708C82.3088 17.7668 87.1879 21.4159 92.9457 21.4159Z" fill="#063C4F"/>
<path d="M118.747 0.239283V8.55441H110.019V0.239283H105.474V21.1766H110.019V12.4129H118.747V21.1766H123.323V0.239283H118.747Z" fill="#063C4F"/>
<path d="M127.225 21.1766H141.984V17.2883H131.771V12.4129H139.65V8.5245H131.771V4.09774H141.65V0.239283H127.225V21.1766Z" fill="#063C4F"/>
<path d="M154.181 21.4159C160.394 21.4159 165 16.8695 165 10.708C165 4.5464 160.394 0 154.181 0C147.939 0 143.332 4.5464 143.332 10.708C143.332 16.8695 147.939 21.4159 154.181 21.4159ZM154.151 17.5276C150.514 17.5276 147.908 14.6262 147.908 10.708C147.908 6.78969 150.514 3.85846 154.151 3.85846C157.788 3.85846 160.424 6.78969 160.424 10.708C160.424 14.6262 157.788 17.5276 154.151 17.5276Z" fill="#063C4F"/>
</svg>
