<svg width="171" height="24" viewBox="0 0 171 24" fill="none" xmlns="http://www.w3.org/2000/svg">
<path fill-rule="evenodd" clip-rule="evenodd" d="M95.9024 0C101.019 0 105.118 2.648 106.068 7.52467L101.052 8.07467C100.611 5.71733 98.4761 4.13333 95.8662 4.13333C91.6655 4.13333 89.5273 7.2 89.5273 11.9813C89.5273 16.826 91.6628 19.8953 95.7981 19.8953C98.7467 19.8953 100.643 18.054 101.251 14.856L106.198 15.5667C105.118 20.9333 101.151 24 95.8342 24C88.6841 24 84.3477 18.9607 84.3477 12.1453C84.3464 5.23267 88.5812 0 95.9024 0ZM159.14 0C166.73 0 171 5.232 171 12.0793C171 16.0847 168.832 23.998 159.175 23.998C152.363 23.998 147.315 19.6367 147.315 12.1113C147.313 5.556 151.347 0 159.14 0ZM9.7586 0C15.3158 0 19.2132 2.422 19.2793 7.20333L14.2654 7.33333C13.9607 4.78133 12.269 3.876 9.65703 3.876C7.72536 3.876 5.7596 4.61867 5.7596 6.33333C5.7596 7.20533 6.13312 7.754 7.45408 8.238C9.35236 8.94933 14.5701 10.0147 16.7383 11.1773C18.704 12.2113 20.0257 13.9873 20.0257 16.7647C20.0257 21.7047 15.7902 24 10.1648 24C4.40456 24 0.272644 21.3827 0 15.9553L4.94644 15.7293C5.15092 18.796 7.25096 20.058 10.2664 20.058C12.4694 20.058 15.0111 19.1533 15.0111 17.0533C15.0111 15.6973 14.0275 14.92 12.0277 14.3727C9.7586 13.7587 4.7774 12.5967 3.08292 11.2393C1.62632 10.0767 0.846558 8.688 0.846558 6.654C0.846558 2.58467 4.744 0 9.7586 0ZM24.4623 0.452667L28.2234 16.44H28.2575L32.5611 0.452667H37.982L42.1834 16.6667H42.2168L46.0468 0.452667H51.1289L44.9262 23.5467H39.6778L36.0503 10.1747L35.2037 6.84733H35.1356L34.3224 10.1747L30.7644 23.5467H25.4111L19.312 0.452667H24.4623ZM57.6893 0.452667V23.5467H52.5725V0.452667H57.6893ZM82.9034 0.452667V23.5467H78.2848V8.51067L62.9534 23.5107L59.3354 19.9713L74.6668 4.97133H59.3V0.452667H82.9034ZM112.545 0.452667V9.43067H122.236V0.453333H127.352V23.5467H122.236V13.5013H112.545V23.5467H107.428V0.453333L112.545 0.452667ZM146.857 0.452667V4.51933H133.878V9.558H145.875V13.4993H133.878V19.4733H147.195V23.5467H128.791V0.453333L146.857 0.452667ZM159.173 4.102C154.769 4.102 152.498 7.364 152.498 12.0473C152.498 14.7927 153.582 19.896 159.173 19.896C163.51 19.896 165.782 16.6007 165.782 12.014C165.782 7.36467 163.579 4.102 159.173 4.102Z" fill="white"/>
</svg>
