<svg width="73" height="56" viewBox="0 0 73 56" fill="none" xmlns="http://www.w3.org/2000/svg">
<path d="M44.5226 14.8086H27.5V18.051H38.5834L27.5312 28.8694L30.1345 31.4259L41.1867 20.6075V31.4571H44.5226V14.8086Z" fill="#C6E579"/>
<path fill-rule="evenodd" clip-rule="evenodd" d="M12.4766 9.19904C6.50543 12.9384 3.1177 17.9056 3.1177 23.1334C3.1177 28.3611 6.50543 33.3283 12.4766 37.0676C18.4261 40.7935 26.7421 43.149 36.0094 43.149C45.2767 43.149 53.5927 40.7935 59.5423 37.0676C65.5134 33.3283 68.9011 28.3611 68.9011 23.1334C68.9011 17.9056 65.5134 12.9384 59.5423 9.19904C53.5927 5.47316 45.2767 3.1177 36.0094 3.1177C26.7421 3.1177 18.4261 5.47316 12.4766 9.19904ZM10.8218 6.55672C17.3409 2.47416 26.2502 0 36.0094 0C45.7687 0 54.6779 2.47416 61.197 6.55672C67.6945 10.6258 72.0188 16.4458 72.0188 23.1334C72.0188 29.8209 67.6945 35.6409 61.197 39.71C54.6779 43.7925 45.7687 46.2667 36.0094 46.2667C26.2502 46.2667 17.3409 43.7925 10.8218 39.71C4.32429 35.6409 0 29.8209 0 23.1334C0 16.4458 4.32428 10.6258 10.8218 6.55672Z" fill="#193B4D"/>
<path fill-rule="evenodd" clip-rule="evenodd" d="M10.8193 6.55293C17.3378 2.47149 26.247 0 36.0094 0C45.7717 0 54.6817 2.47147 61.201 6.56359C67.7009 10.6436 72.0188 16.4838 72.0188 23.2113V32.6579C72.0188 39.3428 67.696 45.159 61.1992 49.2248C54.6809 53.3041 45.7718 55.7756 36.0094 55.7756C26.247 55.7756 17.3379 53.3041 10.8196 49.2248C4.32278 45.159 0 39.3428 0 32.6579V23.1333C0 16.4413 4.32196 10.6211 10.8193 6.55293ZM12.4738 9.19538C6.50425 12.9331 3.1177 17.9002 3.1177 23.1333V32.6579C3.1177 37.8826 6.50343 42.8458 12.4735 46.582C18.4221 50.3048 26.7382 52.6579 36.0094 52.6579C45.2806 52.6579 53.5967 50.3048 59.5453 46.582C65.5154 42.8458 68.9011 37.8826 68.9011 32.6579V23.2113C68.9011 17.9356 65.5105 12.9496 59.5435 9.20418C53.5959 5.47087 45.2807 3.1177 36.0094 3.1177C26.7382 3.1177 18.4222 5.47086 12.4738 9.19538Z" fill="#193B4D"/>
<path fill-rule="evenodd" clip-rule="evenodd" d="M10.1641 48.6219V38.5361H13.2818V48.6219H10.1641Z" fill="#193B4D"/>
<path fill-rule="evenodd" clip-rule="evenodd" d="M58.6875 48.6219V38.5361H61.8052V48.6219H58.6875Z" fill="#193B4D"/>
<path fill-rule="evenodd" clip-rule="evenodd" d="M26.3438 54.0135V43.9277H29.4614V54.0135H26.3438Z" fill="#193B4D"/>
<path fill-rule="evenodd" clip-rule="evenodd" d="M42.5195 54.0135V43.9277H45.6372V54.0135H42.5195Z" fill="#193B4D"/>
</svg>
