<svg viewBox="0 0 35 27" fill="none" xmlns="http://www.w3.org/2000/svg">
<path fill-rule="evenodd" clip-rule="evenodd" d="M24.145 0C22.2128 0 20.3596 0.729393 18.9933 2.02772C17.627 3.32605 16.8594 5.08696 16.8594 6.92308C16.8589 7.38775 16.9053 7.85141 16.9978 8.30769C14.2435 8.1489 11.5532 7.45215 9.09504 6.26098C6.63683 5.06981 4.46349 3.40979 2.71076 1.38462C2.69433 1.36303 2.67223 1.34591 2.64666 1.33498C2.62109 1.32404 2.59295 1.31968 2.56505 1.32231C2.53676 1.32493 2.5095 1.33381 2.48546 1.34823C2.46143 1.36266 2.44128 1.38223 2.42663 1.40538C1.58364 2.82998 1.29823 4.49204 1.62091 6.09739C1.94359 7.70273 2.85355 9.14784 4.18974 10.1769C3.2976 10.0762 2.43428 9.81293 1.64707 9.40154C1.62137 9.38821 1.59256 9.38122 1.56328 9.38122C1.534 9.38122 1.50519 9.38821 1.4795 9.40154C1.45374 9.41565 1.43219 9.43577 1.41689 9.46C1.40159 9.48422 1.39305 9.51176 1.39207 9.54V9.63C1.39507 11.1009 1.89102 12.5327 2.80801 13.7177C3.72499 14.9028 5.01535 15.7795 6.49199 16.2208C5.68957 16.3407 4.87143 16.329 4.07317 16.1861C4.04435 16.1793 4.01411 16.1802 3.9858 16.1888C3.9575 16.1974 3.93226 16.2132 3.91289 16.2346C3.89743 16.2586 3.88925 16.2861 3.88925 16.3142C3.88925 16.3423 3.89743 16.3699 3.91289 16.3938C4.35222 17.6877 5.18275 18.8301 6.30088 19.6783C7.41901 20.5266 8.77524 21.0433 10.2004 21.1638C7.78346 22.8472 4.86223 23.7498 1.86563 23.7392C1.30812 23.7405 0.751012 23.7104 0.19723 23.6492C0.157936 23.6435 0.117759 23.6507 0.0833244 23.6695C0.0488895 23.6884 0.0222523 23.7179 0.00780451 23.7531C-0.0034876 23.7885 -0.00250381 23.8265 0.0106111 23.8614C0.0237261 23.8963 0.0482799 23.9263 0.0806606 23.9469C3.35689 25.9435 7.16797 27.0033 11.0601 27C23.8245 27 31.4598 17.1761 31.4598 7.67769C31.4598 7.41461 31.4598 7.15154 31.4598 6.88846C32.8338 5.93804 34.0223 4.76654 34.9714 3.42692C34.9922 3.39681 35.0021 3.36112 34.9996 3.3252C34.9972 3.28929 34.9825 3.2551 34.9579 3.22778C34.9333 3.20045 34.8999 3.18147 34.863 3.17369C34.826 3.1659 34.7873 3.16974 34.7529 3.18461C33.7056 3.62703 32.6042 3.94332 31.4743 4.12615C32.6744 3.26108 33.5586 2.06008 34.0024 0.692308C34.0149 0.661018 34.0167 0.626786 34.0076 0.594475C33.9984 0.562163 33.9788 0.533413 33.9514 0.512307C33.9224 0.493556 33.8882 0.483529 33.8531 0.483529C33.818 0.483529 33.7837 0.493556 33.7547 0.512307C32.4017 1.27329 30.9241 1.81383 29.3834 2.11154C28.7027 1.44521 27.8885 0.915099 26.9889 0.552455C26.0892 0.18981 25.1223 0.00196793 24.145 0Z" fill="#26AECC"/>
</svg>
