<svg width="80" height="67" viewBox="0 0 80 67" fill="none" xmlns="http://www.w3.org/2000/svg">
<path d="M72.8778 24.9709H57.2891V27.9573H67.4339L57.3034 37.8735L59.7038 40.2168L69.8344 30.3006V40.2311H72.8778V24.9709Z" fill="#E2FCA4"/>
<path d="M39.9974 66.565H38.8115C32.8839 66.3617 27.1183 64.5786 22.1108 61.4001C17.1034 58.2217 13.036 53.7632 10.3292 48.4858C7.62251 43.2084 6.37475 37.3037 6.71499 31.3825C7.05523 25.4612 8.97112 19.7383 12.2645 14.8057C15.5579 9.87305 20.1093 5.9098 25.4478 3.3258C30.7864 0.741788 36.7183 -0.369165 42.6301 0.107869C48.542 0.584903 54.219 2.63257 59.0742 6.03912C63.9294 9.44568 67.7864 14.0874 70.2463 19.4843L67.6457 20.6703C64.6775 14.2039 59.5375 8.98177 53.1189 5.91149C46.7004 2.84122 39.4089 2.11684 32.5117 3.86419C25.6145 5.61154 19.5475 9.72018 15.365 15.4761C11.1825 21.2321 9.14885 28.2715 9.61748 35.3712C10.0861 42.4709 13.0274 49.1819 17.9302 54.3382C22.833 59.4945 29.3874 62.77 36.4544 63.5957C43.5215 64.4213 50.6544 62.7448 56.6137 58.8575C62.5731 54.9702 66.9821 49.1178 69.0746 42.3174L71.8037 43.1604C69.6856 49.9402 65.4581 55.8667 59.7371 60.0765C54.0161 64.2863 47.1004 66.5595 39.9974 66.565Z" fill="#F4F9FD"/>
<path d="M68.2629 21.9842C68.0772 21.5413 67.8914 21.0984 67.6914 20.6554L70.2919 19.4695C70.5063 19.9553 70.7206 20.4268 70.9063 20.8983L68.2629 21.9842Z" fill="#F4F9FD"/>
<path d="M75.7045 20.999L73.2469 19.5702C74.8155 17.0924 75.9825 14.3823 76.7047 11.54C77.1048 9.69681 77.2906 7.12488 75.8474 5.38168C74.2328 3.39558 71.0036 2.76689 66.2741 3.46702C63.024 4.03178 59.8434 4.94186 56.7865 6.18184L55.9149 6.62478L54.6289 4.06716L55.6291 3.56705C58.91 2.24391 62.3265 1.28558 65.8168 0.70935C71.6466 -0.176539 75.8188 0.809369 78.0621 3.56705C79.7625 5.65318 80.2626 8.62519 79.491 12.1402C78.7109 15.2767 77.4325 18.2677 75.7045 20.999Z" fill="#F4F9FD"/>
<path d="M10.2367 66.2502H9.97948C7.42183 66.2502 3.92116 65.6358 1.77788 63.0067C-0.122497 60.6777 -0.508286 57.2913 0.663373 53.1762C2.11409 48.815 4.28766 44.7287 7.09321 41.0881L7.92193 40.0308L10.1795 41.774L9.37938 42.8027C6.78351 46.1656 4.76511 49.9369 3.40679 53.9621C2.77809 56.1625 2.36369 59.2203 3.99258 61.2064C5.42143 62.9639 8.06484 63.3639 10.0081 63.3925C13.6873 63.2922 17.3238 62.5774 20.7673 61.2778C21.2389 61.1206 21.739 60.9206 22.1962 60.7063L24.6538 59.749L24.8824 59.8775L30.1263 57.2199C36.9135 53.7097 43.3572 49.5718 49.373 44.8603C50.7018 43.8172 52.0021 42.7741 53.2737 41.7168L55.1027 43.9029C53.8167 44.9889 52.4879 46.0605 51.1305 47.1179C44.9719 51.9463 38.3696 56.1804 31.4123 59.7632L24.8967 63.0639L24.5109 62.8781L23.3107 63.3496C22.682 63.5926 22.1533 63.8069 21.6389 63.9783C17.9866 65.3493 14.1355 66.1166 10.2367 66.2502Z" fill="#F4F9FD"/>
<path d="M39.8854 66.6358C34.7304 66.6375 29.6465 65.4338 25.0396 63.1209L24.7109 62.9494L25.9826 60.3918L26.3255 60.5632C31.9369 63.3741 38.2829 64.3727 44.4863 63.4209C49.7462 62.6067 54.7035 60.4367 58.87 57.1246C63.0365 53.8124 66.2685 49.4723 68.2481 44.5315L70.9058 45.5889C68.4262 51.7912 64.1465 57.1092 58.6179 60.8577C53.0893 64.6063 46.565 66.6138 39.8854 66.6216V66.6358Z" fill="#F4F9FD"/>
<path d="M22.8121 62.3352L18.9399 59.1917C14.9129 55.9267 11.6952 51.775 9.53802 47.0608L7.48047 42.517L10.081 41.3311L12.1385 45.8748C14.1059 50.1806 17.0396 53.9749 20.7117 56.9627L24.5838 60.1062L22.8121 62.3352Z" fill="#F4F9FD"/>
</svg>
